{
	"asset":{
		"generator":"Khronos glTF Blender I/O v5.1.8",
		"version":"2.0"
	},
	"scene":0,
	"scenes":[
		{
			"name":"fence",
			"nodes":[
				0
			]
		}
	],
	"nodes":[
		{
			"mesh":0,
			"name":"Cube.020",
			"rotation":[
				0,
				-0.7071068286895752,
				0,
				0.7071068286895752
			]
		}
	],
	"materials":[
		{
			"alphaMode":"BLEND",
			"doubleSided":true,
			"name":"fence_entrance.001",
			"pbrMetallicRoughness":{
				"baseColorTexture":{
					"index":0
				},
				"metallicFactor":0,
				"roughnessFactor":0.5
			}
		}
	],
	"meshes":[
		{
			"name":"Cube.016",
			"primitives":[
				{
					"attributes":{
						"POSITION":0,
						"NORMAL":1,
						"TEXCOORD_0":2
					},
					"indices":3,
					"material":0
				}
			]
		}
	],
	"textures":[
		{
			"sampler":0,
			"source":0
		}
	],
	"images":[
		{
			"mimeType":"image/png",
			"name":"fence",
			"uri":"fence.png"
		}
	],
	"accessors":[
		{
			"bufferView":0,
			"componentType":5126,
			"count":45,
			"max":[
				3.535879135131836,
				2.9692306518554688,
				0.03793812543153763
			],
			"min":[
				-20.887306213378906,
				0,
				-0.03793754056096077
			],
			"type":"VEC3"
		},
		{
			"bufferView":1,
			"componentType":5126,
			"count":45,
			"type":"VEC3"
		},
		{
			"bufferView":2,
			"componentType":5126,
			"count":45,
			"type":"VEC2"
		},
		{
			"bufferView":3,
			"componentType":5123,
			"count":78,
			"type":"SCALAR"
		}
	],
	"bufferViews":[
		{
			"buffer":0,
			"byteLength":540,
			"byteOffset":0,
			"target":34962
		},
		{
			"buffer":0,
			"byteLength":540,
			"byteOffset":540,
			"target":34962
		},
		{
			"buffer":0,
			"byteLength":360,
			"byteOffset":1080,
			"target":34962
		},
		{
			"buffer":0,
			"byteLength":156,
			"byteOffset":1440,
			"target":34963
		}
	],
	"samplers":[
		{
			"magFilter":9729,
			"minFilter":9987
		}
	],
	"buffers":[
		{
			"byteLength":1596,
			"uri":"fence.bin"
		}
	]
}
