{
	"asset":{
		"generator":"Khronos glTF Blender I/O v5.1.8",
		"version":"2.0"
	},
	"scene":0,
	"scenes":[
		{
			"name":"street_lamp",
			"nodes":[
				0
			]
		}
	],
	"nodes":[
		{
			"mesh":0,
			"name":"Cylinder.004",
			"rotation":[
				0,
				0.10308735817670822,
				0,
				0.9946722984313965
			]
		}
	],
	"materials":[
		{
			"doubleSided":true,
			"name":"vertex_colors",
			"pbrMetallicRoughness":{
				"metallicFactor":0
			}
		}
	],
	"meshes":[
		{
			"name":"Cylinder.001",
			"primitives":[
				{
					"attributes":{
						"POSITION":0,
						"NORMAL":1,
						"TEXCOORD_0":2,
						"COLOR_0":3
					},
					"indices":4,
					"material":0
				}
			]
		}
	],
	"accessors":[
		{
			"bufferView":0,
			"componentType":5126,
			"count":310,
			"max":[
				0.7516136169433594,
				6.2417311668396,
				0.2524057626724243
			],
			"min":[
				-0.11785104870796204,
				0,
				-0.2524057626724243
			],
			"type":"VEC3"
		},
		{
			"bufferView":1,
			"componentType":5126,
			"count":310,
			"type":"VEC3"
		},
		{
			"bufferView":2,
			"componentType":5126,
			"count":310,
			"type":"VEC2"
		},
		{
			"bufferView":3,
			"componentType":5126,
			"count":310,
			"type":"VEC3"
		},
		{
			"bufferView":4,
			"componentType":5123,
			"count":984,
			"type":"SCALAR"
		}
	],
	"bufferViews":[
		{
			"buffer":0,
			"byteLength":3720,
			"byteOffset":0,
			"target":34962
		},
		{
			"buffer":0,
			"byteLength":3720,
			"byteOffset":3720,
			"target":34962
		},
		{
			"buffer":0,
			"byteLength":2480,
			"byteOffset":7440,
			"target":34962
		},
		{
			"buffer":0,
			"byteLength":3720,
			"byteOffset":9920,
			"target":34962
		},
		{
			"buffer":0,
			"byteLength":1968,
			"byteOffset":13640,
			"target":34963
		}
	],
	"buffers":[
		{
			"byteLength":15608,
			"uri":"stree_lamp.bin"
		}
	]
}
