{
	"asset":{
		"generator":"Khronos glTF Blender I/O v5.0.21",
		"version":"2.0"
	},
	"scene":0,
	"scenes":[
		{
			"name":"door_closed",
			"nodes":[
				0,
				1,
				2
			]
		}
	],
	"nodes":[
		{
			"mesh":0,
			"name":"Cube.001",
			"translation":[
				0,
				0,
				-0.37955108284950256
			]
		},
		{
			"mesh":1,
			"name":"Plane",
			"rotation":[
				0.7071068286895752,
				0,
				0,
				0.7071068286895752
			],
			"translation":[
				0,
				0.4463002383708954,
				-0.37955108284950256
			]
		},
		{
			"mesh":2,
			"name":"Cube.003",
			"translation":[
				0.4653763771057129,
				1.0216865539550781,
				-0.3911961019039154
			]
		}
	],
	"materials":[
		{
			"doubleSided":true,
			"name":"Material",
			"pbrMetallicRoughness":{
				"metallicFactor":0,
				"roughnessFactor":0.5
			}
		}
	],
	"meshes":[
		{
			"name":"Cube.001",
			"primitives":[
				{
					"attributes":{
						"POSITION":0,
						"NORMAL":1,
						"TEXCOORD_0":2,
						"COLOR_0":3
					},
					"indices":4,
					"material":0
				}
			]
		},
		{
			"name":"Plane",
			"primitives":[
				{
					"attributes":{
						"POSITION":5,
						"NORMAL":6,
						"TEXCOORD_0":7,
						"COLOR_0":8
					},
					"indices":9,
					"material":0
				}
			]
		},
		{
			"name":"Cube.003",
			"primitives":[
				{
					"attributes":{
						"POSITION":10,
						"NORMAL":11,
						"TEXCOORD_0":12,
						"COLOR_0":13
					},
					"indices":14,
					"material":0
				}
			]
		}
	],
	"accessors":[
		{
			"bufferView":0,
			"componentType":5126,
			"count":150,
			"max":[
				0.7225181460380554,
				2.4553074836730957,
				0.11355258524417877
			],
			"min":[
				-0.7225181460380554,
				0,
				-0.11355266720056534
			],
			"type":"VEC3"
		},
		{
			"bufferView":1,
			"componentType":5126,
			"count":150,
			"type":"VEC3"
		},
		{
			"bufferView":2,
			"componentType":5126,
			"count":150,
			"type":"VEC2"
		},
		{
			"bufferView":3,
			"componentType":5126,
			"count":150,
			"type":"VEC3"
		},
		{
			"bufferView":4,
			"componentType":5123,
			"count":672,
			"type":"SCALAR"
		},
		{
			"bufferView":5,
			"componentType":5126,
			"count":377,
			"max":[
				0.5816220641136169,
				-6.3237450831366004e-09,
				0.4369516372680664
			],
			"min":[
				-0.5816220641136169,
				-0.04120151698589325,
				-1.9030956029891968
			],
			"type":"VEC3"
		},
		{
			"bufferView":6,
			"componentType":5126,
			"count":377,
			"type":"VEC3"
		},
		{
			"bufferView":7,
			"componentType":5126,
			"count":377,
			"type":"VEC2"
		},
		{
			"bufferView":8,
			"componentType":5126,
			"count":377,
			"type":"VEC3"
		},
		{
			"bufferView":9,
			"componentType":5123,
			"count":954,
			"type":"SCALAR"
		},
		{
			"bufferView":10,
			"componentType":5126,
			"count":100,
			"max":[
				0.05299931392073631,
				0.149037167429924,
				0.17302176356315613
			],
			"min":[
				-0.25682270526885986,
				-0.149037167429924,
				-0.04299958050251007
			],
			"type":"VEC3"
		},
		{
			"bufferView":11,
			"componentType":5126,
			"count":100,
			"type":"VEC3"
		},
		{
			"bufferView":12,
			"componentType":5126,
			"count":100,
			"type":"VEC2"
		},
		{
			"bufferView":13,
			"componentType":5126,
			"count":100,
			"type":"VEC3"
		},
		{
			"bufferView":14,
			"componentType":5123,
			"count":372,
			"type":"SCALAR"
		}
	],
	"bufferViews":[
		{
			"buffer":0,
			"byteLength":1800,
			"byteOffset":0,
			"target":34962
		},
		{
			"buffer":0,
			"byteLength":1800,
			"byteOffset":1800,
			"target":34962
		},
		{
			"buffer":0,
			"byteLength":1200,
			"byteOffset":3600,
			"target":34962
		},
		{
			"buffer":0,
			"byteLength":1800,
			"byteOffset":4800,
			"target":34962
		},
		{
			"buffer":0,
			"byteLength":1344,
			"byteOffset":6600,
			"target":34963
		},
		{
			"buffer":0,
			"byteLength":4524,
			"byteOffset":7944,
			"target":34962
		},
		{
			"buffer":0,
			"byteLength":4524,
			"byteOffset":12468,
			"target":34962
		},
		{
			"buffer":0,
			"byteLength":3016,
			"byteOffset":16992,
			"target":34962
		},
		{
			"buffer":0,
			"byteLength":4524,
			"byteOffset":20008,
			"target":34962
		},
		{
			"buffer":0,
			"byteLength":1908,
			"byteOffset":24532,
			"target":34963
		},
		{
			"buffer":0,
			"byteLength":1200,
			"byteOffset":26440,
			"target":34962
		},
		{
			"buffer":0,
			"byteLength":1200,
			"byteOffset":27640,
			"target":34962
		},
		{
			"buffer":0,
			"byteLength":800,
			"byteOffset":28840,
			"target":34962
		},
		{
			"buffer":0,
			"byteLength":1200,
			"byteOffset":29640,
			"target":34962
		},
		{
			"buffer":0,
			"byteLength":744,
			"byteOffset":30840,
			"target":34963
		}
	],
	"buffers":[
		{
			"byteLength":31584,
			"uri":"door_closed.bin"
		}
	]
}
