{
	"asset":{
		"generator":"Khronos glTF Blender I/O v5.2.5",
		"version":"2.0"
	},
	"scene":0,
	"scenes":[
		{
			"name":"lightchain1",
			"nodes":[
				0,
				1,
				2
			]
		}
	],
	"nodes":[
		{
			"name":"B\u00e9zierCurve_base"
		},
		{
			"mesh":0,
			"name":"Cube"
		},
		{
			"mesh":1,
			"name":"Cylinder.004",
			"translation":[
				0,
				-1.0722687244415283,
				0
			]
		}
	],
	"materials":[
		{
			"doubleSided":true,
			"name":"vertex color",
			"pbrMetallicRoughness":{
				"metallicFactor":0,
				"roughnessFactor":0.5
			}
		},
		{
			"doubleSided":true,
			"emissiveFactor":[
				1,
				1,
				1
			],
			"name":"light",
			"pbrMetallicRoughness":{
				"baseColorFactor":[
					0,
					0,
					0,
					1
				]
			}
		}
	],
	"meshes":[
		{
			"name":"Cube",
			"primitives":[
				{
					"attributes":{
						"POSITION":0,
						"NORMAL":1,
						"COLOR_0":2
					},
					"indices":3,
					"material":0
				}
			]
		},
		{
			"name":"Cylinder.004",
			"primitives":[
				{
					"attributes":{
						"POSITION":4,
						"NORMAL":5,
						"TEXCOORD_0":6,
						"COLOR_0":7
					},
					"indices":8,
					"material":0
				},
				{
					"attributes":{
						"POSITION":9,
						"NORMAL":10,
						"TEXCOORD_0":11,
						"COLOR_0":12
					},
					"indices":13,
					"material":1
				}
			]
		}
	],
	"accessors":[
		{
			"bufferView":0,
			"componentType":5126,
			"count":312,
			"max":[
				1.797400951385498,
				3.716731309890747,
				0.030010007321834564
			],
			"min":[
				-1.8965308666229248,
				0.9958487749099731,
				-0.18923136591911316
			],
			"type":"VEC3"
		},
		{
			"bufferView":1,
			"componentType":5126,
			"count":312,
			"type":"VEC3"
		},
		{
			"bufferView":2,
			"componentType":5126,
			"count":312,
			"type":"VEC3"
		},
		{
			"bufferView":3,
			"componentType":5123,
			"count":1764,
			"type":"SCALAR"
		},
		{
			"bufferView":4,
			"componentType":5126,
			"count":516,
			"max":[
				1.7640854120254517,
				3.6671571731567383,
				0.07713153213262558
			],
			"min":[
				-1.835404872894287,
				2.033205986022949,
				-0.13213509321212769
			],
			"type":"VEC3"
		},
		{
			"bufferView":5,
			"componentType":5126,
			"count":516,
			"type":"VEC3"
		},
		{
			"bufferView":6,
			"componentType":5126,
			"count":516,
			"type":"VEC2"
		},
		{
			"bufferView":7,
			"componentType":5126,
			"count":516,
			"type":"VEC3"
		},
		{
			"bufferView":8,
			"componentType":5123,
			"count":1944,
			"type":"SCALAR"
		},
		{
			"bufferView":9,
			"componentType":5126,
			"count":732,
			"max":[
				1.735188603401184,
				3.6982569694519043,
				0.14177356660366058
			],
			"min":[
				-1.917151689529419,
				1.927316427230835,
				-0.18170461058616638
			],
			"type":"VEC3"
		},
		{
			"bufferView":10,
			"componentType":5126,
			"count":732,
			"type":"VEC3"
		},
		{
			"bufferView":11,
			"componentType":5126,
			"count":732,
			"type":"VEC2"
		},
		{
			"bufferView":12,
			"componentType":5126,
			"count":732,
			"type":"VEC3"
		},
		{
			"bufferView":13,
			"componentType":5123,
			"count":2880,
			"type":"SCALAR"
		}
	],
	"bufferViews":[
		{
			"buffer":0,
			"byteLength":3744,
			"byteOffset":0,
			"target":34962
		},
		{
			"buffer":0,
			"byteLength":3744,
			"byteOffset":3744,
			"target":34962
		},
		{
			"buffer":0,
			"byteLength":3744,
			"byteOffset":7488,
			"target":34962
		},
		{
			"buffer":0,
			"byteLength":3528,
			"byteOffset":11232,
			"target":34963
		},
		{
			"buffer":0,
			"byteLength":6192,
			"byteOffset":14760,
			"target":34962
		},
		{
			"buffer":0,
			"byteLength":6192,
			"byteOffset":20952,
			"target":34962
		},
		{
			"buffer":0,
			"byteLength":4128,
			"byteOffset":27144,
			"target":34962
		},
		{
			"buffer":0,
			"byteLength":6192,
			"byteOffset":31272,
			"target":34962
		},
		{
			"buffer":0,
			"byteLength":3888,
			"byteOffset":37464,
			"target":34963
		},
		{
			"buffer":0,
			"byteLength":8784,
			"byteOffset":41352,
			"target":34962
		},
		{
			"buffer":0,
			"byteLength":8784,
			"byteOffset":50136,
			"target":34962
		},
		{
			"buffer":0,
			"byteLength":5856,
			"byteOffset":58920,
			"target":34962
		},
		{
			"buffer":0,
			"byteLength":8784,
			"byteOffset":64776,
			"target":34962
		},
		{
			"buffer":0,
			"byteLength":5760,
			"byteOffset":73560,
			"target":34963
		}
	],
	"buffers":[
		{
			"byteLength":79320,
			"uri":"lightchain1.bin"
		}
	]
}
