{
	"asset":{
		"generator":"Khronos glTF Blender I/O v5.2.5",
		"version":"2.0"
	},
	"scene":0,
	"scenes":[
		{
			"name":"lightchain2",
			"nodes":[
				0,
				1,
				2
			]
		}
	],
	"nodes":[
		{
			"name":"B\u00e9zierCurve_base.001"
		},
		{
			"mesh":0,
			"name":"tube.001"
		},
		{
			"mesh":1,
			"name":"Cylinder.001",
			"translation":[
				0,
				-1.0722687244415283,
				0
			]
		}
	],
	"materials":[
		{
			"doubleSided":true,
			"name":"vertex color",
			"pbrMetallicRoughness":{
				"metallicFactor":0,
				"roughnessFactor":0.5
			}
		},
		{
			"doubleSided":true,
			"emissiveFactor":[
				1,
				1,
				1
			],
			"name":"light",
			"pbrMetallicRoughness":{
				"baseColorFactor":[
					0,
					0,
					0,
					1
				]
			}
		}
	],
	"meshes":[
		{
			"name":"Cube.001",
			"primitives":[
				{
					"attributes":{
						"POSITION":0,
						"NORMAL":1,
						"COLOR_0":2
					},
					"indices":3,
					"material":0
				}
			]
		},
		{
			"name":"Cylinder.008",
			"primitives":[
				{
					"attributes":{
						"POSITION":4,
						"NORMAL":5,
						"TEXCOORD_0":6,
						"COLOR_0":7
					},
					"indices":8,
					"material":0
				},
				{
					"attributes":{
						"POSITION":9,
						"NORMAL":10,
						"TEXCOORD_0":11,
						"COLOR_0":12
					},
					"indices":13,
					"material":1
				}
			]
		}
	],
	"accessors":[
		{
			"bufferView":0,
			"componentType":5126,
			"count":408,
			"max":[
				0.20493748784065247,
				4.268772602081299,
				0.48821723461151123
			],
			"min":[
				-0.4387091398239136,
				-0.2983911335468292,
				-0.13951490819454193
			],
			"type":"VEC3"
		},
		{
			"bufferView":1,
			"componentType":5126,
			"count":408,
			"type":"VEC3"
		},
		{
			"bufferView":2,
			"componentType":5126,
			"count":408,
			"type":"VEC3"
		},
		{
			"bufferView":3,
			"componentType":5123,
			"count":2340,
			"type":"SCALAR"
		},
		{
			"bufferView":4,
			"componentType":5126,
			"count":516,
			"max":[
				0.26486796140670776,
				4.439645290374756,
				0.582482635974884
			],
			"min":[
				-0.48563385009765625,
				0.7217336893081665,
				-0.15740549564361572
			],
			"type":"VEC3"
		},
		{
			"bufferView":5,
			"componentType":5126,
			"count":516,
			"type":"VEC3"
		},
		{
			"bufferView":6,
			"componentType":5126,
			"count":516,
			"type":"VEC2"
		},
		{
			"bufferView":7,
			"componentType":5126,
			"count":516,
			"type":"VEC3"
		},
		{
			"bufferView":8,
			"componentType":5123,
			"count":1944,
			"type":"SCALAR"
		},
		{
			"bufferView":9,
			"componentType":5126,
			"count":732,
			"max":[
				0.3847630023956299,
				4.44989013671875,
				0.6781936287879944
			],
			"min":[
				-0.5720455050468445,
				0.7367625832557678,
				-0.25346553325653076
			],
			"type":"VEC3"
		},
		{
			"bufferView":10,
			"componentType":5126,
			"count":732,
			"type":"VEC3"
		},
		{
			"bufferView":11,
			"componentType":5126,
			"count":732,
			"type":"VEC2"
		},
		{
			"bufferView":12,
			"componentType":5126,
			"count":732,
			"type":"VEC3"
		},
		{
			"bufferView":13,
			"componentType":5123,
			"count":2880,
			"type":"SCALAR"
		}
	],
	"bufferViews":[
		{
			"buffer":0,
			"byteLength":4896,
			"byteOffset":0,
			"target":34962
		},
		{
			"buffer":0,
			"byteLength":4896,
			"byteOffset":4896,
			"target":34962
		},
		{
			"buffer":0,
			"byteLength":4896,
			"byteOffset":9792,
			"target":34962
		},
		{
			"buffer":0,
			"byteLength":4680,
			"byteOffset":14688,
			"target":34963
		},
		{
			"buffer":0,
			"byteLength":6192,
			"byteOffset":19368,
			"target":34962
		},
		{
			"buffer":0,
			"byteLength":6192,
			"byteOffset":25560,
			"target":34962
		},
		{
			"buffer":0,
			"byteLength":4128,
			"byteOffset":31752,
			"target":34962
		},
		{
			"buffer":0,
			"byteLength":6192,
			"byteOffset":35880,
			"target":34962
		},
		{
			"buffer":0,
			"byteLength":3888,
			"byteOffset":42072,
			"target":34963
		},
		{
			"buffer":0,
			"byteLength":8784,
			"byteOffset":45960,
			"target":34962
		},
		{
			"buffer":0,
			"byteLength":8784,
			"byteOffset":54744,
			"target":34962
		},
		{
			"buffer":0,
			"byteLength":5856,
			"byteOffset":63528,
			"target":34962
		},
		{
			"buffer":0,
			"byteLength":8784,
			"byteOffset":69384,
			"target":34962
		},
		{
			"buffer":0,
			"byteLength":5760,
			"byteOffset":78168,
			"target":34963
		}
	],
	"buffers":[
		{
			"byteLength":83928,
			"uri":"lightchain2.bin"
		}
	]
}
