{
	"asset":{
		"generator":"Khronos glTF Blender I/O v5.2.5",
		"version":"2.0"
	},
	"scene":0,
	"scenes":[
		{
			"name":"lightchain3",
			"nodes":[
				0,
				1,
				2
			]
		}
	],
	"nodes":[
		{
			"name":"B\u00e9zierCurve_base.002"
		},
		{
			"mesh":0,
			"name":"tube.002"
		},
		{
			"mesh":1,
			"name":"Cylinder.002",
			"translation":[
				0,
				-1.0722687244415283,
				0
			]
		}
	],
	"materials":[
		{
			"doubleSided":true,
			"name":"vertex color",
			"pbrMetallicRoughness":{
				"metallicFactor":0,
				"roughnessFactor":0.5
			}
		},
		{
			"doubleSided":true,
			"emissiveFactor":[
				1,
				1,
				1
			],
			"name":"light",
			"pbrMetallicRoughness":{
				"baseColorFactor":[
					0,
					0,
					0,
					1
				]
			}
		}
	],
	"meshes":[
		{
			"name":"Cube.002",
			"primitives":[
				{
					"attributes":{
						"POSITION":0,
						"NORMAL":1,
						"COLOR_0":2
					},
					"indices":3,
					"material":0
				}
			]
		},
		{
			"name":"Cylinder.001",
			"primitives":[
				{
					"attributes":{
						"POSITION":4,
						"NORMAL":5,
						"TEXCOORD_0":6,
						"COLOR_0":7
					},
					"indices":8,
					"material":0
				},
				{
					"attributes":{
						"POSITION":9,
						"NORMAL":10,
						"TEXCOORD_0":11,
						"COLOR_0":12
					},
					"indices":13,
					"material":1
				}
			]
		}
	],
	"accessors":[
		{
			"bufferView":0,
			"componentType":5126,
			"count":504,
			"max":[
				3.368298053741455,
				0.01488290075212717,
				0.7159879207611084
			],
			"min":[
				-2.4100918769836426,
				-0.5054649114608765,
				-0.4398190379142761
			],
			"type":"VEC3"
		},
		{
			"bufferView":1,
			"componentType":5126,
			"count":504,
			"type":"VEC3"
		},
		{
			"bufferView":2,
			"componentType":5126,
			"count":504,
			"type":"VEC3"
		},
		{
			"bufferView":3,
			"componentType":5123,
			"count":2916,
			"type":"SCALAR"
		},
		{
			"bufferView":4,
			"componentType":5126,
			"count":516,
			"max":[
				2.8838443756103516,
				1.1562268733978271,
				0.22385859489440918
			],
			"min":[
				-1.9577823877334595,
				0.9937218427658081,
				-0.36160606145858765
			],
			"type":"VEC3"
		},
		{
			"bufferView":5,
			"componentType":5126,
			"count":516,
			"type":"VEC3"
		},
		{
			"bufferView":6,
			"componentType":5126,
			"count":516,
			"type":"VEC2"
		},
		{
			"bufferView":7,
			"componentType":5126,
			"count":516,
			"type":"VEC3"
		},
		{
			"bufferView":8,
			"componentType":5123,
			"count":1944,
			"type":"SCALAR"
		},
		{
			"bufferView":9,
			"componentType":5126,
			"count":732,
			"max":[
				2.891942262649536,
				1.2582159042358398,
				0.2482239007949829
			],
			"min":[
				-1.9417071342468262,
				1.0316189527511597,
				-0.40999048948287964
			],
			"type":"VEC3"
		},
		{
			"bufferView":10,
			"componentType":5126,
			"count":732,
			"type":"VEC3"
		},
		{
			"bufferView":11,
			"componentType":5126,
			"count":732,
			"type":"VEC2"
		},
		{
			"bufferView":12,
			"componentType":5126,
			"count":732,
			"type":"VEC3"
		},
		{
			"bufferView":13,
			"componentType":5123,
			"count":2880,
			"type":"SCALAR"
		}
	],
	"bufferViews":[
		{
			"buffer":0,
			"byteLength":6048,
			"byteOffset":0,
			"target":34962
		},
		{
			"buffer":0,
			"byteLength":6048,
			"byteOffset":6048,
			"target":34962
		},
		{
			"buffer":0,
			"byteLength":6048,
			"byteOffset":12096,
			"target":34962
		},
		{
			"buffer":0,
			"byteLength":5832,
			"byteOffset":18144,
			"target":34963
		},
		{
			"buffer":0,
			"byteLength":6192,
			"byteOffset":23976,
			"target":34962
		},
		{
			"buffer":0,
			"byteLength":6192,
			"byteOffset":30168,
			"target":34962
		},
		{
			"buffer":0,
			"byteLength":4128,
			"byteOffset":36360,
			"target":34962
		},
		{
			"buffer":0,
			"byteLength":6192,
			"byteOffset":40488,
			"target":34962
		},
		{
			"buffer":0,
			"byteLength":3888,
			"byteOffset":46680,
			"target":34963
		},
		{
			"buffer":0,
			"byteLength":8784,
			"byteOffset":50568,
			"target":34962
		},
		{
			"buffer":0,
			"byteLength":8784,
			"byteOffset":59352,
			"target":34962
		},
		{
			"buffer":0,
			"byteLength":5856,
			"byteOffset":68136,
			"target":34962
		},
		{
			"buffer":0,
			"byteLength":8784,
			"byteOffset":73992,
			"target":34962
		},
		{
			"buffer":0,
			"byteLength":5760,
			"byteOffset":82776,
			"target":34963
		}
	],
	"buffers":[
		{
			"byteLength":88536,
			"uri":"lightchain3.bin"
		}
	]
}
