{
	"asset":{
		"generator":"Khronos glTF Blender I/O v5.1.8",
		"version":"2.0"
	},
	"extensionsUsed":[
		"KHR_texture_transform"
	],
	"extensionsRequired":[
		"KHR_texture_transform"
	],
	"scene":0,
	"scenes":[
		{
			"name":"stair_wide",
			"nodes":[
				0
			]
		}
	],
	"nodes":[
		{
			"mesh":0,
			"name":"Cube.001",
			"rotation":[
				0,
				-0.7071067094802856,
				0,
				0.7071068286895752
			]
		}
	],
	"materials":[
		{
			"doubleSided":true,
			"name":"yellow wall",
			"pbrMetallicRoughness":{
				"baseColorTexture":{
					"extensions":{
						"KHR_texture_transform":{
							"offset":[
								0,
								-1.0099999904632568
							],
							"scale":[
								2.0099997520446777,
								2.009999990463257
							]
						}
					},
					"index":0
				},
				"metallicFactor":0,
				"roughnessFactor":0.5
			}
		},
		{
			"doubleSided":true,
			"name":"steps",
			"pbrMetallicRoughness":{
				"metallicFactor":0,
				"roughnessFactor":0.5
			}
		},
		{
			"doubleSided":true,
			"name":"floor",
			"pbrMetallicRoughness":{
				"metallicFactor":0,
				"roughnessFactor":0.5
			}
		}
	],
	"meshes":[
		{
			"name":"Cube.004",
			"primitives":[
				{
					"attributes":{
						"POSITION":0,
						"NORMAL":1,
						"TEXCOORD_0":2,
						"COLOR_0":3
					},
					"indices":4,
					"material":0
				},
				{
					"attributes":{
						"POSITION":5,
						"NORMAL":6,
						"TEXCOORD_0":7,
						"COLOR_0":8
					},
					"indices":9,
					"material":1
				},
				{
					"attributes":{
						"POSITION":10,
						"NORMAL":11,
						"TEXCOORD_0":12,
						"COLOR_0":13
					},
					"indices":14,
					"material":2
				}
			]
		}
	],
	"textures":[
		{
			"sampler":0,
			"source":0
		}
	],
	"images":[
		{
			"mimeType":"image/png",
			"name":"atlas",
			"uri":"atlas.png"
		}
	],
	"accessors":[
		{
			"bufferView":0,
			"componentType":5126,
			"count":95,
			"max":[
				1.3064690828323364,
				1.704419493675232,
				1.4532872438430786
			],
			"min":[
				-2.185356378555298,
				-3.322451591491699,
				-1.4532872438430786
			],
			"type":"VEC3"
		},
		{
			"bufferView":1,
			"componentType":5126,
			"count":95,
			"type":"VEC3"
		},
		{
			"bufferView":2,
			"componentType":5126,
			"count":95,
			"type":"VEC2"
		},
		{
			"bufferView":3,
			"componentType":5126,
			"count":95,
			"type":"VEC3"
		},
		{
			"bufferView":4,
			"componentType":5123,
			"count":354,
			"type":"SCALAR"
		},
		{
			"bufferView":5,
			"componentType":5126,
			"count":179,
			"max":[
				1.3064690828323364,
				1.789048194885254,
				1.4532872438430786
			],
			"min":[
				-2.185356378555298,
				0.7423123121261597,
				-1.4532872438430786
			],
			"type":"VEC3"
		},
		{
			"bufferView":6,
			"componentType":5126,
			"count":179,
			"type":"VEC3"
		},
		{
			"bufferView":7,
			"componentType":5126,
			"count":179,
			"type":"VEC2"
		},
		{
			"bufferView":8,
			"componentType":5126,
			"count":179,
			"type":"VEC3"
		},
		{
			"bufferView":9,
			"componentType":5123,
			"count":600,
			"type":"SCALAR"
		},
		{
			"bufferView":10,
			"componentType":5126,
			"count":54,
			"max":[
				1.3064690828323364,
				1.789048194885254,
				1.3327168226242065
			],
			"min":[
				-2.185356378555298,
				-3.322451591491699,
				-1.3327168226242065
			],
			"type":"VEC3"
		},
		{
			"bufferView":11,
			"componentType":5126,
			"count":54,
			"type":"VEC3"
		},
		{
			"bufferView":12,
			"componentType":5126,
			"count":54,
			"type":"VEC2"
		},
		{
			"bufferView":13,
			"componentType":5126,
			"count":54,
			"type":"VEC3"
		},
		{
			"bufferView":14,
			"componentType":5123,
			"count":204,
			"type":"SCALAR"
		}
	],
	"bufferViews":[
		{
			"buffer":0,
			"byteLength":1140,
			"byteOffset":0,
			"target":34962
		},
		{
			"buffer":0,
			"byteLength":1140,
			"byteOffset":1140,
			"target":34962
		},
		{
			"buffer":0,
			"byteLength":760,
			"byteOffset":2280,
			"target":34962
		},
		{
			"buffer":0,
			"byteLength":1140,
			"byteOffset":3040,
			"target":34962
		},
		{
			"buffer":0,
			"byteLength":708,
			"byteOffset":4180,
			"target":34963
		},
		{
			"buffer":0,
			"byteLength":2148,
			"byteOffset":4888,
			"target":34962
		},
		{
			"buffer":0,
			"byteLength":2148,
			"byteOffset":7036,
			"target":34962
		},
		{
			"buffer":0,
			"byteLength":1432,
			"byteOffset":9184,
			"target":34962
		},
		{
			"buffer":0,
			"byteLength":2148,
			"byteOffset":10616,
			"target":34962
		},
		{
			"buffer":0,
			"byteLength":1200,
			"byteOffset":12764,
			"target":34963
		},
		{
			"buffer":0,
			"byteLength":648,
			"byteOffset":13964,
			"target":34962
		},
		{
			"buffer":0,
			"byteLength":648,
			"byteOffset":14612,
			"target":34962
		},
		{
			"buffer":0,
			"byteLength":432,
			"byteOffset":15260,
			"target":34962
		},
		{
			"buffer":0,
			"byteLength":648,
			"byteOffset":15692,
			"target":34962
		},
		{
			"buffer":0,
			"byteLength":408,
			"byteOffset":16340,
			"target":34963
		}
	],
	"samplers":[
		{
			"magFilter":9729,
			"minFilter":9987
		}
	],
	"buffers":[
		{
			"byteLength":16748,
			"uri":"stairs_wide.bin"
		}
	]
}
