{
	"asset":{
		"generator":"Khronos glTF Blender I/O v5.0.21",
		"version":"2.0"
	},
	"extensionsUsed":[
		"KHR_texture_transform"
	],
	"extensionsRequired":[
		"KHR_texture_transform"
	],
	"scene":0,
	"scenes":[
		{
			"name":"stair_thin",
			"nodes":[
				0
			]
		}
	],
	"nodes":[
		{
			"mesh":0,
			"name":"Cube.003",
			"rotation":[
				0,
				-0.7071067094802856,
				0,
				0.7071068286895752
			]
		}
	],
	"materials":[
		{
			"doubleSided":true,
			"name":"yellow wall",
			"pbrMetallicRoughness":{
				"baseColorTexture":{
					"extensions":{
						"KHR_texture_transform":{
							"offset":[
								0,
								-1.0099999904632568
							],
							"scale":[
								2.0099997520446777,
								2.009999990463257
							]
						}
					},
					"index":0
				},
				"metallicFactor":0,
				"roughnessFactor":0.5
			}
		},
		{
			"doubleSided":true,
			"name":"steps",
			"pbrMetallicRoughness":{
				"metallicFactor":0,
				"roughnessFactor":0.5
			}
		}
	],
	"meshes":[
		{
			"name":"Cube.012",
			"primitives":[
				{
					"attributes":{
						"POSITION":0,
						"NORMAL":1,
						"TEXCOORD_0":2,
						"COLOR_0":3
					},
					"indices":4,
					"material":0
				},
				{
					"attributes":{
						"POSITION":5,
						"NORMAL":6,
						"TEXCOORD_0":7,
						"COLOR_0":8
					},
					"indices":9,
					"material":1
				}
			]
		}
	],
	"textures":[
		{
			"sampler":0,
			"source":0
		}
	],
	"images":[
		{
			"mimeType":"image/png",
			"name":"atlas.png",
			"uri":"../Maps/Walls/yellow_floral_wallpaper/atlas.png"
		}
	],
	"accessors":[
		{
			"bufferView":0,
			"componentType":5126,
			"count":93,
			"max":[
				1.3064690828323364,
				1.7047581672668457,
				0.8904142379760742
			],
			"min":[
				-2.185356378555298,
				-3.322451591491699,
				-0.8904142379760742
			],
			"type":"VEC3"
		},
		{
			"bufferView":1,
			"componentType":5126,
			"count":93,
			"type":"VEC3"
		},
		{
			"bufferView":2,
			"componentType":5126,
			"count":93,
			"type":"VEC2"
		},
		{
			"bufferView":3,
			"componentType":5126,
			"count":93,
			"type":"VEC3"
		},
		{
			"bufferView":4,
			"componentType":5123,
			"count":336,
			"type":"SCALAR"
		},
		{
			"bufferView":5,
			"componentType":5126,
			"count":180,
			"max":[
				1.3064690828323364,
				1.789048194885254,
				0.8904142379760742
			],
			"min":[
				-2.185356378555298,
				-3.322451591491699,
				-0.8904142379760742
			],
			"type":"VEC3"
		},
		{
			"bufferView":6,
			"componentType":5126,
			"count":180,
			"type":"VEC3"
		},
		{
			"bufferView":7,
			"componentType":5126,
			"count":180,
			"type":"VEC2"
		},
		{
			"bufferView":8,
			"componentType":5126,
			"count":180,
			"type":"VEC3"
		},
		{
			"bufferView":9,
			"componentType":5123,
			"count":372,
			"type":"SCALAR"
		}
	],
	"bufferViews":[
		{
			"buffer":0,
			"byteLength":1116,
			"byteOffset":0,
			"target":34962
		},
		{
			"buffer":0,
			"byteLength":1116,
			"byteOffset":1116,
			"target":34962
		},
		{
			"buffer":0,
			"byteLength":744,
			"byteOffset":2232,
			"target":34962
		},
		{
			"buffer":0,
			"byteLength":1116,
			"byteOffset":2976,
			"target":34962
		},
		{
			"buffer":0,
			"byteLength":672,
			"byteOffset":4092,
			"target":34963
		},
		{
			"buffer":0,
			"byteLength":2160,
			"byteOffset":4764,
			"target":34962
		},
		{
			"buffer":0,
			"byteLength":2160,
			"byteOffset":6924,
			"target":34962
		},
		{
			"buffer":0,
			"byteLength":1440,
			"byteOffset":9084,
			"target":34962
		},
		{
			"buffer":0,
			"byteLength":2160,
			"byteOffset":10524,
			"target":34962
		},
		{
			"buffer":0,
			"byteLength":744,
			"byteOffset":12684,
			"target":34963
		}
	],
	"samplers":[
		{
			"magFilter":9729,
			"minFilter":9987
		}
	],
	"buffers":[
		{
			"byteLength":13428,
			"uri":"stairs_thin.bin"
		}
	]
}
