{
	"asset":{
		"generator":"Khronos glTF Blender I/O v5.2.5",
		"version":"2.0"
	},
	"scene":0,
	"scenes":[
		{
			"name":"stair_book_stack",
			"nodes":[
				0,
				1,
				2,
				3,
				4,
				5,
				6,
				7,
				8,
				9,
				10,
				11,
				12,
				13,
				14,
				15,
				16,
				17,
				18,
				19,
				20,
				21,
				22,
				23,
				24,
				25,
				26,
				27,
				28,
				29,
				30,
				31,
				32,
				33,
				34,
				35,
				36,
				37,
				38,
				39,
				40,
				41,
				42,
				43
			]
		}
	],
	"nodes":[
		{
			"mesh":0,
			"name":"Cube.018",
			"rotation":[
				0.49916011095046997,
				-0.4991600215435028,
				-0.5008384585380554,
				0.500838577747345
			],
			"scale":[
				0.2969980835914612,
				0.16773651540279388,
				0.2969980835914612
			],
			"translation":[
				-0.2132287174463272,
				0.1164233535528183,
				0.637980580329895
			]
		},
		{
			"mesh":1,
			"name":"Cube.017",
			"rotation":[
				-0.0061468156054615974,
				0.0061468142084777355,
				-0.7070800065994263,
				0.7070801854133606
			],
			"scale":[
				0.2621614336967468,
				0.2621614336967468,
				0.2621614336967468
			],
			"translation":[
				-0.3025377094745636,
				0,
				0.23165026307106018
			]
		},
		{
			"mesh":2,
			"name":"Cube.006",
			"rotation":[
				0.025498831644654274,
				-0.025498829782009125,
				-0.7066468000411987,
				0.7066470384597778
			],
			"scale":[
				0.26215699315071106,
				0.2370884269475937,
				0.2621614336967468
			],
			"translation":[
				-0.26563751697540283,
				0,
				-0.18370595574378967
			]
		},
		{
			"mesh":3,
			"name":"Cube.007",
			"rotation":[
				-0.04322659224271774,
				0.04322657734155655,
				-0.7057842016220093,
				0.7057843804359436
			],
			"scale":[
				0.26215699315071106,
				0.2370884269475937,
				0.2621614634990692
			],
			"translation":[
				-0.23918738961219788,
				0.10783518850803375,
				0.24427393078804016
			]
		},
		{
			"mesh":4,
			"name":"Cube.008",
			"rotation":[
				0.04173818230628967,
				-0.041738174855709076,
				-0.7058738470077515,
				0.705873966217041
			],
			"scale":[
				0.26215699315071106,
				0.2370884269475937,
				0.2621614336967468
			],
			"translation":[
				-0.29158028960227966,
				0.21278809010982513,
				0.25455302000045776
			]
		},
		{
			"mesh":5,
			"name":"Cube.009",
			"rotation":[
				-0.0061468156054615974,
				0.0061468142084777355,
				-0.7070800065994263,
				0.7070801854133606
			],
			"scale":[
				0.2621614336967468,
				0.2621614336967468,
				0.2621614336967468
			],
			"translation":[
				-0.30375081300735474,
				0.3147057592868805,
				0.22041669487953186
			]
		},
		{
			"mesh":6,
			"name":"Cube.010",
			"rotation":[
				-0.0061468156054615974,
				0.0061468142084777355,
				-0.7070800065994263,
				0.7070801854133606
			],
			"scale":[
				0.2621614336967468,
				0.2621614336967468,
				0.2621614336967468
			],
			"translation":[
				-0.3025377094745636,
				0.10506253689527512,
				-0.17403218150138855
			]
		},
		{
			"mesh":7,
			"name":"Cube.011",
			"rotation":[
				-0.504146158695221,
				0.5041459798812866,
				-0.4958192706108093,
				0.4958193600177765
			],
			"scale":[
				0.2621614336967468,
				0.14806172251701355,
				0.2621614336967468
			],
			"translation":[
				0.2309035360813141,
				0.6182103157043457,
				-0.22292491793632507
			]
		},
		{
			"mesh":8,
			"name":"Cube.012",
			"rotation":[
				0.04173818230628967,
				-0.041738174855709076,
				-0.7058738470077515,
				0.705873966217041
			],
			"scale":[
				0.26215699315071106,
				0.2370884269475937,
				0.2621614336967468
			],
			"translation":[
				-0.3409186899662018,
				0.20940032601356506,
				-0.1895889937877655
			]
		},
		{
			"mesh":9,
			"name":"Cube.013",
			"rotation":[
				-0.0061468156054615974,
				0.0061468142084777355,
				-0.7070800065994263,
				0.7070801854133606
			],
			"scale":[
				0.2621614336967468,
				0.2621614336967468,
				0.2621614336967468
			],
			"translation":[
				-0.3025377094745636,
				0.3146438002586365,
				-0.17849022150039673
			]
		},
		{
			"mesh":10,
			"name":"Cube.015",
			"rotation":[
				-0.0061468156054615974,
				0.0061468142084777355,
				-0.7070800065994263,
				0.7070801854133606
			],
			"scale":[
				0.2621614336967468,
				0.2621614336967468,
				0.2621614336967468
			],
			"translation":[
				-0.3025377094745636,
				0.4203278422355652,
				-0.18603521585464478
			]
		},
		{
			"mesh":11,
			"name":"Cube.016",
			"rotation":[
				-0.04322659224271774,
				0.04322657734155655,
				-0.7057842016220093,
				0.7057843804359436
			],
			"scale":[
				0.26215699315071106,
				0.2370884269475937,
				0.2621614634990692
			],
			"translation":[
				-0.23918738961219788,
				0.6232614517211914,
				-0.20860666036605835
			]
		},
		{
			"mesh":12,
			"name":"Cube.020",
			"rotation":[
				-0.0061468156054615974,
				0.0061468142084777355,
				-0.7070800065994263,
				0.7070801854133606
			],
			"scale":[
				0.2621614336967468,
				0.2621614336967468,
				0.2621614336967468
			],
			"translation":[
				0.2332848608493805,
				0,
				0.23165026307106018
			]
		},
		{
			"mesh":13,
			"name":"Cube.021",
			"rotation":[
				-0.7068886160850525,
				0.7068884968757629,
				-0.017566736787557602,
				0.0175667405128479
			],
			"scale":[
				0.26215699315071106,
				0.23708844184875488,
				0.2621614634990692
			],
			"translation":[
				0.2611364424228668,
				0.11143895983695984,
				0.6393782496452332
			]
		},
		{
			"mesh":14,
			"name":"Cube.022",
			"rotation":[
				0.025498831644654274,
				-0.025498829782009125,
				-0.7066468000411987,
				0.7066470384597778
			],
			"scale":[
				0.26215699315071106,
				0.2370884269475937,
				0.2621614336967468
			],
			"translation":[
				0.27018502354621887,
				0,
				-0.18370595574378967
			]
		},
		{
			"mesh":15,
			"name":"Cube.023",
			"rotation":[
				0.060356222093105316,
				-0.06035621091723442,
				-0.7045261263847351,
				0.7045262455940247
			],
			"scale":[
				0.26215699315071106,
				0.2370884269475937,
				0.2621614336967468
			],
			"translation":[
				0.2754676043987274,
				0.10783518850803375,
				0.24427393078804016
			]
		},
		{
			"mesh":16,
			"name":"Cube.024",
			"rotation":[
				0.7065532207489014,
				-0.706553041934967,
				-0.02797629125416279,
				0.027976296842098236
			],
			"scale":[
				0.26215699315071106,
				0.23708844184875488,
				0.2621614336967468
			],
			"translation":[
				0.24424228072166443,
				0.21278809010982513,
				0.25455302000045776
			]
		},
		{
			"mesh":17,
			"name":"Cube.025",
			"rotation":[
				-0.03866923972964287,
				0.03866923227906227,
				-0.7060486078262329,
				0.7060487866401672
			],
			"scale":[
				0.2621614336967468,
				0.2621614336967468,
				0.2621614336967468
			],
			"translation":[
				0.23207172751426697,
				0.3147057592868805,
				0.22041669487953186
			]
		},
		{
			"mesh":18,
			"name":"Cube.026",
			"rotation":[
				-0.0061468156054615974,
				0.0061468142084777355,
				-0.7070800065994263,
				0.7070801854133606
			],
			"scale":[
				0.2621614336967468,
				0.2621614336967468,
				0.2621614336967468
			],
			"translation":[
				0.2332848608493805,
				0.10506253689527512,
				-0.17403218150138855
			]
		},
		{
			"mesh":19,
			"name":"Cube.027",
			"rotation":[
				0.04173818230628967,
				-0.041738174855709076,
				-0.7058738470077515,
				0.705873966217041
			],
			"scale":[
				0.26215699315071106,
				0.2370884269475937,
				0.2621614336967468
			],
			"translation":[
				0.1949038803577423,
				0.20940032601356506,
				-0.1895889937877655
			]
		},
		{
			"mesh":20,
			"name":"Cube.028",
			"rotation":[
				-0.0061468156054615974,
				0.0061468142084777355,
				-0.7070800065994263,
				0.7070801854133606
			],
			"scale":[
				0.2621614336967468,
				0.2621614336967468,
				0.2621614336967468
			],
			"translation":[
				0.2332848608493805,
				0.3146438002586365,
				-0.17849022150039673
			]
		},
		{
			"mesh":21,
			"name":"Cube.029",
			"rotation":[
				-0.0061468156054615974,
				0.0061468142084777355,
				-0.7070800065994263,
				0.7070801854133606
			],
			"scale":[
				0.2621614336967468,
				0.2621614336967468,
				0.2621614336967468
			],
			"translation":[
				0.2332848608493805,
				0.4203278422355652,
				-0.18603521585464478
			]
		},
		{
			"mesh":22,
			"name":"Cube.005",
			"rotation":[
				0.025498831644654274,
				-0.025498829782009125,
				-0.7066468000411987,
				0.7066470384597778
			],
			"scale":[
				0.26215699315071106,
				0.2370884269475937,
				0.2621614336967468
			],
			"translation":[
				-0.26563751697540283,
				0.5240029692649841,
				-0.18370595574378967
			]
		},
		{
			"mesh":23,
			"name":"Cube.014",
			"rotation":[
				0.025498831644654274,
				-0.025498829782009125,
				-0.7066468000411987,
				0.7066470384597778
			],
			"scale":[
				0.26215699315071106,
				0.2370884269475937,
				0.2621614336967468
			],
			"translation":[
				0.27018502354621887,
				0.5240029692649841,
				-0.18370595574378967
			]
		},
		{
			"mesh":24,
			"name":"Cube.019",
			"rotation":[
				0.025498831644654274,
				-0.025498829782009125,
				-0.7066468000411987,
				0.7066470384597778
			],
			"scale":[
				0.26215699315071106,
				0.2370884269475937,
				0.2621614336967468
			],
			"translation":[
				-0.2556881010532379,
				0,
				0.6570203304290771
			]
		},
		{
			"mesh":25,
			"name":"Cube.030",
			"rotation":[
				0.025498831644654274,
				-0.025498829782009125,
				-0.7066468000411987,
				0.7066470384597778
			],
			"scale":[
				0.26215699315071106,
				0.2370884269475937,
				0.2621614336967468
			],
			"translation":[
				0.27018502354621887,
				0,
				0.6404379606246948
			]
		},
		{
			"mesh":26,
			"name":"Cube.031",
			"rotation":[
				-0.0948016345500946,
				0.09480161219835281,
				-0.700722873210907,
				0.7007230520248413
			],
			"scale":[
				0.2621614336967468,
				0.14806172251701355,
				0.2621614336967468
			],
			"translation":[
				0.7042883634567261,
				0,
				-0.07961519807577133
			]
		},
		{
			"mesh":27,
			"name":"Cube.032",
			"rotation":[
				-0.43634358048439026,
				0.4363434910774231,
				-0.5564209818840027,
				0.5564210414886475
			],
			"scale":[
				0.20972777903079987,
				0.20972776412963867,
				0.20972776412963867
			],
			"translation":[
				-0.8553531169891357,
				0,
				0.277632474899292
			]
		},
		{
			"mesh":28,
			"name":"Cube.033",
			"rotation":[
				0.7070801854133606,
				-0.7070800065994263,
				-0.006146756932139397,
				0.006146758329123259
			],
			"scale":[
				0.2621614336967468,
				0.2621614336967468,
				0.2621614336967468
			],
			"translation":[
				-0.3025377094745636,
				0,
				-0.5951231122016907
			]
		},
		{
			"mesh":29,
			"name":"Cube.034",
			"rotation":[
				0.7057843804359436,
				-0.7057842016220093,
				-0.04322652891278267,
				0.04322654381394386
			],
			"scale":[
				0.26215699315071106,
				0.2370884269475937,
				0.2621614634990692
			],
			"translation":[
				-0.23918738961219788,
				0.10783518850803375,
				-0.5824994444847107
			]
		},
		{
			"mesh":30,
			"name":"Cube.035",
			"rotation":[
				-0.705873966217041,
				0.7058738470077515,
				-0.04173830524086952,
				0.04173830896615982
			],
			"scale":[
				0.26215699315071106,
				0.2370884269475937,
				0.2621614336967468
			],
			"translation":[
				-0.29158028960227966,
				0.21278809010982513,
				-0.5722203850746155
			]
		},
		{
			"mesh":31,
			"name":"Cube.036",
			"rotation":[
				0.7070801854133606,
				-0.7070800065994263,
				-0.006146756932139397,
				0.006146758329123259
			],
			"scale":[
				0.2621614336967468,
				0.2621614336967468,
				0.2621614336967468
			],
			"translation":[
				-0.30375081300735474,
				0.3147057592868805,
				-0.606356680393219
			]
		},
		{
			"mesh":32,
			"name":"Cube.037",
			"rotation":[
				0.7070801854133606,
				-0.7070800065994263,
				-0.006146756932139397,
				0.006146758329123259
			],
			"scale":[
				0.2621614336967468,
				0.2621614336967468,
				0.2621614336967468
			],
			"translation":[
				0.2332848608493805,
				0,
				-0.5951231122016907
			]
		},
		{
			"mesh":33,
			"name":"Cube.038",
			"rotation":[
				-0.7045263051986694,
				0.7045261263847351,
				-0.06035630404949188,
				0.060356322675943375
			],
			"scale":[
				0.26215699315071106,
				0.2370884269475937,
				0.2621614634990692
			],
			"translation":[
				0.2754676043987274,
				0.10783518850803375,
				-0.5824994444847107
			]
		},
		{
			"mesh":34,
			"name":"Cube.039",
			"rotation":[
				-0.0279762651771307,
				0.02797625958919525,
				-0.706553041934967,
				0.7065532207489014
			],
			"scale":[
				0.26215699315071106,
				0.23708844184875488,
				0.2621614336967468
			],
			"translation":[
				0.24424228072166443,
				0.21278809010982513,
				-0.5722203850746155
			]
		},
		{
			"mesh":35,
			"name":"Cube.040",
			"rotation":[
				0.7060487270355225,
				-0.7060485482215881,
				-0.038669195026159286,
				0.03866920247673988
			],
			"scale":[
				0.2621614336967468,
				0.2621614336967468,
				0.2621614336967468
			],
			"translation":[
				0.23207172751426697,
				0.3147057592868805,
				-0.606356680393219
			]
		},
		{
			"mesh":36,
			"name":"Cube.041",
			"rotation":[
				0.49916011095046997,
				-0.4991600215435028,
				-0.5008384585380554,
				0.500838577747345
			],
			"scale":[
				0.2969980835914612,
				0.16773651540279388,
				0.2969980835914612
			],
			"translation":[
				-0.2132287174463272,
				0.5318822860717773,
				-0.6023750305175781
			]
		},
		{
			"mesh":37,
			"name":"Cube.042",
			"rotation":[
				-0.7068886160850525,
				0.7068884968757629,
				-0.017566736787557602,
				0.0175667405128479
			],
			"scale":[
				0.26215699315071106,
				0.23708844184875488,
				0.2621614634990692
			],
			"translation":[
				0.2611364424228668,
				0.5268979072570801,
				-0.60097736120224
			]
		},
		{
			"mesh":38,
			"name":"Cube.043",
			"rotation":[
				0.025498831644654274,
				-0.025498829782009125,
				-0.7066468000411987,
				0.7066470384597778
			],
			"scale":[
				0.26215699315071106,
				0.2370884269475937,
				0.2621614336967468
			],
			"translation":[
				-0.2556881010532379,
				0.41846951842308044,
				-0.583335280418396
			]
		},
		{
			"mesh":39,
			"name":"Cube.044",
			"rotation":[
				0.025498831644654274,
				-0.025498829782009125,
				-0.7066468000411987,
				0.7066470384597778
			],
			"scale":[
				0.26215699315071106,
				0.2370884269475937,
				0.2621614336967468
			],
			"translation":[
				0.27018502354621887,
				0.41846951842308044,
				-0.5999176502227783
			]
		},
		{
			"mesh":40,
			"name":"Cube.045",
			"rotation":[
				0.707101047039032,
				-0.7071007490158081,
				-0.0028924145735800266,
				0.0028924152720719576
			],
			"scale":[
				0.26215699315071106,
				0.2370884269475937,
				0.2621614336967468
			],
			"translation":[
				-0.29007500410079956,
				0.6357734799385071,
				-0.6305551528930664
			]
		},
		{
			"mesh":41,
			"name":"Cube.046",
			"rotation":[
				-0.7070481181144714,
				0.7070478796958923,
				-0.009119933471083641,
				0.009119936265051365
			],
			"scale":[
				0.2621614336967468,
				0.2621614336967468,
				0.2621614336967468
			],
			"translation":[
				-0.30525609850883484,
				0.7376911640167236,
				-0.6345857977867126
			]
		},
		{
			"mesh":42,
			"name":"Cube.047",
			"rotation":[
				-0.0279762651771307,
				0.02797625958919525,
				-0.706553041934967,
				0.7065532207489014
			],
			"scale":[
				0.26215699315071106,
				0.23708844184875488,
				0.2621614336967468
			],
			"translation":[
				0.24424228072166443,
				0.6357734799385071,
				-0.5989441275596619
			]
		},
		{
			"mesh":43,
			"name":"Cube.048",
			"rotation":[
				0.7060487270355225,
				-0.7060485482215881,
				-0.038669195026159286,
				0.03866920247673988
			],
			"scale":[
				0.2621614336967468,
				0.2621614336967468,
				0.2621614336967468
			],
			"translation":[
				0.23207172751426697,
				0.7376911640167236,
				-0.6330804824829102
			]
		}
	],
	"materials":[
		{
			"doubleSided":true,
			"name":"furniture",
			"pbrMetallicRoughness":{
				"metallicFactor":0,
				"roughnessFactor":0.5
			}
		}
	],
	"meshes":[
		{
			"name":"Cube.015",
			"primitives":[
				{
					"attributes":{
						"POSITION":0,
						"NORMAL":1,
						"TEXCOORD_0":2,
						"COLOR_0":3
					},
					"indices":4,
					"material":0
				}
			]
		},
		{
			"name":"Cube.005",
			"primitives":[
				{
					"attributes":{
						"POSITION":5,
						"NORMAL":6,
						"TEXCOORD_0":7,
						"COLOR_0":8
					},
					"indices":4,
					"material":0
				}
			]
		},
		{
			"name":"Cube.016",
			"primitives":[
				{
					"attributes":{
						"POSITION":9,
						"NORMAL":10,
						"TEXCOORD_0":11,
						"COLOR_0":12
					},
					"indices":4,
					"material":0
				}
			]
		},
		{
			"name":"Cube.016",
			"primitives":[
				{
					"attributes":{
						"POSITION":13,
						"NORMAL":14,
						"TEXCOORD_0":15,
						"COLOR_0":16
					},
					"indices":4,
					"material":0
				}
			]
		},
		{
			"name":"Cube.016",
			"primitives":[
				{
					"attributes":{
						"POSITION":17,
						"NORMAL":18,
						"TEXCOORD_0":19,
						"COLOR_0":20
					},
					"indices":4,
					"material":0
				}
			]
		},
		{
			"name":"Cube.005",
			"primitives":[
				{
					"attributes":{
						"POSITION":21,
						"NORMAL":22,
						"TEXCOORD_0":23,
						"COLOR_0":24
					},
					"indices":4,
					"material":0
				}
			]
		},
		{
			"name":"Cube.005",
			"primitives":[
				{
					"attributes":{
						"POSITION":25,
						"NORMAL":26,
						"TEXCOORD_0":27,
						"COLOR_0":28
					},
					"indices":4,
					"material":0
				}
			]
		},
		{
			"name":"Cube.015",
			"primitives":[
				{
					"attributes":{
						"POSITION":29,
						"NORMAL":30,
						"TEXCOORD_0":31,
						"COLOR_0":32
					},
					"indices":4,
					"material":0
				}
			]
		},
		{
			"name":"Cube.016",
			"primitives":[
				{
					"attributes":{
						"POSITION":33,
						"NORMAL":34,
						"TEXCOORD_0":35,
						"COLOR_0":36
					},
					"indices":4,
					"material":0
				}
			]
		},
		{
			"name":"Cube.005",
			"primitives":[
				{
					"attributes":{
						"POSITION":37,
						"NORMAL":38,
						"TEXCOORD_0":39,
						"COLOR_0":40
					},
					"indices":4,
					"material":0
				}
			]
		},
		{
			"name":"Cube.005",
			"primitives":[
				{
					"attributes":{
						"POSITION":41,
						"NORMAL":42,
						"TEXCOORD_0":43,
						"COLOR_0":44
					},
					"indices":4,
					"material":0
				}
			]
		},
		{
			"name":"Cube.016",
			"primitives":[
				{
					"attributes":{
						"POSITION":45,
						"NORMAL":46,
						"TEXCOORD_0":47,
						"COLOR_0":48
					},
					"indices":4,
					"material":0
				}
			]
		},
		{
			"name":"Cube.016",
			"primitives":[
				{
					"attributes":{
						"POSITION":49,
						"NORMAL":50,
						"TEXCOORD_0":51,
						"COLOR_0":52
					},
					"indices":4,
					"material":0
				}
			]
		},
		{
			"name":"Cube.016",
			"primitives":[
				{
					"attributes":{
						"POSITION":53,
						"NORMAL":54,
						"TEXCOORD_0":55,
						"COLOR_0":56
					},
					"indices":4,
					"material":0
				}
			]
		},
		{
			"name":"Cube.016",
			"primitives":[
				{
					"attributes":{
						"POSITION":57,
						"NORMAL":58,
						"TEXCOORD_0":59,
						"COLOR_0":60
					},
					"indices":4,
					"material":0
				}
			]
		},
		{
			"name":"Cube.005",
			"primitives":[
				{
					"attributes":{
						"POSITION":61,
						"NORMAL":62,
						"TEXCOORD_0":63,
						"COLOR_0":64
					},
					"indices":4,
					"material":0
				}
			]
		},
		{
			"name":"Cube.005",
			"primitives":[
				{
					"attributes":{
						"POSITION":65,
						"NORMAL":66,
						"TEXCOORD_0":67,
						"COLOR_0":68
					},
					"indices":4,
					"material":0
				}
			]
		},
		{
			"name":"Cube.016",
			"primitives":[
				{
					"attributes":{
						"POSITION":69,
						"NORMAL":70,
						"TEXCOORD_0":71,
						"COLOR_0":72
					},
					"indices":4,
					"material":0
				}
			]
		},
		{
			"name":"Cube.005",
			"primitives":[
				{
					"attributes":{
						"POSITION":73,
						"NORMAL":74,
						"TEXCOORD_0":75,
						"COLOR_0":76
					},
					"indices":4,
					"material":0
				}
			]
		},
		{
			"name":"Cube.016",
			"primitives":[
				{
					"attributes":{
						"POSITION":77,
						"NORMAL":78,
						"TEXCOORD_0":79,
						"COLOR_0":80
					},
					"indices":4,
					"material":0
				}
			]
		},
		{
			"name":"Cube.005",
			"primitives":[
				{
					"attributes":{
						"POSITION":81,
						"NORMAL":82,
						"TEXCOORD_0":83,
						"COLOR_0":84
					},
					"indices":4,
					"material":0
				}
			]
		},
		{
			"name":"Cube.016",
			"primitives":[
				{
					"attributes":{
						"POSITION":85,
						"NORMAL":86,
						"TEXCOORD_0":87,
						"COLOR_0":88
					},
					"indices":4,
					"material":0
				}
			]
		},
		{
			"name":"Cube.016",
			"primitives":[
				{
					"attributes":{
						"POSITION":89,
						"NORMAL":90,
						"TEXCOORD_0":91,
						"COLOR_0":92
					},
					"indices":4,
					"material":0
				}
			]
		},
		{
			"name":"Cube.016",
			"primitives":[
				{
					"attributes":{
						"POSITION":93,
						"NORMAL":94,
						"TEXCOORD_0":95,
						"COLOR_0":96
					},
					"indices":4,
					"material":0
				}
			]
		},
		{
			"name":"Cube.016",
			"primitives":[
				{
					"attributes":{
						"POSITION":97,
						"NORMAL":98,
						"TEXCOORD_0":99,
						"COLOR_0":100
					},
					"indices":4,
					"material":0
				}
			]
		},
		{
			"name":"Cube.016",
			"primitives":[
				{
					"attributes":{
						"POSITION":101,
						"NORMAL":102,
						"TEXCOORD_0":103,
						"COLOR_0":104
					},
					"indices":4,
					"material":0
				}
			]
		},
		{
			"name":"Cube.015",
			"primitives":[
				{
					"attributes":{
						"POSITION":105,
						"NORMAL":106,
						"TEXCOORD_0":107,
						"COLOR_0":108
					},
					"indices":4,
					"material":0
				}
			]
		},
		{
			"name":"Cube.016",
			"primitives":[
				{
					"attributes":{
						"POSITION":109,
						"NORMAL":110,
						"TEXCOORD_0":111,
						"COLOR_0":112
					},
					"indices":4,
					"material":0
				}
			]
		},
		{
			"name":"Cube.005",
			"primitives":[
				{
					"attributes":{
						"POSITION":113,
						"NORMAL":114,
						"TEXCOORD_0":115,
						"COLOR_0":116
					},
					"indices":4,
					"material":0
				}
			]
		},
		{
			"name":"Cube.016",
			"primitives":[
				{
					"attributes":{
						"POSITION":117,
						"NORMAL":118,
						"TEXCOORD_0":119,
						"COLOR_0":120
					},
					"indices":4,
					"material":0
				}
			]
		},
		{
			"name":"Cube.016",
			"primitives":[
				{
					"attributes":{
						"POSITION":121,
						"NORMAL":122,
						"TEXCOORD_0":123,
						"COLOR_0":124
					},
					"indices":4,
					"material":0
				}
			]
		},
		{
			"name":"Cube.005",
			"primitives":[
				{
					"attributes":{
						"POSITION":125,
						"NORMAL":126,
						"TEXCOORD_0":127,
						"COLOR_0":128
					},
					"indices":4,
					"material":0
				}
			]
		},
		{
			"name":"Cube.016",
			"primitives":[
				{
					"attributes":{
						"POSITION":129,
						"NORMAL":130,
						"TEXCOORD_0":131,
						"COLOR_0":132
					},
					"indices":4,
					"material":0
				}
			]
		},
		{
			"name":"Cube.005",
			"primitives":[
				{
					"attributes":{
						"POSITION":133,
						"NORMAL":134,
						"TEXCOORD_0":135,
						"COLOR_0":136
					},
					"indices":4,
					"material":0
				}
			]
		},
		{
			"name":"Cube.005",
			"primitives":[
				{
					"attributes":{
						"POSITION":137,
						"NORMAL":138,
						"TEXCOORD_0":139,
						"COLOR_0":140
					},
					"indices":4,
					"material":0
				}
			]
		},
		{
			"name":"Cube.016",
			"primitives":[
				{
					"attributes":{
						"POSITION":141,
						"NORMAL":142,
						"TEXCOORD_0":143,
						"COLOR_0":144
					},
					"indices":4,
					"material":0
				}
			]
		},
		{
			"name":"Cube.015",
			"primitives":[
				{
					"attributes":{
						"POSITION":145,
						"NORMAL":146,
						"TEXCOORD_0":147,
						"COLOR_0":148
					},
					"indices":4,
					"material":0
				}
			]
		},
		{
			"name":"Cube.016",
			"primitives":[
				{
					"attributes":{
						"POSITION":149,
						"NORMAL":150,
						"TEXCOORD_0":151,
						"COLOR_0":152
					},
					"indices":4,
					"material":0
				}
			]
		},
		{
			"name":"Cube.016",
			"primitives":[
				{
					"attributes":{
						"POSITION":153,
						"NORMAL":154,
						"TEXCOORD_0":155,
						"COLOR_0":156
					},
					"indices":4,
					"material":0
				}
			]
		},
		{
			"name":"Cube.016",
			"primitives":[
				{
					"attributes":{
						"POSITION":157,
						"NORMAL":158,
						"TEXCOORD_0":159,
						"COLOR_0":160
					},
					"indices":4,
					"material":0
				}
			]
		},
		{
			"name":"Cube.016",
			"primitives":[
				{
					"attributes":{
						"POSITION":161,
						"NORMAL":162,
						"TEXCOORD_0":163,
						"COLOR_0":164
					},
					"indices":4,
					"material":0
				}
			]
		},
		{
			"name":"Cube.005",
			"primitives":[
				{
					"attributes":{
						"POSITION":165,
						"NORMAL":166,
						"TEXCOORD_0":167,
						"COLOR_0":168
					},
					"indices":4,
					"material":0
				}
			]
		},
		{
			"name":"Cube.005",
			"primitives":[
				{
					"attributes":{
						"POSITION":169,
						"NORMAL":170,
						"TEXCOORD_0":171,
						"COLOR_0":172
					},
					"indices":4,
					"material":0
				}
			]
		},
		{
			"name":"Cube.016",
			"primitives":[
				{
					"attributes":{
						"POSITION":173,
						"NORMAL":174,
						"TEXCOORD_0":175,
						"COLOR_0":176
					},
					"indices":4,
					"material":0
				}
			]
		}
	],
	"accessors":[
		{
			"bufferView":0,
			"componentType":5126,
			"count":38,
			"max":[
				0.196266770362854,
				1,
				0.7249497175216675
			],
			"min":[
				-0.196266770362854,
				-1,
				-0.7333025932312012
			],
			"type":"VEC3"
		},
		{
			"bufferView":1,
			"componentType":5126,
			"count":38,
			"type":"VEC3"
		},
		{
			"bufferView":2,
			"componentType":5126,
			"count":38,
			"type":"VEC2"
		},
		{
			"bufferView":3,
			"componentType":5126,
			"count":38,
			"type":"VEC3"
		},
		{
			"bufferView":4,
			"componentType":5123,
			"count":84,
			"type":"SCALAR"
		},
		{
			"bufferView":5,
			"componentType":5126,
			"count":38,
			"max":[
				0.196266770362854,
				1,
				0.7249497175216675
			],
			"min":[
				-0.196266770362854,
				-1,
				-0.7333025932312012
			],
			"type":"VEC3"
		},
		{
			"bufferView":6,
			"componentType":5126,
			"count":38,
			"type":"VEC3"
		},
		{
			"bufferView":7,
			"componentType":5126,
			"count":38,
			"type":"VEC2"
		},
		{
			"bufferView":8,
			"componentType":5126,
			"count":38,
			"type":"VEC3"
		},
		{
			"bufferView":9,
			"componentType":5126,
			"count":38,
			"max":[
				0.196266770362854,
				1,
				0.7249497175216675
			],
			"min":[
				-0.196266770362854,
				-1,
				-0.7333025932312012
			],
			"type":"VEC3"
		},
		{
			"bufferView":10,
			"componentType":5126,
			"count":38,
			"type":"VEC3"
		},
		{
			"bufferView":11,
			"componentType":5126,
			"count":38,
			"type":"VEC2"
		},
		{
			"bufferView":12,
			"componentType":5126,
			"count":38,
			"type":"VEC3"
		},
		{
			"bufferView":13,
			"componentType":5126,
			"count":38,
			"max":[
				0.196266770362854,
				1,
				0.7249497175216675
			],
			"min":[
				-0.196266770362854,
				-1,
				-0.7333025932312012
			],
			"type":"VEC3"
		},
		{
			"bufferView":14,
			"componentType":5126,
			"count":38,
			"type":"VEC3"
		},
		{
			"bufferView":15,
			"componentType":5126,
			"count":38,
			"type":"VEC2"
		},
		{
			"bufferView":16,
			"componentType":5126,
			"count":38,
			"type":"VEC3"
		},
		{
			"bufferView":17,
			"componentType":5126,
			"count":38,
			"max":[
				0.196266770362854,
				1,
				0.7249497175216675
			],
			"min":[
				-0.196266770362854,
				-1,
				-0.7333025932312012
			],
			"type":"VEC3"
		},
		{
			"bufferView":18,
			"componentType":5126,
			"count":38,
			"type":"VEC3"
		},
		{
			"bufferView":19,
			"componentType":5126,
			"count":38,
			"type":"VEC2"
		},
		{
			"bufferView":20,
			"componentType":5126,
			"count":38,
			"type":"VEC3"
		},
		{
			"bufferView":21,
			"componentType":5126,
			"count":38,
			"max":[
				0.196266770362854,
				1,
				0.7249497175216675
			],
			"min":[
				-0.196266770362854,
				-1,
				-0.7333025932312012
			],
			"type":"VEC3"
		},
		{
			"bufferView":22,
			"componentType":5126,
			"count":38,
			"type":"VEC3"
		},
		{
			"bufferView":23,
			"componentType":5126,
			"count":38,
			"type":"VEC2"
		},
		{
			"bufferView":24,
			"componentType":5126,
			"count":38,
			"type":"VEC3"
		},
		{
			"bufferView":25,
			"componentType":5126,
			"count":38,
			"max":[
				0.196266770362854,
				1,
				0.7249497175216675
			],
			"min":[
				-0.196266770362854,
				-1,
				-0.7333025932312012
			],
			"type":"VEC3"
		},
		{
			"bufferView":26,
			"componentType":5126,
			"count":38,
			"type":"VEC3"
		},
		{
			"bufferView":27,
			"componentType":5126,
			"count":38,
			"type":"VEC2"
		},
		{
			"bufferView":28,
			"componentType":5126,
			"count":38,
			"type":"VEC3"
		},
		{
			"bufferView":29,
			"componentType":5126,
			"count":38,
			"max":[
				0.196266770362854,
				1,
				0.7249497175216675
			],
			"min":[
				-0.196266770362854,
				-1,
				-0.7333025932312012
			],
			"type":"VEC3"
		},
		{
			"bufferView":30,
			"componentType":5126,
			"count":38,
			"type":"VEC3"
		},
		{
			"bufferView":31,
			"componentType":5126,
			"count":38,
			"type":"VEC2"
		},
		{
			"bufferView":32,
			"componentType":5126,
			"count":38,
			"type":"VEC3"
		},
		{
			"bufferView":33,
			"componentType":5126,
			"count":38,
			"max":[
				0.196266770362854,
				1,
				0.7249497175216675
			],
			"min":[
				-0.196266770362854,
				-1,
				-0.7333025932312012
			],
			"type":"VEC3"
		},
		{
			"bufferView":34,
			"componentType":5126,
			"count":38,
			"type":"VEC3"
		},
		{
			"bufferView":35,
			"componentType":5126,
			"count":38,
			"type":"VEC2"
		},
		{
			"bufferView":36,
			"componentType":5126,
			"count":38,
			"type":"VEC3"
		},
		{
			"bufferView":37,
			"componentType":5126,
			"count":38,
			"max":[
				0.196266770362854,
				1,
				0.7249497175216675
			],
			"min":[
				-0.196266770362854,
				-1,
				-0.7333025932312012
			],
			"type":"VEC3"
		},
		{
			"bufferView":38,
			"componentType":5126,
			"count":38,
			"type":"VEC3"
		},
		{
			"bufferView":39,
			"componentType":5126,
			"count":38,
			"type":"VEC2"
		},
		{
			"bufferView":40,
			"componentType":5126,
			"count":38,
			"type":"VEC3"
		},
		{
			"bufferView":41,
			"componentType":5126,
			"count":38,
			"max":[
				0.196266770362854,
				1,
				0.7249497175216675
			],
			"min":[
				-0.196266770362854,
				-1,
				-0.7333025932312012
			],
			"type":"VEC3"
		},
		{
			"bufferView":42,
			"componentType":5126,
			"count":38,
			"type":"VEC3"
		},
		{
			"bufferView":43,
			"componentType":5126,
			"count":38,
			"type":"VEC2"
		},
		{
			"bufferView":44,
			"componentType":5126,
			"count":38,
			"type":"VEC3"
		},
		{
			"bufferView":45,
			"componentType":5126,
			"count":38,
			"max":[
				0.196266770362854,
				1,
				0.7249497175216675
			],
			"min":[
				-0.196266770362854,
				-1,
				-0.7333025932312012
			],
			"type":"VEC3"
		},
		{
			"bufferView":46,
			"componentType":5126,
			"count":38,
			"type":"VEC3"
		},
		{
			"bufferView":47,
			"componentType":5126,
			"count":38,
			"type":"VEC2"
		},
		{
			"bufferView":48,
			"componentType":5126,
			"count":38,
			"type":"VEC3"
		},
		{
			"bufferView":49,
			"componentType":5126,
			"count":38,
			"max":[
				0.196266770362854,
				1,
				0.7249497175216675
			],
			"min":[
				-0.196266770362854,
				-1,
				-0.7333025932312012
			],
			"type":"VEC3"
		},
		{
			"bufferView":50,
			"componentType":5126,
			"count":38,
			"type":"VEC3"
		},
		{
			"bufferView":51,
			"componentType":5126,
			"count":38,
			"type":"VEC2"
		},
		{
			"bufferView":52,
			"componentType":5126,
			"count":38,
			"type":"VEC3"
		},
		{
			"bufferView":53,
			"componentType":5126,
			"count":38,
			"max":[
				0.196266770362854,
				1,
				0.7249497175216675
			],
			"min":[
				-0.196266770362854,
				-1,
				-0.7333025932312012
			],
			"type":"VEC3"
		},
		{
			"bufferView":54,
			"componentType":5126,
			"count":38,
			"type":"VEC3"
		},
		{
			"bufferView":55,
			"componentType":5126,
			"count":38,
			"type":"VEC2"
		},
		{
			"bufferView":56,
			"componentType":5126,
			"count":38,
			"type":"VEC3"
		},
		{
			"bufferView":57,
			"componentType":5126,
			"count":38,
			"max":[
				0.196266770362854,
				1,
				0.7249497175216675
			],
			"min":[
				-0.196266770362854,
				-1,
				-0.7333025932312012
			],
			"type":"VEC3"
		},
		{
			"bufferView":58,
			"componentType":5126,
			"count":38,
			"type":"VEC3"
		},
		{
			"bufferView":59,
			"componentType":5126,
			"count":38,
			"type":"VEC2"
		},
		{
			"bufferView":60,
			"componentType":5126,
			"count":38,
			"type":"VEC3"
		},
		{
			"bufferView":61,
			"componentType":5126,
			"count":38,
			"max":[
				0.196266770362854,
				1,
				0.7249497175216675
			],
			"min":[
				-0.196266770362854,
				-1,
				-0.7333025932312012
			],
			"type":"VEC3"
		},
		{
			"bufferView":62,
			"componentType":5126,
			"count":38,
			"type":"VEC3"
		},
		{
			"bufferView":63,
			"componentType":5126,
			"count":38,
			"type":"VEC2"
		},
		{
			"bufferView":64,
			"componentType":5126,
			"count":38,
			"type":"VEC3"
		},
		{
			"bufferView":65,
			"componentType":5126,
			"count":38,
			"max":[
				0.196266770362854,
				1,
				0.7249497175216675
			],
			"min":[
				-0.196266770362854,
				-1,
				-0.7333025932312012
			],
			"type":"VEC3"
		},
		{
			"bufferView":66,
			"componentType":5126,
			"count":38,
			"type":"VEC3"
		},
		{
			"bufferView":67,
			"componentType":5126,
			"count":38,
			"type":"VEC2"
		},
		{
			"bufferView":68,
			"componentType":5126,
			"count":38,
			"type":"VEC3"
		},
		{
			"bufferView":69,
			"componentType":5126,
			"count":38,
			"max":[
				0.196266770362854,
				1,
				0.7249497175216675
			],
			"min":[
				-0.196266770362854,
				-1,
				-0.7333025932312012
			],
			"type":"VEC3"
		},
		{
			"bufferView":70,
			"componentType":5126,
			"count":38,
			"type":"VEC3"
		},
		{
			"bufferView":71,
			"componentType":5126,
			"count":38,
			"type":"VEC2"
		},
		{
			"bufferView":72,
			"componentType":5126,
			"count":38,
			"type":"VEC3"
		},
		{
			"bufferView":73,
			"componentType":5126,
			"count":38,
			"max":[
				0.196266770362854,
				1,
				0.7249497175216675
			],
			"min":[
				-0.196266770362854,
				-1,
				-0.7333025932312012
			],
			"type":"VEC3"
		},
		{
			"bufferView":74,
			"componentType":5126,
			"count":38,
			"type":"VEC3"
		},
		{
			"bufferView":75,
			"componentType":5126,
			"count":38,
			"type":"VEC2"
		},
		{
			"bufferView":76,
			"componentType":5126,
			"count":38,
			"type":"VEC3"
		},
		{
			"bufferView":77,
			"componentType":5126,
			"count":38,
			"max":[
				0.196266770362854,
				1,
				0.7249497175216675
			],
			"min":[
				-0.196266770362854,
				-1,
				-0.7333025932312012
			],
			"type":"VEC3"
		},
		{
			"bufferView":78,
			"componentType":5126,
			"count":38,
			"type":"VEC3"
		},
		{
			"bufferView":79,
			"componentType":5126,
			"count":38,
			"type":"VEC2"
		},
		{
			"bufferView":80,
			"componentType":5126,
			"count":38,
			"type":"VEC3"
		},
		{
			"bufferView":81,
			"componentType":5126,
			"count":38,
			"max":[
				0.196266770362854,
				1,
				0.7249497175216675
			],
			"min":[
				-0.196266770362854,
				-1,
				-0.7333025932312012
			],
			"type":"VEC3"
		},
		{
			"bufferView":82,
			"componentType":5126,
			"count":38,
			"type":"VEC3"
		},
		{
			"bufferView":83,
			"componentType":5126,
			"count":38,
			"type":"VEC2"
		},
		{
			"bufferView":84,
			"componentType":5126,
			"count":38,
			"type":"VEC3"
		},
		{
			"bufferView":85,
			"componentType":5126,
			"count":38,
			"max":[
				0.196266770362854,
				1,
				0.7249497175216675
			],
			"min":[
				-0.196266770362854,
				-1,
				-0.7333025932312012
			],
			"type":"VEC3"
		},
		{
			"bufferView":86,
			"componentType":5126,
			"count":38,
			"type":"VEC3"
		},
		{
			"bufferView":87,
			"componentType":5126,
			"count":38,
			"type":"VEC2"
		},
		{
			"bufferView":88,
			"componentType":5126,
			"count":38,
			"type":"VEC3"
		},
		{
			"bufferView":89,
			"componentType":5126,
			"count":38,
			"max":[
				0.196266770362854,
				1,
				0.7249497175216675
			],
			"min":[
				-0.196266770362854,
				-1,
				-0.7333025932312012
			],
			"type":"VEC3"
		},
		{
			"bufferView":90,
			"componentType":5126,
			"count":38,
			"type":"VEC3"
		},
		{
			"bufferView":91,
			"componentType":5126,
			"count":38,
			"type":"VEC2"
		},
		{
			"bufferView":92,
			"componentType":5126,
			"count":38,
			"type":"VEC3"
		},
		{
			"bufferView":93,
			"componentType":5126,
			"count":38,
			"max":[
				0.196266770362854,
				1,
				0.7249497175216675
			],
			"min":[
				-0.196266770362854,
				-1,
				-0.7333025932312012
			],
			"type":"VEC3"
		},
		{
			"bufferView":94,
			"componentType":5126,
			"count":38,
			"type":"VEC3"
		},
		{
			"bufferView":95,
			"componentType":5126,
			"count":38,
			"type":"VEC2"
		},
		{
			"bufferView":96,
			"componentType":5126,
			"count":38,
			"type":"VEC3"
		},
		{
			"bufferView":97,
			"componentType":5126,
			"count":38,
			"max":[
				0.196266770362854,
				1,
				0.7249497175216675
			],
			"min":[
				-0.196266770362854,
				-1,
				-0.7333025932312012
			],
			"type":"VEC3"
		},
		{
			"bufferView":98,
			"componentType":5126,
			"count":38,
			"type":"VEC3"
		},
		{
			"bufferView":99,
			"componentType":5126,
			"count":38,
			"type":"VEC2"
		},
		{
			"bufferView":100,
			"componentType":5126,
			"count":38,
			"type":"VEC3"
		},
		{
			"bufferView":101,
			"componentType":5126,
			"count":38,
			"max":[
				0.196266770362854,
				1,
				0.7249497175216675
			],
			"min":[
				-0.196266770362854,
				-1,
				-0.7333025932312012
			],
			"type":"VEC3"
		},
		{
			"bufferView":102,
			"componentType":5126,
			"count":38,
			"type":"VEC3"
		},
		{
			"bufferView":103,
			"componentType":5126,
			"count":38,
			"type":"VEC2"
		},
		{
			"bufferView":104,
			"componentType":5126,
			"count":38,
			"type":"VEC3"
		},
		{
			"bufferView":105,
			"componentType":5126,
			"count":38,
			"max":[
				0.196266770362854,
				1,
				0.7249497175216675
			],
			"min":[
				-0.196266770362854,
				-1,
				-0.7333025932312012
			],
			"type":"VEC3"
		},
		{
			"bufferView":106,
			"componentType":5126,
			"count":38,
			"type":"VEC3"
		},
		{
			"bufferView":107,
			"componentType":5126,
			"count":38,
			"type":"VEC2"
		},
		{
			"bufferView":108,
			"componentType":5126,
			"count":38,
			"type":"VEC3"
		},
		{
			"bufferView":109,
			"componentType":5126,
			"count":38,
			"max":[
				0.196266770362854,
				1,
				0.7249497175216675
			],
			"min":[
				-0.196266770362854,
				-1,
				-0.7333025932312012
			],
			"type":"VEC3"
		},
		{
			"bufferView":110,
			"componentType":5126,
			"count":38,
			"type":"VEC3"
		},
		{
			"bufferView":111,
			"componentType":5126,
			"count":38,
			"type":"VEC2"
		},
		{
			"bufferView":112,
			"componentType":5126,
			"count":38,
			"type":"VEC3"
		},
		{
			"bufferView":113,
			"componentType":5126,
			"count":38,
			"max":[
				0.196266770362854,
				1,
				0.7249497175216675
			],
			"min":[
				-0.196266770362854,
				-1,
				-0.7333025932312012
			],
			"type":"VEC3"
		},
		{
			"bufferView":114,
			"componentType":5126,
			"count":38,
			"type":"VEC3"
		},
		{
			"bufferView":115,
			"componentType":5126,
			"count":38,
			"type":"VEC2"
		},
		{
			"bufferView":116,
			"componentType":5126,
			"count":38,
			"type":"VEC3"
		},
		{
			"bufferView":117,
			"componentType":5126,
			"count":38,
			"max":[
				0.196266770362854,
				1,
				0.7249497175216675
			],
			"min":[
				-0.196266770362854,
				-1,
				-0.7333025932312012
			],
			"type":"VEC3"
		},
		{
			"bufferView":118,
			"componentType":5126,
			"count":38,
			"type":"VEC3"
		},
		{
			"bufferView":119,
			"componentType":5126,
			"count":38,
			"type":"VEC2"
		},
		{
			"bufferView":120,
			"componentType":5126,
			"count":38,
			"type":"VEC3"
		},
		{
			"bufferView":121,
			"componentType":5126,
			"count":38,
			"max":[
				0.196266770362854,
				1,
				0.7249497175216675
			],
			"min":[
				-0.196266770362854,
				-1,
				-0.7333025932312012
			],
			"type":"VEC3"
		},
		{
			"bufferView":122,
			"componentType":5126,
			"count":38,
			"type":"VEC3"
		},
		{
			"bufferView":123,
			"componentType":5126,
			"count":38,
			"type":"VEC2"
		},
		{
			"bufferView":124,
			"componentType":5126,
			"count":38,
			"type":"VEC3"
		},
		{
			"bufferView":125,
			"componentType":5126,
			"count":38,
			"max":[
				0.196266770362854,
				1,
				0.7249497175216675
			],
			"min":[
				-0.196266770362854,
				-1,
				-0.7333025932312012
			],
			"type":"VEC3"
		},
		{
			"bufferView":126,
			"componentType":5126,
			"count":38,
			"type":"VEC3"
		},
		{
			"bufferView":127,
			"componentType":5126,
			"count":38,
			"type":"VEC2"
		},
		{
			"bufferView":128,
			"componentType":5126,
			"count":38,
			"type":"VEC3"
		},
		{
			"bufferView":129,
			"componentType":5126,
			"count":38,
			"max":[
				0.196266770362854,
				1,
				0.7249497175216675
			],
			"min":[
				-0.196266770362854,
				-1,
				-0.7333025932312012
			],
			"type":"VEC3"
		},
		{
			"bufferView":130,
			"componentType":5126,
			"count":38,
			"type":"VEC3"
		},
		{
			"bufferView":131,
			"componentType":5126,
			"count":38,
			"type":"VEC2"
		},
		{
			"bufferView":132,
			"componentType":5126,
			"count":38,
			"type":"VEC3"
		},
		{
			"bufferView":133,
			"componentType":5126,
			"count":38,
			"max":[
				0.196266770362854,
				1,
				0.7249497175216675
			],
			"min":[
				-0.196266770362854,
				-1,
				-0.7333025932312012
			],
			"type":"VEC3"
		},
		{
			"bufferView":134,
			"componentType":5126,
			"count":38,
			"type":"VEC3"
		},
		{
			"bufferView":135,
			"componentType":5126,
			"count":38,
			"type":"VEC2"
		},
		{
			"bufferView":136,
			"componentType":5126,
			"count":38,
			"type":"VEC3"
		},
		{
			"bufferView":137,
			"componentType":5126,
			"count":38,
			"max":[
				0.196266770362854,
				1,
				0.7249497175216675
			],
			"min":[
				-0.196266770362854,
				-1,
				-0.7333025932312012
			],
			"type":"VEC3"
		},
		{
			"bufferView":138,
			"componentType":5126,
			"count":38,
			"type":"VEC3"
		},
		{
			"bufferView":139,
			"componentType":5126,
			"count":38,
			"type":"VEC2"
		},
		{
			"bufferView":140,
			"componentType":5126,
			"count":38,
			"type":"VEC3"
		},
		{
			"bufferView":141,
			"componentType":5126,
			"count":38,
			"max":[
				0.196266770362854,
				1,
				0.7249497175216675
			],
			"min":[
				-0.196266770362854,
				-1,
				-0.7333025932312012
			],
			"type":"VEC3"
		},
		{
			"bufferView":142,
			"componentType":5126,
			"count":38,
			"type":"VEC3"
		},
		{
			"bufferView":143,
			"componentType":5126,
			"count":38,
			"type":"VEC2"
		},
		{
			"bufferView":144,
			"componentType":5126,
			"count":38,
			"type":"VEC3"
		},
		{
			"bufferView":145,
			"componentType":5126,
			"count":38,
			"max":[
				0.196266770362854,
				1,
				0.7249497175216675
			],
			"min":[
				-0.196266770362854,
				-1,
				-0.7333025932312012
			],
			"type":"VEC3"
		},
		{
			"bufferView":146,
			"componentType":5126,
			"count":38,
			"type":"VEC3"
		},
		{
			"bufferView":147,
			"componentType":5126,
			"count":38,
			"type":"VEC2"
		},
		{
			"bufferView":148,
			"componentType":5126,
			"count":38,
			"type":"VEC3"
		},
		{
			"bufferView":149,
			"componentType":5126,
			"count":38,
			"max":[
				0.196266770362854,
				1,
				0.7249497175216675
			],
			"min":[
				-0.196266770362854,
				-1,
				-0.7333025932312012
			],
			"type":"VEC3"
		},
		{
			"bufferView":150,
			"componentType":5126,
			"count":38,
			"type":"VEC3"
		},
		{
			"bufferView":151,
			"componentType":5126,
			"count":38,
			"type":"VEC2"
		},
		{
			"bufferView":152,
			"componentType":5126,
			"count":38,
			"type":"VEC3"
		},
		{
			"bufferView":153,
			"componentType":5126,
			"count":38,
			"max":[
				0.196266770362854,
				1,
				0.7249497175216675
			],
			"min":[
				-0.196266770362854,
				-1,
				-0.7333025932312012
			],
			"type":"VEC3"
		},
		{
			"bufferView":154,
			"componentType":5126,
			"count":38,
			"type":"VEC3"
		},
		{
			"bufferView":155,
			"componentType":5126,
			"count":38,
			"type":"VEC2"
		},
		{
			"bufferView":156,
			"componentType":5126,
			"count":38,
			"type":"VEC3"
		},
		{
			"bufferView":157,
			"componentType":5126,
			"count":38,
			"max":[
				0.196266770362854,
				1,
				0.7249497175216675
			],
			"min":[
				-0.196266770362854,
				-1,
				-0.7333025932312012
			],
			"type":"VEC3"
		},
		{
			"bufferView":158,
			"componentType":5126,
			"count":38,
			"type":"VEC3"
		},
		{
			"bufferView":159,
			"componentType":5126,
			"count":38,
			"type":"VEC2"
		},
		{
			"bufferView":160,
			"componentType":5126,
			"count":38,
			"type":"VEC3"
		},
		{
			"bufferView":161,
			"componentType":5126,
			"count":38,
			"max":[
				0.196266770362854,
				1,
				0.7249497175216675
			],
			"min":[
				-0.196266770362854,
				-1,
				-0.7333025932312012
			],
			"type":"VEC3"
		},
		{
			"bufferView":162,
			"componentType":5126,
			"count":38,
			"type":"VEC3"
		},
		{
			"bufferView":163,
			"componentType":5126,
			"count":38,
			"type":"VEC2"
		},
		{
			"bufferView":164,
			"componentType":5126,
			"count":38,
			"type":"VEC3"
		},
		{
			"bufferView":165,
			"componentType":5126,
			"count":38,
			"max":[
				0.196266770362854,
				1,
				0.7249497175216675
			],
			"min":[
				-0.196266770362854,
				-1,
				-0.7333025932312012
			],
			"type":"VEC3"
		},
		{
			"bufferView":166,
			"componentType":5126,
			"count":38,
			"type":"VEC3"
		},
		{
			"bufferView":167,
			"componentType":5126,
			"count":38,
			"type":"VEC2"
		},
		{
			"bufferView":168,
			"componentType":5126,
			"count":38,
			"type":"VEC3"
		},
		{
			"bufferView":169,
			"componentType":5126,
			"count":38,
			"max":[
				0.196266770362854,
				1,
				0.7249497175216675
			],
			"min":[
				-0.196266770362854,
				-1,
				-0.7333025932312012
			],
			"type":"VEC3"
		},
		{
			"bufferView":170,
			"componentType":5126,
			"count":38,
			"type":"VEC3"
		},
		{
			"bufferView":171,
			"componentType":5126,
			"count":38,
			"type":"VEC2"
		},
		{
			"bufferView":172,
			"componentType":5126,
			"count":38,
			"type":"VEC3"
		},
		{
			"bufferView":173,
			"componentType":5126,
			"count":38,
			"max":[
				0.196266770362854,
				1,
				0.7249497175216675
			],
			"min":[
				-0.196266770362854,
				-1,
				-0.7333025932312012
			],
			"type":"VEC3"
		},
		{
			"bufferView":174,
			"componentType":5126,
			"count":38,
			"type":"VEC3"
		},
		{
			"bufferView":175,
			"componentType":5126,
			"count":38,
			"type":"VEC2"
		},
		{
			"bufferView":176,
			"componentType":5126,
			"count":38,
			"type":"VEC3"
		}
	],
	"bufferViews":[
		{
			"buffer":0,
			"byteLength":456,
			"byteOffset":0,
			"target":34962
		},
		{
			"buffer":0,
			"byteLength":456,
			"byteOffset":456,
			"target":34962
		},
		{
			"buffer":0,
			"byteLength":304,
			"byteOffset":912,
			"target":34962
		},
		{
			"buffer":0,
			"byteLength":456,
			"byteOffset":1216,
			"target":34962
		},
		{
			"buffer":0,
			"byteLength":168,
			"byteOffset":1672,
			"target":34963
		},
		{
			"buffer":0,
			"byteLength":456,
			"byteOffset":1840,
			"target":34962
		},
		{
			"buffer":0,
			"byteLength":456,
			"byteOffset":2296,
			"target":34962
		},
		{
			"buffer":0,
			"byteLength":304,
			"byteOffset":2752,
			"target":34962
		},
		{
			"buffer":0,
			"byteLength":456,
			"byteOffset":3056,
			"target":34962
		},
		{
			"buffer":0,
			"byteLength":456,
			"byteOffset":3512,
			"target":34962
		},
		{
			"buffer":0,
			"byteLength":456,
			"byteOffset":3968,
			"target":34962
		},
		{
			"buffer":0,
			"byteLength":304,
			"byteOffset":4424,
			"target":34962
		},
		{
			"buffer":0,
			"byteLength":456,
			"byteOffset":4728,
			"target":34962
		},
		{
			"buffer":0,
			"byteLength":456,
			"byteOffset":5184,
			"target":34962
		},
		{
			"buffer":0,
			"byteLength":456,
			"byteOffset":5640,
			"target":34962
		},
		{
			"buffer":0,
			"byteLength":304,
			"byteOffset":6096,
			"target":34962
		},
		{
			"buffer":0,
			"byteLength":456,
			"byteOffset":6400,
			"target":34962
		},
		{
			"buffer":0,
			"byteLength":456,
			"byteOffset":6856,
			"target":34962
		},
		{
			"buffer":0,
			"byteLength":456,
			"byteOffset":7312,
			"target":34962
		},
		{
			"buffer":0,
			"byteLength":304,
			"byteOffset":7768,
			"target":34962
		},
		{
			"buffer":0,
			"byteLength":456,
			"byteOffset":8072,
			"target":34962
		},
		{
			"buffer":0,
			"byteLength":456,
			"byteOffset":8528,
			"target":34962
		},
		{
			"buffer":0,
			"byteLength":456,
			"byteOffset":8984,
			"target":34962
		},
		{
			"buffer":0,
			"byteLength":304,
			"byteOffset":9440,
			"target":34962
		},
		{
			"buffer":0,
			"byteLength":456,
			"byteOffset":9744,
			"target":34962
		},
		{
			"buffer":0,
			"byteLength":456,
			"byteOffset":10200,
			"target":34962
		},
		{
			"buffer":0,
			"byteLength":456,
			"byteOffset":10656,
			"target":34962
		},
		{
			"buffer":0,
			"byteLength":304,
			"byteOffset":11112,
			"target":34962
		},
		{
			"buffer":0,
			"byteLength":456,
			"byteOffset":11416,
			"target":34962
		},
		{
			"buffer":0,
			"byteLength":456,
			"byteOffset":11872,
			"target":34962
		},
		{
			"buffer":0,
			"byteLength":456,
			"byteOffset":12328,
			"target":34962
		},
		{
			"buffer":0,
			"byteLength":304,
			"byteOffset":12784,
			"target":34962
		},
		{
			"buffer":0,
			"byteLength":456,
			"byteOffset":13088,
			"target":34962
		},
		{
			"buffer":0,
			"byteLength":456,
			"byteOffset":13544,
			"target":34962
		},
		{
			"buffer":0,
			"byteLength":456,
			"byteOffset":14000,
			"target":34962
		},
		{
			"buffer":0,
			"byteLength":304,
			"byteOffset":14456,
			"target":34962
		},
		{
			"buffer":0,
			"byteLength":456,
			"byteOffset":14760,
			"target":34962
		},
		{
			"buffer":0,
			"byteLength":456,
			"byteOffset":15216,
			"target":34962
		},
		{
			"buffer":0,
			"byteLength":456,
			"byteOffset":15672,
			"target":34962
		},
		{
			"buffer":0,
			"byteLength":304,
			"byteOffset":16128,
			"target":34962
		},
		{
			"buffer":0,
			"byteLength":456,
			"byteOffset":16432,
			"target":34962
		},
		{
			"buffer":0,
			"byteLength":456,
			"byteOffset":16888,
			"target":34962
		},
		{
			"buffer":0,
			"byteLength":456,
			"byteOffset":17344,
			"target":34962
		},
		{
			"buffer":0,
			"byteLength":304,
			"byteOffset":17800,
			"target":34962
		},
		{
			"buffer":0,
			"byteLength":456,
			"byteOffset":18104,
			"target":34962
		},
		{
			"buffer":0,
			"byteLength":456,
			"byteOffset":18560,
			"target":34962
		},
		{
			"buffer":0,
			"byteLength":456,
			"byteOffset":19016,
			"target":34962
		},
		{
			"buffer":0,
			"byteLength":304,
			"byteOffset":19472,
			"target":34962
		},
		{
			"buffer":0,
			"byteLength":456,
			"byteOffset":19776,
			"target":34962
		},
		{
			"buffer":0,
			"byteLength":456,
			"byteOffset":20232,
			"target":34962
		},
		{
			"buffer":0,
			"byteLength":456,
			"byteOffset":20688,
			"target":34962
		},
		{
			"buffer":0,
			"byteLength":304,
			"byteOffset":21144,
			"target":34962
		},
		{
			"buffer":0,
			"byteLength":456,
			"byteOffset":21448,
			"target":34962
		},
		{
			"buffer":0,
			"byteLength":456,
			"byteOffset":21904,
			"target":34962
		},
		{
			"buffer":0,
			"byteLength":456,
			"byteOffset":22360,
			"target":34962
		},
		{
			"buffer":0,
			"byteLength":304,
			"byteOffset":22816,
			"target":34962
		},
		{
			"buffer":0,
			"byteLength":456,
			"byteOffset":23120,
			"target":34962
		},
		{
			"buffer":0,
			"byteLength":456,
			"byteOffset":23576,
			"target":34962
		},
		{
			"buffer":0,
			"byteLength":456,
			"byteOffset":24032,
			"target":34962
		},
		{
			"buffer":0,
			"byteLength":304,
			"byteOffset":24488,
			"target":34962
		},
		{
			"buffer":0,
			"byteLength":456,
			"byteOffset":24792,
			"target":34962
		},
		{
			"buffer":0,
			"byteLength":456,
			"byteOffset":25248,
			"target":34962
		},
		{
			"buffer":0,
			"byteLength":456,
			"byteOffset":25704,
			"target":34962
		},
		{
			"buffer":0,
			"byteLength":304,
			"byteOffset":26160,
			"target":34962
		},
		{
			"buffer":0,
			"byteLength":456,
			"byteOffset":26464,
			"target":34962
		},
		{
			"buffer":0,
			"byteLength":456,
			"byteOffset":26920,
			"target":34962
		},
		{
			"buffer":0,
			"byteLength":456,
			"byteOffset":27376,
			"target":34962
		},
		{
			"buffer":0,
			"byteLength":304,
			"byteOffset":27832,
			"target":34962
		},
		{
			"buffer":0,
			"byteLength":456,
			"byteOffset":28136,
			"target":34962
		},
		{
			"buffer":0,
			"byteLength":456,
			"byteOffset":28592,
			"target":34962
		},
		{
			"buffer":0,
			"byteLength":456,
			"byteOffset":29048,
			"target":34962
		},
		{
			"buffer":0,
			"byteLength":304,
			"byteOffset":29504,
			"target":34962
		},
		{
			"buffer":0,
			"byteLength":456,
			"byteOffset":29808,
			"target":34962
		},
		{
			"buffer":0,
			"byteLength":456,
			"byteOffset":30264,
			"target":34962
		},
		{
			"buffer":0,
			"byteLength":456,
			"byteOffset":30720,
			"target":34962
		},
		{
			"buffer":0,
			"byteLength":304,
			"byteOffset":31176,
			"target":34962
		},
		{
			"buffer":0,
			"byteLength":456,
			"byteOffset":31480,
			"target":34962
		},
		{
			"buffer":0,
			"byteLength":456,
			"byteOffset":31936,
			"target":34962
		},
		{
			"buffer":0,
			"byteLength":456,
			"byteOffset":32392,
			"target":34962
		},
		{
			"buffer":0,
			"byteLength":304,
			"byteOffset":32848,
			"target":34962
		},
		{
			"buffer":0,
			"byteLength":456,
			"byteOffset":33152,
			"target":34962
		},
		{
			"buffer":0,
			"byteLength":456,
			"byteOffset":33608,
			"target":34962
		},
		{
			"buffer":0,
			"byteLength":456,
			"byteOffset":34064,
			"target":34962
		},
		{
			"buffer":0,
			"byteLength":304,
			"byteOffset":34520,
			"target":34962
		},
		{
			"buffer":0,
			"byteLength":456,
			"byteOffset":34824,
			"target":34962
		},
		{
			"buffer":0,
			"byteLength":456,
			"byteOffset":35280,
			"target":34962
		},
		{
			"buffer":0,
			"byteLength":456,
			"byteOffset":35736,
			"target":34962
		},
		{
			"buffer":0,
			"byteLength":304,
			"byteOffset":36192,
			"target":34962
		},
		{
			"buffer":0,
			"byteLength":456,
			"byteOffset":36496,
			"target":34962
		},
		{
			"buffer":0,
			"byteLength":456,
			"byteOffset":36952,
			"target":34962
		},
		{
			"buffer":0,
			"byteLength":456,
			"byteOffset":37408,
			"target":34962
		},
		{
			"buffer":0,
			"byteLength":304,
			"byteOffset":37864,
			"target":34962
		},
		{
			"buffer":0,
			"byteLength":456,
			"byteOffset":38168,
			"target":34962
		},
		{
			"buffer":0,
			"byteLength":456,
			"byteOffset":38624,
			"target":34962
		},
		{
			"buffer":0,
			"byteLength":456,
			"byteOffset":39080,
			"target":34962
		},
		{
			"buffer":0,
			"byteLength":304,
			"byteOffset":39536,
			"target":34962
		},
		{
			"buffer":0,
			"byteLength":456,
			"byteOffset":39840,
			"target":34962
		},
		{
			"buffer":0,
			"byteLength":456,
			"byteOffset":40296,
			"target":34962
		},
		{
			"buffer":0,
			"byteLength":456,
			"byteOffset":40752,
			"target":34962
		},
		{
			"buffer":0,
			"byteLength":304,
			"byteOffset":41208,
			"target":34962
		},
		{
			"buffer":0,
			"byteLength":456,
			"byteOffset":41512,
			"target":34962
		},
		{
			"buffer":0,
			"byteLength":456,
			"byteOffset":41968,
			"target":34962
		},
		{
			"buffer":0,
			"byteLength":456,
			"byteOffset":42424,
			"target":34962
		},
		{
			"buffer":0,
			"byteLength":304,
			"byteOffset":42880,
			"target":34962
		},
		{
			"buffer":0,
			"byteLength":456,
			"byteOffset":43184,
			"target":34962
		},
		{
			"buffer":0,
			"byteLength":456,
			"byteOffset":43640,
			"target":34962
		},
		{
			"buffer":0,
			"byteLength":456,
			"byteOffset":44096,
			"target":34962
		},
		{
			"buffer":0,
			"byteLength":304,
			"byteOffset":44552,
			"target":34962
		},
		{
			"buffer":0,
			"byteLength":456,
			"byteOffset":44856,
			"target":34962
		},
		{
			"buffer":0,
			"byteLength":456,
			"byteOffset":45312,
			"target":34962
		},
		{
			"buffer":0,
			"byteLength":456,
			"byteOffset":45768,
			"target":34962
		},
		{
			"buffer":0,
			"byteLength":304,
			"byteOffset":46224,
			"target":34962
		},
		{
			"buffer":0,
			"byteLength":456,
			"byteOffset":46528,
			"target":34962
		},
		{
			"buffer":0,
			"byteLength":456,
			"byteOffset":46984,
			"target":34962
		},
		{
			"buffer":0,
			"byteLength":456,
			"byteOffset":47440,
			"target":34962
		},
		{
			"buffer":0,
			"byteLength":304,
			"byteOffset":47896,
			"target":34962
		},
		{
			"buffer":0,
			"byteLength":456,
			"byteOffset":48200,
			"target":34962
		},
		{
			"buffer":0,
			"byteLength":456,
			"byteOffset":48656,
			"target":34962
		},
		{
			"buffer":0,
			"byteLength":456,
			"byteOffset":49112,
			"target":34962
		},
		{
			"buffer":0,
			"byteLength":304,
			"byteOffset":49568,
			"target":34962
		},
		{
			"buffer":0,
			"byteLength":456,
			"byteOffset":49872,
			"target":34962
		},
		{
			"buffer":0,
			"byteLength":456,
			"byteOffset":50328,
			"target":34962
		},
		{
			"buffer":0,
			"byteLength":456,
			"byteOffset":50784,
			"target":34962
		},
		{
			"buffer":0,
			"byteLength":304,
			"byteOffset":51240,
			"target":34962
		},
		{
			"buffer":0,
			"byteLength":456,
			"byteOffset":51544,
			"target":34962
		},
		{
			"buffer":0,
			"byteLength":456,
			"byteOffset":52000,
			"target":34962
		},
		{
			"buffer":0,
			"byteLength":456,
			"byteOffset":52456,
			"target":34962
		},
		{
			"buffer":0,
			"byteLength":304,
			"byteOffset":52912,
			"target":34962
		},
		{
			"buffer":0,
			"byteLength":456,
			"byteOffset":53216,
			"target":34962
		},
		{
			"buffer":0,
			"byteLength":456,
			"byteOffset":53672,
			"target":34962
		},
		{
			"buffer":0,
			"byteLength":456,
			"byteOffset":54128,
			"target":34962
		},
		{
			"buffer":0,
			"byteLength":304,
			"byteOffset":54584,
			"target":34962
		},
		{
			"buffer":0,
			"byteLength":456,
			"byteOffset":54888,
			"target":34962
		},
		{
			"buffer":0,
			"byteLength":456,
			"byteOffset":55344,
			"target":34962
		},
		{
			"buffer":0,
			"byteLength":456,
			"byteOffset":55800,
			"target":34962
		},
		{
			"buffer":0,
			"byteLength":304,
			"byteOffset":56256,
			"target":34962
		},
		{
			"buffer":0,
			"byteLength":456,
			"byteOffset":56560,
			"target":34962
		},
		{
			"buffer":0,
			"byteLength":456,
			"byteOffset":57016,
			"target":34962
		},
		{
			"buffer":0,
			"byteLength":456,
			"byteOffset":57472,
			"target":34962
		},
		{
			"buffer":0,
			"byteLength":304,
			"byteOffset":57928,
			"target":34962
		},
		{
			"buffer":0,
			"byteLength":456,
			"byteOffset":58232,
			"target":34962
		},
		{
			"buffer":0,
			"byteLength":456,
			"byteOffset":58688,
			"target":34962
		},
		{
			"buffer":0,
			"byteLength":456,
			"byteOffset":59144,
			"target":34962
		},
		{
			"buffer":0,
			"byteLength":304,
			"byteOffset":59600,
			"target":34962
		},
		{
			"buffer":0,
			"byteLength":456,
			"byteOffset":59904,
			"target":34962
		},
		{
			"buffer":0,
			"byteLength":456,
			"byteOffset":60360,
			"target":34962
		},
		{
			"buffer":0,
			"byteLength":456,
			"byteOffset":60816,
			"target":34962
		},
		{
			"buffer":0,
			"byteLength":304,
			"byteOffset":61272,
			"target":34962
		},
		{
			"buffer":0,
			"byteLength":456,
			"byteOffset":61576,
			"target":34962
		},
		{
			"buffer":0,
			"byteLength":456,
			"byteOffset":62032,
			"target":34962
		},
		{
			"buffer":0,
			"byteLength":456,
			"byteOffset":62488,
			"target":34962
		},
		{
			"buffer":0,
			"byteLength":304,
			"byteOffset":62944,
			"target":34962
		},
		{
			"buffer":0,
			"byteLength":456,
			"byteOffset":63248,
			"target":34962
		},
		{
			"buffer":0,
			"byteLength":456,
			"byteOffset":63704,
			"target":34962
		},
		{
			"buffer":0,
			"byteLength":456,
			"byteOffset":64160,
			"target":34962
		},
		{
			"buffer":0,
			"byteLength":304,
			"byteOffset":64616,
			"target":34962
		},
		{
			"buffer":0,
			"byteLength":456,
			"byteOffset":64920,
			"target":34962
		},
		{
			"buffer":0,
			"byteLength":456,
			"byteOffset":65376,
			"target":34962
		},
		{
			"buffer":0,
			"byteLength":456,
			"byteOffset":65832,
			"target":34962
		},
		{
			"buffer":0,
			"byteLength":304,
			"byteOffset":66288,
			"target":34962
		},
		{
			"buffer":0,
			"byteLength":456,
			"byteOffset":66592,
			"target":34962
		},
		{
			"buffer":0,
			"byteLength":456,
			"byteOffset":67048,
			"target":34962
		},
		{
			"buffer":0,
			"byteLength":456,
			"byteOffset":67504,
			"target":34962
		},
		{
			"buffer":0,
			"byteLength":304,
			"byteOffset":67960,
			"target":34962
		},
		{
			"buffer":0,
			"byteLength":456,
			"byteOffset":68264,
			"target":34962
		},
		{
			"buffer":0,
			"byteLength":456,
			"byteOffset":68720,
			"target":34962
		},
		{
			"buffer":0,
			"byteLength":456,
			"byteOffset":69176,
			"target":34962
		},
		{
			"buffer":0,
			"byteLength":304,
			"byteOffset":69632,
			"target":34962
		},
		{
			"buffer":0,
			"byteLength":456,
			"byteOffset":69936,
			"target":34962
		},
		{
			"buffer":0,
			"byteLength":456,
			"byteOffset":70392,
			"target":34962
		},
		{
			"buffer":0,
			"byteLength":456,
			"byteOffset":70848,
			"target":34962
		},
		{
			"buffer":0,
			"byteLength":304,
			"byteOffset":71304,
			"target":34962
		},
		{
			"buffer":0,
			"byteLength":456,
			"byteOffset":71608,
			"target":34962
		},
		{
			"buffer":0,
			"byteLength":456,
			"byteOffset":72064,
			"target":34962
		},
		{
			"buffer":0,
			"byteLength":456,
			"byteOffset":72520,
			"target":34962
		},
		{
			"buffer":0,
			"byteLength":304,
			"byteOffset":72976,
			"target":34962
		},
		{
			"buffer":0,
			"byteLength":456,
			"byteOffset":73280,
			"target":34962
		}
	],
	"buffers":[
		{
			"byteLength":73736,
			"uri":"stairs_bookstack.bin"
		}
	]
}
