{
	"asset":{
		"generator":"Khronos glTF Blender I/O v5.0.21",
		"version":"2.0"
	},
	"extensionsUsed":[
		"KHR_texture_transform"
	],
	"extensionsRequired":[
		"KHR_texture_transform"
	],
	"scene":0,
	"scenes":[
		{
			"name":"stair_wide",
			"nodes":[
				0
			]
		}
	],
	"nodes":[
		{
			"mesh":0,
			"name":"Cube.001",
			"rotation":[
				0,
				-0.7071067094802856,
				0,
				0.7071068286895752
			]
		}
	],
	"materials":[
		{
			"doubleSided":true,
			"name":"yellow wall",
			"pbrMetallicRoughness":{
				"baseColorTexture":{
					"extensions":{
						"KHR_texture_transform":{
							"offset":[
								0,
								-1.0099999904632568
							],
							"scale":[
								2.0099997520446777,
								2.009999990463257
							]
						}
					},
					"index":0
				},
				"metallicFactor":0,
				"roughnessFactor":0.5
			}
		},
		{
			"doubleSided":true,
			"name":"steps",
			"pbrMetallicRoughness":{
				"metallicFactor":0,
				"roughnessFactor":0.5
			}
		},
		{
			"doubleSided":true,
			"name":"floor",
			"pbrMetallicRoughness":{
				"metallicFactor":0,
				"roughnessFactor":0.5
			}
		}
	],
	"meshes":[
		{
			"name":"Cube.002",
			"primitives":[
				{
					"attributes":{
						"POSITION":0,
						"NORMAL":1,
						"TEXCOORD_0":2,
						"COLOR_0":3
					},
					"indices":4,
					"material":0
				},
				{
					"attributes":{
						"POSITION":5,
						"NORMAL":6,
						"TEXCOORD_0":7,
						"COLOR_0":8
					},
					"indices":9,
					"material":1
				},
				{
					"attributes":{
						"POSITION":10,
						"NORMAL":11,
						"TEXCOORD_0":12,
						"COLOR_0":13
					},
					"indices":14,
					"material":2
				}
			]
		}
	],
	"textures":[
		{
			"sampler":0,
			"source":0
		}
	],
	"images":[
		{
			"mimeType":"image/png",
			"name":"atlas",
			"uri":"atlas.png"
		}
	],
	"accessors":[
		{
			"bufferView":0,
			"componentType":5126,
			"count":82,
			"max":[
				1.3064690828323364,
				1.7047581672668457,
				1.4558463096618652
			],
			"min":[
				-2.185356378555298,
				-3.322451591491699,
				-1.4558463096618652
			],
			"type":"VEC3"
		},
		{
			"bufferView":1,
			"componentType":5126,
			"count":82,
			"type":"VEC3"
		},
		{
			"bufferView":2,
			"componentType":5126,
			"count":82,
			"type":"VEC2"
		},
		{
			"bufferView":3,
			"componentType":5126,
			"count":82,
			"type":"VEC3"
		},
		{
			"bufferView":4,
			"componentType":5123,
			"count":324,
			"type":"SCALAR"
		},
		{
			"bufferView":5,
			"componentType":5126,
			"count":160,
			"max":[
				1.3064690828323364,
				1.789048194885254,
				1.4558463096618652
			],
			"min":[
				-2.185356378555298,
				0.5165277719497681,
				-1.4558463096618652
			],
			"type":"VEC3"
		},
		{
			"bufferView":6,
			"componentType":5126,
			"count":160,
			"type":"VEC3"
		},
		{
			"bufferView":7,
			"componentType":5126,
			"count":160,
			"type":"VEC2"
		},
		{
			"bufferView":8,
			"componentType":5126,
			"count":160,
			"type":"VEC3"
		},
		{
			"bufferView":9,
			"componentType":5123,
			"count":528,
			"type":"SCALAR"
		},
		{
			"bufferView":10,
			"componentType":5126,
			"count":54,
			"max":[
				1.3064690828323364,
				1.789048194885254,
				1.3352758884429932
			],
			"min":[
				-2.1558382511138916,
				-3.322451591491699,
				-1.3352758884429932
			],
			"type":"VEC3"
		},
		{
			"bufferView":11,
			"componentType":5126,
			"count":54,
			"type":"VEC3"
		},
		{
			"bufferView":12,
			"componentType":5126,
			"count":54,
			"type":"VEC2"
		},
		{
			"bufferView":13,
			"componentType":5126,
			"count":54,
			"type":"VEC3"
		},
		{
			"bufferView":14,
			"componentType":5123,
			"count":204,
			"type":"SCALAR"
		}
	],
	"bufferViews":[
		{
			"buffer":0,
			"byteLength":984,
			"byteOffset":0,
			"target":34962
		},
		{
			"buffer":0,
			"byteLength":984,
			"byteOffset":984,
			"target":34962
		},
		{
			"buffer":0,
			"byteLength":656,
			"byteOffset":1968,
			"target":34962
		},
		{
			"buffer":0,
			"byteLength":984,
			"byteOffset":2624,
			"target":34962
		},
		{
			"buffer":0,
			"byteLength":648,
			"byteOffset":3608,
			"target":34963
		},
		{
			"buffer":0,
			"byteLength":1920,
			"byteOffset":4256,
			"target":34962
		},
		{
			"buffer":0,
			"byteLength":1920,
			"byteOffset":6176,
			"target":34962
		},
		{
			"buffer":0,
			"byteLength":1280,
			"byteOffset":8096,
			"target":34962
		},
		{
			"buffer":0,
			"byteLength":1920,
			"byteOffset":9376,
			"target":34962
		},
		{
			"buffer":0,
			"byteLength":1056,
			"byteOffset":11296,
			"target":34963
		},
		{
			"buffer":0,
			"byteLength":648,
			"byteOffset":12352,
			"target":34962
		},
		{
			"buffer":0,
			"byteLength":648,
			"byteOffset":13000,
			"target":34962
		},
		{
			"buffer":0,
			"byteLength":432,
			"byteOffset":13648,
			"target":34962
		},
		{
			"buffer":0,
			"byteLength":648,
			"byteOffset":14080,
			"target":34962
		},
		{
			"buffer":0,
			"byteLength":408,
			"byteOffset":14728,
			"target":34963
		}
	],
	"samplers":[
		{
			"magFilter":9729,
			"minFilter":9987
		}
	],
	"buffers":[
		{
			"byteLength":15136,
			"uri":"stairs_wide.bin"
		}
	]
}
