{
	"asset":{
		"generator":"Khronos glTF Blender I/O v5.1.8",
		"version":"2.0"
	},
	"extensionsUsed":[
		"KHR_texture_transform"
	],
	"extensionsRequired":[
		"KHR_texture_transform"
	],
	"scene":0,
	"scenes":[
		{
			"name":"stair_wide_steps",
			"nodes":[
				0
			]
		}
	],
	"nodes":[
		{
			"mesh":0,
			"name":"Cube.004",
			"rotation":[
				0,
				-0.7071067094802856,
				0,
				0.7071068286895752
			]
		}
	],
	"materials":[
		{
			"doubleSided":true,
			"name":"yellow wall",
			"pbrMetallicRoughness":{
				"baseColorTexture":{
					"extensions":{
						"KHR_texture_transform":{
							"offset":[
								0,
								-1.0099999904632568
							],
							"scale":[
								2.0099997520446777,
								2.009999990463257
							]
						}
					},
					"index":0
				},
				"metallicFactor":0,
				"roughnessFactor":0.5
			}
		},
		{
			"doubleSided":true,
			"name":"steps",
			"pbrMetallicRoughness":{
				"metallicFactor":0,
				"roughnessFactor":0.5
			}
		},
		{
			"doubleSided":true,
			"name":"floor",
			"pbrMetallicRoughness":{
				"metallicFactor":0,
				"roughnessFactor":0.5
			}
		}
	],
	"meshes":[
		{
			"name":"Cube.003",
			"primitives":[
				{
					"attributes":{
						"POSITION":0,
						"NORMAL":1,
						"TEXCOORD_0":2,
						"COLOR_0":3
					},
					"indices":4,
					"material":0
				},
				{
					"attributes":{
						"POSITION":5,
						"NORMAL":6,
						"TEXCOORD_0":7,
						"COLOR_0":8
					},
					"indices":9,
					"material":1
				},
				{
					"attributes":{
						"POSITION":10,
						"NORMAL":11,
						"TEXCOORD_0":12,
						"COLOR_0":13
					},
					"indices":14,
					"material":2
				}
			]
		}
	],
	"textures":[
		{
			"sampler":0,
			"source":0
		}
	],
	"images":[
		{
			"mimeType":"image/png",
			"name":"atlas.png",
			"uri":"../Maps/Walls/yellow_floral_wallpaper/atlas.png"
		}
	],
	"accessors":[
		{
			"bufferView":0,
			"componentType":5126,
			"count":50,
			"max":[
				1.2217891216278076,
				1.704419493675232,
				1.454026699066162
			],
			"min":[
				-1.05013108253479,
				0.710404098033905,
				-1.454026699066162
			],
			"type":"VEC3"
		},
		{
			"bufferView":1,
			"componentType":5126,
			"count":50,
			"type":"VEC3"
		},
		{
			"bufferView":2,
			"componentType":5126,
			"count":50,
			"type":"VEC2"
		},
		{
			"bufferView":3,
			"componentType":5126,
			"count":50,
			"type":"VEC3"
		},
		{
			"bufferView":4,
			"componentType":5123,
			"count":156,
			"type":"SCALAR"
		},
		{
			"bufferView":5,
			"componentType":5126,
			"count":166,
			"max":[
				1.3064690828323364,
				1.789048194885254,
				1.454026699066162
			],
			"min":[
				-1.05013108253479,
				0.710404098033905,
				-1.454026699066162
			],
			"type":"VEC3"
		},
		{
			"bufferView":6,
			"componentType":5126,
			"count":166,
			"type":"VEC3"
		},
		{
			"bufferView":7,
			"componentType":5126,
			"count":166,
			"type":"VEC2"
		},
		{
			"bufferView":8,
			"componentType":5126,
			"count":166,
			"type":"VEC3"
		},
		{
			"bufferView":9,
			"componentType":5123,
			"count":564,
			"type":"SCALAR"
		},
		{
			"bufferView":10,
			"componentType":5126,
			"count":51,
			"max":[
				1.3064690828323364,
				1.789048194885254,
				1.33345627784729
			],
			"min":[
				-1.05013108253479,
				0.710404098033905,
				-1.33345627784729
			],
			"type":"VEC3"
		},
		{
			"bufferView":11,
			"componentType":5126,
			"count":51,
			"type":"VEC3"
		},
		{
			"bufferView":12,
			"componentType":5126,
			"count":51,
			"type":"VEC2"
		},
		{
			"bufferView":13,
			"componentType":5126,
			"count":51,
			"type":"VEC3"
		},
		{
			"bufferView":14,
			"componentType":5123,
			"count":192,
			"type":"SCALAR"
		}
	],
	"bufferViews":[
		{
			"buffer":0,
			"byteLength":600,
			"byteOffset":0,
			"target":34962
		},
		{
			"buffer":0,
			"byteLength":600,
			"byteOffset":600,
			"target":34962
		},
		{
			"buffer":0,
			"byteLength":400,
			"byteOffset":1200,
			"target":34962
		},
		{
			"buffer":0,
			"byteLength":600,
			"byteOffset":1600,
			"target":34962
		},
		{
			"buffer":0,
			"byteLength":312,
			"byteOffset":2200,
			"target":34963
		},
		{
			"buffer":0,
			"byteLength":1992,
			"byteOffset":2512,
			"target":34962
		},
		{
			"buffer":0,
			"byteLength":1992,
			"byteOffset":4504,
			"target":34962
		},
		{
			"buffer":0,
			"byteLength":1328,
			"byteOffset":6496,
			"target":34962
		},
		{
			"buffer":0,
			"byteLength":1992,
			"byteOffset":7824,
			"target":34962
		},
		{
			"buffer":0,
			"byteLength":1128,
			"byteOffset":9816,
			"target":34963
		},
		{
			"buffer":0,
			"byteLength":612,
			"byteOffset":10944,
			"target":34962
		},
		{
			"buffer":0,
			"byteLength":612,
			"byteOffset":11556,
			"target":34962
		},
		{
			"buffer":0,
			"byteLength":408,
			"byteOffset":12168,
			"target":34962
		},
		{
			"buffer":0,
			"byteLength":612,
			"byteOffset":12576,
			"target":34962
		},
		{
			"buffer":0,
			"byteLength":384,
			"byteOffset":13188,
			"target":34963
		}
	],
	"samplers":[
		{
			"magFilter":9729,
			"minFilter":9987
		}
	],
	"buffers":[
		{
			"byteLength":13572,
			"uri":"stairs_wide_steps.bin"
		}
	]
}
