{
	"asset":{
		"generator":"Khronos glTF Blender I/O v5.1.8",
		"version":"2.0"
	},
	"scene":0,
	"scenes":[
		{
			"name":"bottle",
			"nodes":[
				0
			]
		}
	],
	"nodes":[
		{
			"mesh":0,
			"name":"Beer"
		}
	],
	"materials":[
		{
			"doubleSided":true,
			"name":"Material",
			"pbrMetallicRoughness":{
				"metallicFactor":0,
				"roughnessFactor":0.5
			}
		}
	],
	"meshes":[
		{
			"name":"Cylinder.014",
			"primitives":[
				{
					"attributes":{
						"POSITION":0,
						"NORMAL":1,
						"TEXCOORD_0":2,
						"COLOR_0":3
					},
					"indices":4,
					"material":0
				}
			]
		}
	],
	"accessors":[
		{
			"bufferView":0,
			"componentType":5126,
			"count":247,
			"max":[
				0.09616975486278534,
				0.46047303080558777,
				0.099372997879982
			],
			"min":[
				-0.09616975486278534,
				0.00193695945199579,
				-0.0966794490814209
			],
			"type":"VEC3"
		},
		{
			"bufferView":1,
			"componentType":5126,
			"count":247,
			"type":"VEC3"
		},
		{
			"bufferView":2,
			"componentType":5126,
			"count":247,
			"type":"VEC2"
		},
		{
			"bufferView":3,
			"componentType":5126,
			"count":247,
			"type":"VEC3"
		},
		{
			"bufferView":4,
			"componentType":5123,
			"count":1038,
			"type":"SCALAR"
		}
	],
	"bufferViews":[
		{
			"buffer":0,
			"byteLength":2964,
			"byteOffset":0,
			"target":34962
		},
		{
			"buffer":0,
			"byteLength":2964,
			"byteOffset":2964,
			"target":34962
		},
		{
			"buffer":0,
			"byteLength":1976,
			"byteOffset":5928,
			"target":34962
		},
		{
			"buffer":0,
			"byteLength":2964,
			"byteOffset":7904,
			"target":34962
		},
		{
			"buffer":0,
			"byteLength":2076,
			"byteOffset":10868,
			"target":34963
		}
	],
	"buffers":[
		{
			"byteLength":12944,
			"uri":"beer_bottle.bin"
		}
	]
}
