{
	"asset":{
		"generator":"Khronos glTF Blender I/O v5.0.21",
		"version":"2.0"
	},
	"scene":0,
	"scenes":[
		{
			"name":"can",
			"nodes":[
				0
			]
		}
	],
	"nodes":[
		{
			"mesh":0,
			"name":"Can"
		}
	],
	"materials":[
		{
			"doubleSided":true,
			"name":"Material",
			"pbrMetallicRoughness":{
				"metallicFactor":0,
				"roughnessFactor":0.5
			}
		}
	],
	"meshes":[
		{
			"name":"Cylinder.018",
			"primitives":[
				{
					"attributes":{
						"POSITION":0,
						"NORMAL":1,
						"TEXCOORD_0":2,
						"COLOR_0":3
					},
					"indices":4,
					"material":0
				}
			]
		}
	],
	"accessors":[
		{
			"bufferView":0,
			"componentType":5126,
			"count":58,
			"max":[
				0.03835779428482056,
				0.15985871851444244,
				0.044291768223047256
			],
			"min":[
				-0.03835779428482056,
				0.00036945915780961514,
				-0.044291768223047256
			],
			"type":"VEC3"
		},
		{
			"bufferView":1,
			"componentType":5126,
			"count":58,
			"type":"VEC3"
		},
		{
			"bufferView":2,
			"componentType":5126,
			"count":58,
			"type":"VEC2"
		},
		{
			"bufferView":3,
			"componentType":5126,
			"count":58,
			"type":"VEC3"
		},
		{
			"bufferView":4,
			"componentType":5123,
			"count":138,
			"type":"SCALAR"
		}
	],
	"bufferViews":[
		{
			"buffer":0,
			"byteLength":696,
			"byteOffset":0,
			"target":34962
		},
		{
			"buffer":0,
			"byteLength":696,
			"byteOffset":696,
			"target":34962
		},
		{
			"buffer":0,
			"byteLength":464,
			"byteOffset":1392,
			"target":34962
		},
		{
			"buffer":0,
			"byteLength":696,
			"byteOffset":1856,
			"target":34962
		},
		{
			"buffer":0,
			"byteLength":276,
			"byteOffset":2552,
			"target":34963
		}
	],
	"buffers":[
		{
			"byteLength":2828,
			"uri":"beer_can.bin"
		}
	]
}
