{
	"asset":{
		"generator":"Khronos glTF Blender I/O v5.1.15",
		"version":"2.0"
	},
	"scene":0,
	"scenes":[
		{
			"name":"bottle_broken",
			"nodes":[
				0
			]
		}
	],
	"nodes":[
		{
			"mesh":0,
			"name":"Beer.001"
		}
	],
	"materials":[
		{
			"doubleSided":true,
			"name":"Material",
			"pbrMetallicRoughness":{
				"metallicFactor":0,
				"roughnessFactor":0.5
			}
		}
	],
	"meshes":[
		{
			"name":"Cylinder.005",
			"primitives":[
				{
					"attributes":{
						"POSITION":0,
						"NORMAL":1,
						"TEXCOORD_0":2,
						"COLOR_0":3
					},
					"indices":4,
					"material":0
				}
			]
		}
	],
	"accessors":[
		{
			"bufferView":0,
			"componentType":5126,
			"count":163,
			"max":[
				0.21724574267864227,
				0.22895494103431702,
				0.12317029386758804
			],
			"min":[
				-0.21931174397468567,
				-0.01128300279378891,
				-0.12317035347223282
			],
			"type":"VEC3"
		},
		{
			"bufferView":1,
			"componentType":5126,
			"count":163,
			"type":"VEC3"
		},
		{
			"bufferView":2,
			"componentType":5126,
			"count":163,
			"type":"VEC2"
		},
		{
			"bufferView":3,
			"componentType":5126,
			"count":163,
			"type":"VEC3"
		},
		{
			"bufferView":4,
			"componentType":5123,
			"count":678,
			"type":"SCALAR"
		}
	],
	"bufferViews":[
		{
			"buffer":0,
			"byteLength":1956,
			"byteOffset":0,
			"target":34962
		},
		{
			"buffer":0,
			"byteLength":1956,
			"byteOffset":1956,
			"target":34962
		},
		{
			"buffer":0,
			"byteLength":1304,
			"byteOffset":3912,
			"target":34962
		},
		{
			"buffer":0,
			"byteLength":1956,
			"byteOffset":5216,
			"target":34962
		},
		{
			"buffer":0,
			"byteLength":1356,
			"byteOffset":7172,
			"target":34963
		}
	],
	"buffers":[
		{
			"byteLength":8528,
			"uri":"beer_bottle_broken.bin"
		}
	]
}
