{
	"asset":{
		"generator":"Khronos glTF Blender I/O v5.1.8",
		"version":"2.0"
	},
	"scene":0,
	"scenes":[
		{
			"name":"can",
			"nodes":[
				0
			]
		}
	],
	"nodes":[
		{
			"mesh":0,
			"name":"Can"
		}
	],
	"materials":[
		{
			"doubleSided":true,
			"name":"Material",
			"pbrMetallicRoughness":{
				"metallicFactor":0,
				"roughnessFactor":0.5
			}
		}
	],
	"meshes":[
		{
			"name":"Cylinder.018",
			"primitives":[
				{
					"attributes":{
						"POSITION":0,
						"NORMAL":1,
						"TEXCOORD_0":2,
						"COLOR_0":3
					},
					"indices":4,
					"material":0
				}
			]
		}
	],
	"accessors":[
		{
			"bufferView":0,
			"componentType":5126,
			"count":166,
			"max":[
				0.08182398974895477,
				0.30342617630958557,
				0.08234265446662903
			],
			"min":[
				-0.08182398974895477,
				0.000686860119458288,
				-0.08234265446662903
			],
			"type":"VEC3"
		},
		{
			"bufferView":1,
			"componentType":5126,
			"count":166,
			"type":"VEC3"
		},
		{
			"bufferView":2,
			"componentType":5126,
			"count":166,
			"type":"VEC2"
		},
		{
			"bufferView":3,
			"componentType":5126,
			"count":166,
			"type":"VEC3"
		},
		{
			"bufferView":4,
			"componentType":5123,
			"count":540,
			"type":"SCALAR"
		}
	],
	"bufferViews":[
		{
			"buffer":0,
			"byteLength":1992,
			"byteOffset":0,
			"target":34962
		},
		{
			"buffer":0,
			"byteLength":1992,
			"byteOffset":1992,
			"target":34962
		},
		{
			"buffer":0,
			"byteLength":1328,
			"byteOffset":3984,
			"target":34962
		},
		{
			"buffer":0,
			"byteLength":1992,
			"byteOffset":5312,
			"target":34962
		},
		{
			"buffer":0,
			"byteLength":1080,
			"byteOffset":7304,
			"target":34963
		}
	],
	"buffers":[
		{
			"byteLength":8384,
			"uri":"beer_can.bin"
		}
	]
}
