{
	"asset":{
		"generator":"Khronos glTF Blender I/O v5.1.15",
		"version":"2.0"
	},
	"scene":0,
	"scenes":[
		{
			"name":"book_pile_3",
			"nodes":[
				0,
				1,
				2,
				3,
				4,
				5,
				6,
				7,
				8
			]
		}
	],
	"nodes":[
		{
			"mesh":0,
			"name":"Cube.010",
			"rotation":[
				-0.5334890484809875,
				0.533488929271698,
				-0.46410080790519714,
				0.4641008675098419
			],
			"scale":[
				0.2621614336967468,
				0.14806173741817474,
				0.2621614336967468
			],
			"translation":[
				0.6508369445800781,
				0,
				0.7623653411865234
			]
		},
		{
			"mesh":1,
			"name":"Cube.011",
			"rotation":[
				-0.3148106336593628,
				0.314810574054718,
				-0.6331620216369629,
				0.6331622004508972
			],
			"scale":[
				0.2621614336967468,
				0.14806172251701355,
				0.2621614336967468
			],
			"translation":[
				0.16652870178222656,
				0,
				0.6813926696777344
			]
		},
		{
			"mesh":2,
			"name":"Cube.012",
			"rotation":[
				0.11468715965747833,
				-0.11468713730573654,
				-0.6977440714836121,
				0.6977442502975464
			],
			"scale":[
				0.2621614336967468,
				0.2621614634990692,
				0.2621614634990692
			],
			"translation":[
				0.05041694641113281,
				0,
				0.1833343803882599
			]
		},
		{
			"mesh":3,
			"name":"Cube.013",
			"rotation":[
				0.29343411326408386,
				-0.2934340834617615,
				-0.6433477401733398,
				0.643347978591919
			],
			"scale":[
				0.26215699315071106,
				0.2370884269475937,
				0.2621614336967468
			],
			"translation":[
				-0.5020532608032227,
				0,
				0.4711465835571289
			]
		},
		{
			"mesh":4,
			"name":"Cube.014",
			"rotation":[
				0.0971449464559555,
				-0.04913405328989029,
				-0.8870505094528198,
				0.4486536383628845
			],
			"scale":[
				0.26215699315071106,
				0.2370884269475937,
				0.2621614336967468
			],
			"translation":[
				0.43694692850112915,
				0.17111201584339142,
				0.2811127007007599
			]
		},
		{
			"mesh":5,
			"name":"Cube.015",
			"rotation":[
				-0.04615139588713646,
				0.046151380985975266,
				-0.7055990099906921,
				0.7055991291999817
			],
			"scale":[
				0.26215699315071106,
				0.2370884120464325,
				0.2621614336967468
			],
			"translation":[
				0.13750076293945312,
				0.10083386301994324,
				0.1833343505859375
			]
		},
		{
			"mesh":6,
			"name":"Cube.016",
			"rotation":[
				0.29625147581100464,
				-0.29625141620635986,
				-0.642055332660675,
				0.6420555114746094
			],
			"scale":[
				0.2621614336967468,
				0.14806172251701355,
				0.2621614336967468
			],
			"translation":[
				0.0007105106487870216,
				0.20013993978500366,
				0.08923280239105225
			]
		},
		{
			"mesh":7,
			"name":"Cube.017",
			"rotation":[
				0.29277461767196655,
				0.0676531195640564,
				-0.6461580395698547,
				0.7015596628189087
			],
			"scale":[
				0.2621614634990692,
				0.2621614336967468,
				0.2621614336967468
			],
			"translation":[
				-0.12859448790550232,
				0.17582297325134277,
				0.4831216633319855
			]
		},
		{
			"mesh":8,
			"name":"Cube.018",
			"rotation":[
				-0.11485541611909866,
				0.11485539376735687,
				-0.6977163553237915,
				0.6977165341377258
			],
			"scale":[
				0.2621614336967468,
				0.14806172251701355,
				0.2621614336967468
			],
			"translation":[
				0.04214892536401749,
				0.30363529920578003,
				0.09600566327571869
			]
		}
	],
	"materials":[
		{
			"doubleSided":true,
			"name":"furniture",
			"pbrMetallicRoughness":{
				"metallicFactor":0,
				"roughnessFactor":0.5
			}
		}
	],
	"meshes":[
		{
			"name":"Cube.021",
			"primitives":[
				{
					"attributes":{
						"POSITION":0,
						"NORMAL":1,
						"TEXCOORD_0":2,
						"COLOR_0":3
					},
					"indices":4,
					"material":0
				}
			]
		},
		{
			"name":"Cube.015",
			"primitives":[
				{
					"attributes":{
						"POSITION":5,
						"NORMAL":6,
						"TEXCOORD_0":7,
						"COLOR_0":8
					},
					"indices":4,
					"material":0
				}
			]
		},
		{
			"name":"Cube.002",
			"primitives":[
				{
					"attributes":{
						"POSITION":9,
						"NORMAL":10,
						"TEXCOORD_0":11,
						"COLOR_0":12
					},
					"indices":4,
					"material":0
				}
			]
		},
		{
			"name":"Cube.016",
			"primitives":[
				{
					"attributes":{
						"POSITION":13,
						"NORMAL":14,
						"TEXCOORD_0":15,
						"COLOR_0":16
					},
					"indices":4,
					"material":0
				}
			]
		},
		{
			"name":"Cube.016",
			"primitives":[
				{
					"attributes":{
						"POSITION":17,
						"NORMAL":18,
						"TEXCOORD_0":19,
						"COLOR_0":20
					},
					"indices":4,
					"material":0
				}
			]
		},
		{
			"name":"Cube.016",
			"primitives":[
				{
					"attributes":{
						"POSITION":21,
						"NORMAL":22,
						"TEXCOORD_0":23,
						"COLOR_0":24
					},
					"indices":4,
					"material":0
				}
			]
		},
		{
			"name":"Cube.021",
			"primitives":[
				{
					"attributes":{
						"POSITION":25,
						"NORMAL":26,
						"TEXCOORD_0":27,
						"COLOR_0":28
					},
					"indices":4,
					"material":0
				}
			]
		},
		{
			"name":"Cube.002",
			"primitives":[
				{
					"attributes":{
						"POSITION":29,
						"NORMAL":30,
						"TEXCOORD_0":31,
						"COLOR_0":32
					},
					"indices":4,
					"material":0
				}
			]
		},
		{
			"name":"Cube.015",
			"primitives":[
				{
					"attributes":{
						"POSITION":33,
						"NORMAL":34,
						"TEXCOORD_0":35,
						"COLOR_0":36
					},
					"indices":4,
					"material":0
				}
			]
		}
	],
	"accessors":[
		{
			"bufferView":0,
			"componentType":5126,
			"count":38,
			"max":[
				0.196266770362854,
				1,
				0.7249497175216675
			],
			"min":[
				-0.196266770362854,
				-1,
				-0.7333025932312012
			],
			"type":"VEC3"
		},
		{
			"bufferView":1,
			"componentType":5126,
			"count":38,
			"type":"VEC3"
		},
		{
			"bufferView":2,
			"componentType":5126,
			"count":38,
			"type":"VEC2"
		},
		{
			"bufferView":3,
			"componentType":5126,
			"count":38,
			"type":"VEC3"
		},
		{
			"bufferView":4,
			"componentType":5123,
			"count":84,
			"type":"SCALAR"
		},
		{
			"bufferView":5,
			"componentType":5126,
			"count":38,
			"max":[
				0.196266770362854,
				1,
				0.7249497175216675
			],
			"min":[
				-0.196266770362854,
				-1,
				-0.7333025932312012
			],
			"type":"VEC3"
		},
		{
			"bufferView":6,
			"componentType":5126,
			"count":38,
			"type":"VEC3"
		},
		{
			"bufferView":7,
			"componentType":5126,
			"count":38,
			"type":"VEC2"
		},
		{
			"bufferView":8,
			"componentType":5126,
			"count":38,
			"type":"VEC3"
		},
		{
			"bufferView":9,
			"componentType":5126,
			"count":38,
			"max":[
				0.196266770362854,
				1,
				0.7249497175216675
			],
			"min":[
				-0.196266770362854,
				-1,
				-0.7333025932312012
			],
			"type":"VEC3"
		},
		{
			"bufferView":10,
			"componentType":5126,
			"count":38,
			"type":"VEC3"
		},
		{
			"bufferView":11,
			"componentType":5126,
			"count":38,
			"type":"VEC2"
		},
		{
			"bufferView":12,
			"componentType":5126,
			"count":38,
			"type":"VEC3"
		},
		{
			"bufferView":13,
			"componentType":5126,
			"count":38,
			"max":[
				0.196266770362854,
				1,
				0.7249497175216675
			],
			"min":[
				-0.196266770362854,
				-1,
				-0.7333025932312012
			],
			"type":"VEC3"
		},
		{
			"bufferView":14,
			"componentType":5126,
			"count":38,
			"type":"VEC3"
		},
		{
			"bufferView":15,
			"componentType":5126,
			"count":38,
			"type":"VEC2"
		},
		{
			"bufferView":16,
			"componentType":5126,
			"count":38,
			"type":"VEC3"
		},
		{
			"bufferView":17,
			"componentType":5126,
			"count":38,
			"max":[
				0.196266770362854,
				1,
				0.7249497175216675
			],
			"min":[
				-0.196266770362854,
				-1,
				-0.7333025932312012
			],
			"type":"VEC3"
		},
		{
			"bufferView":18,
			"componentType":5126,
			"count":38,
			"type":"VEC3"
		},
		{
			"bufferView":19,
			"componentType":5126,
			"count":38,
			"type":"VEC2"
		},
		{
			"bufferView":20,
			"componentType":5126,
			"count":38,
			"type":"VEC3"
		},
		{
			"bufferView":21,
			"componentType":5126,
			"count":38,
			"max":[
				0.196266770362854,
				1,
				0.7249497175216675
			],
			"min":[
				-0.196266770362854,
				-1,
				-0.7333025932312012
			],
			"type":"VEC3"
		},
		{
			"bufferView":22,
			"componentType":5126,
			"count":38,
			"type":"VEC3"
		},
		{
			"bufferView":23,
			"componentType":5126,
			"count":38,
			"type":"VEC2"
		},
		{
			"bufferView":24,
			"componentType":5126,
			"count":38,
			"type":"VEC3"
		},
		{
			"bufferView":25,
			"componentType":5126,
			"count":38,
			"max":[
				0.196266770362854,
				1,
				0.7249497175216675
			],
			"min":[
				-0.196266770362854,
				-1,
				-0.7333025932312012
			],
			"type":"VEC3"
		},
		{
			"bufferView":26,
			"componentType":5126,
			"count":38,
			"type":"VEC3"
		},
		{
			"bufferView":27,
			"componentType":5126,
			"count":38,
			"type":"VEC2"
		},
		{
			"bufferView":28,
			"componentType":5126,
			"count":38,
			"type":"VEC3"
		},
		{
			"bufferView":29,
			"componentType":5126,
			"count":38,
			"max":[
				0.196266770362854,
				1,
				0.7249497175216675
			],
			"min":[
				-0.196266770362854,
				-1,
				-0.7333025932312012
			],
			"type":"VEC3"
		},
		{
			"bufferView":30,
			"componentType":5126,
			"count":38,
			"type":"VEC3"
		},
		{
			"bufferView":31,
			"componentType":5126,
			"count":38,
			"type":"VEC2"
		},
		{
			"bufferView":32,
			"componentType":5126,
			"count":38,
			"type":"VEC3"
		},
		{
			"bufferView":33,
			"componentType":5126,
			"count":38,
			"max":[
				0.196266770362854,
				1,
				0.7249497175216675
			],
			"min":[
				-0.196266770362854,
				-1,
				-0.7333025932312012
			],
			"type":"VEC3"
		},
		{
			"bufferView":34,
			"componentType":5126,
			"count":38,
			"type":"VEC3"
		},
		{
			"bufferView":35,
			"componentType":5126,
			"count":38,
			"type":"VEC2"
		},
		{
			"bufferView":36,
			"componentType":5126,
			"count":38,
			"type":"VEC3"
		}
	],
	"bufferViews":[
		{
			"buffer":0,
			"byteLength":456,
			"byteOffset":0,
			"target":34962
		},
		{
			"buffer":0,
			"byteLength":456,
			"byteOffset":456,
			"target":34962
		},
		{
			"buffer":0,
			"byteLength":304,
			"byteOffset":912,
			"target":34962
		},
		{
			"buffer":0,
			"byteLength":456,
			"byteOffset":1216,
			"target":34962
		},
		{
			"buffer":0,
			"byteLength":168,
			"byteOffset":1672,
			"target":34963
		},
		{
			"buffer":0,
			"byteLength":456,
			"byteOffset":1840,
			"target":34962
		},
		{
			"buffer":0,
			"byteLength":456,
			"byteOffset":2296,
			"target":34962
		},
		{
			"buffer":0,
			"byteLength":304,
			"byteOffset":2752,
			"target":34962
		},
		{
			"buffer":0,
			"byteLength":456,
			"byteOffset":3056,
			"target":34962
		},
		{
			"buffer":0,
			"byteLength":456,
			"byteOffset":3512,
			"target":34962
		},
		{
			"buffer":0,
			"byteLength":456,
			"byteOffset":3968,
			"target":34962
		},
		{
			"buffer":0,
			"byteLength":304,
			"byteOffset":4424,
			"target":34962
		},
		{
			"buffer":0,
			"byteLength":456,
			"byteOffset":4728,
			"target":34962
		},
		{
			"buffer":0,
			"byteLength":456,
			"byteOffset":5184,
			"target":34962
		},
		{
			"buffer":0,
			"byteLength":456,
			"byteOffset":5640,
			"target":34962
		},
		{
			"buffer":0,
			"byteLength":304,
			"byteOffset":6096,
			"target":34962
		},
		{
			"buffer":0,
			"byteLength":456,
			"byteOffset":6400,
			"target":34962
		},
		{
			"buffer":0,
			"byteLength":456,
			"byteOffset":6856,
			"target":34962
		},
		{
			"buffer":0,
			"byteLength":456,
			"byteOffset":7312,
			"target":34962
		},
		{
			"buffer":0,
			"byteLength":304,
			"byteOffset":7768,
			"target":34962
		},
		{
			"buffer":0,
			"byteLength":456,
			"byteOffset":8072,
			"target":34962
		},
		{
			"buffer":0,
			"byteLength":456,
			"byteOffset":8528,
			"target":34962
		},
		{
			"buffer":0,
			"byteLength":456,
			"byteOffset":8984,
			"target":34962
		},
		{
			"buffer":0,
			"byteLength":304,
			"byteOffset":9440,
			"target":34962
		},
		{
			"buffer":0,
			"byteLength":456,
			"byteOffset":9744,
			"target":34962
		},
		{
			"buffer":0,
			"byteLength":456,
			"byteOffset":10200,
			"target":34962
		},
		{
			"buffer":0,
			"byteLength":456,
			"byteOffset":10656,
			"target":34962
		},
		{
			"buffer":0,
			"byteLength":304,
			"byteOffset":11112,
			"target":34962
		},
		{
			"buffer":0,
			"byteLength":456,
			"byteOffset":11416,
			"target":34962
		},
		{
			"buffer":0,
			"byteLength":456,
			"byteOffset":11872,
			"target":34962
		},
		{
			"buffer":0,
			"byteLength":456,
			"byteOffset":12328,
			"target":34962
		},
		{
			"buffer":0,
			"byteLength":304,
			"byteOffset":12784,
			"target":34962
		},
		{
			"buffer":0,
			"byteLength":456,
			"byteOffset":13088,
			"target":34962
		},
		{
			"buffer":0,
			"byteLength":456,
			"byteOffset":13544,
			"target":34962
		},
		{
			"buffer":0,
			"byteLength":456,
			"byteOffset":14000,
			"target":34962
		},
		{
			"buffer":0,
			"byteLength":304,
			"byteOffset":14456,
			"target":34962
		},
		{
			"buffer":0,
			"byteLength":456,
			"byteOffset":14760,
			"target":34962
		}
	],
	"buffers":[
		{
			"byteLength":15216,
			"uri":"book_pile_03.bin"
		}
	]
}
