{
	"asset":{
		"generator":"Khronos glTF Blender I/O v5.1.15",
		"version":"2.0"
	},
	"scene":0,
	"scenes":[
		{
			"name":"book_pile_1",
			"nodes":[
				0,
				1,
				2,
				3,
				4
			]
		}
	],
	"nodes":[
		{
			"mesh":0,
			"name":"Cube.054",
			"rotation":[
				0.11226155608892441,
				-0.11226153373718262,
				-0.698138415813446,
				0.6981386542320251
			],
			"scale":[
				0.2621614336967468,
				0.14806172251701355,
				0.2621614336967468
			],
			"translation":[
				-0.38722866773605347,
				0.05332665517926216,
				0.7215328812599182
			]
		},
		{
			"mesh":1,
			"name":"Cube.041",
			"rotation":[
				-0.2042798548936844,
				0.2042798101902008,
				-0.6769562363624573,
				0.676956295967102
			],
			"scale":[
				0.2621614336967468,
				0.14806172251701355,
				0.2621614336967468
			],
			"translation":[
				0.6225244402885437,
				0.048953838646411896,
				0.1483699530363083
			]
		},
		{
			"mesh":2,
			"name":"Cube.031",
			"rotation":[
				-0.1051325723528862,
				0.1280643343925476,
				-0.6257415413856506,
				0.7622299194335938
			],
			"scale":[
				0.2621614336967468,
				0.2621614336967468,
				0.2621614336967468
			],
			"translation":[
				-0.3977017402648926,
				0.09482552111148834,
				0.10957169532775879
			]
		},
		{
			"mesh":3,
			"name":"Cube.027",
			"rotation":[
				-0.05250105634331703,
				0.28508666157722473,
				-0.703973650932312,
				0.6483752131462097
			],
			"scale":[
				0.26215699315071106,
				0.2370884120464325,
				0.2621614336967468
			],
			"translation":[
				0.14755436778068542,
				0.10245396196842194,
				0.3291068971157074
			]
		},
		{
			"mesh":4,
			"name":"Cube.004",
			"rotation":[
				0.08986928313970566,
				-0.08986925333738327,
				-0.701372504234314,
				0.7013726830482483
			],
			"scale":[
				0.26215699315071106,
				0.2370884120464325,
				0.2621614336967468
			],
			"translation":[
				-0.055722519755363464,
				0.05813266709446907,
				0.12355315685272217
			]
		}
	],
	"materials":[
		{
			"doubleSided":true,
			"name":"furniture",
			"pbrMetallicRoughness":{
				"metallicFactor":0,
				"roughnessFactor":0.5
			}
		}
	],
	"meshes":[
		{
			"name":"Cube.021",
			"primitives":[
				{
					"attributes":{
						"POSITION":0,
						"NORMAL":1,
						"TEXCOORD_0":2,
						"COLOR_0":3
					},
					"indices":4,
					"material":0
				}
			]
		},
		{
			"name":"Cube.015",
			"primitives":[
				{
					"attributes":{
						"POSITION":5,
						"NORMAL":6,
						"TEXCOORD_0":7,
						"COLOR_0":8
					},
					"indices":4,
					"material":0
				}
			]
		},
		{
			"name":"Cube.002",
			"primitives":[
				{
					"attributes":{
						"POSITION":9,
						"NORMAL":10,
						"TEXCOORD_0":11,
						"COLOR_0":12
					},
					"indices":4,
					"material":0
				}
			]
		},
		{
			"name":"Cube.016",
			"primitives":[
				{
					"attributes":{
						"POSITION":13,
						"NORMAL":14,
						"TEXCOORD_0":15,
						"COLOR_0":16
					},
					"indices":4,
					"material":0
				}
			]
		},
		{
			"name":"Cube.016",
			"primitives":[
				{
					"attributes":{
						"POSITION":17,
						"NORMAL":18,
						"TEXCOORD_0":19,
						"COLOR_0":20
					},
					"indices":4,
					"material":0
				}
			]
		}
	],
	"accessors":[
		{
			"bufferView":0,
			"componentType":5126,
			"count":38,
			"max":[
				0.196266770362854,
				1,
				0.7249497175216675
			],
			"min":[
				-0.196266770362854,
				-1,
				-0.7333025932312012
			],
			"type":"VEC3"
		},
		{
			"bufferView":1,
			"componentType":5126,
			"count":38,
			"type":"VEC3"
		},
		{
			"bufferView":2,
			"componentType":5126,
			"count":38,
			"type":"VEC2"
		},
		{
			"bufferView":3,
			"componentType":5126,
			"count":38,
			"type":"VEC3"
		},
		{
			"bufferView":4,
			"componentType":5123,
			"count":84,
			"type":"SCALAR"
		},
		{
			"bufferView":5,
			"componentType":5126,
			"count":38,
			"max":[
				0.196266770362854,
				1,
				0.7249497175216675
			],
			"min":[
				-0.196266770362854,
				-1,
				-0.7333025932312012
			],
			"type":"VEC3"
		},
		{
			"bufferView":6,
			"componentType":5126,
			"count":38,
			"type":"VEC3"
		},
		{
			"bufferView":7,
			"componentType":5126,
			"count":38,
			"type":"VEC2"
		},
		{
			"bufferView":8,
			"componentType":5126,
			"count":38,
			"type":"VEC3"
		},
		{
			"bufferView":9,
			"componentType":5126,
			"count":38,
			"max":[
				0.196266770362854,
				1,
				0.7249497175216675
			],
			"min":[
				-0.196266770362854,
				-1,
				-0.7333025932312012
			],
			"type":"VEC3"
		},
		{
			"bufferView":10,
			"componentType":5126,
			"count":38,
			"type":"VEC3"
		},
		{
			"bufferView":11,
			"componentType":5126,
			"count":38,
			"type":"VEC2"
		},
		{
			"bufferView":12,
			"componentType":5126,
			"count":38,
			"type":"VEC3"
		},
		{
			"bufferView":13,
			"componentType":5126,
			"count":38,
			"max":[
				0.196266770362854,
				1,
				0.7249497175216675
			],
			"min":[
				-0.196266770362854,
				-1,
				-0.7333025932312012
			],
			"type":"VEC3"
		},
		{
			"bufferView":14,
			"componentType":5126,
			"count":38,
			"type":"VEC3"
		},
		{
			"bufferView":15,
			"componentType":5126,
			"count":38,
			"type":"VEC2"
		},
		{
			"bufferView":16,
			"componentType":5126,
			"count":38,
			"type":"VEC3"
		},
		{
			"bufferView":17,
			"componentType":5126,
			"count":38,
			"max":[
				0.196266770362854,
				1,
				0.7249497175216675
			],
			"min":[
				-0.196266770362854,
				-1,
				-0.7333025932312012
			],
			"type":"VEC3"
		},
		{
			"bufferView":18,
			"componentType":5126,
			"count":38,
			"type":"VEC3"
		},
		{
			"bufferView":19,
			"componentType":5126,
			"count":38,
			"type":"VEC2"
		},
		{
			"bufferView":20,
			"componentType":5126,
			"count":38,
			"type":"VEC3"
		}
	],
	"bufferViews":[
		{
			"buffer":0,
			"byteLength":456,
			"byteOffset":0,
			"target":34962
		},
		{
			"buffer":0,
			"byteLength":456,
			"byteOffset":456,
			"target":34962
		},
		{
			"buffer":0,
			"byteLength":304,
			"byteOffset":912,
			"target":34962
		},
		{
			"buffer":0,
			"byteLength":456,
			"byteOffset":1216,
			"target":34962
		},
		{
			"buffer":0,
			"byteLength":168,
			"byteOffset":1672,
			"target":34963
		},
		{
			"buffer":0,
			"byteLength":456,
			"byteOffset":1840,
			"target":34962
		},
		{
			"buffer":0,
			"byteLength":456,
			"byteOffset":2296,
			"target":34962
		},
		{
			"buffer":0,
			"byteLength":304,
			"byteOffset":2752,
			"target":34962
		},
		{
			"buffer":0,
			"byteLength":456,
			"byteOffset":3056,
			"target":34962
		},
		{
			"buffer":0,
			"byteLength":456,
			"byteOffset":3512,
			"target":34962
		},
		{
			"buffer":0,
			"byteLength":456,
			"byteOffset":3968,
			"target":34962
		},
		{
			"buffer":0,
			"byteLength":304,
			"byteOffset":4424,
			"target":34962
		},
		{
			"buffer":0,
			"byteLength":456,
			"byteOffset":4728,
			"target":34962
		},
		{
			"buffer":0,
			"byteLength":456,
			"byteOffset":5184,
			"target":34962
		},
		{
			"buffer":0,
			"byteLength":456,
			"byteOffset":5640,
			"target":34962
		},
		{
			"buffer":0,
			"byteLength":304,
			"byteOffset":6096,
			"target":34962
		},
		{
			"buffer":0,
			"byteLength":456,
			"byteOffset":6400,
			"target":34962
		},
		{
			"buffer":0,
			"byteLength":456,
			"byteOffset":6856,
			"target":34962
		},
		{
			"buffer":0,
			"byteLength":456,
			"byteOffset":7312,
			"target":34962
		},
		{
			"buffer":0,
			"byteLength":304,
			"byteOffset":7768,
			"target":34962
		},
		{
			"buffer":0,
			"byteLength":456,
			"byteOffset":8072,
			"target":34962
		}
	],
	"buffers":[
		{
			"byteLength":8528,
			"uri":"book_pile_01.bin"
		}
	]
}
