{
	"asset":{
		"generator":"Khronos glTF Blender I/O v5.1.15",
		"version":"2.0"
	},
	"scene":0,
	"scenes":[
		{
			"name":"book_pile_2",
			"nodes":[
				0,
				1,
				2,
				3,
				4
			]
		}
	],
	"nodes":[
		{
			"mesh":0,
			"name":"Cube.005",
			"rotation":[
				-0.5932335257530212,
				0.4295125901699066,
				-0.3992979824542999,
				0.5515017509460449
			],
			"scale":[
				0.2621614336967468,
				0.14806173741817474,
				0.2621614336967468
			],
			"translation":[
				-0.41713225841522217,
				0.11646640300750732,
				0.26339390873908997
			]
		},
		{
			"mesh":1,
			"name":"Cube.006",
			"rotation":[
				0.6383973956108093,
				-0.4488392472267151,
				-0.5245935916900635,
				0.3402847349643707
			],
			"scale":[
				0.2621614336967468,
				0.14806172251701355,
				0.2621614336967468
			],
			"translation":[
				-0.003335152752697468,
				0.10056547820568085,
				0.610440731048584
			]
		},
		{
			"mesh":2,
			"name":"Cube.007",
			"rotation":[
				0.34410274028778076,
				-0.19951796531677246,
				-0.7562844157218933,
				0.5194420218467712
			],
			"scale":[
				0.2621614336967468,
				0.2621614336967468,
				0.2621614336967468
			],
			"translation":[
				0.41220158338546753,
				0.15264245867729187,
				0.28185200691223145
			]
		},
		{
			"mesh":3,
			"name":"Cube.008",
			"rotation":[
				0.21289801597595215,
				0.02369100973010063,
				-0.6730599403381348,
				0.7078866362571716
			],
			"scale":[
				0.26215699315071106,
				0.2370884269475937,
				0.2621614336967468
			],
			"translation":[
				0.0673607662320137,
				0.10245396196842194,
				0.3261479437351227
			]
		},
		{
			"mesh":4,
			"name":"Cube.009",
			"rotation":[
				-0.06431110948324203,
				0.06431108713150024,
				-0.704176127910614,
				0.7041762471199036
			],
			"scale":[
				0.26215699315071106,
				0.2370884269475937,
				0.2621614634990692
			],
			"translation":[
				-0.04906443879008293,
				0.05813266709446907,
				0.15950679779052734
			]
		}
	],
	"materials":[
		{
			"doubleSided":true,
			"name":"furniture",
			"pbrMetallicRoughness":{
				"metallicFactor":0,
				"roughnessFactor":0.5
			}
		}
	],
	"meshes":[
		{
			"name":"Cube.021",
			"primitives":[
				{
					"attributes":{
						"POSITION":0,
						"NORMAL":1,
						"TEXCOORD_0":2,
						"COLOR_0":3
					},
					"indices":4,
					"material":0
				}
			]
		},
		{
			"name":"Cube.015",
			"primitives":[
				{
					"attributes":{
						"POSITION":5,
						"NORMAL":6,
						"TEXCOORD_0":7,
						"COLOR_0":8
					},
					"indices":4,
					"material":0
				}
			]
		},
		{
			"name":"Cube.002",
			"primitives":[
				{
					"attributes":{
						"POSITION":9,
						"NORMAL":10,
						"TEXCOORD_0":11,
						"COLOR_0":12
					},
					"indices":4,
					"material":0
				}
			]
		},
		{
			"name":"Cube.016",
			"primitives":[
				{
					"attributes":{
						"POSITION":13,
						"NORMAL":14,
						"TEXCOORD_0":15,
						"COLOR_0":16
					},
					"indices":4,
					"material":0
				}
			]
		},
		{
			"name":"Cube.016",
			"primitives":[
				{
					"attributes":{
						"POSITION":17,
						"NORMAL":18,
						"TEXCOORD_0":19,
						"COLOR_0":20
					},
					"indices":4,
					"material":0
				}
			]
		}
	],
	"accessors":[
		{
			"bufferView":0,
			"componentType":5126,
			"count":38,
			"max":[
				0.196266770362854,
				1,
				0.7249497175216675
			],
			"min":[
				-0.196266770362854,
				-1,
				-0.7333025932312012
			],
			"type":"VEC3"
		},
		{
			"bufferView":1,
			"componentType":5126,
			"count":38,
			"type":"VEC3"
		},
		{
			"bufferView":2,
			"componentType":5126,
			"count":38,
			"type":"VEC2"
		},
		{
			"bufferView":3,
			"componentType":5126,
			"count":38,
			"type":"VEC3"
		},
		{
			"bufferView":4,
			"componentType":5123,
			"count":84,
			"type":"SCALAR"
		},
		{
			"bufferView":5,
			"componentType":5126,
			"count":38,
			"max":[
				0.196266770362854,
				1,
				0.7249497175216675
			],
			"min":[
				-0.196266770362854,
				-1,
				-0.7333025932312012
			],
			"type":"VEC3"
		},
		{
			"bufferView":6,
			"componentType":5126,
			"count":38,
			"type":"VEC3"
		},
		{
			"bufferView":7,
			"componentType":5126,
			"count":38,
			"type":"VEC2"
		},
		{
			"bufferView":8,
			"componentType":5126,
			"count":38,
			"type":"VEC3"
		},
		{
			"bufferView":9,
			"componentType":5126,
			"count":38,
			"max":[
				0.196266770362854,
				1,
				0.7249497175216675
			],
			"min":[
				-0.196266770362854,
				-1,
				-0.7333025932312012
			],
			"type":"VEC3"
		},
		{
			"bufferView":10,
			"componentType":5126,
			"count":38,
			"type":"VEC3"
		},
		{
			"bufferView":11,
			"componentType":5126,
			"count":38,
			"type":"VEC2"
		},
		{
			"bufferView":12,
			"componentType":5126,
			"count":38,
			"type":"VEC3"
		},
		{
			"bufferView":13,
			"componentType":5126,
			"count":38,
			"max":[
				0.196266770362854,
				1,
				0.7249497175216675
			],
			"min":[
				-0.196266770362854,
				-1,
				-0.7333025932312012
			],
			"type":"VEC3"
		},
		{
			"bufferView":14,
			"componentType":5126,
			"count":38,
			"type":"VEC3"
		},
		{
			"bufferView":15,
			"componentType":5126,
			"count":38,
			"type":"VEC2"
		},
		{
			"bufferView":16,
			"componentType":5126,
			"count":38,
			"type":"VEC3"
		},
		{
			"bufferView":17,
			"componentType":5126,
			"count":38,
			"max":[
				0.196266770362854,
				1,
				0.7249497175216675
			],
			"min":[
				-0.196266770362854,
				-1,
				-0.7333025932312012
			],
			"type":"VEC3"
		},
		{
			"bufferView":18,
			"componentType":5126,
			"count":38,
			"type":"VEC3"
		},
		{
			"bufferView":19,
			"componentType":5126,
			"count":38,
			"type":"VEC2"
		},
		{
			"bufferView":20,
			"componentType":5126,
			"count":38,
			"type":"VEC3"
		}
	],
	"bufferViews":[
		{
			"buffer":0,
			"byteLength":456,
			"byteOffset":0,
			"target":34962
		},
		{
			"buffer":0,
			"byteLength":456,
			"byteOffset":456,
			"target":34962
		},
		{
			"buffer":0,
			"byteLength":304,
			"byteOffset":912,
			"target":34962
		},
		{
			"buffer":0,
			"byteLength":456,
			"byteOffset":1216,
			"target":34962
		},
		{
			"buffer":0,
			"byteLength":168,
			"byteOffset":1672,
			"target":34963
		},
		{
			"buffer":0,
			"byteLength":456,
			"byteOffset":1840,
			"target":34962
		},
		{
			"buffer":0,
			"byteLength":456,
			"byteOffset":2296,
			"target":34962
		},
		{
			"buffer":0,
			"byteLength":304,
			"byteOffset":2752,
			"target":34962
		},
		{
			"buffer":0,
			"byteLength":456,
			"byteOffset":3056,
			"target":34962
		},
		{
			"buffer":0,
			"byteLength":456,
			"byteOffset":3512,
			"target":34962
		},
		{
			"buffer":0,
			"byteLength":456,
			"byteOffset":3968,
			"target":34962
		},
		{
			"buffer":0,
			"byteLength":304,
			"byteOffset":4424,
			"target":34962
		},
		{
			"buffer":0,
			"byteLength":456,
			"byteOffset":4728,
			"target":34962
		},
		{
			"buffer":0,
			"byteLength":456,
			"byteOffset":5184,
			"target":34962
		},
		{
			"buffer":0,
			"byteLength":456,
			"byteOffset":5640,
			"target":34962
		},
		{
			"buffer":0,
			"byteLength":304,
			"byteOffset":6096,
			"target":34962
		},
		{
			"buffer":0,
			"byteLength":456,
			"byteOffset":6400,
			"target":34962
		},
		{
			"buffer":0,
			"byteLength":456,
			"byteOffset":6856,
			"target":34962
		},
		{
			"buffer":0,
			"byteLength":456,
			"byteOffset":7312,
			"target":34962
		},
		{
			"buffer":0,
			"byteLength":304,
			"byteOffset":7768,
			"target":34962
		},
		{
			"buffer":0,
			"byteLength":456,
			"byteOffset":8072,
			"target":34962
		}
	],
	"buffers":[
		{
			"byteLength":8528,
			"uri":"book_pile_02.bin"
		}
	]
}
