{
	"asset":{
		"generator":"Khronos glTF Blender I/O v5.0.21",
		"version":"2.0"
	},
	"scene":0,
	"scenes":[
		{
			"name":"fridge_door_left",
			"nodes":[
				0
			]
		}
	],
	"nodes":[
		{
			"mesh":0,
			"name":"Cube.016"
		}
	],
	"materials":[
		{
			"doubleSided":true,
			"name":"vertex colors",
			"pbrMetallicRoughness":{
				"metallicFactor":0
			}
		}
	],
	"meshes":[
		{
			"name":"Cube.026",
			"primitives":[
				{
					"attributes":{
						"POSITION":0,
						"NORMAL":1,
						"TEXCOORD_0":2,
						"COLOR_0":3
					},
					"indices":4,
					"material":0
				}
			]
		}
	],
	"accessors":[
		{
			"bufferView":0,
			"componentType":5126,
			"count":149,
			"max":[
				0.44446608424186707,
				1.2257429361343384,
				0.03642392158508301
			],
			"min":[
				0,
				-1.1838306188583374,
				-0.03642392158508301
			],
			"type":"VEC3"
		},
		{
			"bufferView":1,
			"componentType":5126,
			"count":149,
			"type":"VEC3"
		},
		{
			"bufferView":2,
			"componentType":5126,
			"count":149,
			"type":"VEC2"
		},
		{
			"bufferView":3,
			"componentType":5126,
			"count":149,
			"type":"VEC3"
		},
		{
			"bufferView":4,
			"componentType":5123,
			"count":348,
			"type":"SCALAR"
		}
	],
	"bufferViews":[
		{
			"buffer":0,
			"byteLength":1788,
			"byteOffset":0,
			"target":34962
		},
		{
			"buffer":0,
			"byteLength":1788,
			"byteOffset":1788,
			"target":34962
		},
		{
			"buffer":0,
			"byteLength":1192,
			"byteOffset":3576,
			"target":34962
		},
		{
			"buffer":0,
			"byteLength":1788,
			"byteOffset":4768,
			"target":34962
		},
		{
			"buffer":0,
			"byteLength":696,
			"byteOffset":6556,
			"target":34963
		}
	],
	"buffers":[
		{
			"byteLength":7252,
			"uri":"fridge_door_left.bin"
		}
	]
}
