{
	"asset":{
		"generator":"Khronos glTF Blender I/O v5.0.21",
		"version":"2.0"
	},
	"scene":0,
	"scenes":[
		{
			"name":"fridge_door_right",
			"nodes":[
				12
			]
		}
	],
	"nodes":[
		{
			"mesh":0,
			"name":"Can.025",
			"rotation":[
				0,
				-0.7071067094802856,
				0,
				0.7071068286895752
			],
			"scale":[
				2.1999998092651367,
				2.200000047683716,
				2.1999998092651367
			],
			"translation":[
				-0.637561023235321,
				0.2628375291824341,
				-0.09884665906429291
			]
		},
		{
			"mesh":1,
			"name":"Can.026",
			"rotation":[
				0,
				-0.7071067094802856,
				0,
				0.7071068286895752
			],
			"scale":[
				2.1999998092651367,
				2.200000047683716,
				2.1999998092651367
			],
			"translation":[
				-0.4321276545524597,
				0.2628375291824341,
				-0.0988466814160347
			]
		},
		{
			"mesh":2,
			"name":"Can.027",
			"rotation":[
				0,
				-0.7071067094802856,
				0,
				0.7071068286895752
			],
			"scale":[
				2.1999998092651367,
				2.200000047683716,
				2.1999998092651367
			],
			"translation":[
				-0.226694256067276,
				0.2628375291824341,
				-0.09884671121835709
			]
		},
		{
			"children":[
				0,
				1,
				2
			],
			"mesh":3,
			"name":"Cube.049",
			"translation":[
				0,
				0.33784961700439453,
				-0.02602969855070114
			]
		},
		{
			"mesh":4,
			"name":"Can.028",
			"rotation":[
				0,
				-0.7071067094802856,
				0,
				0.7071068286895752
			],
			"scale":[
				2.1999998092651367,
				2.200000047683716,
				2.1999998092651367
			],
			"translation":[
				-0.637561023235321,
				0.2628374695777893,
				-0.10430930554866791
			]
		},
		{
			"mesh":5,
			"name":"Can.029",
			"rotation":[
				0,
				-0.7071067094802856,
				0,
				0.7071068286895752
			],
			"scale":[
				2.1999998092651367,
				2.200000047683716,
				2.1999998092651367
			],
			"translation":[
				-0.4321276545524597,
				0.2628374695777893,
				-0.1043093279004097
			]
		},
		{
			"mesh":6,
			"name":"Can.030",
			"rotation":[
				0,
				-0.7071067094802856,
				0,
				0.7071068286895752
			],
			"scale":[
				2.1999998092651367,
				2.200000047683716,
				2.1999998092651367
			],
			"translation":[
				-0.226694256067276,
				0.2628374695777893,
				-0.10430935770273209
			]
		},
		{
			"children":[
				4,
				5,
				6
			],
			"mesh":3,
			"name":"Cube.050",
			"translation":[
				0,
				-0.2115907073020935,
				-0.02602969855070114
			]
		},
		{
			"mesh":7,
			"name":"Can.031",
			"rotation":[
				0,
				-0.7071067094802856,
				0,
				0.7071068286895752
			],
			"scale":[
				2.1999998092651367,
				2.200000047683716,
				2.1999998092651367
			],
			"translation":[
				-0.637561023235321,
				0.2628375291824341,
				-0.09883831441402435
			]
		},
		{
			"mesh":8,
			"name":"Can.032",
			"rotation":[
				0,
				-0.7071067094802856,
				0,
				0.7071068286895752
			],
			"scale":[
				2.1999998092651367,
				2.200000047683716,
				2.1999998092651367
			],
			"translation":[
				-0.4321276545524597,
				0.2628375291824341,
				-0.09883833676576614
			]
		},
		{
			"mesh":9,
			"name":"Can.033",
			"rotation":[
				0,
				-0.7071067094802856,
				0,
				0.7071068286895752
			],
			"scale":[
				2.1999998092651367,
				2.200000047683716,
				2.1999998092651367
			],
			"translation":[
				-0.226694256067276,
				0.2628375291824341,
				-0.09883836656808853
			]
		},
		{
			"children":[
				8,
				9,
				10
			],
			"mesh":3,
			"name":"Cube.051",
			"translation":[
				0,
				-0.8512140512466431,
				-0.02602969855070114
			]
		},
		{
			"children":[
				3,
				7,
				11
			],
			"mesh":10,
			"name":"Cube.017"
		}
	],
	"materials":[
		{
			"doubleSided":true,
			"name":"Material.001",
			"pbrMetallicRoughness":{
				"metallicFactor":0,
				"roughnessFactor":0.5
			}
		},
		{
			"doubleSided":true,
			"name":"vertex colors",
			"pbrMetallicRoughness":{
				"metallicFactor":0
			}
		},
		{
			"doubleSided":true,
			"name":"magnet",
			"pbrMetallicRoughness":{
				"baseColorTexture":{
					"index":0
				},
				"metallicFactor":0,
				"roughnessFactor":0.5
			}
		}
	],
	"meshes":[
		{
			"name":"Cylinder.018",
			"primitives":[
				{
					"attributes":{
						"POSITION":0,
						"NORMAL":1,
						"TEXCOORD_0":2,
						"COLOR_0":3
					},
					"indices":4,
					"material":0
				}
			]
		},
		{
			"name":"Cylinder.018",
			"primitives":[
				{
					"attributes":{
						"POSITION":5,
						"NORMAL":6,
						"TEXCOORD_0":7,
						"COLOR_0":8
					},
					"indices":4,
					"material":0
				}
			]
		},
		{
			"name":"Cylinder.018",
			"primitives":[
				{
					"attributes":{
						"POSITION":9,
						"NORMAL":10,
						"TEXCOORD_0":11,
						"COLOR_0":12
					},
					"indices":4,
					"material":0
				}
			]
		},
		{
			"name":"Cube.059",
			"primitives":[
				{
					"attributes":{
						"POSITION":13,
						"NORMAL":14,
						"TEXCOORD_0":15,
						"COLOR_0":16
					},
					"indices":17,
					"material":1
				}
			]
		},
		{
			"name":"Cylinder.018",
			"primitives":[
				{
					"attributes":{
						"POSITION":18,
						"NORMAL":19,
						"TEXCOORD_0":20,
						"COLOR_0":21
					},
					"indices":4,
					"material":0
				}
			]
		},
		{
			"name":"Cylinder.018",
			"primitives":[
				{
					"attributes":{
						"POSITION":22,
						"NORMAL":23,
						"TEXCOORD_0":24,
						"COLOR_0":25
					},
					"indices":4,
					"material":0
				}
			]
		},
		{
			"name":"Cylinder.018",
			"primitives":[
				{
					"attributes":{
						"POSITION":26,
						"NORMAL":27,
						"TEXCOORD_0":28,
						"COLOR_0":29
					},
					"indices":4,
					"material":0
				}
			]
		},
		{
			"name":"Cylinder.018",
			"primitives":[
				{
					"attributes":{
						"POSITION":30,
						"NORMAL":31,
						"TEXCOORD_0":32,
						"COLOR_0":33
					},
					"indices":4,
					"material":0
				}
			]
		},
		{
			"name":"Cylinder.018",
			"primitives":[
				{
					"attributes":{
						"POSITION":34,
						"NORMAL":35,
						"TEXCOORD_0":36,
						"COLOR_0":37
					},
					"indices":4,
					"material":0
				}
			]
		},
		{
			"name":"Cylinder.018",
			"primitives":[
				{
					"attributes":{
						"POSITION":38,
						"NORMAL":39,
						"TEXCOORD_0":40,
						"COLOR_0":41
					},
					"indices":4,
					"material":0
				}
			]
		},
		{
			"name":"Cube.027",
			"primitives":[
				{
					"attributes":{
						"POSITION":42,
						"NORMAL":43,
						"TEXCOORD_0":44,
						"COLOR_0":45
					},
					"indices":46,
					"material":1
				},
				{
					"attributes":{
						"POSITION":47,
						"NORMAL":48,
						"TEXCOORD_0":49,
						"COLOR_0":50
					},
					"indices":51,
					"material":2
				}
			]
		}
	],
	"textures":[
		{
			"sampler":0,
			"source":0
		}
	],
	"images":[
		{
			"mimeType":"image/png",
			"name":"the_kitchen_magnets",
			"uri":"the_kitchen_magnets.png"
		}
	],
	"accessors":[
		{
			"bufferView":0,
			"componentType":5126,
			"count":58,
			"max":[
				0.03835779428482056,
				0.15985871851444244,
				0.044291768223047256
			],
			"min":[
				-0.03835779428482056,
				0.00036945915780961514,
				-0.044291768223047256
			],
			"type":"VEC3"
		},
		{
			"bufferView":1,
			"componentType":5126,
			"count":58,
			"type":"VEC3"
		},
		{
			"bufferView":2,
			"componentType":5126,
			"count":58,
			"type":"VEC2"
		},
		{
			"bufferView":3,
			"componentType":5126,
			"count":58,
			"type":"VEC3"
		},
		{
			"bufferView":4,
			"componentType":5123,
			"count":138,
			"type":"SCALAR"
		},
		{
			"bufferView":5,
			"componentType":5126,
			"count":58,
			"max":[
				0.03835779428482056,
				0.15985871851444244,
				0.044291768223047256
			],
			"min":[
				-0.03835779428482056,
				0.00036945915780961514,
				-0.044291768223047256
			],
			"type":"VEC3"
		},
		{
			"bufferView":6,
			"componentType":5126,
			"count":58,
			"type":"VEC3"
		},
		{
			"bufferView":7,
			"componentType":5126,
			"count":58,
			"type":"VEC2"
		},
		{
			"bufferView":8,
			"componentType":5126,
			"count":58,
			"type":"VEC3"
		},
		{
			"bufferView":9,
			"componentType":5126,
			"count":58,
			"max":[
				0.03835779428482056,
				0.15985871851444244,
				0.044291768223047256
			],
			"min":[
				-0.03835779428482056,
				0.00036945915780961514,
				-0.044291768223047256
			],
			"type":"VEC3"
		},
		{
			"bufferView":10,
			"componentType":5126,
			"count":58,
			"type":"VEC3"
		},
		{
			"bufferView":11,
			"componentType":5126,
			"count":58,
			"type":"VEC2"
		},
		{
			"bufferView":12,
			"componentType":5126,
			"count":58,
			"type":"VEC3"
		},
		{
			"bufferView":13,
			"componentType":5126,
			"count":24,
			"max":[
				-0.07182101160287857,
				0.26283735036849976,
				0.04107629507780075
			],
			"min":[
				-0.7745296955108643,
				0.2431277185678482,
				-0.2023930549621582
			],
			"type":"VEC3"
		},
		{
			"bufferView":14,
			"componentType":5126,
			"count":24,
			"type":"VEC3"
		},
		{
			"bufferView":15,
			"componentType":5126,
			"count":24,
			"type":"VEC2"
		},
		{
			"bufferView":16,
			"componentType":5126,
			"count":24,
			"type":"VEC3"
		},
		{
			"bufferView":17,
			"componentType":5123,
			"count":36,
			"type":"SCALAR"
		},
		{
			"bufferView":18,
			"componentType":5126,
			"count":58,
			"max":[
				0.03835779428482056,
				0.15985871851444244,
				0.044291768223047256
			],
			"min":[
				-0.03835779428482056,
				0.00036945915780961514,
				-0.044291768223047256
			],
			"type":"VEC3"
		},
		{
			"bufferView":19,
			"componentType":5126,
			"count":58,
			"type":"VEC3"
		},
		{
			"bufferView":20,
			"componentType":5126,
			"count":58,
			"type":"VEC2"
		},
		{
			"bufferView":21,
			"componentType":5126,
			"count":58,
			"type":"VEC3"
		},
		{
			"bufferView":22,
			"componentType":5126,
			"count":58,
			"max":[
				0.03835779428482056,
				0.15985871851444244,
				0.044291768223047256
			],
			"min":[
				-0.03835779428482056,
				0.00036945915780961514,
				-0.044291768223047256
			],
			"type":"VEC3"
		},
		{
			"bufferView":23,
			"componentType":5126,
			"count":58,
			"type":"VEC3"
		},
		{
			"bufferView":24,
			"componentType":5126,
			"count":58,
			"type":"VEC2"
		},
		{
			"bufferView":25,
			"componentType":5126,
			"count":58,
			"type":"VEC3"
		},
		{
			"bufferView":26,
			"componentType":5126,
			"count":58,
			"max":[
				0.03835779428482056,
				0.15985871851444244,
				0.044291768223047256
			],
			"min":[
				-0.03835779428482056,
				0.00036945915780961514,
				-0.044291768223047256
			],
			"type":"VEC3"
		},
		{
			"bufferView":27,
			"componentType":5126,
			"count":58,
			"type":"VEC3"
		},
		{
			"bufferView":28,
			"componentType":5126,
			"count":58,
			"type":"VEC2"
		},
		{
			"bufferView":29,
			"componentType":5126,
			"count":58,
			"type":"VEC3"
		},
		{
			"bufferView":30,
			"componentType":5126,
			"count":58,
			"max":[
				0.03835779428482056,
				0.15985871851444244,
				0.044291768223047256
			],
			"min":[
				-0.03835779428482056,
				0.00036945915780961514,
				-0.044291768223047256
			],
			"type":"VEC3"
		},
		{
			"bufferView":31,
			"componentType":5126,
			"count":58,
			"type":"VEC3"
		},
		{
			"bufferView":32,
			"componentType":5126,
			"count":58,
			"type":"VEC2"
		},
		{
			"bufferView":33,
			"componentType":5126,
			"count":58,
			"type":"VEC3"
		},
		{
			"bufferView":34,
			"componentType":5126,
			"count":58,
			"max":[
				0.03835779428482056,
				0.15985871851444244,
				0.044291768223047256
			],
			"min":[
				-0.03835779428482056,
				0.00036945915780961514,
				-0.044291768223047256
			],
			"type":"VEC3"
		},
		{
			"bufferView":35,
			"componentType":5126,
			"count":58,
			"type":"VEC3"
		},
		{
			"bufferView":36,
			"componentType":5126,
			"count":58,
			"type":"VEC2"
		},
		{
			"bufferView":37,
			"componentType":5126,
			"count":58,
			"type":"VEC3"
		},
		{
			"bufferView":38,
			"componentType":5126,
			"count":58,
			"max":[
				0.03835779428482056,
				0.15985871851444244,
				0.044291768223047256
			],
			"min":[
				-0.03835779428482056,
				0.00036945915780961514,
				-0.044291768223047256
			],
			"type":"VEC3"
		},
		{
			"bufferView":39,
			"componentType":5126,
			"count":58,
			"type":"VEC3"
		},
		{
			"bufferView":40,
			"componentType":5126,
			"count":58,
			"type":"VEC2"
		},
		{
			"bufferView":41,
			"componentType":5126,
			"count":58,
			"type":"VEC3"
		},
		{
			"bufferView":42,
			"componentType":5126,
			"count":383,
			"max":[
				0,
				1.2257429361343384,
				0.08182896673679352
			],
			"min":[
				-0.8535114526748657,
				-1.1838306188583374,
				-0.03642392158508301
			],
			"type":"VEC3"
		},
		{
			"bufferView":43,
			"componentType":5126,
			"count":383,
			"type":"VEC3"
		},
		{
			"bufferView":44,
			"componentType":5126,
			"count":383,
			"type":"VEC2"
		},
		{
			"bufferView":45,
			"componentType":5126,
			"count":383,
			"type":"VEC3"
		},
		{
			"bufferView":46,
			"componentType":5123,
			"count":618,
			"type":"SCALAR"
		},
		{
			"bufferView":47,
			"componentType":5126,
			"count":14,
			"max":[
				-0.03642398118972778,
				1.1893190145492554,
				0.03642392158508301
			],
			"min":[
				-0.709678590297699,
				-1.1474066972732544,
				0.03642392158508301
			],
			"type":"VEC3"
		},
		{
			"bufferView":48,
			"componentType":5126,
			"count":14,
			"type":"VEC3"
		},
		{
			"bufferView":49,
			"componentType":5126,
			"count":14,
			"type":"VEC2"
		},
		{
			"bufferView":50,
			"componentType":5126,
			"count":14,
			"type":"VEC3"
		},
		{
			"bufferView":51,
			"componentType":5123,
			"count":24,
			"type":"SCALAR"
		}
	],
	"bufferViews":[
		{
			"buffer":0,
			"byteLength":696,
			"byteOffset":0,
			"target":34962
		},
		{
			"buffer":0,
			"byteLength":696,
			"byteOffset":696,
			"target":34962
		},
		{
			"buffer":0,
			"byteLength":464,
			"byteOffset":1392,
			"target":34962
		},
		{
			"buffer":0,
			"byteLength":696,
			"byteOffset":1856,
			"target":34962
		},
		{
			"buffer":0,
			"byteLength":276,
			"byteOffset":2552,
			"target":34963
		},
		{
			"buffer":0,
			"byteLength":696,
			"byteOffset":2828,
			"target":34962
		},
		{
			"buffer":0,
			"byteLength":696,
			"byteOffset":3524,
			"target":34962
		},
		{
			"buffer":0,
			"byteLength":464,
			"byteOffset":4220,
			"target":34962
		},
		{
			"buffer":0,
			"byteLength":696,
			"byteOffset":4684,
			"target":34962
		},
		{
			"buffer":0,
			"byteLength":696,
			"byteOffset":5380,
			"target":34962
		},
		{
			"buffer":0,
			"byteLength":696,
			"byteOffset":6076,
			"target":34962
		},
		{
			"buffer":0,
			"byteLength":464,
			"byteOffset":6772,
			"target":34962
		},
		{
			"buffer":0,
			"byteLength":696,
			"byteOffset":7236,
			"target":34962
		},
		{
			"buffer":0,
			"byteLength":288,
			"byteOffset":7932,
			"target":34962
		},
		{
			"buffer":0,
			"byteLength":288,
			"byteOffset":8220,
			"target":34962
		},
		{
			"buffer":0,
			"byteLength":192,
			"byteOffset":8508,
			"target":34962
		},
		{
			"buffer":0,
			"byteLength":288,
			"byteOffset":8700,
			"target":34962
		},
		{
			"buffer":0,
			"byteLength":72,
			"byteOffset":8988,
			"target":34963
		},
		{
			"buffer":0,
			"byteLength":696,
			"byteOffset":9060,
			"target":34962
		},
		{
			"buffer":0,
			"byteLength":696,
			"byteOffset":9756,
			"target":34962
		},
		{
			"buffer":0,
			"byteLength":464,
			"byteOffset":10452,
			"target":34962
		},
		{
			"buffer":0,
			"byteLength":696,
			"byteOffset":10916,
			"target":34962
		},
		{
			"buffer":0,
			"byteLength":696,
			"byteOffset":11612,
			"target":34962
		},
		{
			"buffer":0,
			"byteLength":696,
			"byteOffset":12308,
			"target":34962
		},
		{
			"buffer":0,
			"byteLength":464,
			"byteOffset":13004,
			"target":34962
		},
		{
			"buffer":0,
			"byteLength":696,
			"byteOffset":13468,
			"target":34962
		},
		{
			"buffer":0,
			"byteLength":696,
			"byteOffset":14164,
			"target":34962
		},
		{
			"buffer":0,
			"byteLength":696,
			"byteOffset":14860,
			"target":34962
		},
		{
			"buffer":0,
			"byteLength":464,
			"byteOffset":15556,
			"target":34962
		},
		{
			"buffer":0,
			"byteLength":696,
			"byteOffset":16020,
			"target":34962
		},
		{
			"buffer":0,
			"byteLength":696,
			"byteOffset":16716,
			"target":34962
		},
		{
			"buffer":0,
			"byteLength":696,
			"byteOffset":17412,
			"target":34962
		},
		{
			"buffer":0,
			"byteLength":464,
			"byteOffset":18108,
			"target":34962
		},
		{
			"buffer":0,
			"byteLength":696,
			"byteOffset":18572,
			"target":34962
		},
		{
			"buffer":0,
			"byteLength":696,
			"byteOffset":19268,
			"target":34962
		},
		{
			"buffer":0,
			"byteLength":696,
			"byteOffset":19964,
			"target":34962
		},
		{
			"buffer":0,
			"byteLength":464,
			"byteOffset":20660,
			"target":34962
		},
		{
			"buffer":0,
			"byteLength":696,
			"byteOffset":21124,
			"target":34962
		},
		{
			"buffer":0,
			"byteLength":696,
			"byteOffset":21820,
			"target":34962
		},
		{
			"buffer":0,
			"byteLength":696,
			"byteOffset":22516,
			"target":34962
		},
		{
			"buffer":0,
			"byteLength":464,
			"byteOffset":23212,
			"target":34962
		},
		{
			"buffer":0,
			"byteLength":696,
			"byteOffset":23676,
			"target":34962
		},
		{
			"buffer":0,
			"byteLength":4596,
			"byteOffset":24372,
			"target":34962
		},
		{
			"buffer":0,
			"byteLength":4596,
			"byteOffset":28968,
			"target":34962
		},
		{
			"buffer":0,
			"byteLength":3064,
			"byteOffset":33564,
			"target":34962
		},
		{
			"buffer":0,
			"byteLength":4596,
			"byteOffset":36628,
			"target":34962
		},
		{
			"buffer":0,
			"byteLength":1236,
			"byteOffset":41224,
			"target":34963
		},
		{
			"buffer":0,
			"byteLength":168,
			"byteOffset":42460,
			"target":34962
		},
		{
			"buffer":0,
			"byteLength":168,
			"byteOffset":42628,
			"target":34962
		},
		{
			"buffer":0,
			"byteLength":112,
			"byteOffset":42796,
			"target":34962
		},
		{
			"buffer":0,
			"byteLength":168,
			"byteOffset":42908,
			"target":34962
		},
		{
			"buffer":0,
			"byteLength":48,
			"byteOffset":43076,
			"target":34963
		}
	],
	"samplers":[
		{
			"magFilter":9729,
			"minFilter":9987
		}
	],
	"buffers":[
		{
			"byteLength":43124,
			"uri":"fridge_door_right.bin"
		}
	]
}
