{
	"asset":{
		"generator":"Khronos glTF Blender I/O v5.1.15",
		"version":"2.0"
	},
	"scene":0,
	"scenes":[
		{
			"name":"lamp_fallen",
			"nodes":[
				0,
				1,
				2,
				3,
				4
			]
		}
	],
	"nodes":[
		{
			"mesh":0,
			"name":"Cylinder.004",
			"rotation":[
				0.7191137671470642,
				0.1727987825870514,
				0.19268596172332764,
				0.6448938846588135
			],
			"translation":[
				0,
				0.20324435830116272,
				-0.8277558088302612
			]
		},
		{
			"mesh":1,
			"name":"Cylinder.006",
			"rotation":[
				0.703207790851593,
				0.1774364709854126,
				0.18842396140098572,
				0.6622020602226257
			],
			"translation":[
				0,
				0.08101725578308105,
				1.2144923210144043
			]
		},
		{
			"mesh":2,
			"name":"Plane.004",
			"rotation":[
				0.26345279812812805,
				-0.16326427459716797,
				0.10250784456729889,
				0.945214033126831
			],
			"translation":[
				-0.27765271067619324,
				0.01810896024107933,
				0.03174465894699097
			]
		},
		{
			"mesh":3,
			"name":"Cube.019",
			"rotation":[
				0.738112211227417,
				-0.08714494109153748,
				-0.09717428684234619,
				0.6619315147399902
			],
			"scale":[
				0.007001563441008329,
				0.00700156157836318,
				0.007001563906669617
			],
			"translation":[
				0,
				0.1866418868303299,
				-0.6756479740142822
			]
		},
		{
			"mesh":4,
			"name":"B\u00e9zierCurve",
			"translation":[
				-0.1916193962097168,
				0.020527338609099388,
				0.005184544250369072
			]
		}
	],
	"materials":[
		{
			"doubleSided":true,
			"name":"lamp",
			"pbrMetallicRoughness":{
				"metallicFactor":0,
				"roughnessFactor":0.5
			}
		}
	],
	"meshes":[
		{
			"name":"Cylinder.011",
			"primitives":[
				{
					"attributes":{
						"POSITION":0,
						"NORMAL":1,
						"TEXCOORD_0":2,
						"COLOR_0":3
					},
					"indices":4,
					"material":0
				}
			]
		},
		{
			"name":"Cylinder.010",
			"primitives":[
				{
					"attributes":{
						"POSITION":5,
						"NORMAL":6,
						"TEXCOORD_0":7,
						"COLOR_0":8
					},
					"indices":9,
					"material":0
				}
			]
		},
		{
			"name":"Plane.006",
			"primitives":[
				{
					"attributes":{
						"POSITION":10,
						"NORMAL":11,
						"COLOR_0":12
					},
					"indices":13,
					"material":0
				}
			]
		},
		{
			"name":"Cube.005",
			"primitives":[
				{
					"attributes":{
						"POSITION":14,
						"NORMAL":15,
						"TEXCOORD_0":16,
						"COLOR_0":17
					},
					"indices":18,
					"material":0
				}
			]
		},
		{
			"name":"B\u00e9zierCurve",
			"primitives":[
				{
					"attributes":{
						"POSITION":19,
						"NORMAL":20,
						"COLOR_0":21
					},
					"indices":22,
					"material":0
				}
			]
		}
	],
	"accessors":[
		{
			"bufferView":0,
			"componentType":5126,
			"count":237,
			"max":[
				0.2049255073070526,
				0.21227534115314484,
				0.20492546260356903
			],
			"min":[
				-0.2049255073070526,
				-0.019745290279388428,
				-0.2049255073070526
			],
			"type":"VEC3"
		},
		{
			"bufferView":1,
			"componentType":5126,
			"count":237,
			"type":"VEC3"
		},
		{
			"bufferView":2,
			"componentType":5126,
			"count":237,
			"type":"VEC2"
		},
		{
			"bufferView":3,
			"componentType":5126,
			"count":237,
			"type":"VEC3"
		},
		{
			"bufferView":4,
			"componentType":5123,
			"count":1044,
			"type":"SCALAR"
		},
		{
			"bufferView":5,
			"componentType":5126,
			"count":282,
			"max":[
				0.2268509864807129,
				-0.2715144753456116,
				0.1718253493309021
			],
			"min":[
				-0.22900034487247467,
				-0.7094403505325317,
				-0.2299426794052124
			],
			"type":"VEC3"
		},
		{
			"bufferView":6,
			"componentType":5126,
			"count":282,
			"type":"VEC3"
		},
		{
			"bufferView":7,
			"componentType":5126,
			"count":282,
			"type":"VEC2"
		},
		{
			"bufferView":8,
			"componentType":5126,
			"count":282,
			"type":"VEC3"
		},
		{
			"bufferView":9,
			"componentType":5123,
			"count":576,
			"type":"SCALAR"
		},
		{
			"bufferView":10,
			"componentType":5126,
			"count":208,
			"max":[
				0.043274082243442535,
				0.018046997487545013,
				0.028126850724220276
			],
			"min":[
				-0.0483243390917778,
				-0.029751628637313843,
				-0.0458429753780365
			],
			"type":"VEC3"
		},
		{
			"bufferView":11,
			"componentType":5126,
			"count":208,
			"type":"VEC3"
		},
		{
			"bufferView":12,
			"componentType":5126,
			"count":208,
			"type":"VEC3"
		},
		{
			"bufferView":13,
			"componentType":5123,
			"count":1200,
			"type":"SCALAR"
		},
		{
			"bufferView":14,
			"componentType":5126,
			"count":16,
			"max":[
				1.3207106590270996,
				199.44151306152344,
				1.3207106590270996
			],
			"min":[
				-1.3207106590270996,
				-1,
				-1.3207106590270996
			],
			"type":"VEC3"
		},
		{
			"bufferView":15,
			"componentType":5126,
			"count":16,
			"type":"VEC3"
		},
		{
			"bufferView":16,
			"componentType":5126,
			"count":16,
			"type":"VEC2"
		},
		{
			"bufferView":17,
			"componentType":5126,
			"count":16,
			"type":"VEC3"
		},
		{
			"bufferView":18,
			"componentType":5123,
			"count":24,
			"type":"SCALAR"
		},
		{
			"bufferView":19,
			"componentType":5126,
			"count":120,
			"max":[
				0.19629673659801483,
				0.008499262854456902,
				0.692322850227356
			],
			"min":[
				-0.061142146587371826,
				-0.008499262854456902,
				0.035578276962041855
			],
			"type":"VEC3"
		},
		{
			"bufferView":20,
			"componentType":5126,
			"count":120,
			"type":"VEC3"
		},
		{
			"bufferView":21,
			"componentType":5126,
			"count":120,
			"type":"VEC3"
		},
		{
			"bufferView":22,
			"componentType":5123,
			"count":612,
			"type":"SCALAR"
		}
	],
	"bufferViews":[
		{
			"buffer":0,
			"byteLength":2844,
			"byteOffset":0,
			"target":34962
		},
		{
			"buffer":0,
			"byteLength":2844,
			"byteOffset":2844,
			"target":34962
		},
		{
			"buffer":0,
			"byteLength":1896,
			"byteOffset":5688,
			"target":34962
		},
		{
			"buffer":0,
			"byteLength":2844,
			"byteOffset":7584,
			"target":34962
		},
		{
			"buffer":0,
			"byteLength":2088,
			"byteOffset":10428,
			"target":34963
		},
		{
			"buffer":0,
			"byteLength":3384,
			"byteOffset":12516,
			"target":34962
		},
		{
			"buffer":0,
			"byteLength":3384,
			"byteOffset":15900,
			"target":34962
		},
		{
			"buffer":0,
			"byteLength":2256,
			"byteOffset":19284,
			"target":34962
		},
		{
			"buffer":0,
			"byteLength":3384,
			"byteOffset":21540,
			"target":34962
		},
		{
			"buffer":0,
			"byteLength":1152,
			"byteOffset":24924,
			"target":34963
		},
		{
			"buffer":0,
			"byteLength":2496,
			"byteOffset":26076,
			"target":34962
		},
		{
			"buffer":0,
			"byteLength":2496,
			"byteOffset":28572,
			"target":34962
		},
		{
			"buffer":0,
			"byteLength":2496,
			"byteOffset":31068,
			"target":34962
		},
		{
			"buffer":0,
			"byteLength":2400,
			"byteOffset":33564,
			"target":34963
		},
		{
			"buffer":0,
			"byteLength":192,
			"byteOffset":35964,
			"target":34962
		},
		{
			"buffer":0,
			"byteLength":192,
			"byteOffset":36156,
			"target":34962
		},
		{
			"buffer":0,
			"byteLength":128,
			"byteOffset":36348,
			"target":34962
		},
		{
			"buffer":0,
			"byteLength":192,
			"byteOffset":36476,
			"target":34962
		},
		{
			"buffer":0,
			"byteLength":48,
			"byteOffset":36668,
			"target":34963
		},
		{
			"buffer":0,
			"byteLength":1440,
			"byteOffset":36716,
			"target":34962
		},
		{
			"buffer":0,
			"byteLength":1440,
			"byteOffset":38156,
			"target":34962
		},
		{
			"buffer":0,
			"byteLength":1440,
			"byteOffset":39596,
			"target":34962
		},
		{
			"buffer":0,
			"byteLength":1224,
			"byteOffset":41036,
			"target":34963
		}
	],
	"buffers":[
		{
			"byteLength":42260,
			"uri":"lamp_fallen.bin"
		}
	]
}
