{
	"asset":{
		"generator":"Khronos glTF Blender I/O v5.1.15",
		"version":"2.0"
	},
	"scene":0,
	"scenes":[
		{
			"name":"puddle",
			"nodes":[
				0,
				1,
				2
			]
		}
	],
	"nodes":[
		{
			"mesh":0,
			"name":"Plane.001",
			"translation":[
				-0.2601669132709503,
				0,
				-0.2938479781150818
			]
		},
		{
			"mesh":1,
			"name":"Plane.002",
			"scale":[
				0.7517566084861755,
				0.7517566084861755,
				0.7517566084861755
			],
			"translation":[
				0.0759427547454834,
				0,
				0.30412131547927856
			]
		},
		{
			"mesh":1,
			"name":"Plane.003",
			"rotation":[
				0,
				0.1394132822751999,
				0,
				0.990234375
			],
			"scale":[
				0.7451205849647522,
				0.7451205849647522,
				0.7451205849647522
			],
			"translation":[
				0.18422412872314453,
				0,
				-0.010273367166519165
			]
		}
	],
	"materials":[
		{
			"doubleSided":true,
			"name":"props",
			"pbrMetallicRoughness":{
				"metallicFactor":0,
				"roughnessFactor":0.5
			}
		}
	],
	"meshes":[
		{
			"name":"Mesh",
			"primitives":[
				{
					"attributes":{
						"POSITION":0,
						"NORMAL":1,
						"TEXCOORD_0":2,
						"COLOR_0":3
					},
					"indices":4,
					"material":0
				}
			]
		},
		{
			"name":"Plane.004",
			"primitives":[
				{
					"attributes":{
						"POSITION":5,
						"NORMAL":6,
						"TEXCOORD_0":7,
						"COLOR_0":8
					},
					"indices":9,
					"material":0
				}
			]
		}
	],
	"accessors":[
		{
			"bufferView":0,
			"componentType":5126,
			"count":49,
			"max":[
				0.46121978759765625,
				0,
				0.42861849069595337
			],
			"min":[
				-0.4057791829109192,
				0,
				-0.5015449523925781
			],
			"type":"VEC3"
		},
		{
			"bufferView":1,
			"componentType":5126,
			"count":49,
			"type":"VEC3"
		},
		{
			"bufferView":2,
			"componentType":5126,
			"count":49,
			"type":"VEC2"
		},
		{
			"bufferView":3,
			"componentType":5126,
			"count":49,
			"type":"VEC3"
		},
		{
			"bufferView":4,
			"componentType":5123,
			"count":120,
			"type":"SCALAR"
		},
		{
			"bufferView":5,
			"componentType":5126,
			"count":16,
			"max":[
				0.16221293807029724,
				4.440892098500626e-16,
				0.2553075850009918
			],
			"min":[
				-0.13976985216140747,
				4.440892098500626e-16,
				-0.21718469262123108
			],
			"type":"VEC3"
		},
		{
			"bufferView":6,
			"componentType":5126,
			"count":16,
			"type":"VEC3"
		},
		{
			"bufferView":7,
			"componentType":5126,
			"count":16,
			"type":"VEC2"
		},
		{
			"bufferView":8,
			"componentType":5126,
			"count":16,
			"type":"VEC3"
		},
		{
			"bufferView":9,
			"componentType":5123,
			"count":36,
			"type":"SCALAR"
		}
	],
	"bufferViews":[
		{
			"buffer":0,
			"byteLength":588,
			"byteOffset":0,
			"target":34962
		},
		{
			"buffer":0,
			"byteLength":588,
			"byteOffset":588,
			"target":34962
		},
		{
			"buffer":0,
			"byteLength":392,
			"byteOffset":1176,
			"target":34962
		},
		{
			"buffer":0,
			"byteLength":588,
			"byteOffset":1568,
			"target":34962
		},
		{
			"buffer":0,
			"byteLength":240,
			"byteOffset":2156,
			"target":34963
		},
		{
			"buffer":0,
			"byteLength":192,
			"byteOffset":2396,
			"target":34962
		},
		{
			"buffer":0,
			"byteLength":192,
			"byteOffset":2588,
			"target":34962
		},
		{
			"buffer":0,
			"byteLength":128,
			"byteOffset":2780,
			"target":34962
		},
		{
			"buffer":0,
			"byteLength":192,
			"byteOffset":2908,
			"target":34962
		},
		{
			"buffer":0,
			"byteLength":72,
			"byteOffset":3100,
			"target":34963
		}
	],
	"buffers":[
		{
			"byteLength":3172,
			"uri":"puddle.bin"
		}
	]
}
