{
	"asset":{
		"generator":"Khronos glTF Blender I/O v5.1.15",
		"version":"2.0"
	},
	"scene":0,
	"scenes":[
		{
			"name":"skateboard",
			"nodes":[
				0,
				1
			]
		}
	],
	"nodes":[
		{
			"mesh":0,
			"name":"Cube.001",
			"translation":[
				0.07814457267522812,
				0.06134376674890518,
				0.11123517155647278
			]
		},
		{
			"mesh":1,
			"name":"Cylinder",
			"rotation":[
				0.39122679829597473,
				0.39122679829597473,
				-0.5890175104141235,
				0.5890174508094788
			],
			"translation":[
				-0.07814457267522812,
				-0.06134377047419548,
				-0.11123517155647278
			]
		}
	],
	"materials":[
		{
			"doubleSided":true,
			"name":"props",
			"pbrMetallicRoughness":{
				"metallicFactor":0,
				"roughnessFactor":0.5
			}
		}
	],
	"meshes":[
		{
			"name":"Cube.001",
			"primitives":[
				{
					"attributes":{
						"POSITION":0,
						"NORMAL":1,
						"TEXCOORD_0":2,
						"COLOR_0":3
					},
					"indices":4,
					"material":0
				}
			]
		},
		{
			"name":"Cylinder",
			"primitives":[
				{
					"attributes":{
						"POSITION":5,
						"NORMAL":6,
						"TEXCOORD_0":7,
						"COLOR_0":8
					},
					"indices":9,
					"material":0
				}
			]
		}
	],
	"accessors":[
		{
			"bufferView":0,
			"componentType":5126,
			"count":130,
			"max":[
				0.12662021815776825,
				0.023413218557834625,
				0.49488210678100586
			],
			"min":[
				-0.12662021815776825,
				-0.059944070875644684,
				-0.49488210678100586
			],
			"type":"VEC3"
		},
		{
			"bufferView":1,
			"componentType":5126,
			"count":130,
			"type":"VEC3"
		},
		{
			"bufferView":2,
			"componentType":5126,
			"count":130,
			"type":"VEC2"
		},
		{
			"bufferView":3,
			"componentType":5126,
			"count":130,
			"type":"VEC3"
		},
		{
			"bufferView":4,
			"componentType":5123,
			"count":528,
			"type":"SCALAR"
		},
		{
			"bufferView":5,
			"componentType":5126,
			"count":480,
			"max":[
				0.10864945501089096,
				0.3422441780567169,
				0.2491828203201294
			],
			"min":[
				-0.5187737941741943,
				-0.02966589853167534,
				-0.08326844125986099
			],
			"type":"VEC3"
		},
		{
			"bufferView":6,
			"componentType":5126,
			"count":480,
			"type":"VEC3"
		},
		{
			"bufferView":7,
			"componentType":5126,
			"count":480,
			"type":"VEC2"
		},
		{
			"bufferView":8,
			"componentType":5126,
			"count":480,
			"type":"VEC3"
		},
		{
			"bufferView":9,
			"componentType":5123,
			"count":1464,
			"type":"SCALAR"
		}
	],
	"bufferViews":[
		{
			"buffer":0,
			"byteLength":1560,
			"byteOffset":0,
			"target":34962
		},
		{
			"buffer":0,
			"byteLength":1560,
			"byteOffset":1560,
			"target":34962
		},
		{
			"buffer":0,
			"byteLength":1040,
			"byteOffset":3120,
			"target":34962
		},
		{
			"buffer":0,
			"byteLength":1560,
			"byteOffset":4160,
			"target":34962
		},
		{
			"buffer":0,
			"byteLength":1056,
			"byteOffset":5720,
			"target":34963
		},
		{
			"buffer":0,
			"byteLength":5760,
			"byteOffset":6776,
			"target":34962
		},
		{
			"buffer":0,
			"byteLength":5760,
			"byteOffset":12536,
			"target":34962
		},
		{
			"buffer":0,
			"byteLength":3840,
			"byteOffset":18296,
			"target":34962
		},
		{
			"buffer":0,
			"byteLength":5760,
			"byteOffset":22136,
			"target":34962
		},
		{
			"buffer":0,
			"byteLength":2928,
			"byteOffset":27896,
			"target":34963
		}
	],
	"buffers":[
		{
			"byteLength":30824,
			"uri":"skateboard.bin"
		}
	]
}
