{
	"asset":{
		"generator":"Khronos glTF Blender I/O v5.0.21",
		"version":"2.0"
	},
	"scene":0,
	"scenes":[
		{
			"name":"banana_peel",
			"nodes":[
				0
			]
		}
	],
	"nodes":[
		{
			"mesh":0,
			"name":"Banana.001",
			"rotation":[
				0.5,
				0.5,
				-0.5,
				0.5
			],
			"translation":[
				0.0014910006430000067,
				0.042484644800424576,
				0
			]
		}
	],
	"materials":[
		{
			"doubleSided":true,
			"name":"props",
			"pbrMetallicRoughness":{
				"metallicFactor":0,
				"roughnessFactor":0.5
			}
		}
	],
	"meshes":[
		{
			"name":"Cylinder.007",
			"primitives":[
				{
					"attributes":{
						"POSITION":0,
						"NORMAL":1,
						"TEXCOORD_0":2,
						"COLOR_0":3
					},
					"indices":4,
					"material":0
				}
			]
		}
	],
	"accessors":[
		{
			"bufferView":0,
			"componentType":5126,
			"count":230,
			"max":[
				0.17847874760627747,
				0.19699916243553162,
				0.04666772484779358
			],
			"min":[
				-0.23708605766296387,
				-0.20492441952228546,
				-0.16292335093021393
			],
			"type":"VEC3"
		},
		{
			"bufferView":1,
			"componentType":5126,
			"count":230,
			"type":"VEC3"
		},
		{
			"bufferView":2,
			"componentType":5126,
			"count":230,
			"type":"VEC2"
		},
		{
			"bufferView":3,
			"componentType":5126,
			"count":230,
			"type":"VEC3"
		},
		{
			"bufferView":4,
			"componentType":5123,
			"count":600,
			"type":"SCALAR"
		}
	],
	"bufferViews":[
		{
			"buffer":0,
			"byteLength":2760,
			"byteOffset":0,
			"target":34962
		},
		{
			"buffer":0,
			"byteLength":2760,
			"byteOffset":2760,
			"target":34962
		},
		{
			"buffer":0,
			"byteLength":1840,
			"byteOffset":5520,
			"target":34962
		},
		{
			"buffer":0,
			"byteLength":2760,
			"byteOffset":7360,
			"target":34962
		},
		{
			"buffer":0,
			"byteLength":1200,
			"byteOffset":10120,
			"target":34963
		}
	],
	"buffers":[
		{
			"byteLength":11320,
			"uri":"banana_peel.bin"
		}
	]
}
