{
	"asset":{
		"generator":"Khronos glTF Blender I/O v5.0.21",
		"version":"2.0"
	},
	"scene":0,
	"scenes":[
		{
			"name":"bbq",
			"nodes":[
				0,
				1,
				2,
				3,
				4,
				5
			]
		}
	],
	"nodes":[
		{
			"mesh":0,
			"name":"Cube.015",
			"rotation":[
				0,
				0.7071068286895752,
				0,
				0.7071068286895752
			],
			"translation":[
				0,
				0.8496196269989014,
				0
			]
		},
		{
			"mesh":1,
			"name":"Plane.004",
			"rotation":[
				0,
				-1,
				0,
				1.6292068494294654e-07
			],
			"translation":[
				0,
				0.6518467664718628,
				0
			]
		},
		{
			"mesh":2,
			"name":"Cylinder",
			"rotation":[
				0.5,
				0.5,
				-0.5,
				0.5
			],
			"translation":[
				0.46686697006225586,
				0.08315899968147278,
				-0.3280622959136963
			]
		},
		{
			"mesh":3,
			"name":"Cylinder.001",
			"rotation":[
				0.5,
				0.5,
				-0.5,
				0.5
			],
			"translation":[
				0.4660658836364746,
				0.08110865950584412,
				0.2880539000034332
			]
		},
		{
			"mesh":4,
			"name":"Cube.016",
			"rotation":[
				0,
				0.7071068286895752,
				0,
				0.7071068286895752
			],
			"translation":[
				0.8448286056518555,
				0.9416289329528809,
				0
			]
		},
		{
			"mesh":5,
			"name":"Plane.005",
			"rotation":[
				0,
				0.7071068286895752,
				0,
				0.7071068286895752
			],
			"translation":[
				0,
				0.8496196269989014,
				0
			]
		}
	],
	"materials":[
		{
			"doubleSided":true,
			"name":"Material",
			"pbrMetallicRoughness":{
				"metallicFactor":0,
				"roughnessFactor":0.5
			}
		},
		{
			"doubleSided":true,
			"name":"metal",
			"pbrMetallicRoughness":{
				"baseColorFactor":[
					0.800000011920929,
					0.800000011920929,
					0.800000011920929,
					1
				],
				"metallicFactor":0,
				"roughnessFactor":0.5
			}
		}
	],
	"meshes":[
		{
			"name":"Cube.019",
			"primitives":[
				{
					"attributes":{
						"POSITION":0,
						"NORMAL":1,
						"TEXCOORD_0":2,
						"COLOR_0":3
					},
					"indices":4,
					"material":0
				},
				{
					"attributes":{
						"POSITION":5,
						"NORMAL":6,
						"TEXCOORD_0":7,
						"COLOR_0":8
					},
					"indices":9,
					"material":1
				}
			]
		},
		{
			"name":"Plane.004",
			"primitives":[
				{
					"attributes":{
						"POSITION":10,
						"NORMAL":11,
						"COLOR_0":12
					},
					"indices":13,
					"material":0
				}
			]
		},
		{
			"name":"Cylinder",
			"primitives":[
				{
					"attributes":{
						"POSITION":14,
						"NORMAL":15,
						"TEXCOORD_0":16,
						"COLOR_0":17
					},
					"indices":18,
					"material":0
				}
			]
		},
		{
			"name":"Cylinder",
			"primitives":[
				{
					"attributes":{
						"POSITION":19,
						"NORMAL":20,
						"TEXCOORD_0":21,
						"COLOR_0":22
					},
					"indices":18,
					"material":0
				}
			]
		},
		{
			"name":"Cube",
			"primitives":[
				{
					"attributes":{
						"POSITION":23,
						"NORMAL":24,
						"TEXCOORD_0":25,
						"COLOR_0":26
					},
					"indices":27,
					"material":0
				}
			]
		},
		{
			"name":"Plane.005",
			"primitives":[
				{
					"attributes":{
						"POSITION":28,
						"NORMAL":29,
						"TEXCOORD_0":30,
						"COLOR_0":31
					},
					"indices":32,
					"material":0
				}
			]
		}
	],
	"accessors":[
		{
			"bufferView":0,
			"componentType":5126,
			"count":66,
			"max":[
				0.5564783215522766,
				0.12970836460590363,
				0.5551688075065613
			],
			"min":[
				-0.5564783215522766,
				-0.16914910078048706,
				-0.5551688075065613
			],
			"type":"VEC3"
		},
		{
			"bufferView":1,
			"componentType":5126,
			"count":66,
			"type":"VEC3"
		},
		{
			"bufferView":2,
			"componentType":5126,
			"count":66,
			"type":"VEC2"
		},
		{
			"bufferView":3,
			"componentType":5126,
			"count":66,
			"type":"VEC3"
		},
		{
			"bufferView":4,
			"componentType":5123,
			"count":354,
			"type":"SCALAR"
		},
		{
			"bufferView":5,
			"componentType":5126,
			"count":58,
			"max":[
				0.5261834859848022,
				0.12970836460590363,
				0.5261896848678589
			],
			"min":[
				-0.5261834859848022,
				-0.12970836460590363,
				-0.5261896848678589
			],
			"type":"VEC3"
		},
		{
			"bufferView":6,
			"componentType":5126,
			"count":58,
			"type":"VEC3"
		},
		{
			"bufferView":7,
			"componentType":5126,
			"count":58,
			"type":"VEC2"
		},
		{
			"bufferView":8,
			"componentType":5126,
			"count":58,
			"type":"VEC3"
		},
		{
			"bufferView":9,
			"componentType":5123,
			"count":306,
			"type":"SCALAR"
		},
		{
			"bufferView":10,
			"componentType":5126,
			"count":35,
			"max":[
				0.4944532811641693,
				0.052696116268634796,
				0.3395264446735382
			],
			"min":[
				-0.49445316195487976,
				-0.5007123947143555,
				-0.30527782440185547
			],
			"type":"VEC3"
		},
		{
			"bufferView":11,
			"componentType":5126,
			"count":35,
			"type":"VEC3"
		},
		{
			"bufferView":12,
			"componentType":5126,
			"count":35,
			"type":"VEC3"
		},
		{
			"bufferView":13,
			"componentType":5123,
			"count":96,
			"type":"SCALAR"
		},
		{
			"bufferView":14,
			"componentType":5126,
			"count":112,
			"max":[
				0.10818783938884735,
				0.04902452975511551,
				0.10323166102170944
			],
			"min":[
				-0.10818783938884735,
				-0.9827584624290466,
				-0.10985681414604187
			],
			"type":"VEC3"
		},
		{
			"bufferView":15,
			"componentType":5126,
			"count":112,
			"type":"VEC3"
		},
		{
			"bufferView":16,
			"componentType":5126,
			"count":112,
			"type":"VEC2"
		},
		{
			"bufferView":17,
			"componentType":5126,
			"count":112,
			"type":"VEC3"
		},
		{
			"bufferView":18,
			"componentType":5123,
			"count":408,
			"type":"SCALAR"
		},
		{
			"bufferView":19,
			"componentType":5126,
			"count":112,
			"max":[
				0.10818783938884735,
				0.04902452975511551,
				0.10323166102170944
			],
			"min":[
				-0.10818783938884735,
				-0.9811562895774841,
				-0.10985681414604187
			],
			"type":"VEC3"
		},
		{
			"bufferView":20,
			"componentType":5126,
			"count":112,
			"type":"VEC3"
		},
		{
			"bufferView":21,
			"componentType":5126,
			"count":112,
			"type":"VEC2"
		},
		{
			"bufferView":22,
			"componentType":5126,
			"count":112,
			"type":"VEC3"
		},
		{
			"bufferView":23,
			"componentType":5126,
			"count":56,
			"max":[
				0.5170244574546814,
				0.0316535122692585,
				0.12573780119419098
			],
			"min":[
				-0.5170244574546814,
				-0.06106188893318176,
				-1.8153949975967407
			],
			"type":"VEC3"
		},
		{
			"bufferView":24,
			"componentType":5126,
			"count":56,
			"type":"VEC3"
		},
		{
			"bufferView":25,
			"componentType":5126,
			"count":56,
			"type":"VEC2"
		},
		{
			"bufferView":26,
			"componentType":5126,
			"count":56,
			"type":"VEC3"
		},
		{
			"bufferView":27,
			"componentType":5123,
			"count":180,
			"type":"SCALAR"
		},
		{
			"bufferView":28,
			"componentType":5126,
			"count":25,
			"max":[
				0.4973255693912506,
				0.004928424023091793,
				0.5269858241081238
			],
			"min":[
				-0.5008074045181274,
				-0.06319978833198547,
				-0.5274763703346252
			],
			"type":"VEC3"
		},
		{
			"bufferView":29,
			"componentType":5126,
			"count":25,
			"type":"VEC3"
		},
		{
			"bufferView":30,
			"componentType":5126,
			"count":25,
			"type":"VEC2"
		},
		{
			"bufferView":31,
			"componentType":5126,
			"count":25,
			"type":"VEC3"
		},
		{
			"bufferView":32,
			"componentType":5123,
			"count":96,
			"type":"SCALAR"
		}
	],
	"bufferViews":[
		{
			"buffer":0,
			"byteLength":792,
			"byteOffset":0,
			"target":34962
		},
		{
			"buffer":0,
			"byteLength":792,
			"byteOffset":792,
			"target":34962
		},
		{
			"buffer":0,
			"byteLength":528,
			"byteOffset":1584,
			"target":34962
		},
		{
			"buffer":0,
			"byteLength":792,
			"byteOffset":2112,
			"target":34962
		},
		{
			"buffer":0,
			"byteLength":708,
			"byteOffset":2904,
			"target":34963
		},
		{
			"buffer":0,
			"byteLength":696,
			"byteOffset":3612,
			"target":34962
		},
		{
			"buffer":0,
			"byteLength":696,
			"byteOffset":4308,
			"target":34962
		},
		{
			"buffer":0,
			"byteLength":464,
			"byteOffset":5004,
			"target":34962
		},
		{
			"buffer":0,
			"byteLength":696,
			"byteOffset":5468,
			"target":34962
		},
		{
			"buffer":0,
			"byteLength":612,
			"byteOffset":6164,
			"target":34963
		},
		{
			"buffer":0,
			"byteLength":420,
			"byteOffset":6776,
			"target":34962
		},
		{
			"buffer":0,
			"byteLength":420,
			"byteOffset":7196,
			"target":34962
		},
		{
			"buffer":0,
			"byteLength":420,
			"byteOffset":7616,
			"target":34962
		},
		{
			"buffer":0,
			"byteLength":192,
			"byteOffset":8036,
			"target":34963
		},
		{
			"buffer":0,
			"byteLength":1344,
			"byteOffset":8228,
			"target":34962
		},
		{
			"buffer":0,
			"byteLength":1344,
			"byteOffset":9572,
			"target":34962
		},
		{
			"buffer":0,
			"byteLength":896,
			"byteOffset":10916,
			"target":34962
		},
		{
			"buffer":0,
			"byteLength":1344,
			"byteOffset":11812,
			"target":34962
		},
		{
			"buffer":0,
			"byteLength":816,
			"byteOffset":13156,
			"target":34963
		},
		{
			"buffer":0,
			"byteLength":1344,
			"byteOffset":13972,
			"target":34962
		},
		{
			"buffer":0,
			"byteLength":1344,
			"byteOffset":15316,
			"target":34962
		},
		{
			"buffer":0,
			"byteLength":896,
			"byteOffset":16660,
			"target":34962
		},
		{
			"buffer":0,
			"byteLength":1344,
			"byteOffset":17556,
			"target":34962
		},
		{
			"buffer":0,
			"byteLength":672,
			"byteOffset":18900,
			"target":34962
		},
		{
			"buffer":0,
			"byteLength":672,
			"byteOffset":19572,
			"target":34962
		},
		{
			"buffer":0,
			"byteLength":448,
			"byteOffset":20244,
			"target":34962
		},
		{
			"buffer":0,
			"byteLength":672,
			"byteOffset":20692,
			"target":34962
		},
		{
			"buffer":0,
			"byteLength":360,
			"byteOffset":21364,
			"target":34963
		},
		{
			"buffer":0,
			"byteLength":300,
			"byteOffset":21724,
			"target":34962
		},
		{
			"buffer":0,
			"byteLength":300,
			"byteOffset":22024,
			"target":34962
		},
		{
			"buffer":0,
			"byteLength":200,
			"byteOffset":22324,
			"target":34962
		},
		{
			"buffer":0,
			"byteLength":300,
			"byteOffset":22524,
			"target":34962
		},
		{
			"buffer":0,
			"byteLength":192,
			"byteOffset":22824,
			"target":34963
		}
	],
	"buffers":[
		{
			"byteLength":23016,
			"uri":"bbq.bin"
		}
	]
}
