{
	"asset":{
		"generator":"Khronos glTF Blender I/O v5.0.21",
		"version":"2.0"
	},
	"scene":0,
	"scenes":[
		{
			"name":"beer_keg",
			"nodes":[
				0
			]
		}
	],
	"nodes":[
		{
			"mesh":0,
			"name":"Cylinder"
		}
	],
	"materials":[
		{
			"doubleSided":true,
			"name":"vertex_colors",
			"pbrMetallicRoughness":{
				"metallicFactor":0,
				"roughnessFactor":0.5
			}
		}
	],
	"meshes":[
		{
			"name":"Cylinder",
			"primitives":[
				{
					"attributes":{
						"POSITION":0,
						"NORMAL":1,
						"TEXCOORD_0":2,
						"COLOR_0":3
					},
					"indices":4,
					"material":0
				}
			]
		}
	],
	"accessors":[
		{
			"bufferView":0,
			"componentType":5126,
			"count":936,
			"max":[
				0.5252166390419006,
				0.5261152386665344,
				0.5880497097969055
			],
			"min":[
				-0.5256561636924744,
				-0.524828314781189,
				-0.5874727964401245
			],
			"type":"VEC3"
		},
		{
			"bufferView":1,
			"componentType":5126,
			"count":936,
			"type":"VEC3"
		},
		{
			"bufferView":2,
			"componentType":5126,
			"count":936,
			"type":"VEC2"
		},
		{
			"bufferView":3,
			"componentType":5126,
			"count":936,
			"type":"VEC3"
		},
		{
			"bufferView":4,
			"componentType":5123,
			"count":4956,
			"type":"SCALAR"
		}
	],
	"bufferViews":[
		{
			"buffer":0,
			"byteLength":11232,
			"byteOffset":0,
			"target":34962
		},
		{
			"buffer":0,
			"byteLength":11232,
			"byteOffset":11232,
			"target":34962
		},
		{
			"buffer":0,
			"byteLength":7488,
			"byteOffset":22464,
			"target":34962
		},
		{
			"buffer":0,
			"byteLength":11232,
			"byteOffset":29952,
			"target":34962
		},
		{
			"buffer":0,
			"byteLength":9912,
			"byteOffset":41184,
			"target":34963
		}
	],
	"buffers":[
		{
			"byteLength":51096,
			"uri":"beer_keg.bin"
		}
	]
}
