{
	"asset":{
		"generator":"Khronos glTF Blender I/O v5.0.21",
		"version":"2.0"
	},
	"scene":0,
	"scenes":[
		{
			"name":"candle",
			"nodes":[
				0
			]
		}
	],
	"nodes":[
		{
			"mesh":0,
			"name":"Candle",
			"scale":[
				0.04582473635673523,
				0.04582473635673523,
				0.04582473635673523
			]
		}
	],
	"materials":[
		{
			"doubleSided":true,
			"name":"props",
			"pbrMetallicRoughness":{
				"metallicFactor":0,
				"roughnessFactor":0.5
			}
		}
	],
	"meshes":[
		{
			"name":"Cylinder.002",
			"primitives":[
				{
					"attributes":{
						"POSITION":0,
						"NORMAL":1,
						"TEXCOORD_0":2,
						"COLOR_0":3
					},
					"indices":4,
					"material":0
				}
			]
		}
	],
	"accessors":[
		{
			"bufferView":0,
			"componentType":5126,
			"count":50,
			"max":[
				0.8710665702819824,
				6.305057525634766,
				1
			],
			"min":[
				-0.8710663318634033,
				-0.08548510074615479,
				-1
			],
			"type":"VEC3"
		},
		{
			"bufferView":1,
			"componentType":5126,
			"count":50,
			"type":"VEC3"
		},
		{
			"bufferView":2,
			"componentType":5126,
			"count":50,
			"type":"VEC2"
		},
		{
			"bufferView":3,
			"componentType":5126,
			"count":50,
			"type":"VEC3"
		},
		{
			"bufferView":4,
			"componentType":5123,
			"count":117,
			"type":"SCALAR"
		}
	],
	"bufferViews":[
		{
			"buffer":0,
			"byteLength":600,
			"byteOffset":0,
			"target":34962
		},
		{
			"buffer":0,
			"byteLength":600,
			"byteOffset":600,
			"target":34962
		},
		{
			"buffer":0,
			"byteLength":400,
			"byteOffset":1200,
			"target":34962
		},
		{
			"buffer":0,
			"byteLength":600,
			"byteOffset":1600,
			"target":34962
		},
		{
			"buffer":0,
			"byteLength":234,
			"byteOffset":2200,
			"target":34963
		}
	],
	"buffers":[
		{
			"byteLength":2436,
			"uri":"candle1.bin"
		}
	]
}
