{
	"asset":{
		"generator":"Khronos glTF Blender I/O v5.0.21",
		"version":"2.0"
	},
	"scene":0,
	"scenes":[
		{
			"name":"chair1",
			"nodes":[
				0
			]
		}
	],
	"nodes":[
		{
			"mesh":0,
			"name":"Cube"
		}
	],
	"materials":[
		{
			"doubleSided":true,
			"name":"vertexx colors",
			"pbrMetallicRoughness":{
				"metallicFactor":0,
				"roughnessFactor":0.5
			}
		}
	],
	"meshes":[
		{
			"name":"Cube",
			"primitives":[
				{
					"attributes":{
						"POSITION":0,
						"NORMAL":1,
						"TEXCOORD_0":2,
						"COLOR_0":3
					},
					"indices":4,
					"material":0
				}
			]
		}
	],
	"accessors":[
		{
			"bufferView":0,
			"componentType":5126,
			"count":560,
			"max":[
				0.34492358565330505,
				1.3946839570999146,
				0.325431227684021
			],
			"min":[
				-0.34492358565330505,
				-0.0020228729117661715,
				-0.3815056383609772
			],
			"type":"VEC3"
		},
		{
			"bufferView":1,
			"componentType":5126,
			"count":560,
			"type":"VEC3"
		},
		{
			"bufferView":2,
			"componentType":5126,
			"count":560,
			"type":"VEC2"
		},
		{
			"bufferView":3,
			"componentType":5126,
			"count":560,
			"type":"VEC3"
		},
		{
			"bufferView":4,
			"componentType":5123,
			"count":2166,
			"type":"SCALAR"
		}
	],
	"bufferViews":[
		{
			"buffer":0,
			"byteLength":6720,
			"byteOffset":0,
			"target":34962
		},
		{
			"buffer":0,
			"byteLength":6720,
			"byteOffset":6720,
			"target":34962
		},
		{
			"buffer":0,
			"byteLength":4480,
			"byteOffset":13440,
			"target":34962
		},
		{
			"buffer":0,
			"byteLength":6720,
			"byteOffset":17920,
			"target":34962
		},
		{
			"buffer":0,
			"byteLength":4332,
			"byteOffset":24640,
			"target":34963
		}
	],
	"buffers":[
		{
			"byteLength":28972,
			"uri":"chair1.bin"
		}
	]
}
