{
	"asset":{
		"generator":"Khronos glTF Blender I/O v5.0.21",
		"version":"2.0"
	},
	"scene":0,
	"scenes":[
		{
			"name":"couch1",
			"nodes":[
				0,
				1,
				2,
				3,
				4,
				5,
				9
			]
		}
	],
	"nodes":[
		{
			"mesh":0,
			"name":"Cube",
			"scale":[
				1.2000000476837158,
				1.2000000476837158,
				1.0991932153701782
			],
			"translation":[
				0,
				0.1855001151561737,
				0
			]
		},
		{
			"mesh":1,
			"name":"Cube.001",
			"scale":[
				1.2000000476837158,
				1.2000000476837158,
				1.2000000476837158
			],
			"translation":[
				0,
				-0.18170711398124695,
				0
			]
		},
		{
			"mesh":2,
			"name":"Cube.002",
			"scale":[
				1.2000000476837158,
				1.2000000476837158,
				0.9814026355743408
			],
			"translation":[
				0,
				0.12890681624412537,
				0
			]
		},
		{
			"mesh":3,
			"name":"Cube.003",
			"scale":[
				1.2000000476837158,
				1.2000000476837158,
				1.2000000476837158
			],
			"translation":[
				0,
				0.10711652785539627,
				0
			]
		},
		{
			"mesh":4,
			"name":"Cube.004",
			"scale":[
				1.2000000476837158,
				1.2000000476837158,
				1.2000000476837158
			],
			"translation":[
				0,
				0.1855001151561737,
				0
			]
		},
		{
			"mesh":5,
			"name":"Cube.005",
			"scale":[
				1.2000000476837158,
				1.2000000476837158,
				1.2000000476837158
			],
			"translation":[
				0,
				0.1855001151561737,
				0
			]
		},
		{
			"mesh":6,
			"name":"Icosphere.002",
			"rotation":[
				-0.7227513194084167,
				0.3123999834060669,
				-0.5990695953369141,
				0.1454390287399292
			],
			"scale":[
				0.16399039328098297,
				0.16399039328098297,
				0.16399039328098297
			],
			"translation":[
				0.7429251074790955,
				0.0007499400526285172,
				-0.8742513060569763
			]
		},
		{
			"name":"Lattice",
			"scale":[
				2.8998541831970215,
				0.8439602255821228,
				2.909404993057251
			],
			"translation":[
				-0.09533824771642685,
				0.09521496295928955,
				0.03597007691860199
			]
		},
		{
			"mesh":7,
			"name":"Plane.003",
			"rotation":[
				0.969363272190094,
				0.005157171748578548,
				-0.19798848032951355,
				0.1452888399362564
			],
			"scale":[
				0.8531719446182251,
				0.8531719446182251,
				0.8531718850135803
			],
			"translation":[
				-0.9756240844726562,
				0.03090626746416092,
				-0.8306056261062622
			]
		},
		{
			"children":[
				6,
				7,
				8
			],
			"mesh":8,
			"name":"Cube.006",
			"rotation":[
				-0.285953551530838,
				0.6746473908424377,
				0.29522109031677246,
				0.6131280064582825
			],
			"scale":[
				0.17976798117160797,
				0.179767906665802,
				0.179767906665802
			],
			"translation":[
				0.6866292953491211,
				0.4962199032306671,
				0.04737222567200661
			]
		}
	],
	"meshes":[
		{
			"name":"Cube.001",
			"primitives":[
				{
					"attributes":{
						"POSITION":0,
						"NORMAL":1,
						"COLOR_0":2
					},
					"indices":3
				}
			]
		},
		{
			"name":"Cube.002",
			"primitives":[
				{
					"attributes":{
						"POSITION":4,
						"NORMAL":5,
						"COLOR_0":6
					},
					"indices":7
				}
			]
		},
		{
			"name":"Cube.004",
			"primitives":[
				{
					"attributes":{
						"POSITION":8,
						"NORMAL":9,
						"COLOR_0":10
					},
					"indices":11
				}
			]
		},
		{
			"name":"Cube.005",
			"primitives":[
				{
					"attributes":{
						"POSITION":12,
						"NORMAL":13,
						"COLOR_0":14
					},
					"indices":15
				}
			]
		},
		{
			"name":"Cube.006",
			"primitives":[
				{
					"attributes":{
						"POSITION":16,
						"NORMAL":17,
						"COLOR_0":18
					},
					"indices":19
				}
			]
		},
		{
			"name":"Cube.007",
			"primitives":[
				{
					"attributes":{
						"POSITION":20,
						"NORMAL":21,
						"COLOR_0":22
					},
					"indices":23
				}
			]
		},
		{
			"name":"Icosphere.002",
			"primitives":[
				{
					"attributes":{
						"POSITION":24,
						"NORMAL":25,
						"TEXCOORD_0":26,
						"COLOR_0":27,
						"COLOR_1":28
					},
					"indices":29
				}
			]
		},
		{
			"name":"Plane.004",
			"primitives":[
				{
					"attributes":{
						"POSITION":30,
						"NORMAL":31,
						"COLOR_0":32
					},
					"indices":33
				}
			]
		},
		{
			"name":"Cube.010",
			"primitives":[
				{
					"attributes":{
						"POSITION":34,
						"NORMAL":35,
						"COLOR_0":36
					},
					"indices":37
				}
			]
		}
	],
	"accessors":[
		{
			"bufferView":0,
			"componentType":5126,
			"count":149,
			"max":[
				0.7895816564559937,
				0.04926847293972969,
				0.4068812131881714
			],
			"min":[
				-0.7895816564559937,
				-0.07010753452777863,
				-0.3846359848976135
			],
			"type":"VEC3"
		},
		{
			"bufferView":1,
			"componentType":5126,
			"count":149,
			"type":"VEC3"
		},
		{
			"bufferView":2,
			"componentType":5123,
			"count":149,
			"normalized":true,
			"type":"VEC4"
		},
		{
			"bufferView":3,
			"componentType":5123,
			"count":828,
			"type":"SCALAR"
		},
		{
			"bufferView":4,
			"componentType":5126,
			"count":336,
			"max":[
				0.8734334111213684,
				0.29719746112823486,
				0.37108302116394043
			],
			"min":[
				-0.8734334111213684,
				0.14647433161735535,
				-0.3880232274532318
			],
			"type":"VEC3"
		},
		{
			"bufferView":5,
			"componentType":5126,
			"count":336,
			"type":"VEC3"
		},
		{
			"bufferView":6,
			"componentType":5123,
			"count":336,
			"normalized":true,
			"type":"VEC4"
		},
		{
			"bufferView":7,
			"componentType":5123,
			"count":1440,
			"type":"SCALAR"
		},
		{
			"bufferView":8,
			"componentType":5126,
			"count":205,
			"max":[
				0.7823725938796997,
				0.23039142787456512,
				0.44880685210227966
			],
			"min":[
				-0.7839922904968262,
				0.05854029208421707,
				-0.404548704624176
			],
			"type":"VEC3"
		},
		{
			"bufferView":9,
			"componentType":5126,
			"count":205,
			"type":"VEC3"
		},
		{
			"bufferView":10,
			"componentType":5123,
			"count":205,
			"normalized":true,
			"type":"VEC4"
		},
		{
			"bufferView":11,
			"componentType":5123,
			"count":1068,
			"type":"SCALAR"
		},
		{
			"bufferView":12,
			"componentType":5126,
			"count":390,
			"max":[
				0.7122135758399963,
				0.5620507597923279,
				-0.09138815104961395
			],
			"min":[
				-0.7203332781791687,
				0.17055171728134155,
				-0.43089234828948975
			],
			"type":"VEC3"
		},
		{
			"bufferView":13,
			"componentType":5126,
			"count":390,
			"type":"VEC3"
		},
		{
			"bufferView":14,
			"componentType":5123,
			"count":390,
			"normalized":true,
			"type":"VEC4"
		},
		{
			"bufferView":15,
			"componentType":5123,
			"count":2274,
			"type":"SCALAR"
		},
		{
			"bufferView":16,
			"componentType":5126,
			"count":326,
			"max":[
				0.8892430663108826,
				0.3574519455432892,
				0.39970070123672485
			],
			"min":[
				-0.8892430663108826,
				-0.04550577700138092,
				-0.4866638779640198
			],
			"type":"VEC3"
		},
		{
			"bufferView":17,
			"componentType":5126,
			"count":326,
			"type":"VEC3"
		},
		{
			"bufferView":18,
			"componentType":5123,
			"count":326,
			"normalized":true,
			"type":"VEC4"
		},
		{
			"bufferView":19,
			"componentType":5123,
			"count":1740,
			"type":"SCALAR"
		},
		{
			"bufferView":20,
			"componentType":5126,
			"count":214,
			"max":[
				0.9586585164070129,
				0.3694862425327301,
				0.40757662057876587
			],
			"min":[
				-0.9586585164070129,
				0.25419387221336365,
				-0.5387487411499023
			],
			"type":"VEC3"
		},
		{
			"bufferView":21,
			"componentType":5126,
			"count":214,
			"type":"VEC3"
		},
		{
			"bufferView":22,
			"componentType":5123,
			"count":214,
			"normalized":true,
			"type":"VEC4"
		},
		{
			"bufferView":23,
			"componentType":5123,
			"count":1272,
			"type":"SCALAR"
		},
		{
			"bufferView":24,
			"componentType":5126,
			"count":88,
			"max":[
				8.304667472839355,
				2.2472240924835205,
				0.8067696690559387
			],
			"min":[
				-1.8507859706878662,
				-7.995083808898926,
				-12.671996116638184
			],
			"type":"VEC3"
		},
		{
			"bufferView":25,
			"componentType":5126,
			"count":88,
			"type":"VEC3"
		},
		{
			"bufferView":26,
			"componentType":5126,
			"count":88,
			"type":"VEC2"
		},
		{
			"bufferView":27,
			"componentType":5123,
			"count":88,
			"normalized":true,
			"type":"VEC4"
		},
		{
			"bufferView":28,
			"componentType":5123,
			"count":88,
			"normalized":true,
			"type":"VEC4"
		},
		{
			"bufferView":29,
			"componentType":5123,
			"count":240,
			"type":"SCALAR"
		},
		{
			"bufferView":30,
			"componentType":5126,
			"count":832,
			"max":[
				2.5270333290100098,
				0.8502008318901062,
				0.3911568224430084
			],
			"min":[
				-1.324389934539795,
				-0.6744909882545471,
				-3.103590488433838
			],
			"type":"VEC3"
		},
		{
			"bufferView":31,
			"componentType":5126,
			"count":832,
			"type":"VEC3"
		},
		{
			"bufferView":32,
			"componentType":5123,
			"count":832,
			"normalized":true,
			"type":"VEC4"
		},
		{
			"bufferView":33,
			"componentType":5123,
			"count":4800,
			"type":"SCALAR"
		},
		{
			"bufferView":34,
			"componentType":5126,
			"count":152,
			"max":[
				0.964752733707428,
				0.4400119483470917,
				0.9672929644584656
			],
			"min":[
				-0.9675967693328857,
				-0.3101018965244293,
				-0.9283723831176758
			],
			"type":"VEC3"
		},
		{
			"bufferView":35,
			"componentType":5126,
			"count":152,
			"type":"VEC3"
		},
		{
			"bufferView":36,
			"componentType":5123,
			"count":152,
			"normalized":true,
			"type":"VEC4"
		},
		{
			"bufferView":37,
			"componentType":5123,
			"count":861,
			"type":"SCALAR"
		}
	],
	"bufferViews":[
		{
			"buffer":0,
			"byteLength":1788,
			"byteOffset":0,
			"target":34962
		},
		{
			"buffer":0,
			"byteLength":1788,
			"byteOffset":1788,
			"target":34962
		},
		{
			"buffer":0,
			"byteLength":1192,
			"byteOffset":3576,
			"target":34962
		},
		{
			"buffer":0,
			"byteLength":1656,
			"byteOffset":4768,
			"target":34963
		},
		{
			"buffer":0,
			"byteLength":4032,
			"byteOffset":6424,
			"target":34962
		},
		{
			"buffer":0,
			"byteLength":4032,
			"byteOffset":10456,
			"target":34962
		},
		{
			"buffer":0,
			"byteLength":2688,
			"byteOffset":14488,
			"target":34962
		},
		{
			"buffer":0,
			"byteLength":2880,
			"byteOffset":17176,
			"target":34963
		},
		{
			"buffer":0,
			"byteLength":2460,
			"byteOffset":20056,
			"target":34962
		},
		{
			"buffer":0,
			"byteLength":2460,
			"byteOffset":22516,
			"target":34962
		},
		{
			"buffer":0,
			"byteLength":1640,
			"byteOffset":24976,
			"target":34962
		},
		{
			"buffer":0,
			"byteLength":2136,
			"byteOffset":26616,
			"target":34963
		},
		{
			"buffer":0,
			"byteLength":4680,
			"byteOffset":28752,
			"target":34962
		},
		{
			"buffer":0,
			"byteLength":4680,
			"byteOffset":33432,
			"target":34962
		},
		{
			"buffer":0,
			"byteLength":3120,
			"byteOffset":38112,
			"target":34962
		},
		{
			"buffer":0,
			"byteLength":4548,
			"byteOffset":41232,
			"target":34963
		},
		{
			"buffer":0,
			"byteLength":3912,
			"byteOffset":45780,
			"target":34962
		},
		{
			"buffer":0,
			"byteLength":3912,
			"byteOffset":49692,
			"target":34962
		},
		{
			"buffer":0,
			"byteLength":2608,
			"byteOffset":53604,
			"target":34962
		},
		{
			"buffer":0,
			"byteLength":3480,
			"byteOffset":56212,
			"target":34963
		},
		{
			"buffer":0,
			"byteLength":2568,
			"byteOffset":59692,
			"target":34962
		},
		{
			"buffer":0,
			"byteLength":2568,
			"byteOffset":62260,
			"target":34962
		},
		{
			"buffer":0,
			"byteLength":1712,
			"byteOffset":64828,
			"target":34962
		},
		{
			"buffer":0,
			"byteLength":2544,
			"byteOffset":66540,
			"target":34963
		},
		{
			"buffer":0,
			"byteLength":1056,
			"byteOffset":69084,
			"target":34962
		},
		{
			"buffer":0,
			"byteLength":1056,
			"byteOffset":70140,
			"target":34962
		},
		{
			"buffer":0,
			"byteLength":704,
			"byteOffset":71196,
			"target":34962
		},
		{
			"buffer":0,
			"byteLength":704,
			"byteOffset":71900,
			"target":34962
		},
		{
			"buffer":0,
			"byteLength":704,
			"byteOffset":72604,
			"target":34962
		},
		{
			"buffer":0,
			"byteLength":480,
			"byteOffset":73308,
			"target":34963
		},
		{
			"buffer":0,
			"byteLength":9984,
			"byteOffset":73788,
			"target":34962
		},
		{
			"buffer":0,
			"byteLength":9984,
			"byteOffset":83772,
			"target":34962
		},
		{
			"buffer":0,
			"byteLength":6656,
			"byteOffset":93756,
			"target":34962
		},
		{
			"buffer":0,
			"byteLength":9600,
			"byteOffset":100412,
			"target":34963
		},
		{
			"buffer":0,
			"byteLength":1824,
			"byteOffset":110012,
			"target":34962
		},
		{
			"buffer":0,
			"byteLength":1824,
			"byteOffset":111836,
			"target":34962
		},
		{
			"buffer":0,
			"byteLength":1216,
			"byteOffset":113660,
			"target":34962
		},
		{
			"buffer":0,
			"byteLength":1722,
			"byteOffset":114876,
			"target":34963
		}
	],
	"buffers":[
		{
			"byteLength":116600,
			"uri":"couch1.bin"
		}
	]
}
