{
	"asset":{
		"generator":"Khronos glTF Blender I/O v5.0.21",
		"version":"2.0"
	},
	"scene":0,
	"scenes":[
		{
			"name":"couch4",
			"nodes":[
				0,
				1,
				2,
				3,
				4
			]
		}
	],
	"nodes":[
		{
			"mesh":0,
			"name":"Circle",
			"rotation":[
				0.70710688829422,
				0,
				0,
				0.7071066498756409
			],
			"scale":[
				0.8168727159500122,
				0.8168727159500122,
				0.8168727159500122
			],
			"translation":[
				0.009557142853736877,
				0.001894831657409668,
				-0.0001429630210623145
			]
		},
		{
			"mesh":1,
			"name":"Cube.026",
			"scale":[
				0.8714634776115417,
				1.0446645021438599,
				0.8016811013221741
			],
			"translation":[
				-0.002408526837825775,
				0.10482028126716614,
				-0.01417688000947237
			]
		},
		{
			"mesh":2,
			"name":"Cube.027",
			"rotation":[
				0.2924877405166626,
				-0.4807370603084564,
				-0.01033350732177496,
				0.8265810608863831
			],
			"scale":[
				0.1847892552614212,
				0.18478915095329285,
				0.18478916585445404
			],
			"translation":[
				0.2346799522638321,
				0.4867216646671295,
				0.010702386498451233
			]
		},
		{
			"mesh":3,
			"name":"Cylinder",
			"scale":[
				0.39562880992889404,
				0.1765112280845642,
				0.39562880992889404
			],
			"translation":[
				0.009557142853736877,
				0.17066042125225067,
				-0.0001429630210623145
			]
		},
		{
			"mesh":4,
			"name":"Cylinder.001",
			"scale":[
				0.39562880992889404,
				0.1765112280845642,
				0.39562880992889404
			],
			"translation":[
				0.009557142853736877,
				0.17066042125225067,
				-0.0001429630210623145
			]
		}
	],
	"materials":[
		{
			"doubleSided":true,
			"name":"Material",
			"pbrMetallicRoughness":{
				"metallicFactor":0,
				"roughnessFactor":0.5
			}
		}
	],
	"meshes":[
		{
			"name":"Circle",
			"primitives":[
				{
					"attributes":{
						"POSITION":0,
						"NORMAL":1,
						"TEXCOORD_0":2,
						"COLOR_0":3
					},
					"indices":4,
					"material":0
				}
			]
		},
		{
			"name":"Cube.020",
			"primitives":[
				{
					"attributes":{
						"POSITION":5,
						"NORMAL":6,
						"COLOR_0":7
					},
					"indices":8,
					"material":0
				}
			]
		},
		{
			"name":"Cube.021",
			"primitives":[
				{
					"attributes":{
						"POSITION":9,
						"NORMAL":10,
						"COLOR_0":11
					},
					"indices":12,
					"material":0
				}
			]
		},
		{
			"name":"Cylinder.001",
			"primitives":[
				{
					"attributes":{
						"POSITION":13,
						"NORMAL":14,
						"TEXCOORD_0":15,
						"COLOR_0":16
					},
					"indices":17,
					"material":0
				}
			]
		},
		{
			"name":"Cylinder.002",
			"primitives":[
				{
					"attributes":{
						"POSITION":18,
						"NORMAL":19,
						"TEXCOORD_0":20,
						"COLOR_0":21
					},
					"indices":22,
					"material":0
				}
			]
		}
	],
	"accessors":[
		{
			"bufferView":0,
			"componentType":5126,
			"count":182,
			"max":[
				0.6307159066200256,
				-0.10463795810937881,
				-0.3638148009777069
			],
			"min":[
				-0.6307159066200256,
				-0.788256049156189,
				-1.0851240158081055
			],
			"type":"VEC3"
		},
		{
			"bufferView":1,
			"componentType":5126,
			"count":182,
			"type":"VEC3"
		},
		{
			"bufferView":2,
			"componentType":5126,
			"count":182,
			"type":"VEC2"
		},
		{
			"bufferView":3,
			"componentType":5126,
			"count":182,
			"type":"VEC3"
		},
		{
			"bufferView":4,
			"componentType":5123,
			"count":756,
			"type":"SCALAR"
		},
		{
			"bufferView":5,
			"componentType":5126,
			"count":102,
			"max":[
				0.3814826011657715,
				0.321083128452301,
				0.5390914082527161
			],
			"min":[
				-0.3872841000556946,
				0.08280063420534134,
				-0.404548704624176
			],
			"type":"VEC3"
		},
		{
			"bufferView":6,
			"componentType":5126,
			"count":102,
			"type":"VEC3"
		},
		{
			"bufferView":7,
			"componentType":5126,
			"count":102,
			"type":"VEC3"
		},
		{
			"bufferView":8,
			"componentType":5123,
			"count":528,
			"type":"SCALAR"
		},
		{
			"bufferView":9,
			"componentType":5126,
			"count":152,
			"max":[
				0.9647526741027832,
				0.5170297622680664,
				0.9672929644584656
			],
			"min":[
				-0.9675967693328857,
				-0.3101019561290741,
				-0.928372323513031
			],
			"type":"VEC3"
		},
		{
			"bufferView":10,
			"componentType":5126,
			"count":152,
			"type":"VEC3"
		},
		{
			"bufferView":11,
			"componentType":5126,
			"count":152,
			"type":"VEC3"
		},
		{
			"bufferView":12,
			"componentType":5123,
			"count":861,
			"type":"SCALAR"
		},
		{
			"bufferView":13,
			"componentType":5126,
			"count":100,
			"max":[
				1.1692163944244385,
				1.7976818084716797,
				1.0570722818374634
			],
			"min":[
				-1.1692163944244385,
				-1,
				-1.1761868000030518
			],
			"type":"VEC3"
		},
		{
			"bufferView":14,
			"componentType":5126,
			"count":100,
			"type":"VEC3"
		},
		{
			"bufferView":15,
			"componentType":5126,
			"count":100,
			"type":"VEC2"
		},
		{
			"bufferView":16,
			"componentType":5126,
			"count":100,
			"type":"VEC3"
		},
		{
			"bufferView":17,
			"componentType":5123,
			"count":372,
			"type":"SCALAR"
		},
		{
			"bufferView":18,
			"componentType":5126,
			"count":198,
			"max":[
				1.2713667154312134,
				1.929154396057129,
				1.1377428770065308
			],
			"min":[
				-1.2713667154312134,
				0.6138432621955872,
				-0.8850798606872559
			],
			"type":"VEC3"
		},
		{
			"bufferView":19,
			"componentType":5126,
			"count":198,
			"type":"VEC3"
		},
		{
			"bufferView":20,
			"componentType":5126,
			"count":198,
			"type":"VEC2"
		},
		{
			"bufferView":21,
			"componentType":5126,
			"count":198,
			"type":"VEC3"
		},
		{
			"bufferView":22,
			"componentType":5123,
			"count":786,
			"type":"SCALAR"
		}
	],
	"bufferViews":[
		{
			"buffer":0,
			"byteLength":2184,
			"byteOffset":0,
			"target":34962
		},
		{
			"buffer":0,
			"byteLength":2184,
			"byteOffset":2184,
			"target":34962
		},
		{
			"buffer":0,
			"byteLength":1456,
			"byteOffset":4368,
			"target":34962
		},
		{
			"buffer":0,
			"byteLength":2184,
			"byteOffset":5824,
			"target":34962
		},
		{
			"buffer":0,
			"byteLength":1512,
			"byteOffset":8008,
			"target":34963
		},
		{
			"buffer":0,
			"byteLength":1224,
			"byteOffset":9520,
			"target":34962
		},
		{
			"buffer":0,
			"byteLength":1224,
			"byteOffset":10744,
			"target":34962
		},
		{
			"buffer":0,
			"byteLength":1224,
			"byteOffset":11968,
			"target":34962
		},
		{
			"buffer":0,
			"byteLength":1056,
			"byteOffset":13192,
			"target":34963
		},
		{
			"buffer":0,
			"byteLength":1824,
			"byteOffset":14248,
			"target":34962
		},
		{
			"buffer":0,
			"byteLength":1824,
			"byteOffset":16072,
			"target":34962
		},
		{
			"buffer":0,
			"byteLength":1824,
			"byteOffset":17896,
			"target":34962
		},
		{
			"buffer":0,
			"byteLength":1722,
			"byteOffset":19720,
			"target":34963
		},
		{
			"buffer":0,
			"byteLength":1200,
			"byteOffset":21444,
			"target":34962
		},
		{
			"buffer":0,
			"byteLength":1200,
			"byteOffset":22644,
			"target":34962
		},
		{
			"buffer":0,
			"byteLength":800,
			"byteOffset":23844,
			"target":34962
		},
		{
			"buffer":0,
			"byteLength":1200,
			"byteOffset":24644,
			"target":34962
		},
		{
			"buffer":0,
			"byteLength":744,
			"byteOffset":25844,
			"target":34963
		},
		{
			"buffer":0,
			"byteLength":2376,
			"byteOffset":26588,
			"target":34962
		},
		{
			"buffer":0,
			"byteLength":2376,
			"byteOffset":28964,
			"target":34962
		},
		{
			"buffer":0,
			"byteLength":1584,
			"byteOffset":31340,
			"target":34962
		},
		{
			"buffer":0,
			"byteLength":2376,
			"byteOffset":32924,
			"target":34962
		},
		{
			"buffer":0,
			"byteLength":1572,
			"byteOffset":35300,
			"target":34963
		}
	],
	"buffers":[
		{
			"byteLength":36872,
			"uri":"couch4.bin"
		}
	]
}
