{
	"asset":{
		"generator":"Khronos glTF Blender I/O v5.0.21",
		"version":"2.0"
	},
	"scene":0,
	"scenes":[
		{
			"name":"couch2",
			"nodes":[
				0,
				1,
				2,
				3,
				4,
				5
			]
		}
	],
	"nodes":[
		{
			"mesh":0,
			"name":"Cube.007",
			"scale":[
				1.2000000476837158,
				1.2000000476837158,
				0.9814026355743408
			],
			"translation":[
				0,
				0.12890681624412537,
				0
			]
		},
		{
			"mesh":1,
			"name":"Cube.008",
			"scale":[
				1.2000000476837158,
				1.2000000476837158,
				1.2000000476837158
			],
			"translation":[
				0,
				0.10711652785539627,
				0
			]
		},
		{
			"mesh":2,
			"name":"Cube.009",
			"scale":[
				1.2000000476837158,
				1.2000000476837158,
				1.2000000476837158
			],
			"translation":[
				0,
				0.1855001151561737,
				0
			]
		},
		{
			"mesh":3,
			"name":"Cube.010",
			"scale":[
				1.2000000476837158,
				1.2000000476837158,
				1.2000000476837158
			],
			"translation":[
				0,
				-0.18170711398124695,
				0
			]
		},
		{
			"mesh":4,
			"name":"Cube.011",
			"scale":[
				1.2000000476837158,
				1.2000000476837158,
				0.9814026355743408
			],
			"translation":[
				0,
				-0.020754652097821236,
				0
			]
		},
		{
			"mesh":5,
			"name":"Cube.005",
			"scale":[
				1.2000000476837158,
				1.2000000476837158,
				1.2000000476837158
			],
			"translation":[
				0,
				0.1855001151561737,
				0
			]
		}
	],
	"materials":[
		{
			"doubleSided":true,
			"name":"Material",
			"pbrMetallicRoughness":{
				"metallicFactor":0,
				"roughnessFactor":0.5
			}
		}
	],
	"meshes":[
		{
			"name":"Cube.003",
			"primitives":[
				{
					"attributes":{
						"POSITION":0,
						"NORMAL":1,
						"COLOR_0":2
					},
					"indices":3,
					"material":0
				}
			]
		},
		{
			"name":"Cube.008",
			"primitives":[
				{
					"attributes":{
						"POSITION":4,
						"NORMAL":5,
						"COLOR_0":6
					},
					"indices":7,
					"material":0
				}
			]
		},
		{
			"name":"Cube.007",
			"primitives":[
				{
					"attributes":{
						"POSITION":8,
						"NORMAL":9,
						"COLOR_0":10
					},
					"indices":11,
					"material":0
				}
			]
		},
		{
			"name":"Cube.009",
			"primitives":[
				{
					"attributes":{
						"POSITION":12,
						"NORMAL":13,
						"COLOR_0":14
					},
					"indices":15,
					"material":0
				}
			]
		},
		{
			"name":"Cube.011",
			"primitives":[
				{
					"attributes":{
						"POSITION":16,
						"NORMAL":17,
						"COLOR_0":18
					},
					"indices":19,
					"material":0
				}
			]
		},
		{
			"name":"Cube.007",
			"primitives":[
				{
					"attributes":{
						"POSITION":20,
						"NORMAL":21,
						"COLOR_0":22
					},
					"indices":11,
					"material":0
				}
			]
		}
	],
	"accessors":[
		{
			"bufferView":0,
			"componentType":5126,
			"count":103,
			"max":[
				0.3808654546737671,
				0.23039142787456512,
				0.44880685210227966
			],
			"min":[
				-0.4166690707206726,
				0.05854029208421707,
				-0.404548704624176
			],
			"type":"VEC3"
		},
		{
			"bufferView":1,
			"componentType":5126,
			"count":103,
			"type":"VEC3"
		},
		{
			"bufferView":2,
			"componentType":5126,
			"count":103,
			"type":"VEC3"
		},
		{
			"bufferView":3,
			"componentType":5123,
			"count":537,
			"type":"SCALAR"
		},
		{
			"bufferView":4,
			"componentType":5126,
			"count":154,
			"max":[
				0.37529298663139343,
				0.5703528523445129,
				-0.09684079885482788
			],
			"min":[
				-0.37917280197143555,
				0.18403537571430206,
				-0.432521790266037
			],
			"type":"VEC3"
		},
		{
			"bufferView":5,
			"componentType":5126,
			"count":154,
			"type":"VEC3"
		},
		{
			"bufferView":6,
			"componentType":5126,
			"count":154,
			"type":"VEC3"
		},
		{
			"bufferView":7,
			"componentType":5123,
			"count":891,
			"type":"SCALAR"
		},
		{
			"bufferView":8,
			"componentType":5126,
			"count":278,
			"max":[
				0.5135573744773865,
				0.2885301411151886,
				0.3800545334815979
			],
			"min":[
				-0.5135573744773865,
				-0.1211765855550766,
				-0.4887610673904419
			],
			"type":"VEC3"
		},
		{
			"bufferView":9,
			"componentType":5126,
			"count":278,
			"type":"VEC3"
		},
		{
			"bufferView":10,
			"componentType":5126,
			"count":278,
			"type":"VEC3"
		},
		{
			"bufferView":11,
			"componentType":5123,
			"count":1518,
			"type":"SCALAR"
		},
		{
			"bufferView":12,
			"componentType":5126,
			"count":192,
			"max":[
				0.42122697830200195,
				0.22252002358436584,
				0.33986806869506836
			],
			"min":[
				-0.42122697830200195,
				0.14647433161735535,
				-0.3598463535308838
			],
			"type":"VEC3"
		},
		{
			"bufferView":13,
			"componentType":5126,
			"count":192,
			"type":"VEC3"
		},
		{
			"bufferView":14,
			"componentType":5126,
			"count":192,
			"type":"VEC3"
		},
		{
			"bufferView":15,
			"componentType":5123,
			"count":864,
			"type":"SCALAR"
		},
		{
			"bufferView":16,
			"componentType":5126,
			"count":24,
			"max":[
				0.3686368465423584,
				0.17645014822483063,
				0.4256341755390167
			],
			"min":[
				-0.3727591633796692,
				0.05915389955043793,
				0.28253066539764404
			],
			"type":"VEC3"
		},
		{
			"bufferView":17,
			"componentType":5126,
			"count":24,
			"type":"VEC3"
		},
		{
			"bufferView":18,
			"componentType":5126,
			"count":24,
			"type":"VEC3"
		},
		{
			"bufferView":19,
			"componentType":5123,
			"count":90,
			"type":"SCALAR"
		},
		{
			"bufferView":20,
			"componentType":5126,
			"count":278,
			"max":[
				0.5135573744773865,
				0.2885301411151886,
				0.3800545334815979
			],
			"min":[
				-0.5135573744773865,
				-0.1211765855550766,
				-0.4887610673904419
			],
			"type":"VEC3"
		},
		{
			"bufferView":21,
			"componentType":5126,
			"count":278,
			"type":"VEC3"
		},
		{
			"bufferView":22,
			"componentType":5126,
			"count":278,
			"type":"VEC3"
		}
	],
	"bufferViews":[
		{
			"buffer":0,
			"byteLength":1236,
			"byteOffset":0,
			"target":34962
		},
		{
			"buffer":0,
			"byteLength":1236,
			"byteOffset":1236,
			"target":34962
		},
		{
			"buffer":0,
			"byteLength":1236,
			"byteOffset":2472,
			"target":34962
		},
		{
			"buffer":0,
			"byteLength":1074,
			"byteOffset":3708,
			"target":34963
		},
		{
			"buffer":0,
			"byteLength":1848,
			"byteOffset":4784,
			"target":34962
		},
		{
			"buffer":0,
			"byteLength":1848,
			"byteOffset":6632,
			"target":34962
		},
		{
			"buffer":0,
			"byteLength":1848,
			"byteOffset":8480,
			"target":34962
		},
		{
			"buffer":0,
			"byteLength":1782,
			"byteOffset":10328,
			"target":34963
		},
		{
			"buffer":0,
			"byteLength":3336,
			"byteOffset":12112,
			"target":34962
		},
		{
			"buffer":0,
			"byteLength":3336,
			"byteOffset":15448,
			"target":34962
		},
		{
			"buffer":0,
			"byteLength":3336,
			"byteOffset":18784,
			"target":34962
		},
		{
			"buffer":0,
			"byteLength":3036,
			"byteOffset":22120,
			"target":34963
		},
		{
			"buffer":0,
			"byteLength":2304,
			"byteOffset":25156,
			"target":34962
		},
		{
			"buffer":0,
			"byteLength":2304,
			"byteOffset":27460,
			"target":34962
		},
		{
			"buffer":0,
			"byteLength":2304,
			"byteOffset":29764,
			"target":34962
		},
		{
			"buffer":0,
			"byteLength":1728,
			"byteOffset":32068,
			"target":34963
		},
		{
			"buffer":0,
			"byteLength":288,
			"byteOffset":33796,
			"target":34962
		},
		{
			"buffer":0,
			"byteLength":288,
			"byteOffset":34084,
			"target":34962
		},
		{
			"buffer":0,
			"byteLength":288,
			"byteOffset":34372,
			"target":34962
		},
		{
			"buffer":0,
			"byteLength":180,
			"byteOffset":34660,
			"target":34963
		},
		{
			"buffer":0,
			"byteLength":3336,
			"byteOffset":34840,
			"target":34962
		},
		{
			"buffer":0,
			"byteLength":3336,
			"byteOffset":38176,
			"target":34962
		},
		{
			"buffer":0,
			"byteLength":3336,
			"byteOffset":41512,
			"target":34962
		}
	],
	"buffers":[
		{
			"byteLength":44848,
			"uri":"couch2.bin"
		}
	]
}
