{
	"asset":{
		"generator":"Khronos glTF Blender I/O v5.0.21",
		"version":"2.0"
	},
	"scene":0,
	"scenes":[
		{
			"name":"couch3",
			"nodes":[
				0,
				1,
				2,
				3,
				4,
				5,
				6,
				7,
				8,
				9,
				10,
				11,
				12
			]
		}
	],
	"nodes":[
		{
			"mesh":0,
			"name":"Cube.012",
			"scale":[
				1.0668288469314575,
				0.87176114320755,
				0.981402575969696
			],
			"translation":[
				-0.014648139476776123,
				0.2300688773393631,
				-0.017180049791932106
			]
		},
		{
			"mesh":1,
			"name":"Cube.014",
			"scale":[
				0.7689110040664673,
				0.87176114320755,
				0.981402575969696
			],
			"translation":[
				0.6489995718002319,
				0.2300688773393631,
				-0.017180049791932106
			]
		},
		{
			"mesh":2,
			"name":"Cube.015",
			"scale":[
				1.2506405115127563,
				0.27531158924102783,
				0.15139706432819366
			],
			"translation":[
				0,
				0.7737924456596375,
				-0.4799645245075226
			]
		},
		{
			"mesh":3,
			"name":"Cube.016"
		},
		{
			"mesh":4,
			"name":"Cube.017",
			"translation":[
				0,
				0,
				-0.028638383373618126
			]
		},
		{
			"mesh":5,
			"name":"Cube.013",
			"rotation":[
				1,
				0,
				0,
				0
			],
			"scale":[
				-1,
				-0.7264675498008728,
				-1
			],
			"translation":[
				-1.0246502161026,
				0.136422261595726,
				-0.017180049791932106
			]
		},
		{
			"mesh":6,
			"name":"Cube.018",
			"translation":[
				0,
				0,
				-0.025528235360980034
			]
		},
		{
			"mesh":7,
			"name":"Cube.019"
		},
		{
			"mesh":8,
			"name":"Cube.020",
			"scale":[
				0.37603598833084106,
				0.04153285175561905,
				0.20573729276657104
			],
			"translation":[
				0,
				0.2388521134853363,
				0.20513589680194855
			]
		},
		{
			"mesh":8,
			"name":"Cube.021",
			"scale":[
				0.2513806223869324,
				0.04153285175561905,
				0.20573729276657104
			],
			"translation":[
				-0.6377144455909729,
				0.2388521134853363,
				0.19281604886054993
			]
		},
		{
			"mesh":8,
			"name":"Cube.022",
			"scale":[
				0.2600346505641937,
				0.04153285175561905,
				0.20573729276657104
			],
			"translation":[
				0.6502255797386169,
				0.2388521134853363,
				0.19281604886054993
			]
		},
		{
			"mesh":9,
			"name":"Cube.023",
			"rotation":[
				-0.1770188808441162,
				-0.0490141287446022,
				0.9612049460411072,
				0.20578384399414062
			],
			"scale":[
				0.17976798117160797,
				0.179767906665802,
				0.17976787686347961
			],
			"translation":[
				-0.9387467503547668,
				0.49257558584213257,
				-0.17561037838459015
			]
		},
		{
			"mesh":9,
			"name":"Cube.024",
			"rotation":[
				-0.5739232897758484,
				-0.43670883774757385,
				0.5912293791770935,
				0.3610336482524872
			],
			"scale":[
				0.17976798117160797,
				0.179767906665802,
				0.1797678917646408
			],
			"translation":[
				-0.6133837699890137,
				0.5679224729537964,
				-0.25921180844306946
			]
		}
	],
	"materials":[
		{
			"doubleSided":true,
			"name":"Material",
			"pbrMetallicRoughness":{
				"metallicFactor":0,
				"roughnessFactor":0.5
			}
		}
	],
	"meshes":[
		{
			"name":"Cube.012",
			"primitives":[
				{
					"attributes":{
						"POSITION":0,
						"NORMAL":1,
						"COLOR_0":2
					},
					"indices":3,
					"material":0
				}
			]
		},
		{
			"name":"Cube.014",
			"primitives":[
				{
					"attributes":{
						"POSITION":4,
						"NORMAL":5,
						"COLOR_0":6
					},
					"indices":7,
					"material":0
				}
			]
		},
		{
			"name":"Cube",
			"primitives":[
				{
					"attributes":{
						"POSITION":8,
						"NORMAL":9,
						"TEXCOORD_0":10,
						"COLOR_0":11
					},
					"indices":12,
					"material":0
				}
			]
		},
		{
			"name":"Cube.015",
			"primitives":[
				{
					"attributes":{
						"POSITION":13,
						"NORMAL":14,
						"TEXCOORD_0":15,
						"COLOR_0":16
					},
					"indices":17,
					"material":0
				}
			]
		},
		{
			"name":"Cube.016",
			"primitives":[
				{
					"attributes":{
						"POSITION":18,
						"NORMAL":19,
						"TEXCOORD_0":20,
						"COLOR_0":21
					},
					"indices":22,
					"material":0
				}
			]
		},
		{
			"name":"Cube.017",
			"primitives":[
				{
					"attributes":{
						"POSITION":23,
						"NORMAL":24,
						"COLOR_0":25
					},
					"indices":7,
					"material":0
				}
			]
		},
		{
			"name":"Cube.018",
			"primitives":[
				{
					"attributes":{
						"POSITION":26,
						"NORMAL":27,
						"TEXCOORD_0":28,
						"COLOR_0":29
					},
					"indices":30,
					"material":0
				}
			]
		},
		{
			"name":"Cube.019",
			"primitives":[
				{
					"attributes":{
						"POSITION":31,
						"NORMAL":32,
						"TEXCOORD_0":33,
						"COLOR_0":34
					},
					"indices":35,
					"material":0
				}
			]
		},
		{
			"name":"Cube.023",
			"primitives":[
				{
					"attributes":{
						"POSITION":36,
						"NORMAL":37,
						"TEXCOORD_0":38,
						"COLOR_0":39
					},
					"indices":40,
					"material":0
				}
			]
		},
		{
			"name":"Cube.024",
			"primitives":[
				{
					"attributes":{
						"POSITION":41,
						"NORMAL":42,
						"COLOR_0":43
					},
					"indices":44,
					"material":0
				}
			]
		}
	],
	"accessors":[
		{
			"bufferView":0,
			"componentType":5126,
			"count":94,
			"max":[
				0.3808654546737671,
				0.21178686618804932,
				0.44880685210227966
			],
			"min":[
				-0.3872841000556946,
				0.05854029208421707,
				-0.404548704624176
			],
			"type":"VEC3"
		},
		{
			"bufferView":1,
			"componentType":5126,
			"count":94,
			"type":"VEC3"
		},
		{
			"bufferView":2,
			"componentType":5126,
			"count":94,
			"type":"VEC3"
		},
		{
			"bufferView":3,
			"componentType":5123,
			"count":483,
			"type":"SCALAR"
		},
		{
			"bufferView":4,
			"componentType":5126,
			"count":87,
			"max":[
				0.3808654546737671,
				0.21178686618804932,
				0.44880685210227966
			],
			"min":[
				-0.4166690707206726,
				0.0434720441699028,
				-0.4039258360862732
			],
			"type":"VEC3"
		},
		{
			"bufferView":5,
			"componentType":5126,
			"count":87,
			"type":"VEC3"
		},
		{
			"bufferView":6,
			"componentType":5126,
			"count":87,
			"type":"VEC3"
		},
		{
			"bufferView":7,
			"componentType":5123,
			"count":456,
			"type":"SCALAR"
		},
		{
			"bufferView":8,
			"componentType":5126,
			"count":167,
			"max":[
				0.7145323753356934,
				-0.328895628452301,
				1.3252259492874146
			],
			"min":[
				-0.7145653367042542,
				-2.061788320541382,
				0.17834188044071198
			],
			"type":"VEC3"
		},
		{
			"bufferView":9,
			"componentType":5126,
			"count":167,
			"type":"VEC3"
		},
		{
			"bufferView":10,
			"componentType":5126,
			"count":167,
			"type":"VEC2"
		},
		{
			"bufferView":11,
			"componentType":5126,
			"count":167,
			"type":"VEC3"
		},
		{
			"bufferView":12,
			"componentType":5123,
			"count":822,
			"type":"SCALAR"
		},
		{
			"bufferView":13,
			"componentType":5126,
			"count":70,
			"max":[
				1.1310817003250122,
				0.44017675518989563,
				0.3377911448478699
			],
			"min":[
				-1.1310817003250122,
				0.364091157913208,
				-0.41182759404182434
			],
			"type":"VEC3"
		},
		{
			"bufferView":14,
			"componentType":5126,
			"count":70,
			"type":"VEC3"
		},
		{
			"bufferView":15,
			"componentType":5126,
			"count":70,
			"type":"VEC2"
		},
		{
			"bufferView":16,
			"componentType":5126,
			"count":70,
			"type":"VEC3"
		},
		{
			"bufferView":17,
			"componentType":5123,
			"count":258,
			"type":"SCALAR"
		},
		{
			"bufferView":18,
			"componentType":5126,
			"count":164,
			"max":[
				1.0576941967010498,
				0.3814523220062256,
				0.4279008209705353
			],
			"min":[
				-1.0576941967010498,
				0.1203601211309433,
				-0.4279008209705353
			],
			"type":"VEC3"
		},
		{
			"bufferView":19,
			"componentType":5126,
			"count":164,
			"type":"VEC3"
		},
		{
			"bufferView":20,
			"componentType":5126,
			"count":164,
			"type":"VEC2"
		},
		{
			"bufferView":21,
			"componentType":5126,
			"count":164,
			"type":"VEC3"
		},
		{
			"bufferView":22,
			"componentType":5123,
			"count":348,
			"type":"SCALAR"
		},
		{
			"bufferView":23,
			"componentType":5126,
			"count":87,
			"max":[
				-0.07849150896072388,
				0.3830510675907135,
				0.440460205078125
			],
			"min":[
				-0.6917245388031006,
				0.18107327818870544,
				-0.3964138627052307
			],
			"type":"VEC3"
		},
		{
			"bufferView":24,
			"componentType":5126,
			"count":87,
			"type":"VEC3"
		},
		{
			"bufferView":25,
			"componentType":5126,
			"count":87,
			"type":"VEC3"
		},
		{
			"bufferView":26,
			"componentType":5126,
			"count":440,
			"max":[
				1.1534841060638428,
				0.4578256607055664,
				0.47657647728919983
			],
			"min":[
				-1.1534841060638428,
				-0.00027632713317871094,
				-0.47657647728919983
			],
			"type":"VEC3"
		},
		{
			"bufferView":27,
			"componentType":5126,
			"count":440,
			"type":"VEC3"
		},
		{
			"bufferView":28,
			"componentType":5126,
			"count":440,
			"type":"VEC2"
		},
		{
			"bufferView":29,
			"componentType":5126,
			"count":440,
			"type":"VEC3"
		},
		{
			"bufferView":30,
			"componentType":5123,
			"count":1128,
			"type":"SCALAR"
		},
		{
			"bufferView":31,
			"componentType":5126,
			"count":90,
			"max":[
				1.0036436319351196,
				0.760561466217041,
				-0.3720587491989136
			],
			"min":[
				-1.0036436319351196,
				0.34170442819595337,
				-0.40414395928382874
			],
			"type":"VEC3"
		},
		{
			"bufferView":32,
			"componentType":5126,
			"count":90,
			"type":"VEC3"
		},
		{
			"bufferView":33,
			"componentType":5126,
			"count":90,
			"type":"VEC2"
		},
		{
			"bufferView":34,
			"componentType":5126,
			"count":90,
			"type":"VEC3"
		},
		{
			"bufferView":35,
			"componentType":5123,
			"count":252,
			"type":"SCALAR"
		},
		{
			"bufferView":36,
			"componentType":5126,
			"count":40,
			"max":[
				1.0423836708068848,
				0.9999998807907104,
				1.0873116254806519
			],
			"min":[
				-1.0423836708068848,
				-0.9999999403953552,
				0.7026751637458801
			],
			"type":"VEC3"
		},
		{
			"bufferView":37,
			"componentType":5126,
			"count":40,
			"type":"VEC3"
		},
		{
			"bufferView":38,
			"componentType":5126,
			"count":40,
			"type":"VEC2"
		},
		{
			"bufferView":39,
			"componentType":5126,
			"count":40,
			"type":"VEC3"
		},
		{
			"bufferView":40,
			"componentType":5123,
			"count":126,
			"type":"SCALAR"
		},
		{
			"bufferView":41,
			"componentType":5126,
			"count":152,
			"max":[
				0.9647526741027832,
				0.4400119483470917,
				0.9672929644584656
			],
			"min":[
				-0.9675967693328857,
				-0.3101019561290741,
				-0.928372323513031
			],
			"type":"VEC3"
		},
		{
			"bufferView":42,
			"componentType":5126,
			"count":152,
			"type":"VEC3"
		},
		{
			"bufferView":43,
			"componentType":5126,
			"count":152,
			"type":"VEC3"
		},
		{
			"bufferView":44,
			"componentType":5123,
			"count":861,
			"type":"SCALAR"
		}
	],
	"bufferViews":[
		{
			"buffer":0,
			"byteLength":1128,
			"byteOffset":0,
			"target":34962
		},
		{
			"buffer":0,
			"byteLength":1128,
			"byteOffset":1128,
			"target":34962
		},
		{
			"buffer":0,
			"byteLength":1128,
			"byteOffset":2256,
			"target":34962
		},
		{
			"buffer":0,
			"byteLength":966,
			"byteOffset":3384,
			"target":34963
		},
		{
			"buffer":0,
			"byteLength":1044,
			"byteOffset":4352,
			"target":34962
		},
		{
			"buffer":0,
			"byteLength":1044,
			"byteOffset":5396,
			"target":34962
		},
		{
			"buffer":0,
			"byteLength":1044,
			"byteOffset":6440,
			"target":34962
		},
		{
			"buffer":0,
			"byteLength":912,
			"byteOffset":7484,
			"target":34963
		},
		{
			"buffer":0,
			"byteLength":2004,
			"byteOffset":8396,
			"target":34962
		},
		{
			"buffer":0,
			"byteLength":2004,
			"byteOffset":10400,
			"target":34962
		},
		{
			"buffer":0,
			"byteLength":1336,
			"byteOffset":12404,
			"target":34962
		},
		{
			"buffer":0,
			"byteLength":2004,
			"byteOffset":13740,
			"target":34962
		},
		{
			"buffer":0,
			"byteLength":1644,
			"byteOffset":15744,
			"target":34963
		},
		{
			"buffer":0,
			"byteLength":840,
			"byteOffset":17388,
			"target":34962
		},
		{
			"buffer":0,
			"byteLength":840,
			"byteOffset":18228,
			"target":34962
		},
		{
			"buffer":0,
			"byteLength":560,
			"byteOffset":19068,
			"target":34962
		},
		{
			"buffer":0,
			"byteLength":840,
			"byteOffset":19628,
			"target":34962
		},
		{
			"buffer":0,
			"byteLength":516,
			"byteOffset":20468,
			"target":34963
		},
		{
			"buffer":0,
			"byteLength":1968,
			"byteOffset":20984,
			"target":34962
		},
		{
			"buffer":0,
			"byteLength":1968,
			"byteOffset":22952,
			"target":34962
		},
		{
			"buffer":0,
			"byteLength":1312,
			"byteOffset":24920,
			"target":34962
		},
		{
			"buffer":0,
			"byteLength":1968,
			"byteOffset":26232,
			"target":34962
		},
		{
			"buffer":0,
			"byteLength":696,
			"byteOffset":28200,
			"target":34963
		},
		{
			"buffer":0,
			"byteLength":1044,
			"byteOffset":28896,
			"target":34962
		},
		{
			"buffer":0,
			"byteLength":1044,
			"byteOffset":29940,
			"target":34962
		},
		{
			"buffer":0,
			"byteLength":1044,
			"byteOffset":30984,
			"target":34962
		},
		{
			"buffer":0,
			"byteLength":5280,
			"byteOffset":32028,
			"target":34962
		},
		{
			"buffer":0,
			"byteLength":5280,
			"byteOffset":37308,
			"target":34962
		},
		{
			"buffer":0,
			"byteLength":3520,
			"byteOffset":42588,
			"target":34962
		},
		{
			"buffer":0,
			"byteLength":5280,
			"byteOffset":46108,
			"target":34962
		},
		{
			"buffer":0,
			"byteLength":2256,
			"byteOffset":51388,
			"target":34963
		},
		{
			"buffer":0,
			"byteLength":1080,
			"byteOffset":53644,
			"target":34962
		},
		{
			"buffer":0,
			"byteLength":1080,
			"byteOffset":54724,
			"target":34962
		},
		{
			"buffer":0,
			"byteLength":720,
			"byteOffset":55804,
			"target":34962
		},
		{
			"buffer":0,
			"byteLength":1080,
			"byteOffset":56524,
			"target":34962
		},
		{
			"buffer":0,
			"byteLength":504,
			"byteOffset":57604,
			"target":34963
		},
		{
			"buffer":0,
			"byteLength":480,
			"byteOffset":58108,
			"target":34962
		},
		{
			"buffer":0,
			"byteLength":480,
			"byteOffset":58588,
			"target":34962
		},
		{
			"buffer":0,
			"byteLength":320,
			"byteOffset":59068,
			"target":34962
		},
		{
			"buffer":0,
			"byteLength":480,
			"byteOffset":59388,
			"target":34962
		},
		{
			"buffer":0,
			"byteLength":252,
			"byteOffset":59868,
			"target":34963
		},
		{
			"buffer":0,
			"byteLength":1824,
			"byteOffset":60120,
			"target":34962
		},
		{
			"buffer":0,
			"byteLength":1824,
			"byteOffset":61944,
			"target":34962
		},
		{
			"buffer":0,
			"byteLength":1824,
			"byteOffset":63768,
			"target":34962
		},
		{
			"buffer":0,
			"byteLength":1722,
			"byteOffset":65592,
			"target":34963
		}
	],
	"buffers":[
		{
			"byteLength":67316,
			"uri":"couch3.bin"
		}
	]
}
