{
	"asset":{
		"generator":"Khronos glTF Blender I/O v5.1.15",
		"version":"2.0"
	},
	"scene":0,
	"scenes":[
		{
			"name":"fallen_fan",
			"nodes":[
				0,
				1,
				2,
				3,
				4,
				5,
				6
			]
		}
	],
	"nodes":[
		{
			"mesh":0,
			"name":"Cylinder.003"
		},
		{
			"mesh":1,
			"name":"Sphere",
			"translation":[
				0,
				0.0017880108207464218,
				0
			]
		},
		{
			"mesh":2,
			"name":"Cube.002",
			"rotation":[
				0,
				-0.07991159707307816,
				0,
				0.9968019723892212
			],
			"scale":[
				1.3568991422653198,
				1.3649470806121826,
				1.0108933448791504
			]
		},
		{
			"mesh":2,
			"name":"Cube.003",
			"rotation":[
				0,
				-0.681415855884552,
				0,
				0.7318964600563049
			],
			"scale":[
				1.3372561931610107,
				1.3387632369995117,
				1.002014398574829
			]
		},
		{
			"mesh":3,
			"name":"Sphere.001",
			"rotation":[
				0.7036551237106323,
				-0.0697813406586647,
				-0.0697813555598259,
				0.7036551237106323
			],
			"translation":[
				0,
				1.2436273097991943,
				0.0364297516644001
			]
		},
		{
			"mesh":4,
			"name":"Sphere.002",
			"rotation":[
				0.7036551237106323,
				-0.0697813406586647,
				-0.0697813555598259,
				0.7036551237106323
			],
			"translation":[
				0,
				1.2436273097991943,
				0.0364297516644001
			]
		},
		{
			"mesh":5,
			"name":"Cylinder.005",
			"rotation":[
				0.7071068286895752,
				0,
				0,
				0.7071068286895752
			],
			"translation":[
				0,
				1.2436273097991943,
				0.0364297516644001
			]
		}
	],
	"materials":[
		{
			"doubleSided":true,
			"name":"props",
			"pbrMetallicRoughness":{
				"metallicFactor":0,
				"roughnessFactor":0.5
			}
		},
		{
			"alphaMode":"BLEND",
			"doubleSided":true,
			"name":"fan_head",
			"pbrMetallicRoughness":{
				"baseColorTexture":{
					"index":0
				},
				"metallicFactor":0,
				"roughnessFactor":0.5
			}
		}
	],
	"meshes":[
		{
			"name":"Cylinder.008",
			"primitives":[
				{
					"attributes":{
						"POSITION":0,
						"NORMAL":1,
						"TEXCOORD_0":2,
						"COLOR_0":3
					},
					"indices":4,
					"material":0
				}
			]
		},
		{
			"name":"Sphere",
			"primitives":[
				{
					"attributes":{
						"POSITION":5,
						"NORMAL":6,
						"TEXCOORD_0":7,
						"COLOR_0":8
					},
					"indices":9,
					"material":0
				}
			]
		},
		{
			"name":"Cube.003",
			"primitives":[
				{
					"attributes":{
						"POSITION":10,
						"NORMAL":11,
						"TEXCOORD_0":12,
						"COLOR_0":13
					},
					"indices":14,
					"material":0
				}
			]
		},
		{
			"name":"Sphere.001",
			"primitives":[
				{
					"attributes":{
						"POSITION":15,
						"NORMAL":16,
						"TEXCOORD_0":17,
						"COLOR_0":18,
						"COLOR_1":19
					},
					"indices":20,
					"material":1
				}
			]
		},
		{
			"name":"Sphere.002",
			"primitives":[
				{
					"attributes":{
						"POSITION":21,
						"NORMAL":22,
						"TEXCOORD_0":23,
						"COLOR_0":24
					},
					"indices":25,
					"material":0
				}
			]
		},
		{
			"name":"Cylinder.009",
			"primitives":[
				{
					"attributes":{
						"POSITION":26,
						"NORMAL":27,
						"TEXCOORD_0":28,
						"COLOR_0":29
					},
					"indices":30,
					"material":0
				}
			]
		}
	],
	"textures":[
		{
			"sampler":0,
			"source":0
		}
	],
	"images":[
		{
			"mimeType":"image/png",
			"name":"fan_head",
			"uri":"fan_head.png"
		}
	],
	"accessors":[
		{
			"bufferView":0,
			"componentType":5126,
			"count":135,
			"max":[
				0.04305789992213249,
				1.3667774200439453,
				0.04870028421282768
			],
			"min":[
				-0.05631641671061516,
				0.01737266033887863,
				-0.05331331491470337
			],
			"type":"VEC3"
		},
		{
			"bufferView":1,
			"componentType":5126,
			"count":135,
			"type":"VEC3"
		},
		{
			"bufferView":2,
			"componentType":5126,
			"count":135,
			"type":"VEC2"
		},
		{
			"bufferView":3,
			"componentType":5126,
			"count":135,
			"type":"VEC3"
		},
		{
			"bufferView":4,
			"componentType":5123,
			"count":594,
			"type":"SCALAR"
		},
		{
			"bufferView":5,
			"componentType":5126,
			"count":63,
			"max":[
				0.09228809177875519,
				0.09600929915904999,
				0.09496472030878067
			],
			"min":[
				-0.1011681854724884,
				-0.0028571174480021,
				-0.09524562954902649
			],
			"type":"VEC3"
		},
		{
			"bufferView":6,
			"componentType":5126,
			"count":63,
			"type":"VEC3"
		},
		{
			"bufferView":7,
			"componentType":5126,
			"count":63,
			"type":"VEC2"
		},
		{
			"bufferView":8,
			"componentType":5126,
			"count":63,
			"type":"VEC3"
		},
		{
			"bufferView":9,
			"componentType":5123,
			"count":228,
			"type":"SCALAR"
		},
		{
			"bufferView":10,
			"componentType":5126,
			"count":56,
			"max":[
				0.018748262897133827,
				0.03562134876847267,
				0.29817381501197815
			],
			"min":[
				-0.01948743686079979,
				-0.02476014383137226,
				-0.2982049286365509
			],
			"type":"VEC3"
		},
		{
			"bufferView":11,
			"componentType":5126,
			"count":56,
			"type":"VEC3"
		},
		{
			"bufferView":12,
			"componentType":5126,
			"count":56,
			"type":"VEC2"
		},
		{
			"bufferView":13,
			"componentType":5126,
			"count":56,
			"type":"VEC3"
		},
		{
			"bufferView":14,
			"componentType":5123,
			"count":84,
			"type":"SCALAR"
		},
		{
			"bufferView":15,
			"componentType":5126,
			"count":210,
			"max":[
				0.2751705050468445,
				0.14948377013206482,
				0.28447815775871277
			],
			"min":[
				-0.2808992266654968,
				-0.1358584761619568,
				-0.2886468768119812
			],
			"type":"VEC3"
		},
		{
			"bufferView":16,
			"componentType":5126,
			"count":210,
			"type":"VEC3"
		},
		{
			"bufferView":17,
			"componentType":5126,
			"count":210,
			"type":"VEC2"
		},
		{
			"bufferView":18,
			"componentType":5121,
			"count":210,
			"normalized":true,
			"type":"VEC4"
		},
		{
			"bufferView":19,
			"componentType":5123,
			"count":210,
			"normalized":true,
			"type":"VEC4"
		},
		{
			"bufferView":20,
			"componentType":5123,
			"count":768,
			"type":"SCALAR"
		},
		{
			"bufferView":21,
			"componentType":5126,
			"count":36,
			"max":[
				0.26670652627944946,
				0.044299036264419556,
				0.25488927960395813
			],
			"min":[
				-0.22145751118659973,
				-0.01102675311267376,
				-0.26008760929107666
			],
			"type":"VEC3"
		},
		{
			"bufferView":22,
			"componentType":5126,
			"count":36,
			"type":"VEC3"
		},
		{
			"bufferView":23,
			"componentType":5126,
			"count":36,
			"type":"VEC2"
		},
		{
			"bufferView":24,
			"componentType":5126,
			"count":36,
			"type":"VEC3"
		},
		{
			"bufferView":25,
			"componentType":5123,
			"count":90,
			"type":"SCALAR"
		},
		{
			"bufferView":26,
			"componentType":5126,
			"count":14,
			"max":[
				0.0239745881408453,
				0.14425791800022125,
				0.027683470398187637
			],
			"min":[
				-0.0239745881408453,
				-0.13156981766223907,
				-0.027683470398187637
			],
			"type":"VEC3"
		},
		{
			"bufferView":27,
			"componentType":5126,
			"count":14,
			"type":"VEC3"
		},
		{
			"bufferView":28,
			"componentType":5126,
			"count":14,
			"type":"VEC2"
		},
		{
			"bufferView":29,
			"componentType":5126,
			"count":14,
			"type":"VEC3"
		},
		{
			"bufferView":30,
			"componentType":5123,
			"count":48,
			"type":"SCALAR"
		}
	],
	"bufferViews":[
		{
			"buffer":0,
			"byteLength":1620,
			"byteOffset":0,
			"target":34962
		},
		{
			"buffer":0,
			"byteLength":1620,
			"byteOffset":1620,
			"target":34962
		},
		{
			"buffer":0,
			"byteLength":1080,
			"byteOffset":3240,
			"target":34962
		},
		{
			"buffer":0,
			"byteLength":1620,
			"byteOffset":4320,
			"target":34962
		},
		{
			"buffer":0,
			"byteLength":1188,
			"byteOffset":5940,
			"target":34963
		},
		{
			"buffer":0,
			"byteLength":756,
			"byteOffset":7128,
			"target":34962
		},
		{
			"buffer":0,
			"byteLength":756,
			"byteOffset":7884,
			"target":34962
		},
		{
			"buffer":0,
			"byteLength":504,
			"byteOffset":8640,
			"target":34962
		},
		{
			"buffer":0,
			"byteLength":756,
			"byteOffset":9144,
			"target":34962
		},
		{
			"buffer":0,
			"byteLength":456,
			"byteOffset":9900,
			"target":34963
		},
		{
			"buffer":0,
			"byteLength":672,
			"byteOffset":10356,
			"target":34962
		},
		{
			"buffer":0,
			"byteLength":672,
			"byteOffset":11028,
			"target":34962
		},
		{
			"buffer":0,
			"byteLength":448,
			"byteOffset":11700,
			"target":34962
		},
		{
			"buffer":0,
			"byteLength":672,
			"byteOffset":12148,
			"target":34962
		},
		{
			"buffer":0,
			"byteLength":168,
			"byteOffset":12820,
			"target":34963
		},
		{
			"buffer":0,
			"byteLength":2520,
			"byteOffset":12988,
			"target":34962
		},
		{
			"buffer":0,
			"byteLength":2520,
			"byteOffset":15508,
			"target":34962
		},
		{
			"buffer":0,
			"byteLength":1680,
			"byteOffset":18028,
			"target":34962
		},
		{
			"buffer":0,
			"byteLength":840,
			"byteOffset":19708,
			"target":34962
		},
		{
			"buffer":0,
			"byteLength":1680,
			"byteOffset":20548,
			"target":34962
		},
		{
			"buffer":0,
			"byteLength":1536,
			"byteOffset":22228,
			"target":34963
		},
		{
			"buffer":0,
			"byteLength":432,
			"byteOffset":23764,
			"target":34962
		},
		{
			"buffer":0,
			"byteLength":432,
			"byteOffset":24196,
			"target":34962
		},
		{
			"buffer":0,
			"byteLength":288,
			"byteOffset":24628,
			"target":34962
		},
		{
			"buffer":0,
			"byteLength":432,
			"byteOffset":24916,
			"target":34962
		},
		{
			"buffer":0,
			"byteLength":180,
			"byteOffset":25348,
			"target":34963
		},
		{
			"buffer":0,
			"byteLength":168,
			"byteOffset":25528,
			"target":34962
		},
		{
			"buffer":0,
			"byteLength":168,
			"byteOffset":25696,
			"target":34962
		},
		{
			"buffer":0,
			"byteLength":112,
			"byteOffset":25864,
			"target":34962
		},
		{
			"buffer":0,
			"byteLength":168,
			"byteOffset":25976,
			"target":34962
		},
		{
			"buffer":0,
			"byteLength":96,
			"byteOffset":26144,
			"target":34963
		}
	],
	"samplers":[
		{
			"magFilter":9729,
			"minFilter":9987
		}
	],
	"buffers":[
		{
			"byteLength":26240,
			"uri":"fallen_fan.bin"
		}
	]
}
