{
	"asset":{
		"generator":"Khronos glTF Blender I/O v5.0.21",
		"version":"2.0"
	},
	"scene":0,
	"scenes":[
		{
			"name":"fireplace",
			"nodes":[
				0,
				1
			]
		}
	],
	"nodes":[
		{
			"mesh":0,
			"name":"Cube",
			"translation":[
				0,
				0.044890396296978,
				0.07615415006875992
			]
		},
		{
			"mesh":1,
			"name":"Cube.001",
			"translation":[
				0,
				0.044890396296978,
				0.07615415006875992
			]
		}
	],
	"materials":[
		{
			"doubleSided":true,
			"name":"vertex colors",
			"pbrMetallicRoughness":{
				"metallicFactor":0,
				"roughnessFactor":0.5
			}
		}
	],
	"meshes":[
		{
			"name":"Cube.001",
			"primitives":[
				{
					"attributes":{
						"POSITION":0,
						"NORMAL":1,
						"TEXCOORD_0":2,
						"COLOR_0":3
					},
					"indices":4,
					"material":0
				}
			]
		},
		{
			"name":"Cube.002",
			"primitives":[
				{
					"attributes":{
						"POSITION":5,
						"NORMAL":6,
						"TEXCOORD_0":7,
						"COLOR_0":8
					},
					"indices":9,
					"material":0
				}
			]
		}
	],
	"accessors":[
		{
			"bufferView":0,
			"componentType":5126,
			"count":1253,
			"max":[
				1.4342761039733887,
				1.1189556121826172,
				0.4556224048137665
			],
			"min":[
				-1.4342761039733887,
				-0.049531690776348114,
				-0.19043241441249847
			],
			"type":"VEC3"
		},
		{
			"bufferView":1,
			"componentType":5126,
			"count":1253,
			"type":"VEC3"
		},
		{
			"bufferView":2,
			"componentType":5126,
			"count":1253,
			"type":"VEC2"
		},
		{
			"bufferView":3,
			"componentType":5126,
			"count":1253,
			"type":"VEC3"
		},
		{
			"bufferView":4,
			"componentType":5123,
			"count":3078,
			"type":"SCALAR"
		},
		{
			"bufferView":5,
			"componentType":5126,
			"count":224,
			"max":[
				0.6604028940200806,
				0.49238699674606323,
				0.25030606985092163
			],
			"min":[
				-0.6604028940200806,
				0.0036097317934036255,
				0.03345254063606262
			],
			"type":"VEC3"
		},
		{
			"bufferView":6,
			"componentType":5126,
			"count":224,
			"type":"VEC3"
		},
		{
			"bufferView":7,
			"componentType":5126,
			"count":224,
			"type":"VEC2"
		},
		{
			"bufferView":8,
			"componentType":5126,
			"count":224,
			"type":"VEC3"
		},
		{
			"bufferView":9,
			"componentType":5123,
			"count":456,
			"type":"SCALAR"
		}
	],
	"bufferViews":[
		{
			"buffer":0,
			"byteLength":15036,
			"byteOffset":0,
			"target":34962
		},
		{
			"buffer":0,
			"byteLength":15036,
			"byteOffset":15036,
			"target":34962
		},
		{
			"buffer":0,
			"byteLength":10024,
			"byteOffset":30072,
			"target":34962
		},
		{
			"buffer":0,
			"byteLength":15036,
			"byteOffset":40096,
			"target":34962
		},
		{
			"buffer":0,
			"byteLength":6156,
			"byteOffset":55132,
			"target":34963
		},
		{
			"buffer":0,
			"byteLength":2688,
			"byteOffset":61288,
			"target":34962
		},
		{
			"buffer":0,
			"byteLength":2688,
			"byteOffset":63976,
			"target":34962
		},
		{
			"buffer":0,
			"byteLength":1792,
			"byteOffset":66664,
			"target":34962
		},
		{
			"buffer":0,
			"byteLength":2688,
			"byteOffset":68456,
			"target":34962
		},
		{
			"buffer":0,
			"byteLength":912,
			"byteOffset":71144,
			"target":34963
		}
	],
	"buffers":[
		{
			"byteLength":72056,
			"uri":"fireplace.bin"
		}
	]
}
