{
	"asset":{
		"generator":"Khronos glTF Blender I/O v5.0.21",
		"version":"2.0"
	},
	"scene":0,
	"scenes":[
		{
			"name":"flowers",
			"nodes":[
				0,
				1
			]
		}
	],
	"nodes":[
		{
			"mesh":0,
			"name":"Flower.004",
			"scale":[
				0.0889216735959053,
				0.0889216884970665,
				0.0889216884970665
			],
			"translation":[
				0.14076541364192963,
				0.4884934425354004,
				-0.12193556129932404
			]
		},
		{
			"mesh":1,
			"name":"Vase",
			"translation":[
				0,
				-0.00944497250020504,
				0
			]
		}
	],
	"materials":[
		{
			"doubleSided":true,
			"name":"props",
			"pbrMetallicRoughness":{
				"metallicFactor":0,
				"roughnessFactor":0.5
			}
		}
	],
	"meshes":[
		{
			"name":"Icosphere.004",
			"primitives":[
				{
					"attributes":{
						"POSITION":0,
						"NORMAL":1,
						"TEXCOORD_0":2,
						"COLOR_0":3
					},
					"indices":4,
					"material":0
				}
			]
		},
		{
			"name":"Cylinder.004",
			"primitives":[
				{
					"attributes":{
						"POSITION":5,
						"NORMAL":6,
						"TEXCOORD_0":7,
						"COLOR_0":8
					},
					"indices":9,
					"material":0
				}
			]
		}
	],
	"accessors":[
		{
			"bufferView":0,
			"componentType":5126,
			"count":345,
			"max":[
				1.2629467248916626,
				1.3829898834228516,
				4.151952266693115
			],
			"min":[
				-3.9173264503479004,
				-5.385150909423828,
				-1.8250840902328491
			],
			"type":"VEC3"
		},
		{
			"bufferView":1,
			"componentType":5126,
			"count":345,
			"type":"VEC3"
		},
		{
			"bufferView":2,
			"componentType":5126,
			"count":345,
			"type":"VEC2"
		},
		{
			"bufferView":3,
			"componentType":5126,
			"count":345,
			"type":"VEC3"
		},
		{
			"bufferView":4,
			"componentType":5123,
			"count":621,
			"type":"SCALAR"
		},
		{
			"bufferView":5,
			"componentType":5126,
			"count":156,
			"max":[
				0.1242661401629448,
				0.289209246635437,
				0.1242661103606224
			],
			"min":[
				-0.12426608055830002,
				0.010325330309569836,
				-0.1242661103606224
			],
			"type":"VEC3"
		},
		{
			"bufferView":6,
			"componentType":5126,
			"count":156,
			"type":"VEC3"
		},
		{
			"bufferView":7,
			"componentType":5126,
			"count":156,
			"type":"VEC2"
		},
		{
			"bufferView":8,
			"componentType":5126,
			"count":156,
			"type":"VEC3"
		},
		{
			"bufferView":9,
			"componentType":5123,
			"count":708,
			"type":"SCALAR"
		}
	],
	"bufferViews":[
		{
			"buffer":0,
			"byteLength":4140,
			"byteOffset":0,
			"target":34962
		},
		{
			"buffer":0,
			"byteLength":4140,
			"byteOffset":4140,
			"target":34962
		},
		{
			"buffer":0,
			"byteLength":2760,
			"byteOffset":8280,
			"target":34962
		},
		{
			"buffer":0,
			"byteLength":4140,
			"byteOffset":11040,
			"target":34962
		},
		{
			"buffer":0,
			"byteLength":1242,
			"byteOffset":15180,
			"target":34963
		},
		{
			"buffer":0,
			"byteLength":1872,
			"byteOffset":16424,
			"target":34962
		},
		{
			"buffer":0,
			"byteLength":1872,
			"byteOffset":18296,
			"target":34962
		},
		{
			"buffer":0,
			"byteLength":1248,
			"byteOffset":20168,
			"target":34962
		},
		{
			"buffer":0,
			"byteLength":1872,
			"byteOffset":21416,
			"target":34962
		},
		{
			"buffer":0,
			"byteLength":1416,
			"byteOffset":23288,
			"target":34963
		}
	],
	"buffers":[
		{
			"byteLength":24704,
			"uri":"flower1.bin"
		}
	]
}
