{
	"asset":{
		"generator":"Khronos glTF Blender I/O v5.0.21",
		"version":"2.0"
	},
	"scene":0,
	"scenes":[
		{
			"name":"flowers",
			"nodes":[
				0,
				1,
				2,
				3,
				4,
				5,
				6
			]
		}
	],
	"nodes":[
		{
			"mesh":0,
			"name":"Flower",
			"rotation":[
				0.14439305663108826,
				0.012643316760659218,
				0.052623115479946136,
				0.9880393147468567
			],
			"scale":[
				0.08031323552131653,
				0.08031323552131653,
				0.08031323552131653
			],
			"translation":[
				-0.08256887644529343,
				0.5009914040565491,
				0.09754116088151932
			]
		},
		{
			"mesh":1,
			"name":"Flower.001",
			"rotation":[
				-0.01781114935874939,
				0.29552820324897766,
				-0.059120457619428635,
				0.9533365964889526
			],
			"scale":[
				0.08892166614532471,
				0.0889216959476471,
				0.0889216735959053
			],
			"translation":[
				0.01009839866310358,
				0.6138519644737244,
				-0.02874787710607052
			]
		},
		{
			"mesh":0,
			"name":"Flower.002",
			"rotation":[
				0.0839511826634407,
				-0.8490273356437683,
				0.22284115850925446,
				0.47164249420166016
			],
			"scale":[
				0.08031323552131653,
				0.06804375350475311,
				0.08031322807073593
			],
			"translation":[
				-0.09647323191165924,
				0.42448559403419495,
				-0.1034841239452362
			]
		},
		{
			"mesh":0,
			"name":"Flower.003",
			"rotation":[
				-0.008511267602443695,
				-0.33755818009376526,
				-0.24530096352100372,
				0.9087406992912292
			],
			"scale":[
				0.08031322807073593,
				0.08031323552131653,
				0.08031323552131653
			],
			"translation":[
				0.1807539165019989,
				0.5466609001159668,
				0.06627551466226578
			]
		},
		{
			"mesh":1,
			"name":"Flower.004",
			"rotation":[
				-0.20672957599163055,
				-0.36118701100349426,
				-0.20809470117092133,
				0.8851574063301086
			],
			"scale":[
				0.0889216735959053,
				0.0889216884970665,
				0.0889216884970665
			],
			"translation":[
				0.14076541364192963,
				0.4884934425354004,
				-0.12193556129932404
			]
		},
		{
			"mesh":1,
			"name":"Flower.005",
			"rotation":[
				0.1679815948009491,
				0.7904118299484253,
				0.11333339661359787,
				0.5780889987945557
			],
			"scale":[
				0.0889216735959053,
				0.08444564044475555,
				0.08892166614532471
			],
			"translation":[
				0.07104257494211197,
				0.4655497670173645,
				0.15843845903873444
			]
		},
		{
			"mesh":2,
			"name":"Vase",
			"scale":[
				1.930430293083191,
				1.930430293083191,
				1.930430293083191
			],
			"translation":[
				0,
				-0.00944497250020504,
				0
			]
		}
	],
	"materials":[
		{
			"doubleSided":true,
			"name":"props",
			"pbrMetallicRoughness":{
				"metallicFactor":0,
				"roughnessFactor":0.5
			}
		}
	],
	"meshes":[
		{
			"name":"Icosphere.002",
			"primitives":[
				{
					"attributes":{
						"POSITION":0,
						"NORMAL":1,
						"TEXCOORD_0":2,
						"COLOR_0":3
					},
					"indices":4,
					"material":0
				}
			]
		},
		{
			"name":"Icosphere.004",
			"primitives":[
				{
					"attributes":{
						"POSITION":5,
						"NORMAL":6,
						"TEXCOORD_0":7,
						"COLOR_0":8
					},
					"indices":9,
					"material":0
				}
			]
		},
		{
			"name":"Cylinder.004",
			"primitives":[
				{
					"attributes":{
						"POSITION":10,
						"NORMAL":11,
						"TEXCOORD_0":12,
						"COLOR_0":13
					},
					"indices":14,
					"material":0
				}
			]
		}
	],
	"accessors":[
		{
			"bufferView":0,
			"componentType":5126,
			"count":60,
			"max":[
				1.2104294300079346,
				0.5093428492546082,
				1.239359974861145
			],
			"min":[
				-1.5550485849380493,
				-6.470666408538818,
				-1.4053019285202026
			],
			"type":"VEC3"
		},
		{
			"bufferView":1,
			"componentType":5126,
			"count":60,
			"type":"VEC3"
		},
		{
			"bufferView":2,
			"componentType":5126,
			"count":60,
			"type":"VEC2"
		},
		{
			"bufferView":3,
			"componentType":5126,
			"count":60,
			"type":"VEC3"
		},
		{
			"bufferView":4,
			"componentType":5123,
			"count":108,
			"type":"SCALAR"
		},
		{
			"bufferView":5,
			"componentType":5126,
			"count":55,
			"max":[
				1.4051313400268555,
				-0.09059160947799683,
				1.2187646627426147
			],
			"min":[
				-1.120142936706543,
				-5.823235511779785,
				-2.482651710510254
			],
			"type":"VEC3"
		},
		{
			"bufferView":6,
			"componentType":5126,
			"count":55,
			"type":"VEC3"
		},
		{
			"bufferView":7,
			"componentType":5126,
			"count":55,
			"type":"VEC2"
		},
		{
			"bufferView":8,
			"componentType":5126,
			"count":55,
			"type":"VEC3"
		},
		{
			"bufferView":9,
			"componentType":5123,
			"count":99,
			"type":"SCALAR"
		},
		{
			"bufferView":10,
			"componentType":5126,
			"count":156,
			"max":[
				0.06437224894762039,
				0.14981594681739807,
				0.0643722340464592
			],
			"min":[
				-0.064372219145298,
				0.005348719656467438,
				-0.0643722340464592
			],
			"type":"VEC3"
		},
		{
			"bufferView":11,
			"componentType":5126,
			"count":156,
			"type":"VEC3"
		},
		{
			"bufferView":12,
			"componentType":5126,
			"count":156,
			"type":"VEC2"
		},
		{
			"bufferView":13,
			"componentType":5126,
			"count":156,
			"type":"VEC3"
		},
		{
			"bufferView":14,
			"componentType":5123,
			"count":708,
			"type":"SCALAR"
		}
	],
	"bufferViews":[
		{
			"buffer":0,
			"byteLength":720,
			"byteOffset":0,
			"target":34962
		},
		{
			"buffer":0,
			"byteLength":720,
			"byteOffset":720,
			"target":34962
		},
		{
			"buffer":0,
			"byteLength":480,
			"byteOffset":1440,
			"target":34962
		},
		{
			"buffer":0,
			"byteLength":720,
			"byteOffset":1920,
			"target":34962
		},
		{
			"buffer":0,
			"byteLength":216,
			"byteOffset":2640,
			"target":34963
		},
		{
			"buffer":0,
			"byteLength":660,
			"byteOffset":2856,
			"target":34962
		},
		{
			"buffer":0,
			"byteLength":660,
			"byteOffset":3516,
			"target":34962
		},
		{
			"buffer":0,
			"byteLength":440,
			"byteOffset":4176,
			"target":34962
		},
		{
			"buffer":0,
			"byteLength":660,
			"byteOffset":4616,
			"target":34962
		},
		{
			"buffer":0,
			"byteLength":198,
			"byteOffset":5276,
			"target":34963
		},
		{
			"buffer":0,
			"byteLength":1872,
			"byteOffset":5476,
			"target":34962
		},
		{
			"buffer":0,
			"byteLength":1872,
			"byteOffset":7348,
			"target":34962
		},
		{
			"buffer":0,
			"byteLength":1248,
			"byteOffset":9220,
			"target":34962
		},
		{
			"buffer":0,
			"byteLength":1872,
			"byteOffset":10468,
			"target":34962
		},
		{
			"buffer":0,
			"byteLength":1416,
			"byteOffset":12340,
			"target":34963
		}
	],
	"buffers":[
		{
			"byteLength":13756,
			"uri":"flower1.bin"
		}
	]
}
