{
	"asset":{
		"generator":"Khronos glTF Blender I/O v5.0.21",
		"version":"2.0"
	},
	"scene":0,
	"scenes":[
		{
			"name":"flowers",
			"nodes":[
				0,
				1,
				2,
				3,
				4,
				5,
				6
			]
		}
	],
	"nodes":[
		{
			"mesh":0,
			"name":"Flower",
			"rotation":[
				0.14439308643341064,
				0.012643320485949516,
				0.05262312665581703,
				0.9880393743515015
			],
			"scale":[
				0.041603803634643555,
				0.041603799909353256,
				0.041603799909353256
			],
			"translation":[
				-0.04277226701378822,
				0.2644158601760864,
				0.05052819475531578
			]
		},
		{
			"mesh":1,
			"name":"Flower.001",
			"rotation":[
				-0.017811153084039688,
				0.2955282926559448,
				-0.05912047624588013,
				0.9533366560935974
			],
			"scale":[
				0.0460631288588047,
				0.046063147485256195,
				0.0460631400346756
			],
			"translation":[
				0.005231164395809174,
				0.3228797912597656,
				-0.014891952276229858
			]
		},
		{
			"mesh":0,
			"name":"Flower.002",
			"rotation":[
				0.0839511826634407,
				-0.8490273356437683,
				0.22284115850925446,
				0.47164249420166016
			],
			"scale":[
				0.041603799909353256,
				0.03524797409772873,
				0.04160379618406296
			],
			"translation":[
				-0.049974989145994186,
				0.22478437423706055,
				-0.05360676720738411
			]
		},
		{
			"mesh":0,
			"name":"Flower.003",
			"rotation":[
				-0.008511267602443695,
				-0.33755818009376526,
				-0.24530096352100372,
				0.9087406992912292
			],
			"scale":[
				0.041603799909353256,
				0.041603799909353256,
				0.041603799909353256
			],
			"translation":[
				0.09363400191068649,
				0.28807350993156433,
				0.03433198854327202
			]
		},
		{
			"mesh":1,
			"name":"Flower.004",
			"rotation":[
				-0.20672953128814697,
				-0.3611869215965271,
				-0.20809465646743774,
				0.8851573467254639
			],
			"scale":[
				0.0460631400346756,
				0.0460631437599659,
				0.0460631363093853
			],
			"translation":[
				0.07291918992996216,
				0.25794166326522827,
				-0.06316496431827545
			]
		},
		{
			"mesh":1,
			"name":"Flower.005",
			"rotation":[
				0.1679815948009491,
				0.7904118895530701,
				0.11333339661359787,
				0.5780890583992004
			],
			"scale":[
				0.0460631437599659,
				0.043744467198848724,
				0.0460631363093853
			],
			"translation":[
				0.03680142015218735,
				0.24605640769004822,
				0.08207416534423828
			]
		},
		{
			"mesh":2,
			"name":"Vase"
		}
	],
	"meshes":[
		{
			"name":"Icosphere.002",
			"primitives":[
				{
					"attributes":{
						"POSITION":0,
						"NORMAL":1,
						"TEXCOORD_0":2,
						"COLOR_0":3
					},
					"indices":4
				}
			]
		},
		{
			"name":"Icosphere.004",
			"primitives":[
				{
					"attributes":{
						"POSITION":5,
						"NORMAL":6,
						"TEXCOORD_0":7,
						"COLOR_0":8
					},
					"indices":9
				}
			]
		},
		{
			"name":"Cylinder.004",
			"primitives":[
				{
					"attributes":{
						"POSITION":10,
						"NORMAL":11,
						"TEXCOORD_0":12,
						"COLOR_0":13
					},
					"indices":14
				}
			]
		}
	],
	"accessors":[
		{
			"bufferView":0,
			"componentType":5126,
			"count":60,
			"max":[
				1.2104294300079346,
				0.5093428492546082,
				1.239359974861145
			],
			"min":[
				-1.5550485849380493,
				-6.470666408538818,
				-1.4053019285202026
			],
			"type":"VEC3"
		},
		{
			"bufferView":1,
			"componentType":5126,
			"count":60,
			"type":"VEC3"
		},
		{
			"bufferView":2,
			"componentType":5126,
			"count":60,
			"type":"VEC2"
		},
		{
			"bufferView":3,
			"componentType":5123,
			"count":60,
			"normalized":true,
			"type":"VEC4"
		},
		{
			"bufferView":4,
			"componentType":5123,
			"count":108,
			"type":"SCALAR"
		},
		{
			"bufferView":5,
			"componentType":5126,
			"count":55,
			"max":[
				1.4051313400268555,
				-0.09059160947799683,
				1.2187646627426147
			],
			"min":[
				-1.120142936706543,
				-5.823235511779785,
				-2.482651710510254
			],
			"type":"VEC3"
		},
		{
			"bufferView":6,
			"componentType":5126,
			"count":55,
			"type":"VEC3"
		},
		{
			"bufferView":7,
			"componentType":5126,
			"count":55,
			"type":"VEC2"
		},
		{
			"bufferView":8,
			"componentType":5123,
			"count":55,
			"normalized":true,
			"type":"VEC4"
		},
		{
			"bufferView":9,
			"componentType":5123,
			"count":99,
			"type":"SCALAR"
		},
		{
			"bufferView":10,
			"componentType":5126,
			"count":156,
			"max":[
				0.06437224894762039,
				0.14981594681739807,
				0.0643722340464592
			],
			"min":[
				-0.064372219145298,
				0.005348719656467438,
				-0.0643722340464592
			],
			"type":"VEC3"
		},
		{
			"bufferView":11,
			"componentType":5126,
			"count":156,
			"type":"VEC3"
		},
		{
			"bufferView":12,
			"componentType":5126,
			"count":156,
			"type":"VEC2"
		},
		{
			"bufferView":13,
			"componentType":5123,
			"count":156,
			"normalized":true,
			"type":"VEC4"
		},
		{
			"bufferView":14,
			"componentType":5123,
			"count":708,
			"type":"SCALAR"
		}
	],
	"bufferViews":[
		{
			"buffer":0,
			"byteLength":720,
			"byteOffset":0,
			"target":34962
		},
		{
			"buffer":0,
			"byteLength":720,
			"byteOffset":720,
			"target":34962
		},
		{
			"buffer":0,
			"byteLength":480,
			"byteOffset":1440,
			"target":34962
		},
		{
			"buffer":0,
			"byteLength":480,
			"byteOffset":1920,
			"target":34962
		},
		{
			"buffer":0,
			"byteLength":216,
			"byteOffset":2400,
			"target":34963
		},
		{
			"buffer":0,
			"byteLength":660,
			"byteOffset":2616,
			"target":34962
		},
		{
			"buffer":0,
			"byteLength":660,
			"byteOffset":3276,
			"target":34962
		},
		{
			"buffer":0,
			"byteLength":440,
			"byteOffset":3936,
			"target":34962
		},
		{
			"buffer":0,
			"byteLength":440,
			"byteOffset":4376,
			"target":34962
		},
		{
			"buffer":0,
			"byteLength":198,
			"byteOffset":4816,
			"target":34963
		},
		{
			"buffer":0,
			"byteLength":1872,
			"byteOffset":5016,
			"target":34962
		},
		{
			"buffer":0,
			"byteLength":1872,
			"byteOffset":6888,
			"target":34962
		},
		{
			"buffer":0,
			"byteLength":1248,
			"byteOffset":8760,
			"target":34962
		},
		{
			"buffer":0,
			"byteLength":1248,
			"byteOffset":10008,
			"target":34962
		},
		{
			"buffer":0,
			"byteLength":1416,
			"byteOffset":11256,
			"target":34963
		}
	],
	"buffers":[
		{
			"byteLength":12672,
			"uri":"flower1.bin"
		}
	]
}
