{
	"asset":{
		"generator":"Khronos glTF Blender I/O v5.0.21",
		"version":"2.0"
	},
	"scene":0,
	"scenes":[
		{
			"name":"flowers",
			"nodes":[
				0,
				1
			]
		}
	],
	"nodes":[
		{
			"mesh":0,
			"name":"Flower.004",
			"translation":[
				0.14076541364192963,
				0.4884934425354004,
				-0.12193556129932404
			]
		},
		{
			"mesh":1,
			"name":"Vase",
			"translation":[
				0,
				-0.00944497250020504,
				0
			]
		}
	],
	"materials":[
		{
			"doubleSided":true,
			"name":"props",
			"pbrMetallicRoughness":{
				"metallicFactor":0,
				"roughnessFactor":0.5
			}
		}
	],
	"meshes":[
		{
			"name":"Icosphere.004",
			"primitives":[
				{
					"attributes":{
						"POSITION":0,
						"NORMAL":1,
						"TEXCOORD_0":2,
						"COLOR_0":3
					},
					"indices":4,
					"material":0
				}
			]
		},
		{
			"name":"Cylinder.004",
			"primitives":[
				{
					"attributes":{
						"POSITION":5,
						"NORMAL":6,
						"TEXCOORD_0":7,
						"COLOR_0":8
					},
					"indices":9,
					"material":0
				}
			]
		}
	],
	"accessors":[
		{
			"bufferView":0,
			"componentType":5126,
			"count":1386,
			"max":[
				0.10595212131738663,
				0.10789377987384796,
				0.3449276089668274
			],
			"min":[
				-0.33644193410873413,
				-0.4788397550582886,
				-0.10539502650499344
			],
			"type":"VEC3"
		},
		{
			"bufferView":1,
			"componentType":5126,
			"count":1386,
			"type":"VEC3"
		},
		{
			"bufferView":2,
			"componentType":5126,
			"count":1386,
			"type":"VEC2"
		},
		{
			"bufferView":3,
			"componentType":5126,
			"count":1386,
			"type":"VEC3"
		},
		{
			"bufferView":4,
			"componentType":5123,
			"count":6300,
			"type":"SCALAR"
		},
		{
			"bufferView":5,
			"componentType":5126,
			"count":192,
			"max":[
				0.1242661401629448,
				0.289209246635437,
				0.1242661103606224
			],
			"min":[
				-0.12426608055830002,
				0.010325330309569836,
				-0.1242661103606224
			],
			"type":"VEC3"
		},
		{
			"bufferView":6,
			"componentType":5126,
			"count":192,
			"type":"VEC3"
		},
		{
			"bufferView":7,
			"componentType":5126,
			"count":192,
			"type":"VEC2"
		},
		{
			"bufferView":8,
			"componentType":5126,
			"count":192,
			"type":"VEC3"
		},
		{
			"bufferView":9,
			"componentType":5123,
			"count":924,
			"type":"SCALAR"
		}
	],
	"bufferViews":[
		{
			"buffer":0,
			"byteLength":16632,
			"byteOffset":0,
			"target":34962
		},
		{
			"buffer":0,
			"byteLength":16632,
			"byteOffset":16632,
			"target":34962
		},
		{
			"buffer":0,
			"byteLength":11088,
			"byteOffset":33264,
			"target":34962
		},
		{
			"buffer":0,
			"byteLength":16632,
			"byteOffset":44352,
			"target":34962
		},
		{
			"buffer":0,
			"byteLength":12600,
			"byteOffset":60984,
			"target":34963
		},
		{
			"buffer":0,
			"byteLength":2304,
			"byteOffset":73584,
			"target":34962
		},
		{
			"buffer":0,
			"byteLength":2304,
			"byteOffset":75888,
			"target":34962
		},
		{
			"buffer":0,
			"byteLength":1536,
			"byteOffset":78192,
			"target":34962
		},
		{
			"buffer":0,
			"byteLength":2304,
			"byteOffset":79728,
			"target":34962
		},
		{
			"buffer":0,
			"byteLength":1848,
			"byteOffset":82032,
			"target":34963
		}
	],
	"buffers":[
		{
			"byteLength":83880,
			"uri":"flower1.bin"
		}
	]
}
