{
	"asset":{
		"generator":"Khronos glTF Blender I/O v5.1.8",
		"version":"2.0"
	},
	"scene":0,
	"scenes":[
		{
			"name":"frame_achievement_covered",
			"nodes":[
				0,
				1
			]
		}
	],
	"nodes":[
		{
			"mesh":0,
			"name":"Plane.009",
			"rotation":[
				0,
				-1,
				0,
				1.6292068494294654e-07
			]
		},
		{
			"mesh":1,
			"name":"Plane.010",
			"rotation":[
				0.7071068286895752,
				0,
				0,
				0.7071068286895752
			],
			"translation":[
				0,
				0,
				0.12522388994693756
			]
		}
	],
	"materials":[
		{
			"doubleSided":true,
			"name":"vertex_colors",
			"pbrMetallicRoughness":{
				"metallicFactor":0,
				"roughnessFactor":0.5
			}
		},
		{
			"doubleSided":true,
			"name":"picture",
			"pbrMetallicRoughness":{
				"baseColorFactor":[
					0.800000011920929,
					0.800000011920929,
					0.800000011920929,
					1
				],
				"metallicFactor":0,
				"roughnessFactor":0.5
			}
		},
		{
			"doubleSided":true,
			"name":"Material",
			"pbrMetallicRoughness":{
				"baseColorTexture":{
					"index":0
				},
				"metallicFactor":0,
				"roughnessFactor":0.5
			}
		}
	],
	"meshes":[
		{
			"name":"Plane.006",
			"primitives":[
				{
					"attributes":{
						"POSITION":0,
						"NORMAL":1,
						"TEXCOORD_0":2,
						"COLOR_0":3
					},
					"indices":4,
					"material":0
				},
				{
					"attributes":{
						"POSITION":5,
						"NORMAL":6,
						"TEXCOORD_0":7,
						"COLOR_0":8
					},
					"indices":9,
					"material":1
				}
			]
		},
		{
			"name":"Plane.007",
			"primitives":[
				{
					"attributes":{
						"POSITION":10,
						"NORMAL":11,
						"TEXCOORD_0":12
					},
					"indices":13,
					"material":2
				}
			]
		}
	],
	"textures":[
		{
			"sampler":0,
			"source":0
		}
	],
	"images":[
		{
			"mimeType":"image/png",
			"name":"painting_cloth",
			"uri":"painting_cloth.png"
		}
	],
	"accessors":[
		{
			"bufferView":0,
			"componentType":5126,
			"count":88,
			"max":[
				1.1664769649505615,
				1.0834192037582397,
				-5.934964519838104e-08
			],
			"min":[
				-1.1664769649505615,
				-1.0834192037582397,
				-0.04833023250102997
			],
			"type":"VEC3"
		},
		{
			"bufferView":1,
			"componentType":5126,
			"count":88,
			"type":"VEC3"
		},
		{
			"bufferView":2,
			"componentType":5126,
			"count":88,
			"type":"VEC2"
		},
		{
			"bufferView":3,
			"componentType":5126,
			"count":88,
			"type":"VEC3"
		},
		{
			"bufferView":4,
			"componentType":5123,
			"count":192,
			"type":"SCALAR"
		},
		{
			"bufferView":5,
			"componentType":5126,
			"count":8,
			"max":[
				0.9915586113929749,
				0.9217419624328613,
				-0.02087794803082943
			],
			"min":[
				-0.9915586113929749,
				-0.9217419624328613,
				-0.0208781436085701
			],
			"type":"VEC3"
		},
		{
			"bufferView":6,
			"componentType":5126,
			"count":8,
			"type":"VEC3"
		},
		{
			"bufferView":7,
			"componentType":5126,
			"count":8,
			"type":"VEC2"
		},
		{
			"bufferView":8,
			"componentType":5126,
			"count":8,
			"type":"VEC3"
		},
		{
			"bufferView":9,
			"componentType":5123,
			"count":18,
			"type":"SCALAR"
		},
		{
			"bufferView":10,
			"componentType":5126,
			"count":380,
			"max":[
				1.2883203029632568,
				0.23175935447216034,
				1.2520301342010498
			],
			"min":[
				-1.3159961700439453,
				-0.2127903550863266,
				-1.129164218902588
			],
			"type":"VEC3"
		},
		{
			"bufferView":11,
			"componentType":5126,
			"count":380,
			"type":"VEC3"
		},
		{
			"bufferView":12,
			"componentType":5126,
			"count":380,
			"type":"VEC2"
		},
		{
			"bufferView":13,
			"componentType":5123,
			"count":1416,
			"type":"SCALAR"
		}
	],
	"bufferViews":[
		{
			"buffer":0,
			"byteLength":1056,
			"byteOffset":0,
			"target":34962
		},
		{
			"buffer":0,
			"byteLength":1056,
			"byteOffset":1056,
			"target":34962
		},
		{
			"buffer":0,
			"byteLength":704,
			"byteOffset":2112,
			"target":34962
		},
		{
			"buffer":0,
			"byteLength":1056,
			"byteOffset":2816,
			"target":34962
		},
		{
			"buffer":0,
			"byteLength":384,
			"byteOffset":3872,
			"target":34963
		},
		{
			"buffer":0,
			"byteLength":96,
			"byteOffset":4256,
			"target":34962
		},
		{
			"buffer":0,
			"byteLength":96,
			"byteOffset":4352,
			"target":34962
		},
		{
			"buffer":0,
			"byteLength":64,
			"byteOffset":4448,
			"target":34962
		},
		{
			"buffer":0,
			"byteLength":96,
			"byteOffset":4512,
			"target":34962
		},
		{
			"buffer":0,
			"byteLength":36,
			"byteOffset":4608,
			"target":34963
		},
		{
			"buffer":0,
			"byteLength":4560,
			"byteOffset":4644,
			"target":34962
		},
		{
			"buffer":0,
			"byteLength":4560,
			"byteOffset":9204,
			"target":34962
		},
		{
			"buffer":0,
			"byteLength":3040,
			"byteOffset":13764,
			"target":34962
		},
		{
			"buffer":0,
			"byteLength":2832,
			"byteOffset":16804,
			"target":34963
		}
	],
	"samplers":[
		{
			"magFilter":9729,
			"minFilter":9987
		}
	],
	"buffers":[
		{
			"byteLength":19636,
			"uri":"frame_achievement_covered.bin"
		}
	]
}
