{
	"asset":{
		"generator":"Khronos glTF Blender I/O v5.0.21",
		"version":"2.0"
	},
	"scene":0,
	"scenes":[
		{
			"name":"garden_table",
			"nodes":[
				0,
				1,
				2,
				3,
				4
			]
		}
	],
	"nodes":[
		{
			"mesh":0,
			"name":"Cube.010",
			"translation":[
				0,
				0.9178050756454468,
				0
			]
		},
		{
			"mesh":1,
			"name":"Cube.012",
			"rotation":[
				0,
				-0.9183387160301208,
				0,
				0.39579540491104126
			],
			"translation":[
				-0.2669880986213684,
				0.7578219771385193,
				-0.26784324645996094
			]
		},
		{
			"mesh":1,
			"name":"Cube.013",
			"rotation":[
				0,
				0.9225252270698547,
				0,
				0.3859367370605469
			],
			"translation":[
				0.2859894037246704,
				0.7578219771385193,
				-0.2545795440673828
			]
		},
		{
			"mesh":1,
			"name":"Cube.011",
			"rotation":[
				0,
				0.39579546451568604,
				0,
				0.9183387160301208
			],
			"translation":[
				0.2859894037246704,
				0.7578219771385193,
				0.2802910804748535
			]
		},
		{
			"mesh":1,
			"name":"Cube.014",
			"rotation":[
				0,
				-0.3859367072582245,
				0,
				0.9225252866744995
			],
			"translation":[
				-0.2669880986213684,
				0.7578219771385193,
				0.2670273780822754
			]
		}
	],
	"materials":[
		{
			"doubleSided":true,
			"name":"Material.005",
			"pbrMetallicRoughness":{
				"metallicFactor":0,
				"roughnessFactor":0.5
			}
		}
	],
	"meshes":[
		{
			"name":"Cube.014",
			"primitives":[
				{
					"attributes":{
						"POSITION":0,
						"NORMAL":1,
						"TEXCOORD_0":2,
						"COLOR_0":3
					},
					"indices":4,
					"material":0
				}
			]
		},
		{
			"name":"Cube.018",
			"primitives":[
				{
					"attributes":{
						"POSITION":5,
						"NORMAL":6,
						"TEXCOORD_0":7,
						"COLOR_0":8
					},
					"indices":9,
					"material":0
				}
			]
		}
	],
	"accessors":[
		{
			"bufferView":0,
			"componentType":5126,
			"count":117,
			"max":[
				0.48110923171043396,
				0.06409335136413574,
				0.4811093211174011
			],
			"min":[
				-0.48110923171043396,
				-0.06409335136413574,
				-0.4811091125011444
			],
			"type":"VEC3"
		},
		{
			"bufferView":1,
			"componentType":5126,
			"count":117,
			"type":"VEC3"
		},
		{
			"bufferView":2,
			"componentType":5126,
			"count":117,
			"type":"VEC2"
		},
		{
			"bufferView":3,
			"componentType":5126,
			"count":117,
			"type":"VEC3"
		},
		{
			"bufferView":4,
			"componentType":5123,
			"count":504,
			"type":"SCALAR"
		},
		{
			"bufferView":5,
			"componentType":5126,
			"count":26,
			"max":[
				0.04507902264595032,
				0.09328696131706238,
				0.17266184091567993
			],
			"min":[
				-0.045079052448272705,
				-0.7276023626327515,
				-0.06099134683609009
			],
			"type":"VEC3"
		},
		{
			"bufferView":6,
			"componentType":5126,
			"count":26,
			"type":"VEC3"
		},
		{
			"bufferView":7,
			"componentType":5126,
			"count":26,
			"type":"VEC2"
		},
		{
			"bufferView":8,
			"componentType":5126,
			"count":26,
			"type":"VEC3"
		},
		{
			"bufferView":9,
			"componentType":5123,
			"count":72,
			"type":"SCALAR"
		}
	],
	"bufferViews":[
		{
			"buffer":0,
			"byteLength":1404,
			"byteOffset":0,
			"target":34962
		},
		{
			"buffer":0,
			"byteLength":1404,
			"byteOffset":1404,
			"target":34962
		},
		{
			"buffer":0,
			"byteLength":936,
			"byteOffset":2808,
			"target":34962
		},
		{
			"buffer":0,
			"byteLength":1404,
			"byteOffset":3744,
			"target":34962
		},
		{
			"buffer":0,
			"byteLength":1008,
			"byteOffset":5148,
			"target":34963
		},
		{
			"buffer":0,
			"byteLength":312,
			"byteOffset":6156,
			"target":34962
		},
		{
			"buffer":0,
			"byteLength":312,
			"byteOffset":6468,
			"target":34962
		},
		{
			"buffer":0,
			"byteLength":208,
			"byteOffset":6780,
			"target":34962
		},
		{
			"buffer":0,
			"byteLength":312,
			"byteOffset":6988,
			"target":34962
		},
		{
			"buffer":0,
			"byteLength":144,
			"byteOffset":7300,
			"target":34963
		}
	],
	"buffers":[
		{
			"byteLength":7444,
			"uri":"garden_table.bin"
		}
	]
}
