{
	"asset":{
		"generator":"Khronos glTF Blender I/O v5.0.21",
		"version":"2.0"
	},
	"scene":0,
	"scenes":[
		{
			"name":"garden_chair",
			"nodes":[
				0,
				1,
				2
			]
		}
	],
	"nodes":[
		{
			"mesh":0,
			"name":"Plane.001",
			"rotation":[
				0,
				-1,
				0,
				1.6292068494294654e-07
			],
			"translation":[
				0,
				0.3940882980823517,
				0
			]
		},
		{
			"mesh":1,
			"name":"Plane.002",
			"rotation":[
				0,
				-1,
				0,
				1.6292068494294654e-07
			],
			"translation":[
				0,
				0.3940882980823517,
				0
			]
		},
		{
			"mesh":2,
			"name":"Plane.003",
			"rotation":[
				0,
				-1,
				0,
				1.6292068494294654e-07
			],
			"translation":[
				0,
				0.3940882980823517,
				0
			]
		}
	],
	"materials":[
		{
			"doubleSided":true,
			"name":"vertex colors",
			"pbrMetallicRoughness":{
				"metallicFactor":0,
				"roughnessFactor":0.5
			}
		}
	],
	"meshes":[
		{
			"name":"Plane.001",
			"primitives":[
				{
					"attributes":{
						"POSITION":0,
						"NORMAL":1,
						"TEXCOORD_0":2,
						"COLOR_0":3
					},
					"indices":4,
					"material":0
				}
			]
		},
		{
			"name":"Plane.002",
			"primitives":[
				{
					"attributes":{
						"POSITION":5,
						"NORMAL":6,
						"COLOR_0":7
					},
					"indices":8,
					"material":0
				}
			]
		},
		{
			"name":"Plane.003",
			"primitives":[
				{
					"attributes":{
						"POSITION":9,
						"NORMAL":10,
						"TEXCOORD_0":11,
						"COLOR_0":12
					},
					"indices":13,
					"material":0
				}
			]
		}
	],
	"accessors":[
		{
			"bufferView":0,
			"componentType":5126,
			"count":44,
			"max":[
				0.49502554535865784,
				0.865178108215332,
				0.77939373254776
			],
			"min":[
				-0.49502554535865784,
				0,
				-0.4197714924812317
			],
			"type":"VEC3"
		},
		{
			"bufferView":1,
			"componentType":5126,
			"count":44,
			"type":"VEC3"
		},
		{
			"bufferView":2,
			"componentType":5126,
			"count":44,
			"type":"VEC2"
		},
		{
			"bufferView":3,
			"componentType":5126,
			"count":44,
			"type":"VEC3"
		},
		{
			"bufferView":4,
			"componentType":5123,
			"count":120,
			"type":"SCALAR"
		},
		{
			"bufferView":5,
			"componentType":5126,
			"count":882,
			"max":[
				0.5869892239570618,
				0.8733294010162354,
				0.843330979347229
			],
			"min":[
				-0.5869892239570618,
				-0.40448591113090515,
				-0.44735780358314514
			],
			"type":"VEC3"
		},
		{
			"bufferView":6,
			"componentType":5126,
			"count":882,
			"type":"VEC3"
		},
		{
			"bufferView":7,
			"componentType":5126,
			"count":882,
			"type":"VEC3"
		},
		{
			"bufferView":8,
			"componentType":5123,
			"count":1560,
			"type":"SCALAR"
		},
		{
			"bufferView":9,
			"componentType":5126,
			"count":48,
			"max":[
				0.6073715686798096,
				0.2358766496181488,
				0.33182621002197266
			],
			"min":[
				-0.6073715686798096,
				0.16966232657432556,
				-0.33182621002197266
			],
			"type":"VEC3"
		},
		{
			"bufferView":10,
			"componentType":5126,
			"count":48,
			"type":"VEC3"
		},
		{
			"bufferView":11,
			"componentType":5126,
			"count":48,
			"type":"VEC2"
		},
		{
			"bufferView":12,
			"componentType":5126,
			"count":48,
			"type":"VEC3"
		},
		{
			"bufferView":13,
			"componentType":5123,
			"count":72,
			"type":"SCALAR"
		}
	],
	"bufferViews":[
		{
			"buffer":0,
			"byteLength":528,
			"byteOffset":0,
			"target":34962
		},
		{
			"buffer":0,
			"byteLength":528,
			"byteOffset":528,
			"target":34962
		},
		{
			"buffer":0,
			"byteLength":352,
			"byteOffset":1056,
			"target":34962
		},
		{
			"buffer":0,
			"byteLength":528,
			"byteOffset":1408,
			"target":34962
		},
		{
			"buffer":0,
			"byteLength":240,
			"byteOffset":1936,
			"target":34963
		},
		{
			"buffer":0,
			"byteLength":10584,
			"byteOffset":2176,
			"target":34962
		},
		{
			"buffer":0,
			"byteLength":10584,
			"byteOffset":12760,
			"target":34962
		},
		{
			"buffer":0,
			"byteLength":10584,
			"byteOffset":23344,
			"target":34962
		},
		{
			"buffer":0,
			"byteLength":3120,
			"byteOffset":33928,
			"target":34963
		},
		{
			"buffer":0,
			"byteLength":576,
			"byteOffset":37048,
			"target":34962
		},
		{
			"buffer":0,
			"byteLength":576,
			"byteOffset":37624,
			"target":34962
		},
		{
			"buffer":0,
			"byteLength":384,
			"byteOffset":38200,
			"target":34962
		},
		{
			"buffer":0,
			"byteLength":576,
			"byteOffset":38584,
			"target":34962
		},
		{
			"buffer":0,
			"byteLength":144,
			"byteOffset":39160,
			"target":34963
		}
	],
	"buffers":[
		{
			"byteLength":39304,
			"uri":"garden_chair.bin"
		}
	]
}
