{
	"asset":{
		"generator":"Khronos glTF Blender I/O v5.0.21",
		"version":"2.0"
	},
	"scene":0,
	"scenes":[
		{
			"name":"lamp_standing1",
			"nodes":[
				0,
				1,
				2,
				3,
				4,
				5
			]
		}
	],
	"nodes":[
		{
			"mesh":0,
			"name":"Cube.019",
			"rotation":[
				0,
				-0.3826834261417389,
				0,
				0.9238795638084412
			],
			"scale":[
				0.007001563906669617,
				0.00700156157836318,
				0.007001563906669617
			],
			"translation":[
				0,
				0.1530112624168396,
				0
			]
		},
		{
			"mesh":1,
			"name":"Cube.020",
			"rotation":[
				0,
				-0.3826834261417389,
				0,
				0.9238795638084412
			],
			"scale":[
				0.0038019074127078056,
				0.0029734689742326736,
				0.0038019074127078056
			],
			"translation":[
				-0.07176144421100616,
				1.0763107538223267,
				0
			]
		},
		{
			"mesh":2,
			"name":"Cylinder.004"
		},
		{
			"mesh":3,
			"name":"Cylinder.005",
			"scale":[
				0.4997332692146301,
				0.6185232996940613,
				0.4997332692146301
			],
			"translation":[
				0,
				2.0551884174346924,
				0
			]
		},
		{
			"mesh":4,
			"name":"Cylinder.006",
			"scale":[
				0.4997332692146301,
				0.6185232996940613,
				0.4997332692146301
			],
			"translation":[
				0,
				2.0551884174346924,
				0
			]
		},
		{
			"mesh":5,
			"name":"Plane.004",
			"rotation":[
				-0.07264838367700577,
				0.17972250282764435,
				0.6701791882514954,
				0.7164369225502014
			],
			"translation":[
				-0.07909836620092392,
				1.0381273031234741,
				0.0003960186440963298
			]
		}
	],
	"meshes":[
		{
			"name":"Cube.005",
			"primitives":[
				{
					"attributes":{
						"POSITION":0,
						"NORMAL":1,
						"TEXCOORD_0":2,
						"COLOR_0":3
					},
					"indices":4
				}
			]
		},
		{
			"name":"Cube.015",
			"primitives":[
				{
					"attributes":{
						"POSITION":5,
						"NORMAL":6,
						"TEXCOORD_0":7,
						"COLOR_0":8
					},
					"indices":4
				}
			]
		},
		{
			"name":"Cylinder.007",
			"primitives":[
				{
					"attributes":{
						"POSITION":9,
						"NORMAL":10,
						"TEXCOORD_0":11,
						"COLOR_0":12
					},
					"indices":13
				}
			]
		},
		{
			"name":"Cylinder.009",
			"primitives":[
				{
					"attributes":{
						"POSITION":14,
						"NORMAL":15,
						"TEXCOORD_0":16,
						"COLOR_0":17
					},
					"indices":18
				}
			]
		},
		{
			"name":"Cylinder.010",
			"primitives":[
				{
					"attributes":{
						"POSITION":19,
						"NORMAL":20,
						"TEXCOORD_0":21,
						"COLOR_0":22
					},
					"indices":23
				}
			]
		},
		{
			"name":"Plane.004",
			"primitives":[
				{
					"attributes":{
						"POSITION":24,
						"NORMAL":25,
						"COLOR_0":26
					},
					"indices":27
				}
			]
		}
	],
	"accessors":[
		{
			"bufferView":0,
			"componentType":5126,
			"count":16,
			"max":[
				1.3207106590270996,
				199.44151306152344,
				1.3207106590270996
			],
			"min":[
				-1.3207106590270996,
				-1,
				-1.3207106590270996
			],
			"type":"VEC3"
		},
		{
			"bufferView":1,
			"componentType":5126,
			"count":16,
			"type":"VEC3"
		},
		{
			"bufferView":2,
			"componentType":5126,
			"count":16,
			"type":"VEC2"
		},
		{
			"bufferView":3,
			"componentType":5123,
			"count":16,
			"normalized":true,
			"type":"VEC4"
		},
		{
			"bufferView":4,
			"componentType":5123,
			"count":24,
			"type":"SCALAR"
		},
		{
			"bufferView":5,
			"componentType":5126,
			"count":16,
			"max":[
				1.3207106590270996,
				199.44151306152344,
				1.3207106590270996
			],
			"min":[
				-1.3207106590270996,
				-1,
				-1.3207106590270996
			],
			"type":"VEC3"
		},
		{
			"bufferView":6,
			"componentType":5126,
			"count":16,
			"type":"VEC3"
		},
		{
			"bufferView":7,
			"componentType":5126,
			"count":16,
			"type":"VEC2"
		},
		{
			"bufferView":8,
			"componentType":5123,
			"count":16,
			"normalized":true,
			"type":"VEC4"
		},
		{
			"bufferView":9,
			"componentType":5126,
			"count":288,
			"max":[
				0.2049255073070526,
				0.21227534115314484,
				0.20492546260356903
			],
			"min":[
				-0.2049255073070526,
				-0.019745290279388428,
				-0.2049255073070526
			],
			"type":"VEC3"
		},
		{
			"bufferView":10,
			"componentType":5126,
			"count":288,
			"type":"VEC3"
		},
		{
			"bufferView":11,
			"componentType":5126,
			"count":288,
			"type":"VEC2"
		},
		{
			"bufferView":12,
			"componentType":5123,
			"count":288,
			"normalized":true,
			"type":"VEC4"
		},
		{
			"bufferView":13,
			"componentType":5123,
			"count":906,
			"type":"SCALAR"
		},
		{
			"bufferView":14,
			"componentType":5126,
			"count":200,
			"max":[
				0.4382578432559967,
				-0.43507063388824463,
				0.5060566067695618
			],
			"min":[
				-0.4382578432559967,
				-1.0219812393188477,
				-0.5060566067695618
			],
			"type":"VEC3"
		},
		{
			"bufferView":15,
			"componentType":5126,
			"count":200,
			"type":"VEC3"
		},
		{
			"bufferView":16,
			"componentType":5126,
			"count":200,
			"type":"VEC2"
		},
		{
			"bufferView":17,
			"componentType":5123,
			"count":200,
			"normalized":true,
			"type":"VEC4"
		},
		{
			"bufferView":18,
			"componentType":5123,
			"count":432,
			"type":"SCALAR"
		},
		{
			"bufferView":19,
			"componentType":5126,
			"count":76,
			"max":[
				0.4382578432559967,
				-1.0219812393188477,
				0.5060566067695618
			],
			"min":[
				-0.4382578432559967,
				-1.1399271488189697,
				-0.5060566067695618
			],
			"type":"VEC3"
		},
		{
			"bufferView":20,
			"componentType":5126,
			"count":76,
			"type":"VEC3"
		},
		{
			"bufferView":21,
			"componentType":5126,
			"count":76,
			"type":"VEC2"
		},
		{
			"bufferView":22,
			"componentType":5123,
			"count":76,
			"normalized":true,
			"type":"VEC4"
		},
		{
			"bufferView":23,
			"componentType":5123,
			"count":144,
			"type":"SCALAR"
		},
		{
			"bufferView":24,
			"componentType":5126,
			"count":208,
			"max":[
				0.043274082243442535,
				0.018046997487545013,
				0.028126850724220276
			],
			"min":[
				-0.0483243390917778,
				-0.029751628637313843,
				-0.0458429753780365
			],
			"type":"VEC3"
		},
		{
			"bufferView":25,
			"componentType":5126,
			"count":208,
			"type":"VEC3"
		},
		{
			"bufferView":26,
			"componentType":5123,
			"count":208,
			"normalized":true,
			"type":"VEC4"
		},
		{
			"bufferView":27,
			"componentType":5123,
			"count":1200,
			"type":"SCALAR"
		}
	],
	"bufferViews":[
		{
			"buffer":0,
			"byteLength":192,
			"byteOffset":0,
			"target":34962
		},
		{
			"buffer":0,
			"byteLength":192,
			"byteOffset":192,
			"target":34962
		},
		{
			"buffer":0,
			"byteLength":128,
			"byteOffset":384,
			"target":34962
		},
		{
			"buffer":0,
			"byteLength":128,
			"byteOffset":512,
			"target":34962
		},
		{
			"buffer":0,
			"byteLength":48,
			"byteOffset":640,
			"target":34963
		},
		{
			"buffer":0,
			"byteLength":192,
			"byteOffset":688,
			"target":34962
		},
		{
			"buffer":0,
			"byteLength":192,
			"byteOffset":880,
			"target":34962
		},
		{
			"buffer":0,
			"byteLength":128,
			"byteOffset":1072,
			"target":34962
		},
		{
			"buffer":0,
			"byteLength":128,
			"byteOffset":1200,
			"target":34962
		},
		{
			"buffer":0,
			"byteLength":3456,
			"byteOffset":1328,
			"target":34962
		},
		{
			"buffer":0,
			"byteLength":3456,
			"byteOffset":4784,
			"target":34962
		},
		{
			"buffer":0,
			"byteLength":2304,
			"byteOffset":8240,
			"target":34962
		},
		{
			"buffer":0,
			"byteLength":2304,
			"byteOffset":10544,
			"target":34962
		},
		{
			"buffer":0,
			"byteLength":1812,
			"byteOffset":12848,
			"target":34963
		},
		{
			"buffer":0,
			"byteLength":2400,
			"byteOffset":14660,
			"target":34962
		},
		{
			"buffer":0,
			"byteLength":2400,
			"byteOffset":17060,
			"target":34962
		},
		{
			"buffer":0,
			"byteLength":1600,
			"byteOffset":19460,
			"target":34962
		},
		{
			"buffer":0,
			"byteLength":1600,
			"byteOffset":21060,
			"target":34962
		},
		{
			"buffer":0,
			"byteLength":864,
			"byteOffset":22660,
			"target":34963
		},
		{
			"buffer":0,
			"byteLength":912,
			"byteOffset":23524,
			"target":34962
		},
		{
			"buffer":0,
			"byteLength":912,
			"byteOffset":24436,
			"target":34962
		},
		{
			"buffer":0,
			"byteLength":608,
			"byteOffset":25348,
			"target":34962
		},
		{
			"buffer":0,
			"byteLength":608,
			"byteOffset":25956,
			"target":34962
		},
		{
			"buffer":0,
			"byteLength":288,
			"byteOffset":26564,
			"target":34963
		},
		{
			"buffer":0,
			"byteLength":2496,
			"byteOffset":26852,
			"target":34962
		},
		{
			"buffer":0,
			"byteLength":2496,
			"byteOffset":29348,
			"target":34962
		},
		{
			"buffer":0,
			"byteLength":1664,
			"byteOffset":31844,
			"target":34962
		},
		{
			"buffer":0,
			"byteLength":2400,
			"byteOffset":33508,
			"target":34963
		}
	],
	"buffers":[
		{
			"byteLength":35908,
			"uri":"lamp_standing1.bin"
		}
	]
}
