{
	"asset":{
		"generator":"Khronos glTF Blender I/O v5.0.21",
		"version":"2.0"
	},
	"scene":0,
	"scenes":[
		{
			"name":"lamp_standing1",
			"nodes":[
				0,
				1,
				2,
				3,
				4,
				5
			]
		}
	],
	"nodes":[
		{
			"mesh":0,
			"name":"Cube.020",
			"rotation":[
				0,
				-0.3826834261417389,
				0,
				0.9238795638084412
			],
			"scale":[
				0.0038019074127078056,
				0.0029734689742326736,
				0.0038019074127078056
			],
			"translation":[
				-0.07176144421100616,
				1.0763107538223267,
				0
			]
		},
		{
			"mesh":1,
			"name":"Cylinder.004"
		},
		{
			"mesh":2,
			"name":"Cylinder.005",
			"scale":[
				0.4997332692146301,
				0.6185232996940613,
				0.4997332692146301
			],
			"translation":[
				0,
				2.0551884174346924,
				0
			]
		},
		{
			"mesh":3,
			"name":"Cylinder.006",
			"scale":[
				0.4997332692146301,
				0.6185232996940613,
				0.4997332692146301
			],
			"translation":[
				0,
				2.0551884174346924,
				0
			]
		},
		{
			"mesh":4,
			"name":"Plane.004",
			"rotation":[
				-0.07264838367700577,
				0.17972250282764435,
				0.6701791882514954,
				0.7164369225502014
			],
			"translation":[
				-0.07909836620092392,
				1.0381273031234741,
				0.0003960186440963298
			]
		},
		{
			"mesh":5,
			"name":"Cube.019",
			"rotation":[
				0,
				-0.3826834261417389,
				0,
				0.9238795638084412
			],
			"scale":[
				0.007001563906669617,
				0.00700156157836318,
				0.007001563906669617
			],
			"translation":[
				0,
				0.1530112624168396,
				0
			]
		}
	],
	"materials":[
		{
			"doubleSided":true,
			"name":"lamp",
			"pbrMetallicRoughness":{
				"metallicFactor":0,
				"roughnessFactor":0.5
			}
		}
	],
	"meshes":[
		{
			"name":"Cube.015",
			"primitives":[
				{
					"attributes":{
						"POSITION":0,
						"NORMAL":1,
						"TEXCOORD_0":2,
						"COLOR_0":3
					},
					"indices":4,
					"material":0
				}
			]
		},
		{
			"name":"Cylinder.007",
			"primitives":[
				{
					"attributes":{
						"POSITION":5,
						"NORMAL":6,
						"TEXCOORD_0":7,
						"COLOR_0":8
					},
					"indices":9,
					"material":0
				}
			]
		},
		{
			"name":"Cylinder.009",
			"primitives":[
				{
					"attributes":{
						"POSITION":10,
						"NORMAL":11,
						"TEXCOORD_0":12,
						"COLOR_0":13
					},
					"indices":14,
					"material":0
				}
			]
		},
		{
			"name":"Cylinder.010",
			"primitives":[
				{
					"attributes":{
						"POSITION":15,
						"NORMAL":16,
						"TEXCOORD_0":17,
						"COLOR_0":18
					},
					"indices":19,
					"material":0
				}
			]
		},
		{
			"name":"Plane.004",
			"primitives":[
				{
					"attributes":{
						"POSITION":20,
						"NORMAL":21,
						"COLOR_0":22
					},
					"indices":23,
					"material":0
				}
			]
		},
		{
			"name":"Cube.005",
			"primitives":[
				{
					"attributes":{
						"POSITION":24,
						"NORMAL":25,
						"TEXCOORD_0":26,
						"COLOR_0":27
					},
					"indices":4,
					"material":0
				}
			]
		}
	],
	"accessors":[
		{
			"bufferView":0,
			"componentType":5126,
			"count":16,
			"max":[
				1.3207106590270996,
				199.44151306152344,
				1.3207106590270996
			],
			"min":[
				-1.3207106590270996,
				-1,
				-1.3207106590270996
			],
			"type":"VEC3"
		},
		{
			"bufferView":1,
			"componentType":5126,
			"count":16,
			"type":"VEC3"
		},
		{
			"bufferView":2,
			"componentType":5126,
			"count":16,
			"type":"VEC2"
		},
		{
			"bufferView":3,
			"componentType":5126,
			"count":16,
			"type":"VEC3"
		},
		{
			"bufferView":4,
			"componentType":5123,
			"count":24,
			"type":"SCALAR"
		},
		{
			"bufferView":5,
			"componentType":5126,
			"count":237,
			"max":[
				0.2049255073070526,
				0.21227534115314484,
				0.20492546260356903
			],
			"min":[
				-0.2049255073070526,
				-0.019745290279388428,
				-0.2049255073070526
			],
			"type":"VEC3"
		},
		{
			"bufferView":6,
			"componentType":5126,
			"count":237,
			"type":"VEC3"
		},
		{
			"bufferView":7,
			"componentType":5126,
			"count":237,
			"type":"VEC2"
		},
		{
			"bufferView":8,
			"componentType":5126,
			"count":237,
			"type":"VEC3"
		},
		{
			"bufferView":9,
			"componentType":5123,
			"count":1044,
			"type":"SCALAR"
		},
		{
			"bufferView":10,
			"componentType":5126,
			"count":200,
			"max":[
				0.4382578432559967,
				-0.43507063388824463,
				0.5060566067695618
			],
			"min":[
				-0.4382578432559967,
				-1.0219812393188477,
				-0.5060566067695618
			],
			"type":"VEC3"
		},
		{
			"bufferView":11,
			"componentType":5126,
			"count":200,
			"type":"VEC3"
		},
		{
			"bufferView":12,
			"componentType":5126,
			"count":200,
			"type":"VEC2"
		},
		{
			"bufferView":13,
			"componentType":5126,
			"count":200,
			"type":"VEC3"
		},
		{
			"bufferView":14,
			"componentType":5123,
			"count":432,
			"type":"SCALAR"
		},
		{
			"bufferView":15,
			"componentType":5126,
			"count":76,
			"max":[
				0.4382578432559967,
				-1.0219812393188477,
				0.5060566067695618
			],
			"min":[
				-0.4382578432559967,
				-1.1399271488189697,
				-0.5060566067695618
			],
			"type":"VEC3"
		},
		{
			"bufferView":16,
			"componentType":5126,
			"count":76,
			"type":"VEC3"
		},
		{
			"bufferView":17,
			"componentType":5126,
			"count":76,
			"type":"VEC2"
		},
		{
			"bufferView":18,
			"componentType":5126,
			"count":76,
			"type":"VEC3"
		},
		{
			"bufferView":19,
			"componentType":5123,
			"count":144,
			"type":"SCALAR"
		},
		{
			"bufferView":20,
			"componentType":5126,
			"count":208,
			"max":[
				0.043274082243442535,
				0.018046997487545013,
				0.028126850724220276
			],
			"min":[
				-0.0483243390917778,
				-0.029751628637313843,
				-0.0458429753780365
			],
			"type":"VEC3"
		},
		{
			"bufferView":21,
			"componentType":5126,
			"count":208,
			"type":"VEC3"
		},
		{
			"bufferView":22,
			"componentType":5126,
			"count":208,
			"type":"VEC3"
		},
		{
			"bufferView":23,
			"componentType":5123,
			"count":1200,
			"type":"SCALAR"
		},
		{
			"bufferView":24,
			"componentType":5126,
			"count":16,
			"max":[
				1.3207106590270996,
				199.44151306152344,
				1.3207106590270996
			],
			"min":[
				-1.3207106590270996,
				-1,
				-1.3207106590270996
			],
			"type":"VEC3"
		},
		{
			"bufferView":25,
			"componentType":5126,
			"count":16,
			"type":"VEC3"
		},
		{
			"bufferView":26,
			"componentType":5126,
			"count":16,
			"type":"VEC2"
		},
		{
			"bufferView":27,
			"componentType":5126,
			"count":16,
			"type":"VEC3"
		}
	],
	"bufferViews":[
		{
			"buffer":0,
			"byteLength":192,
			"byteOffset":0,
			"target":34962
		},
		{
			"buffer":0,
			"byteLength":192,
			"byteOffset":192,
			"target":34962
		},
		{
			"buffer":0,
			"byteLength":128,
			"byteOffset":384,
			"target":34962
		},
		{
			"buffer":0,
			"byteLength":192,
			"byteOffset":512,
			"target":34962
		},
		{
			"buffer":0,
			"byteLength":48,
			"byteOffset":704,
			"target":34963
		},
		{
			"buffer":0,
			"byteLength":2844,
			"byteOffset":752,
			"target":34962
		},
		{
			"buffer":0,
			"byteLength":2844,
			"byteOffset":3596,
			"target":34962
		},
		{
			"buffer":0,
			"byteLength":1896,
			"byteOffset":6440,
			"target":34962
		},
		{
			"buffer":0,
			"byteLength":2844,
			"byteOffset":8336,
			"target":34962
		},
		{
			"buffer":0,
			"byteLength":2088,
			"byteOffset":11180,
			"target":34963
		},
		{
			"buffer":0,
			"byteLength":2400,
			"byteOffset":13268,
			"target":34962
		},
		{
			"buffer":0,
			"byteLength":2400,
			"byteOffset":15668,
			"target":34962
		},
		{
			"buffer":0,
			"byteLength":1600,
			"byteOffset":18068,
			"target":34962
		},
		{
			"buffer":0,
			"byteLength":2400,
			"byteOffset":19668,
			"target":34962
		},
		{
			"buffer":0,
			"byteLength":864,
			"byteOffset":22068,
			"target":34963
		},
		{
			"buffer":0,
			"byteLength":912,
			"byteOffset":22932,
			"target":34962
		},
		{
			"buffer":0,
			"byteLength":912,
			"byteOffset":23844,
			"target":34962
		},
		{
			"buffer":0,
			"byteLength":608,
			"byteOffset":24756,
			"target":34962
		},
		{
			"buffer":0,
			"byteLength":912,
			"byteOffset":25364,
			"target":34962
		},
		{
			"buffer":0,
			"byteLength":288,
			"byteOffset":26276,
			"target":34963
		},
		{
			"buffer":0,
			"byteLength":2496,
			"byteOffset":26564,
			"target":34962
		},
		{
			"buffer":0,
			"byteLength":2496,
			"byteOffset":29060,
			"target":34962
		},
		{
			"buffer":0,
			"byteLength":2496,
			"byteOffset":31556,
			"target":34962
		},
		{
			"buffer":0,
			"byteLength":2400,
			"byteOffset":34052,
			"target":34963
		},
		{
			"buffer":0,
			"byteLength":192,
			"byteOffset":36452,
			"target":34962
		},
		{
			"buffer":0,
			"byteLength":192,
			"byteOffset":36644,
			"target":34962
		},
		{
			"buffer":0,
			"byteLength":128,
			"byteOffset":36836,
			"target":34962
		},
		{
			"buffer":0,
			"byteLength":192,
			"byteOffset":36964,
			"target":34962
		}
	],
	"buffers":[
		{
			"byteLength":37156,
			"uri":"lamp_standing1.bin"
		}
	]
}
