{
	"asset":{
		"generator":"Khronos glTF Blender I/O v5.0.21",
		"version":"2.0"
	},
	"scene":0,
	"scenes":[
		{
			"name":"lamp_table1",
			"nodes":[
				0,
				1
			]
		}
	],
	"nodes":[
		{
			"mesh":0,
			"name":"Cube.001",
			"scale":[
				0.7063642740249634,
				0.5909113883972168,
				0.3878934979438782
			]
		},
		{
			"mesh":1,
			"name":"Cube.003",
			"scale":[
				0.7063642740249634,
				0.5909113883972168,
				0.3878934979438782
			]
		}
	],
	"materials":[
		{
			"doubleSided":true,
			"name":"lamp",
			"pbrMetallicRoughness":{
				"metallicFactor":0,
				"roughnessFactor":0.5
			}
		}
	],
	"meshes":[
		{
			"name":"Cube.001",
			"primitives":[
				{
					"attributes":{
						"POSITION":0,
						"NORMAL":1,
						"TEXCOORD_0":2,
						"COLOR_0":3
					},
					"indices":4,
					"material":0
				}
			]
		},
		{
			"name":"Cube.002",
			"primitives":[
				{
					"attributes":{
						"POSITION":5,
						"NORMAL":6,
						"TEXCOORD_0":7,
						"COLOR_0":8
					},
					"indices":9,
					"material":0
				}
			]
		}
	],
	"accessors":[
		{
			"bufferView":0,
			"componentType":5126,
			"count":264,
			"max":[
				0.34241819381713867,
				0.6888582706451416,
				0.5591778755187988
			],
			"min":[
				-0.32129955291748047,
				0.02434573322534561,
				-0.5609340071678162
			],
			"type":"VEC3"
		},
		{
			"bufferView":1,
			"componentType":5126,
			"count":264,
			"type":"VEC3"
		},
		{
			"bufferView":2,
			"componentType":5126,
			"count":264,
			"type":"VEC2"
		},
		{
			"bufferView":3,
			"componentType":5126,
			"count":264,
			"type":"VEC3"
		},
		{
			"bufferView":4,
			"componentType":5123,
			"count":504,
			"type":"SCALAR"
		},
		{
			"bufferView":5,
			"componentType":5126,
			"count":66,
			"max":[
				0.22693628072738647,
				0.6717150211334229,
				0.38730788230895996
			],
			"min":[
				-0.22693628072738647,
				0.14325439929962158,
				-0.38730788230895996
			],
			"type":"VEC3"
		},
		{
			"bufferView":6,
			"componentType":5126,
			"count":66,
			"type":"VEC3"
		},
		{
			"bufferView":7,
			"componentType":5126,
			"count":66,
			"type":"VEC2"
		},
		{
			"bufferView":8,
			"componentType":5126,
			"count":66,
			"type":"VEC3"
		},
		{
			"bufferView":9,
			"componentType":5123,
			"count":132,
			"type":"SCALAR"
		}
	],
	"bufferViews":[
		{
			"buffer":0,
			"byteLength":3168,
			"byteOffset":0,
			"target":34962
		},
		{
			"buffer":0,
			"byteLength":3168,
			"byteOffset":3168,
			"target":34962
		},
		{
			"buffer":0,
			"byteLength":2112,
			"byteOffset":6336,
			"target":34962
		},
		{
			"buffer":0,
			"byteLength":3168,
			"byteOffset":8448,
			"target":34962
		},
		{
			"buffer":0,
			"byteLength":1008,
			"byteOffset":11616,
			"target":34963
		},
		{
			"buffer":0,
			"byteLength":792,
			"byteOffset":12624,
			"target":34962
		},
		{
			"buffer":0,
			"byteLength":792,
			"byteOffset":13416,
			"target":34962
		},
		{
			"buffer":0,
			"byteLength":528,
			"byteOffset":14208,
			"target":34962
		},
		{
			"buffer":0,
			"byteLength":792,
			"byteOffset":14736,
			"target":34962
		},
		{
			"buffer":0,
			"byteLength":264,
			"byteOffset":15528,
			"target":34963
		}
	],
	"buffers":[
		{
			"byteLength":15792,
			"uri":"lamp_table1.bin"
		}
	]
}
