{
	"asset":{
		"generator":"Khronos glTF Blender I/O v5.2.5",
		"version":"2.0"
	},
	"scene":0,
	"scenes":[
		{
			"name":"plant_monstera",
			"nodes":[
				0,
				1,
				2,
				3,
				4,
				5,
				6
			]
		}
	],
	"nodes":[
		{
			"mesh":0,
			"name":"Cylinder.011",
			"scale":[
				1.2083687782287598,
				1.2083687782287598,
				1.2083687782287598
			],
			"translation":[
				0,
				-0.02620350942015648,
				0
			]
		},
		{
			"mesh":1,
			"name":"Cylinder.013",
			"scale":[
				1.2083687782287598,
				1.2083687782287598,
				1.2083687782287598
			],
			"translation":[
				0,
				-0.02620350942015648,
				0
			]
		},
		{
			"mesh":2,
			"name":"Cylinder.012",
			"scale":[
				1.2083687782287598,
				1.2083687782287598,
				1.2083687782287598
			],
			"translation":[
				0,
				-0.02620350942015648,
				0
			]
		},
		{
			"mesh":3,
			"name":"Plane.005",
			"rotation":[
				0,
				0,
				-0.7071068286895752,
				0.7071068286895752
			],
			"translation":[
				0.022390536963939667,
				0.4535057842731476,
				0.0057778432965278625
			]
		},
		{
			"mesh":4,
			"name":"Circle",
			"rotation":[
				0,
				0,
				-0.48703885078430176,
				0.8733803033828735
			],
			"scale":[
				1.2287416458129883,
				1.2287416458129883,
				1.2287416458129883
			],
			"translation":[
				0.1698562502861023,
				0.9079266786575317,
				-0.007377804256975651
			]
		},
		{
			"mesh":5,
			"name":"Circle.001",
			"rotation":[
				0.2798507511615753,
				-0.7553593516349792,
				-0.1972751021385193,
				0.5587471127510071
			],
			"scale":[
				0.9552507400512695,
				0.9552506804466248,
				0.95525062084198
			],
			"translation":[
				-0.029651733115315437,
				0.7160173654556274,
				0.16881193220615387
			]
		},
		{
			"mesh":6,
			"name":"Circle.002",
			"rotation":[
				-0.4607235789299011,
				0.8428838849067688,
				-0.111099474132061,
				0.25482818484306335
			],
			"scale":[
				1.0553220510482788,
				1.0553219318389893,
				1.0553220510482788
			],
			"translation":[
				-0.13303039968013763,
				1.1500197649002075,
				-0.05507950112223625
			]
		}
	],
	"materials":[
		{
			"doubleSided":true,
			"name":"plant",
			"pbrMetallicRoughness":{
				"metallicFactor":0,
				"roughnessFactor":0.5
			}
		}
	],
	"meshes":[
		{
			"name":"Cylinder.011",
			"primitives":[
				{
					"attributes":{
						"POSITION":0,
						"NORMAL":1,
						"TEXCOORD_0":2,
						"COLOR_0":3
					},
					"indices":4,
					"material":0
				}
			]
		},
		{
			"name":"Cylinder.013",
			"primitives":[
				{
					"attributes":{
						"POSITION":5,
						"NORMAL":6,
						"TEXCOORD_0":7,
						"COLOR_0":8
					},
					"indices":9,
					"material":0
				}
			]
		},
		{
			"name":"Cylinder.015",
			"primitives":[
				{
					"attributes":{
						"POSITION":10,
						"NORMAL":11,
						"TEXCOORD_0":12,
						"COLOR_0":13
					},
					"indices":14,
					"material":0
				}
			]
		},
		{
			"name":"Plane.005",
			"primitives":[
				{
					"attributes":{
						"POSITION":15,
						"NORMAL":16,
						"TEXCOORD_0":17,
						"COLOR_0":18
					},
					"indices":19,
					"material":0
				}
			]
		},
		{
			"name":"Circle",
			"primitives":[
				{
					"attributes":{
						"POSITION":20,
						"NORMAL":21,
						"TEXCOORD_0":22,
						"COLOR_0":23
					},
					"indices":24,
					"material":0
				}
			]
		},
		{
			"name":"Circle.001",
			"primitives":[
				{
					"attributes":{
						"POSITION":25,
						"NORMAL":26,
						"TEXCOORD_0":27,
						"COLOR_0":28
					},
					"indices":29,
					"material":0
				}
			]
		},
		{
			"name":"Circle.002",
			"primitives":[
				{
					"attributes":{
						"POSITION":30,
						"NORMAL":31,
						"TEXCOORD_0":32,
						"COLOR_0":33
					},
					"indices":34,
					"material":0
				}
			]
		}
	],
	"accessors":[
		{
			"bufferView":0,
			"componentType":5126,
			"count":385,
			"max":[
				0.1719341278076172,
				0.3774309456348419,
				0.171667218208313
			],
			"min":[
				-0.171400249004364,
				0.0668279230594635,
				-0.1716671586036682
			],
			"type":"VEC3"
		},
		{
			"bufferView":1,
			"componentType":5126,
			"count":385,
			"type":"VEC3"
		},
		{
			"bufferView":2,
			"componentType":5126,
			"count":385,
			"type":"VEC2"
		},
		{
			"bufferView":3,
			"componentType":5126,
			"count":385,
			"type":"VEC3"
		},
		{
			"bufferView":4,
			"componentType":5123,
			"count":1116,
			"type":"SCALAR"
		},
		{
			"bufferView":5,
			"componentType":5126,
			"count":36,
			"max":[
				0.1534862518310547,
				0.3693128824234009,
				0.1532193422317505
			],
			"min":[
				-0.15295235812664032,
				0.3379681706428528,
				-0.15321925282478333
			],
			"type":"VEC3"
		},
		{
			"bufferView":6,
			"componentType":5126,
			"count":36,
			"type":"VEC3"
		},
		{
			"bufferView":7,
			"componentType":5126,
			"count":36,
			"type":"VEC2"
		},
		{
			"bufferView":8,
			"componentType":5126,
			"count":36,
			"type":"VEC3"
		},
		{
			"bufferView":9,
			"componentType":5123,
			"count":138,
			"type":"SCALAR"
		},
		{
			"bufferView":10,
			"componentType":5126,
			"count":72,
			"max":[
				0.1687881350517273,
				0.0757409855723381,
				0.16851967573165894
			],
			"min":[
				-0.1682511419057846,
				0.02601763606071472,
				-0.16851958632469177
			],
			"type":"VEC3"
		},
		{
			"bufferView":11,
			"componentType":5126,
			"count":72,
			"type":"VEC3"
		},
		{
			"bufferView":12,
			"componentType":5126,
			"count":72,
			"type":"VEC2"
		},
		{
			"bufferView":13,
			"componentType":5126,
			"count":72,
			"type":"VEC3"
		},
		{
			"bufferView":14,
			"componentType":5123,
			"count":360,
			"type":"SCALAR"
		},
		{
			"bufferView":15,
			"componentType":5126,
			"count":72,
			"max":[
				0.06335106492042542,
				0.14142023026943207,
				0.16794802248477936
			],
			"min":[
				-0.7380790710449219,
				-0.1598055511713028,
				-0.07439463585615158
			],
			"type":"VEC3"
		},
		{
			"bufferView":16,
			"componentType":5126,
			"count":72,
			"type":"VEC3"
		},
		{
			"bufferView":17,
			"componentType":5126,
			"count":72,
			"type":"VEC2"
		},
		{
			"bufferView":18,
			"componentType":5126,
			"count":72,
			"type":"VEC3"
		},
		{
			"bufferView":19,
			"componentType":5123,
			"count":396,
			"type":"SCALAR"
		},
		{
			"bufferView":20,
			"componentType":5126,
			"count":252,
			"max":[
				0.3610743582248688,
				0.012211774475872517,
				0.1847345232963562
			],
			"min":[
				-0.029626689851284027,
				-0.08120429515838623,
				-0.18441623449325562
			],
			"type":"VEC3"
		},
		{
			"bufferView":21,
			"componentType":5126,
			"count":252,
			"type":"VEC3"
		},
		{
			"bufferView":22,
			"componentType":5126,
			"count":252,
			"type":"VEC2"
		},
		{
			"bufferView":23,
			"componentType":5126,
			"count":252,
			"type":"VEC3"
		},
		{
			"bufferView":24,
			"componentType":5123,
			"count":1080,
			"type":"SCALAR"
		},
		{
			"bufferView":25,
			"componentType":5126,
			"count":268,
			"max":[
				0.3643508553504944,
				0.01252145878970623,
				0.1847345232963562
			],
			"min":[
				-0.029626689851284027,
				-0.08118391036987305,
				-0.18596011400222778
			],
			"type":"VEC3"
		},
		{
			"bufferView":26,
			"componentType":5126,
			"count":268,
			"type":"VEC3"
		},
		{
			"bufferView":27,
			"componentType":5126,
			"count":268,
			"type":"VEC2"
		},
		{
			"bufferView":28,
			"componentType":5126,
			"count":268,
			"type":"VEC3"
		},
		{
			"bufferView":29,
			"componentType":5123,
			"count":1152,
			"type":"SCALAR"
		},
		{
			"bufferView":30,
			"componentType":5126,
			"count":268,
			"max":[
				0.3661859333515167,
				0.012139948084950447,
				0.18083599209785461
			],
			"min":[
				-0.02962338551878929,
				-0.07916270196437836,
				-0.17794601619243622
			],
			"type":"VEC3"
		},
		{
			"bufferView":31,
			"componentType":5126,
			"count":268,
			"type":"VEC3"
		},
		{
			"bufferView":32,
			"componentType":5126,
			"count":268,
			"type":"VEC2"
		},
		{
			"bufferView":33,
			"componentType":5126,
			"count":268,
			"type":"VEC3"
		},
		{
			"bufferView":34,
			"componentType":5123,
			"count":1152,
			"type":"SCALAR"
		}
	],
	"bufferViews":[
		{
			"buffer":0,
			"byteLength":4620,
			"byteOffset":0,
			"target":34962
		},
		{
			"buffer":0,
			"byteLength":4620,
			"byteOffset":4620,
			"target":34962
		},
		{
			"buffer":0,
			"byteLength":3080,
			"byteOffset":9240,
			"target":34962
		},
		{
			"buffer":0,
			"byteLength":4620,
			"byteOffset":12320,
			"target":34962
		},
		{
			"buffer":0,
			"byteLength":2232,
			"byteOffset":16940,
			"target":34963
		},
		{
			"buffer":0,
			"byteLength":432,
			"byteOffset":19172,
			"target":34962
		},
		{
			"buffer":0,
			"byteLength":432,
			"byteOffset":19604,
			"target":34962
		},
		{
			"buffer":0,
			"byteLength":288,
			"byteOffset":20036,
			"target":34962
		},
		{
			"buffer":0,
			"byteLength":432,
			"byteOffset":20324,
			"target":34962
		},
		{
			"buffer":0,
			"byteLength":276,
			"byteOffset":20756,
			"target":34963
		},
		{
			"buffer":0,
			"byteLength":864,
			"byteOffset":21032,
			"target":34962
		},
		{
			"buffer":0,
			"byteLength":864,
			"byteOffset":21896,
			"target":34962
		},
		{
			"buffer":0,
			"byteLength":576,
			"byteOffset":22760,
			"target":34962
		},
		{
			"buffer":0,
			"byteLength":864,
			"byteOffset":23336,
			"target":34962
		},
		{
			"buffer":0,
			"byteLength":720,
			"byteOffset":24200,
			"target":34963
		},
		{
			"buffer":0,
			"byteLength":864,
			"byteOffset":24920,
			"target":34962
		},
		{
			"buffer":0,
			"byteLength":864,
			"byteOffset":25784,
			"target":34962
		},
		{
			"buffer":0,
			"byteLength":576,
			"byteOffset":26648,
			"target":34962
		},
		{
			"buffer":0,
			"byteLength":864,
			"byteOffset":27224,
			"target":34962
		},
		{
			"buffer":0,
			"byteLength":792,
			"byteOffset":28088,
			"target":34963
		},
		{
			"buffer":0,
			"byteLength":3024,
			"byteOffset":28880,
			"target":34962
		},
		{
			"buffer":0,
			"byteLength":3024,
			"byteOffset":31904,
			"target":34962
		},
		{
			"buffer":0,
			"byteLength":2016,
			"byteOffset":34928,
			"target":34962
		},
		{
			"buffer":0,
			"byteLength":3024,
			"byteOffset":36944,
			"target":34962
		},
		{
			"buffer":0,
			"byteLength":2160,
			"byteOffset":39968,
			"target":34963
		},
		{
			"buffer":0,
			"byteLength":3216,
			"byteOffset":42128,
			"target":34962
		},
		{
			"buffer":0,
			"byteLength":3216,
			"byteOffset":45344,
			"target":34962
		},
		{
			"buffer":0,
			"byteLength":2144,
			"byteOffset":48560,
			"target":34962
		},
		{
			"buffer":0,
			"byteLength":3216,
			"byteOffset":50704,
			"target":34962
		},
		{
			"buffer":0,
			"byteLength":2304,
			"byteOffset":53920,
			"target":34963
		},
		{
			"buffer":0,
			"byteLength":3216,
			"byteOffset":56224,
			"target":34962
		},
		{
			"buffer":0,
			"byteLength":3216,
			"byteOffset":59440,
			"target":34962
		},
		{
			"buffer":0,
			"byteLength":2144,
			"byteOffset":62656,
			"target":34962
		},
		{
			"buffer":0,
			"byteLength":3216,
			"byteOffset":64800,
			"target":34962
		},
		{
			"buffer":0,
			"byteLength":2304,
			"byteOffset":68016,
			"target":34963
		}
	],
	"buffers":[
		{
			"byteLength":70320,
			"uri":"plant_monstera1.bin"
		}
	]
}
