{
	"asset":{
		"generator":"Khronos glTF Blender I/O v5.0.21",
		"version":"2.0"
	},
	"scene":0,
	"scenes":[
		{
			"name":"plant_algae",
			"nodes":[
				0,
				1,
				2,
				3,
				4,
				5,
				6,
				7,
				8
			]
		}
	],
	"nodes":[
		{
			"mesh":0,
			"name":"Cube"
		},
		{
			"mesh":1,
			"name":"Cylinder",
			"translation":[
				0,
				1.4984478950500488,
				0
			]
		},
		{
			"mesh":2,
			"name":"Cylinder.001",
			"translation":[
				0,
				1.4984478950500488,
				0
			]
		},
		{
			"mesh":3,
			"name":"Cylinder.002",
			"translation":[
				0,
				1.4984478950500488,
				0
			]
		},
		{
			"mesh":4,
			"name":"Cylinder.003",
			"translation":[
				0,
				1.4828293323516846,
				0
			]
		},
		{
			"mesh":5,
			"name":"Plane.002",
			"rotation":[
				0.06360554695129395,
				-0.7881850004196167,
				0.04243765026330948,
				0.6106699705123901
			],
			"scale":[
				1.4151244163513184,
				1.415124535560608,
				1.4151246547698975
			],
			"translation":[
				-0.04821710288524628,
				1.2746288776397705,
				0.07886975258588791
			]
		},
		{
			"mesh":6,
			"name":"Icosphere.001",
			"rotation":[
				0.0045774937607347965,
				0.01572408154606819,
				-0.7257714867591858,
				0.6877409815788269
			],
			"scale":[
				0.03565001115202904,
				0.03565000370144844,
				0.03565001115202904
			],
			"translation":[
				0.3143293857574463,
				0.36452412605285645,
				0.0067567285150289536
			]
		},
		{
			"mesh":7,
			"name":"Cube.001"
		},
		{
			"mesh":8,
			"name":"Icosphere.002",
			"rotation":[
				0.5236600041389465,
				-0.4822382926940918,
				-0.5025389790534973,
				0.49059268832206726
			],
			"scale":[
				0.03565001115202904,
				0.03565000370144844,
				0.03565001115202904
			],
			"translation":[
				0.00019097048789262772,
				0.36452412605285645,
				0.3147953748703003
			]
		}
	],
	"materials":[
		{
			"doubleSided":true,
			"name":"plant",
			"pbrMetallicRoughness":{
				"metallicFactor":0,
				"roughnessFactor":0.5
			}
		}
	],
	"meshes":[
		{
			"name":"Cube.001",
			"primitives":[
				{
					"attributes":{
						"POSITION":0,
						"NORMAL":1,
						"TEXCOORD_0":2,
						"COLOR_0":3
					},
					"indices":4,
					"material":0
				}
			]
		},
		{
			"name":"Cylinder",
			"primitives":[
				{
					"attributes":{
						"POSITION":5,
						"NORMAL":6,
						"TEXCOORD_0":7,
						"COLOR_0":8
					},
					"indices":9,
					"material":0
				}
			]
		},
		{
			"name":"Cylinder.001",
			"primitives":[
				{
					"attributes":{
						"POSITION":10,
						"NORMAL":11,
						"TEXCOORD_0":12,
						"COLOR_0":13
					},
					"indices":14,
					"material":0
				}
			]
		},
		{
			"name":"Cylinder.002",
			"primitives":[
				{
					"attributes":{
						"POSITION":15,
						"NORMAL":16,
						"TEXCOORD_0":17,
						"COLOR_0":18
					},
					"indices":19,
					"material":0
				}
			]
		},
		{
			"name":"Cylinder.003",
			"primitives":[
				{
					"attributes":{
						"POSITION":20,
						"NORMAL":21,
						"TEXCOORD_0":22,
						"COLOR_0":23
					},
					"indices":24,
					"material":0
				}
			]
		},
		{
			"name":"Plane.002",
			"primitives":[
				{
					"attributes":{
						"POSITION":25,
						"NORMAL":26,
						"TEXCOORD_0":27,
						"COLOR_0":28
					},
					"indices":29,
					"material":0
				}
			]
		},
		{
			"name":"Icosphere.001",
			"primitives":[
				{
					"attributes":{
						"POSITION":30,
						"NORMAL":31,
						"TEXCOORD_0":32,
						"COLOR_0":33
					},
					"indices":34,
					"material":0
				}
			]
		},
		{
			"name":"Cube.002",
			"primitives":[
				{
					"attributes":{
						"POSITION":35,
						"NORMAL":36,
						"TEXCOORD_0":37,
						"COLOR_0":38
					},
					"indices":39,
					"material":0
				}
			]
		},
		{
			"name":"Icosphere.001",
			"primitives":[
				{
					"attributes":{
						"POSITION":40,
						"NORMAL":41,
						"TEXCOORD_0":42,
						"COLOR_0":43
					},
					"indices":34,
					"material":0
				}
			]
		}
	],
	"accessors":[
		{
			"bufferView":0,
			"componentType":5126,
			"count":177,
			"max":[
				0.3064723312854767,
				0.43028631806373596,
				0.309931218624115
			],
			"min":[
				-0.3064723312854767,
				-0.005452901124954224,
				-0.309931218624115
			],
			"type":"VEC3"
		},
		{
			"bufferView":1,
			"componentType":5126,
			"count":177,
			"type":"VEC3"
		},
		{
			"bufferView":2,
			"componentType":5126,
			"count":177,
			"type":"VEC2"
		},
		{
			"bufferView":3,
			"componentType":5126,
			"count":177,
			"type":"VEC3"
		},
		{
			"bufferView":4,
			"componentType":5123,
			"count":312,
			"type":"SCALAR"
		},
		{
			"bufferView":5,
			"componentType":5126,
			"count":52,
			"max":[
				0.26451432704925537,
				-0.8239315748214722,
				0.26451432704925537
			],
			"min":[
				-0.26451432704925537,
				-1.02842116355896,
				-0.26451432704925537
			],
			"type":"VEC3"
		},
		{
			"bufferView":6,
			"componentType":5126,
			"count":52,
			"type":"VEC3"
		},
		{
			"bufferView":7,
			"componentType":5126,
			"count":52,
			"type":"VEC2"
		},
		{
			"bufferView":8,
			"componentType":5126,
			"count":52,
			"type":"VEC3"
		},
		{
			"bufferView":9,
			"componentType":5123,
			"count":216,
			"type":"SCALAR"
		},
		{
			"bufferView":10,
			"componentType":5126,
			"count":65,
			"max":[
				0.28098776936531067,
				-0.7907055020332336,
				0.28098776936531067
			],
			"min":[
				-0.28098776936531067,
				-0.823942244052887,
				-0.28098776936531067
			],
			"type":"VEC3"
		},
		{
			"bufferView":11,
			"componentType":5126,
			"count":65,
			"type":"VEC3"
		},
		{
			"bufferView":12,
			"componentType":5126,
			"count":65,
			"type":"VEC2"
		},
		{
			"bufferView":13,
			"componentType":5126,
			"count":65,
			"type":"VEC3"
		},
		{
			"bufferView":14,
			"componentType":5123,
			"count":288,
			"type":"SCALAR"
		},
		{
			"bufferView":15,
			"componentType":5126,
			"count":128,
			"max":[
				0.2559812664985657,
				-0.8153247237205505,
				0.25315940380096436
			],
			"min":[
				-0.2559812664985657,
				-1.033376693725586,
				-0.25315940380096436
			],
			"type":"VEC3"
		},
		{
			"bufferView":16,
			"componentType":5126,
			"count":128,
			"type":"VEC3"
		},
		{
			"bufferView":17,
			"componentType":5126,
			"count":128,
			"type":"VEC2"
		},
		{
			"bufferView":18,
			"componentType":5126,
			"count":128,
			"type":"VEC3"
		},
		{
			"bufferView":19,
			"componentType":5123,
			"count":576,
			"type":"SCALAR"
		},
		{
			"bufferView":20,
			"componentType":5126,
			"count":25,
			"max":[
				0.24473190307617188,
				-0.7708654403686523,
				0.24473190307617188
			],
			"min":[
				-0.24473188817501068,
				-0.8116958141326904,
				-0.24473190307617188
			],
			"type":"VEC3"
		},
		{
			"bufferView":21,
			"componentType":5126,
			"count":25,
			"type":"VEC3"
		},
		{
			"bufferView":22,
			"componentType":5126,
			"count":25,
			"type":"VEC2"
		},
		{
			"bufferView":23,
			"componentType":5126,
			"count":25,
			"type":"VEC3"
		},
		{
			"bufferView":24,
			"componentType":5123,
			"count":108,
			"type":"SCALAR"
		},
		{
			"bufferView":25,
			"componentType":5126,
			"count":576,
			"max":[
				0.13533011078834534,
				0.3788105845451355,
				0.15457621216773987
			],
			"min":[
				-0.17755307257175446,
				-0.44988852739334106,
				-0.19554156064987183
			],
			"type":"VEC3"
		},
		{
			"bufferView":26,
			"componentType":5126,
			"count":576,
			"type":"VEC3"
		},
		{
			"bufferView":27,
			"componentType":5126,
			"count":576,
			"type":"VEC2"
		},
		{
			"bufferView":28,
			"componentType":5126,
			"count":576,
			"type":"VEC3"
		},
		{
			"bufferView":29,
			"componentType":5123,
			"count":3348,
			"type":"SCALAR"
		},
		{
			"bufferView":30,
			"componentType":5126,
			"count":34,
			"max":[
				1.8893613815307617,
				1,
				0.8506399989128113
			],
			"min":[
				-0.8944249749183655,
				-18.60021209716797,
				-1.1274182796478271
			],
			"type":"VEC3"
		},
		{
			"bufferView":31,
			"componentType":5126,
			"count":34,
			"type":"VEC3"
		},
		{
			"bufferView":32,
			"componentType":5126,
			"count":34,
			"type":"VEC2"
		},
		{
			"bufferView":33,
			"componentType":5126,
			"count":34,
			"type":"VEC3"
		},
		{
			"bufferView":34,
			"componentType":5123,
			"count":90,
			"type":"SCALAR"
		},
		{
			"bufferView":35,
			"componentType":5126,
			"count":33,
			"max":[
				0.26913541555404663,
				0.4712132513523102,
				0.2740238308906555
			],
			"min":[
				-0.26913541555404663,
				0.43028631806373596,
				-0.2740238308906555
			],
			"type":"VEC3"
		},
		{
			"bufferView":36,
			"componentType":5126,
			"count":33,
			"type":"VEC3"
		},
		{
			"bufferView":37,
			"componentType":5126,
			"count":33,
			"type":"VEC2"
		},
		{
			"bufferView":38,
			"componentType":5126,
			"count":33,
			"type":"VEC3"
		},
		{
			"bufferView":39,
			"componentType":5123,
			"count":168,
			"type":"SCALAR"
		},
		{
			"bufferView":40,
			"componentType":5126,
			"count":34,
			"max":[
				1.8755569458007812,
				1,
				1.1012710332870483
			],
			"min":[
				-0.8944249749183655,
				-18.62771987915039,
				-0.8506399989128113
			],
			"type":"VEC3"
		},
		{
			"bufferView":41,
			"componentType":5126,
			"count":34,
			"type":"VEC3"
		},
		{
			"bufferView":42,
			"componentType":5126,
			"count":34,
			"type":"VEC2"
		},
		{
			"bufferView":43,
			"componentType":5126,
			"count":34,
			"type":"VEC3"
		}
	],
	"bufferViews":[
		{
			"buffer":0,
			"byteLength":2124,
			"byteOffset":0,
			"target":34962
		},
		{
			"buffer":0,
			"byteLength":2124,
			"byteOffset":2124,
			"target":34962
		},
		{
			"buffer":0,
			"byteLength":1416,
			"byteOffset":4248,
			"target":34962
		},
		{
			"buffer":0,
			"byteLength":2124,
			"byteOffset":5664,
			"target":34962
		},
		{
			"buffer":0,
			"byteLength":624,
			"byteOffset":7788,
			"target":34963
		},
		{
			"buffer":0,
			"byteLength":624,
			"byteOffset":8412,
			"target":34962
		},
		{
			"buffer":0,
			"byteLength":624,
			"byteOffset":9036,
			"target":34962
		},
		{
			"buffer":0,
			"byteLength":416,
			"byteOffset":9660,
			"target":34962
		},
		{
			"buffer":0,
			"byteLength":624,
			"byteOffset":10076,
			"target":34962
		},
		{
			"buffer":0,
			"byteLength":432,
			"byteOffset":10700,
			"target":34963
		},
		{
			"buffer":0,
			"byteLength":780,
			"byteOffset":11132,
			"target":34962
		},
		{
			"buffer":0,
			"byteLength":780,
			"byteOffset":11912,
			"target":34962
		},
		{
			"buffer":0,
			"byteLength":520,
			"byteOffset":12692,
			"target":34962
		},
		{
			"buffer":0,
			"byteLength":780,
			"byteOffset":13212,
			"target":34962
		},
		{
			"buffer":0,
			"byteLength":576,
			"byteOffset":13992,
			"target":34963
		},
		{
			"buffer":0,
			"byteLength":1536,
			"byteOffset":14568,
			"target":34962
		},
		{
			"buffer":0,
			"byteLength":1536,
			"byteOffset":16104,
			"target":34962
		},
		{
			"buffer":0,
			"byteLength":1024,
			"byteOffset":17640,
			"target":34962
		},
		{
			"buffer":0,
			"byteLength":1536,
			"byteOffset":18664,
			"target":34962
		},
		{
			"buffer":0,
			"byteLength":1152,
			"byteOffset":20200,
			"target":34963
		},
		{
			"buffer":0,
			"byteLength":300,
			"byteOffset":21352,
			"target":34962
		},
		{
			"buffer":0,
			"byteLength":300,
			"byteOffset":21652,
			"target":34962
		},
		{
			"buffer":0,
			"byteLength":200,
			"byteOffset":21952,
			"target":34962
		},
		{
			"buffer":0,
			"byteLength":300,
			"byteOffset":22152,
			"target":34962
		},
		{
			"buffer":0,
			"byteLength":216,
			"byteOffset":22452,
			"target":34963
		},
		{
			"buffer":0,
			"byteLength":6912,
			"byteOffset":22668,
			"target":34962
		},
		{
			"buffer":0,
			"byteLength":6912,
			"byteOffset":29580,
			"target":34962
		},
		{
			"buffer":0,
			"byteLength":4608,
			"byteOffset":36492,
			"target":34962
		},
		{
			"buffer":0,
			"byteLength":6912,
			"byteOffset":41100,
			"target":34962
		},
		{
			"buffer":0,
			"byteLength":6696,
			"byteOffset":48012,
			"target":34963
		},
		{
			"buffer":0,
			"byteLength":408,
			"byteOffset":54708,
			"target":34962
		},
		{
			"buffer":0,
			"byteLength":408,
			"byteOffset":55116,
			"target":34962
		},
		{
			"buffer":0,
			"byteLength":272,
			"byteOffset":55524,
			"target":34962
		},
		{
			"buffer":0,
			"byteLength":408,
			"byteOffset":55796,
			"target":34962
		},
		{
			"buffer":0,
			"byteLength":180,
			"byteOffset":56204,
			"target":34963
		},
		{
			"buffer":0,
			"byteLength":396,
			"byteOffset":56384,
			"target":34962
		},
		{
			"buffer":0,
			"byteLength":396,
			"byteOffset":56780,
			"target":34962
		},
		{
			"buffer":0,
			"byteLength":264,
			"byteOffset":57176,
			"target":34962
		},
		{
			"buffer":0,
			"byteLength":396,
			"byteOffset":57440,
			"target":34962
		},
		{
			"buffer":0,
			"byteLength":336,
			"byteOffset":57836,
			"target":34963
		},
		{
			"buffer":0,
			"byteLength":408,
			"byteOffset":58172,
			"target":34962
		},
		{
			"buffer":0,
			"byteLength":408,
			"byteOffset":58580,
			"target":34962
		},
		{
			"buffer":0,
			"byteLength":272,
			"byteOffset":58988,
			"target":34962
		},
		{
			"buffer":0,
			"byteLength":408,
			"byteOffset":59260,
			"target":34962
		}
	],
	"buffers":[
		{
			"byteLength":59668,
			"uri":"plant_algae1.bin"
		}
	]
}
