{
	"asset":{
		"generator":"Khronos glTF Blender I/O v5.0.21",
		"version":"2.0"
	},
	"scene":0,
	"scenes":[
		{
			"name":"plant_palm1",
			"nodes":[
				0,
				1,
				2,
				3,
				4,
				5,
				6,
				7
			]
		}
	],
	"nodes":[
		{
			"mesh":0,
			"name":"Cube.002"
		},
		{
			"mesh":1,
			"name":"Cylinder.004",
			"translation":[
				0,
				-0.02620350942015648,
				0
			]
		},
		{
			"mesh":2,
			"name":"Cylinder.005",
			"translation":[
				0,
				-0.02620350942015648,
				0
			]
		},
		{
			"mesh":3,
			"name":"Cylinder.006",
			"translation":[
				0,
				-0.02620350942015648,
				0
			]
		},
		{
			"mesh":4,
			"name":"Cylinder.007",
			"translation":[
				0,
				-0.02620350942015648,
				0
			]
		},
		{
			"mesh":5,
			"name":"Plane",
			"translation":[
				-0.028199896216392517,
				-0.21942712366580963,
				0.007252905052155256
			]
		},
		{
			"mesh":6,
			"name":"Plane.001",
			"rotation":[
				0.10484426468610764,
				-0.20780439674854279,
				-0.11325284838676453,
				0.9659186601638794
			],
			"scale":[
				0.6800656914710999,
				0.6800656914710999,
				0.6800658106803894
			],
			"translation":[
				0.16312681138515472,
				1.0924659967422485,
				0.0974937304854393
			]
		},
		{
			"mesh":7,
			"name":"Plane.003",
			"rotation":[
				0.12264740467071533,
				-0.21475708484649658,
				0.02238469198346138,
				0.9686775207519531
			],
			"scale":[
				0.5076543092727661,
				0.5076543092727661,
				0.5076543688774109
			],
			"translation":[
				-0.0891166478395462,
				0.9254866242408752,
				0.13528314232826233
			]
		}
	],
	"materials":[
		{
			"doubleSided":true,
			"name":"plant",
			"pbrMetallicRoughness":{
				"metallicFactor":0,
				"roughnessFactor":0.5
			}
		}
	],
	"meshes":[
		{
			"name":"Cube.003",
			"primitives":[
				{
					"attributes":{
						"POSITION":0,
						"NORMAL":1,
						"TEXCOORD_0":2,
						"COLOR_0":3
					},
					"indices":4,
					"material":0
				}
			]
		},
		{
			"name":"Cylinder.004",
			"primitives":[
				{
					"attributes":{
						"POSITION":5,
						"NORMAL":6,
						"TEXCOORD_0":7,
						"COLOR_0":8
					},
					"indices":9,
					"material":0
				}
			]
		},
		{
			"name":"Cylinder.005",
			"primitives":[
				{
					"attributes":{
						"POSITION":10,
						"NORMAL":11,
						"TEXCOORD_0":12,
						"COLOR_0":13
					},
					"indices":14,
					"material":0
				}
			]
		},
		{
			"name":"Cylinder.006",
			"primitives":[
				{
					"attributes":{
						"POSITION":15,
						"NORMAL":16,
						"TEXCOORD_0":17,
						"COLOR_0":18
					},
					"indices":19,
					"material":0
				}
			]
		},
		{
			"name":"Cylinder.008",
			"primitives":[
				{
					"attributes":{
						"POSITION":20,
						"NORMAL":21,
						"TEXCOORD_0":22,
						"COLOR_0":23
					},
					"indices":24,
					"material":0
				}
			]
		},
		{
			"name":"Plane.015",
			"primitives":[
				{
					"attributes":{
						"POSITION":25,
						"NORMAL":26,
						"TEXCOORD_0":27,
						"COLOR_0":28
					},
					"indices":29,
					"material":0
				}
			]
		},
		{
			"name":"Plane.017",
			"primitives":[
				{
					"attributes":{
						"POSITION":30,
						"NORMAL":31,
						"TEXCOORD_0":32,
						"COLOR_0":33
					},
					"indices":29,
					"material":0
				}
			]
		},
		{
			"name":"Plane.019",
			"primitives":[
				{
					"attributes":{
						"POSITION":34,
						"NORMAL":35,
						"TEXCOORD_0":36,
						"COLOR_0":37
					},
					"indices":38,
					"material":0
				}
			]
		}
	],
	"accessors":[
		{
			"bufferView":0,
			"componentType":5126,
			"count":85,
			"max":[
				0.17431679368019104,
				1.2150301933288574,
				0.13658210635185242
			],
			"min":[
				-0.09357450902462006,
				0.4258263111114502,
				-0.1601269543170929
			],
			"type":"VEC3"
		},
		{
			"bufferView":1,
			"componentType":5126,
			"count":85,
			"type":"VEC3"
		},
		{
			"bufferView":2,
			"componentType":5126,
			"count":85,
			"type":"VEC2"
		},
		{
			"bufferView":3,
			"componentType":5126,
			"count":85,
			"type":"VEC3"
		},
		{
			"bufferView":4,
			"componentType":5123,
			"count":336,
			"type":"SCALAR"
		},
		{
			"bufferView":5,
			"componentType":5126,
			"count":156,
			"max":[
				0.17892274260520935,
				0.45336785912513733,
				0.17865583300590515
			],
			"min":[
				-0.17838886380195618,
				0.07122068852186203,
				-0.17865577340126038
			],
			"type":"VEC3"
		},
		{
			"bufferView":6,
			"componentType":5126,
			"count":156,
			"type":"VEC3"
		},
		{
			"bufferView":7,
			"componentType":5126,
			"count":156,
			"type":"VEC2"
		},
		{
			"bufferView":8,
			"componentType":5126,
			"count":156,
			"type":"VEC3"
		},
		{
			"bufferView":9,
			"componentType":5123,
			"count":504,
			"type":"SCALAR"
		},
		{
			"bufferView":10,
			"componentType":5126,
			"count":65,
			"max":[
				0.18582460284233093,
				0.48474276065826416,
				0.18555769324302673
			],
			"min":[
				-0.18529072403907776,
				0.44659993052482605,
				-0.18555760383605957
			],
			"type":"VEC3"
		},
		{
			"bufferView":11,
			"componentType":5126,
			"count":65,
			"type":"VEC3"
		},
		{
			"bufferView":12,
			"componentType":5126,
			"count":65,
			"type":"VEC2"
		},
		{
			"bufferView":13,
			"componentType":5126,
			"count":65,
			"type":"VEC3"
		},
		{
			"bufferView":14,
			"componentType":5123,
			"count":288,
			"type":"SCALAR"
		},
		{
			"bufferView":15,
			"componentType":5126,
			"count":36,
			"max":[
				0.16730651259422302,
				0.49552226066589355,
				0.16703960299491882
			],
			"min":[
				-0.16677263379096985,
				0.4613502621650696,
				-0.16703951358795166
			],
			"type":"VEC3"
		},
		{
			"bufferView":16,
			"componentType":5126,
			"count":36,
			"type":"VEC3"
		},
		{
			"bufferView":17,
			"componentType":5126,
			"count":36,
			"type":"VEC2"
		},
		{
			"bufferView":18,
			"componentType":5126,
			"count":36,
			"type":"VEC3"
		},
		{
			"bufferView":19,
			"componentType":5123,
			"count":138,
			"type":"SCALAR"
		},
		{
			"bufferView":20,
			"componentType":5126,
			"count":88,
			"max":[
				0.11147439479827881,
				0.0847613587975502,
				0.1019974872469902
			],
			"min":[
				-0.11147439479827881,
				0.034476153552532196,
				-0.1019974872469902
			],
			"type":"VEC3"
		},
		{
			"bufferView":21,
			"componentType":5126,
			"count":88,
			"type":"VEC3"
		},
		{
			"bufferView":22,
			"componentType":5126,
			"count":88,
			"type":"VEC2"
		},
		{
			"bufferView":23,
			"componentType":5126,
			"count":88,
			"type":"VEC3"
		},
		{
			"bufferView":24,
			"componentType":5123,
			"count":240,
			"type":"SCALAR"
		},
		{
			"bufferView":25,
			"componentType":5126,
			"count":360,
			"max":[
				0.5553690195083618,
				1.5830063819885254,
				0.27805694937705994
			],
			"min":[
				-0.4717065989971161,
				1.3578296899795532,
				-0.4962606430053711
			],
			"type":"VEC3"
		},
		{
			"bufferView":26,
			"componentType":5126,
			"count":360,
			"type":"VEC3"
		},
		{
			"bufferView":27,
			"componentType":5126,
			"count":360,
			"type":"VEC2"
		},
		{
			"bufferView":28,
			"componentType":5126,
			"count":360,
			"type":"VEC3"
		},
		{
			"bufferView":29,
			"componentType":5123,
			"count":2016,
			"type":"SCALAR"
		},
		{
			"bufferView":30,
			"componentType":5126,
			"count":360,
			"max":[
				0.5813837051391602,
				-0.06172412633895874,
				0.4459690749645233
			],
			"min":[
				-0.41020891070365906,
				-0.3866346478462219,
				-0.32489296793937683
			],
			"type":"VEC3"
		},
		{
			"bufferView":31,
			"componentType":5126,
			"count":360,
			"type":"VEC3"
		},
		{
			"bufferView":32,
			"componentType":5126,
			"count":360,
			"type":"VEC2"
		},
		{
			"bufferView":33,
			"componentType":5126,
			"count":360,
			"type":"VEC3"
		},
		{
			"bufferView":34,
			"componentType":5126,
			"count":240,
			"max":[
				0.5281859636306763,
				-0.11272045969963074,
				0.5175642967224121
			],
			"min":[
				-0.4989394247531891,
				-0.3994100093841553,
				-0.29352059960365295
			],
			"type":"VEC3"
		},
		{
			"bufferView":35,
			"componentType":5126,
			"count":240,
			"type":"VEC3"
		},
		{
			"bufferView":36,
			"componentType":5126,
			"count":240,
			"type":"VEC2"
		},
		{
			"bufferView":37,
			"componentType":5126,
			"count":240,
			"type":"VEC3"
		},
		{
			"bufferView":38,
			"componentType":5123,
			"count":1344,
			"type":"SCALAR"
		}
	],
	"bufferViews":[
		{
			"buffer":0,
			"byteLength":1020,
			"byteOffset":0,
			"target":34962
		},
		{
			"buffer":0,
			"byteLength":1020,
			"byteOffset":1020,
			"target":34962
		},
		{
			"buffer":0,
			"byteLength":680,
			"byteOffset":2040,
			"target":34962
		},
		{
			"buffer":0,
			"byteLength":1020,
			"byteOffset":2720,
			"target":34962
		},
		{
			"buffer":0,
			"byteLength":672,
			"byteOffset":3740,
			"target":34963
		},
		{
			"buffer":0,
			"byteLength":1872,
			"byteOffset":4412,
			"target":34962
		},
		{
			"buffer":0,
			"byteLength":1872,
			"byteOffset":6284,
			"target":34962
		},
		{
			"buffer":0,
			"byteLength":1248,
			"byteOffset":8156,
			"target":34962
		},
		{
			"buffer":0,
			"byteLength":1872,
			"byteOffset":9404,
			"target":34962
		},
		{
			"buffer":0,
			"byteLength":1008,
			"byteOffset":11276,
			"target":34963
		},
		{
			"buffer":0,
			"byteLength":780,
			"byteOffset":12284,
			"target":34962
		},
		{
			"buffer":0,
			"byteLength":780,
			"byteOffset":13064,
			"target":34962
		},
		{
			"buffer":0,
			"byteLength":520,
			"byteOffset":13844,
			"target":34962
		},
		{
			"buffer":0,
			"byteLength":780,
			"byteOffset":14364,
			"target":34962
		},
		{
			"buffer":0,
			"byteLength":576,
			"byteOffset":15144,
			"target":34963
		},
		{
			"buffer":0,
			"byteLength":432,
			"byteOffset":15720,
			"target":34962
		},
		{
			"buffer":0,
			"byteLength":432,
			"byteOffset":16152,
			"target":34962
		},
		{
			"buffer":0,
			"byteLength":288,
			"byteOffset":16584,
			"target":34962
		},
		{
			"buffer":0,
			"byteLength":432,
			"byteOffset":16872,
			"target":34962
		},
		{
			"buffer":0,
			"byteLength":276,
			"byteOffset":17304,
			"target":34963
		},
		{
			"buffer":0,
			"byteLength":1056,
			"byteOffset":17580,
			"target":34962
		},
		{
			"buffer":0,
			"byteLength":1056,
			"byteOffset":18636,
			"target":34962
		},
		{
			"buffer":0,
			"byteLength":704,
			"byteOffset":19692,
			"target":34962
		},
		{
			"buffer":0,
			"byteLength":1056,
			"byteOffset":20396,
			"target":34962
		},
		{
			"buffer":0,
			"byteLength":480,
			"byteOffset":21452,
			"target":34963
		},
		{
			"buffer":0,
			"byteLength":4320,
			"byteOffset":21932,
			"target":34962
		},
		{
			"buffer":0,
			"byteLength":4320,
			"byteOffset":26252,
			"target":34962
		},
		{
			"buffer":0,
			"byteLength":2880,
			"byteOffset":30572,
			"target":34962
		},
		{
			"buffer":0,
			"byteLength":4320,
			"byteOffset":33452,
			"target":34962
		},
		{
			"buffer":0,
			"byteLength":4032,
			"byteOffset":37772,
			"target":34963
		},
		{
			"buffer":0,
			"byteLength":4320,
			"byteOffset":41804,
			"target":34962
		},
		{
			"buffer":0,
			"byteLength":4320,
			"byteOffset":46124,
			"target":34962
		},
		{
			"buffer":0,
			"byteLength":2880,
			"byteOffset":50444,
			"target":34962
		},
		{
			"buffer":0,
			"byteLength":4320,
			"byteOffset":53324,
			"target":34962
		},
		{
			"buffer":0,
			"byteLength":2880,
			"byteOffset":57644,
			"target":34962
		},
		{
			"buffer":0,
			"byteLength":2880,
			"byteOffset":60524,
			"target":34962
		},
		{
			"buffer":0,
			"byteLength":1920,
			"byteOffset":63404,
			"target":34962
		},
		{
			"buffer":0,
			"byteLength":2880,
			"byteOffset":65324,
			"target":34962
		},
		{
			"buffer":0,
			"byteLength":2688,
			"byteOffset":68204,
			"target":34963
		}
	],
	"buffers":[
		{
			"byteLength":70892,
			"uri":"plant_palm1.bin"
		}
	]
}
