{
	"asset":{
		"generator":"Khronos glTF Blender I/O v5.1.8",
		"version":"2.0"
	},
	"scene":0,
	"scenes":[
		{
			"name":"plant_cactus1",
			"nodes":[
				0,
				1,
				2,
				3,
				4,
				5,
				6
			]
		}
	],
	"nodes":[
		{
			"mesh":0,
			"name":"Cylinder.008",
			"translation":[
				0,
				0.13119272887706757,
				0
			]
		},
		{
			"mesh":1,
			"name":"Cylinder.009",
			"translation":[
				0,
				0.13119272887706757,
				0
			]
		},
		{
			"mesh":2,
			"name":"Cylinder.010",
			"translation":[
				0,
				0.13119272887706757,
				0
			]
		},
		{
			"mesh":3,
			"name":"Cube.003",
			"scale":[
				0.7331066131591797,
				0.7331066131591797,
				0.7331066131591797
			],
			"translation":[
				0,
				-0.14400680363178253,
				0
			]
		},
		{
			"mesh":4,
			"name":"Cube.004",
			"scale":[
				0.7331066131591797,
				0.7331066131591797,
				0.7331066131591797
			],
			"translation":[
				0,
				-0.14400680363178253,
				0
			]
		},
		{
			"mesh":5,
			"name":"Plane.004",
			"translation":[
				0.03868723660707474,
				0.45350977778434753,
				-0.0010846540099009871
			]
		},
		{
			"mesh":6,
			"name":"Cone.014",
			"rotation":[
				-0.6449868679046631,
				-0.6469604969024658,
				0.28538066148757935,
				0.2898136377334595
			],
			"translation":[
				0.015284433960914612,
				0.6329776048660278,
				-0.25362563133239746
			]
		}
	],
	"materials":[
		{
			"doubleSided":true,
			"name":"Material",
			"pbrMetallicRoughness":{
				"metallicFactor":0,
				"roughnessFactor":0.5
			}
		}
	],
	"meshes":[
		{
			"name":"Cylinder.007",
			"primitives":[
				{
					"attributes":{
						"POSITION":0,
						"NORMAL":1,
						"TEXCOORD_0":2,
						"COLOR_0":3
					},
					"indices":4,
					"material":0
				}
			]
		},
		{
			"name":"Cylinder.009",
			"primitives":[
				{
					"attributes":{
						"POSITION":5,
						"NORMAL":6,
						"TEXCOORD_0":7,
						"COLOR_0":8
					},
					"indices":9,
					"material":0
				}
			]
		},
		{
			"name":"Cylinder.010",
			"primitives":[
				{
					"attributes":{
						"POSITION":10,
						"NORMAL":11,
						"TEXCOORD_0":12,
						"COLOR_0":13
					},
					"indices":14,
					"material":0
				}
			]
		},
		{
			"name":"Cube.005",
			"primitives":[
				{
					"attributes":{
						"POSITION":15,
						"NORMAL":16,
						"TEXCOORD_0":17,
						"COLOR_0":18
					},
					"indices":19,
					"material":0
				}
			]
		},
		{
			"name":"Cube.006",
			"primitives":[
				{
					"attributes":{
						"POSITION":20,
						"NORMAL":21,
						"TEXCOORD_0":22,
						"COLOR_0":23
					},
					"indices":24,
					"material":0
				}
			]
		},
		{
			"name":"Plane",
			"primitives":[
				{
					"attributes":{
						"POSITION":25,
						"NORMAL":26,
						"COLOR_0":27
					},
					"indices":28,
					"material":0
				}
			]
		},
		{
			"name":"Cone.014",
			"primitives":[
				{
					"attributes":{
						"POSITION":29,
						"NORMAL":30,
						"TEXCOORD_0":31,
						"COLOR_0":32
					},
					"indices":33
				}
			]
		}
	],
	"accessors":[
		{
			"bufferView":0,
			"componentType":5126,
			"count":103,
			"max":[
				0.19294142723083496,
				0.28601157665252686,
				0.19267451763153076
			],
			"min":[
				-0.1924075186252594,
				0.07122068852186203,
				-0.1926744431257248
			],
			"type":"VEC3"
		},
		{
			"bufferView":1,
			"componentType":5126,
			"count":103,
			"type":"VEC3"
		},
		{
			"bufferView":2,
			"componentType":5126,
			"count":103,
			"type":"VEC2"
		},
		{
			"bufferView":3,
			"componentType":5126,
			"count":103,
			"type":"VEC3"
		},
		{
			"bufferView":4,
			"componentType":5123,
			"count":534,
			"type":"SCALAR"
		},
		{
			"bufferView":5,
			"componentType":5126,
			"count":65,
			"max":[
				0.17850860953330994,
				0.3173864483833313,
				0.17824169993400574
			],
			"min":[
				-0.17797471582889557,
				0.2792436480522156,
				-0.17824161052703857
			],
			"type":"VEC3"
		},
		{
			"bufferView":6,
			"componentType":5126,
			"count":65,
			"type":"VEC3"
		},
		{
			"bufferView":7,
			"componentType":5126,
			"count":65,
			"type":"VEC2"
		},
		{
			"bufferView":8,
			"componentType":5126,
			"count":65,
			"type":"VEC3"
		},
		{
			"bufferView":9,
			"componentType":5123,
			"count":288,
			"type":"SCALAR"
		},
		{
			"bufferView":10,
			"componentType":5126,
			"count":36,
			"max":[
				0.16072063148021698,
				0.3281659483909607,
				0.16045372188091278
			],
			"min":[
				-0.1601867526769638,
				0.2939939498901367,
				-0.16045363247394562
			],
			"type":"VEC3"
		},
		{
			"bufferView":11,
			"componentType":5126,
			"count":36,
			"type":"VEC3"
		},
		{
			"bufferView":12,
			"componentType":5126,
			"count":36,
			"type":"VEC2"
		},
		{
			"bufferView":13,
			"componentType":5126,
			"count":36,
			"type":"VEC3"
		},
		{
			"bufferView":14,
			"componentType":5123,
			"count":138,
			"type":"SCALAR"
		},
		{
			"bufferView":15,
			"componentType":5126,
			"count":177,
			"max":[
				0.3064723312854767,
				0.43028631806373596,
				0.309931218624115
			],
			"min":[
				-0.3064723312854767,
				0.19295649230480194,
				-0.309931218624115
			],
			"type":"VEC3"
		},
		{
			"bufferView":16,
			"componentType":5126,
			"count":177,
			"type":"VEC3"
		},
		{
			"bufferView":17,
			"componentType":5126,
			"count":177,
			"type":"VEC2"
		},
		{
			"bufferView":18,
			"componentType":5126,
			"count":177,
			"type":"VEC3"
		},
		{
			"bufferView":19,
			"componentType":5123,
			"count":312,
			"type":"SCALAR"
		},
		{
			"bufferView":20,
			"componentType":5126,
			"count":33,
			"max":[
				0.26913541555404663,
				0.4712132513523102,
				0.2740238308906555
			],
			"min":[
				-0.26913541555404663,
				0.43028631806373596,
				-0.2740238308906555
			],
			"type":"VEC3"
		},
		{
			"bufferView":21,
			"componentType":5126,
			"count":33,
			"type":"VEC3"
		},
		{
			"bufferView":22,
			"componentType":5126,
			"count":33,
			"type":"VEC2"
		},
		{
			"bufferView":23,
			"componentType":5126,
			"count":33,
			"type":"VEC3"
		},
		{
			"bufferView":24,
			"componentType":5123,
			"count":168,
			"type":"SCALAR"
		},
		{
			"bufferView":25,
			"componentType":5126,
			"count":356,
			"max":[
				0.2506207227706909,
				1.5817242860794067,
				0.2934075891971588
			],
			"min":[
				-0.3568880259990692,
				-0.07233041524887085,
				-0.2596467435359955
			],
			"type":"VEC3"
		},
		{
			"bufferView":26,
			"componentType":5126,
			"count":356,
			"type":"VEC3"
		},
		{
			"bufferView":27,
			"componentType":5126,
			"count":356,
			"type":"VEC3"
		},
		{
			"bufferView":28,
			"componentType":5123,
			"count":2079,
			"type":"SCALAR"
		},
		{
			"bufferView":29,
			"componentType":5126,
			"count":534,
			"max":[
				1.2810983657836914,
				0.06029371917247772,
				0.3113563060760498
			],
			"min":[
				-0.016161764040589333,
				-0.5912595391273499,
				-0.4800952076911926
			],
			"type":"VEC3"
		},
		{
			"bufferView":30,
			"componentType":5126,
			"count":534,
			"type":"VEC3"
		},
		{
			"bufferView":31,
			"componentType":5126,
			"count":534,
			"type":"VEC2"
		},
		{
			"bufferView":32,
			"componentType":5123,
			"count":534,
			"normalized":true,
			"type":"VEC4"
		},
		{
			"bufferView":33,
			"componentType":5123,
			"count":2508,
			"type":"SCALAR"
		}
	],
	"bufferViews":[
		{
			"buffer":0,
			"byteLength":1236,
			"byteOffset":0,
			"target":34962
		},
		{
			"buffer":0,
			"byteLength":1236,
			"byteOffset":1236,
			"target":34962
		},
		{
			"buffer":0,
			"byteLength":824,
			"byteOffset":2472,
			"target":34962
		},
		{
			"buffer":0,
			"byteLength":1236,
			"byteOffset":3296,
			"target":34962
		},
		{
			"buffer":0,
			"byteLength":1068,
			"byteOffset":4532,
			"target":34963
		},
		{
			"buffer":0,
			"byteLength":780,
			"byteOffset":5600,
			"target":34962
		},
		{
			"buffer":0,
			"byteLength":780,
			"byteOffset":6380,
			"target":34962
		},
		{
			"buffer":0,
			"byteLength":520,
			"byteOffset":7160,
			"target":34962
		},
		{
			"buffer":0,
			"byteLength":780,
			"byteOffset":7680,
			"target":34962
		},
		{
			"buffer":0,
			"byteLength":576,
			"byteOffset":8460,
			"target":34963
		},
		{
			"buffer":0,
			"byteLength":432,
			"byteOffset":9036,
			"target":34962
		},
		{
			"buffer":0,
			"byteLength":432,
			"byteOffset":9468,
			"target":34962
		},
		{
			"buffer":0,
			"byteLength":288,
			"byteOffset":9900,
			"target":34962
		},
		{
			"buffer":0,
			"byteLength":432,
			"byteOffset":10188,
			"target":34962
		},
		{
			"buffer":0,
			"byteLength":276,
			"byteOffset":10620,
			"target":34963
		},
		{
			"buffer":0,
			"byteLength":2124,
			"byteOffset":10896,
			"target":34962
		},
		{
			"buffer":0,
			"byteLength":2124,
			"byteOffset":13020,
			"target":34962
		},
		{
			"buffer":0,
			"byteLength":1416,
			"byteOffset":15144,
			"target":34962
		},
		{
			"buffer":0,
			"byteLength":2124,
			"byteOffset":16560,
			"target":34962
		},
		{
			"buffer":0,
			"byteLength":624,
			"byteOffset":18684,
			"target":34963
		},
		{
			"buffer":0,
			"byteLength":396,
			"byteOffset":19308,
			"target":34962
		},
		{
			"buffer":0,
			"byteLength":396,
			"byteOffset":19704,
			"target":34962
		},
		{
			"buffer":0,
			"byteLength":264,
			"byteOffset":20100,
			"target":34962
		},
		{
			"buffer":0,
			"byteLength":396,
			"byteOffset":20364,
			"target":34962
		},
		{
			"buffer":0,
			"byteLength":336,
			"byteOffset":20760,
			"target":34963
		},
		{
			"buffer":0,
			"byteLength":4272,
			"byteOffset":21096,
			"target":34962
		},
		{
			"buffer":0,
			"byteLength":4272,
			"byteOffset":25368,
			"target":34962
		},
		{
			"buffer":0,
			"byteLength":4272,
			"byteOffset":29640,
			"target":34962
		},
		{
			"buffer":0,
			"byteLength":4158,
			"byteOffset":33912,
			"target":34963
		},
		{
			"buffer":0,
			"byteLength":6408,
			"byteOffset":38072,
			"target":34962
		},
		{
			"buffer":0,
			"byteLength":6408,
			"byteOffset":44480,
			"target":34962
		},
		{
			"buffer":0,
			"byteLength":4272,
			"byteOffset":50888,
			"target":34962
		},
		{
			"buffer":0,
			"byteLength":4272,
			"byteOffset":55160,
			"target":34962
		},
		{
			"buffer":0,
			"byteLength":5016,
			"byteOffset":59432,
			"target":34963
		}
	],
	"buffers":[
		{
			"byteLength":64448,
			"uri":"plant_cactus1.bin"
		}
	]
}
