{
	"asset":{
		"generator":"Khronos glTF Blender I/O v5.0.21",
		"version":"2.0"
	},
	"scene":0,
	"scenes":[
		{
			"name":"radio",
			"nodes":[
				0
			]
		}
	],
	"nodes":[
		{
			"mesh":0,
			"name":"Cube.017"
		}
	],
	"materials":[
		{
			"doubleSided":true,
			"name":"radio main",
			"pbrMetallicRoughness":{
				"baseColorTexture":{
					"index":0
				},
				"metallicFactor":0,
				"roughnessFactor":0.5
			}
		},
		{
			"doubleSided":true,
			"name":"radio antenna",
			"pbrMetallicRoughness":{
				"metallicFactor":0,
				"roughnessFactor":0.5
			}
		}
	],
	"meshes":[
		{
			"name":"Cube.002",
			"primitives":[
				{
					"attributes":{
						"POSITION":0,
						"NORMAL":1,
						"TEXCOORD_0":2,
						"COLOR_0":3
					},
					"indices":4,
					"material":0
				},
				{
					"attributes":{
						"POSITION":5,
						"NORMAL":6,
						"TEXCOORD_0":7,
						"COLOR_0":8
					},
					"indices":9,
					"material":1
				}
			]
		}
	],
	"textures":[
		{
			"sampler":0,
			"source":0
		}
	],
	"images":[
		{
			"mimeType":"image/png",
			"name":"Untitled",
			"uri":"Untitled.png"
		}
	],
	"accessors":[
		{
			"bufferView":0,
			"componentType":5126,
			"count":301,
			"max":[
				0.39767763018608093,
				0.6900956034660339,
				0.1995934247970581
			],
			"min":[
				-0.39900633692741394,
				-0.0005153198726475239,
				-0.19851252436637878
			],
			"type":"VEC3"
		},
		{
			"bufferView":1,
			"componentType":5126,
			"count":301,
			"type":"VEC3"
		},
		{
			"bufferView":2,
			"componentType":5126,
			"count":301,
			"type":"VEC2"
		},
		{
			"bufferView":3,
			"componentType":5126,
			"count":301,
			"type":"VEC3"
		},
		{
			"bufferView":4,
			"componentType":5123,
			"count":1224,
			"type":"SCALAR"
		},
		{
			"bufferView":5,
			"componentType":5126,
			"count":134,
			"max":[
				0.46372276544570923,
				1.0670216083526611,
				0.4711580276489258
			],
			"min":[
				0.12268900871276855,
				0.2824181914329529,
				0.02076823264360428
			],
			"type":"VEC3"
		},
		{
			"bufferView":6,
			"componentType":5126,
			"count":134,
			"type":"VEC3"
		},
		{
			"bufferView":7,
			"componentType":5126,
			"count":134,
			"type":"VEC2"
		},
		{
			"bufferView":8,
			"componentType":5126,
			"count":134,
			"type":"VEC3"
		},
		{
			"bufferView":9,
			"componentType":5123,
			"count":546,
			"type":"SCALAR"
		}
	],
	"bufferViews":[
		{
			"buffer":0,
			"byteLength":3612,
			"byteOffset":0,
			"target":34962
		},
		{
			"buffer":0,
			"byteLength":3612,
			"byteOffset":3612,
			"target":34962
		},
		{
			"buffer":0,
			"byteLength":2408,
			"byteOffset":7224,
			"target":34962
		},
		{
			"buffer":0,
			"byteLength":3612,
			"byteOffset":9632,
			"target":34962
		},
		{
			"buffer":0,
			"byteLength":2448,
			"byteOffset":13244,
			"target":34963
		},
		{
			"buffer":0,
			"byteLength":1608,
			"byteOffset":15692,
			"target":34962
		},
		{
			"buffer":0,
			"byteLength":1608,
			"byteOffset":17300,
			"target":34962
		},
		{
			"buffer":0,
			"byteLength":1072,
			"byteOffset":18908,
			"target":34962
		},
		{
			"buffer":0,
			"byteLength":1608,
			"byteOffset":19980,
			"target":34962
		},
		{
			"buffer":0,
			"byteLength":1092,
			"byteOffset":21588,
			"target":34963
		}
	],
	"samplers":[
		{
			"magFilter":9729,
			"minFilter":9987
		}
	],
	"buffers":[
		{
			"byteLength":22680,
			"uri":"radio.bin"
		}
	]
}
