{
	"asset":{
		"generator":"Khronos glTF Blender I/O v5.0.21",
		"version":"2.0"
	},
	"scene":0,
	"scenes":[
		{
			"name":"shelf2",
			"nodes":[
				0,
				1,
				2,
				3,
				4,
				5,
				6,
				7,
				8,
				9,
				10
			]
		}
	],
	"nodes":[
		{
			"mesh":0,
			"name":"Cube.082",
			"rotation":[
				0,
				0,
				-0.004551121965050697,
				0.9999896287918091
			],
			"scale":[
				0.26219406723976135,
				0.21307657659053802,
				0.2621614336967468
			],
			"translation":[
				0.5267638564109802,
				2.09653639793396,
				0.15169601142406464
			]
		},
		{
			"mesh":1,
			"name":"Cube.083",
			"rotation":[
				0,
				0,
				0.016533052548766136,
				0.99986332654953
			],
			"scale":[
				0.2621609568595886,
				0.21311241388320923,
				0.2621614336967468
			],
			"translation":[
				0.6509738564491272,
				2.0977373123168945,
				0.15169601142406464
			]
		},
		{
			"mesh":2,
			"name":"Cube.084",
			"rotation":[
				0,
				0,
				0.0041070012375712395,
				0.9999916553497314
			],
			"scale":[
				0.2621932029724121,
				0.19632162153720856,
				0.2621614336967468
			],
			"translation":[
				0.7845672965049744,
				2.0793585777282715,
				0.15321436524391174
			]
		},
		{
			"mesh":3,
			"name":"Cube.085",
			"rotation":[
				0.5000000596046448,
				0.4999999403953552,
				0.5,
				0.5000000596046448
			],
			"scale":[
				1.0432809591293335,
				0.018641768023371696,
				0.06557013839483261
			],
			"translation":[
				0.8805752992630005,
				1.9687778949737549,
				0.0030713193118572235
			]
		},
		{
			"mesh":4,
			"name":"Cube.086",
			"rotation":[
				0.5000000596046448,
				0.4999999403953552,
				0.5,
				0.5000000596046448
			],
			"scale":[
				1.0432809591293335,
				0.018641768023371696,
				0.06557013839483261
			],
			"translation":[
				-0.8743000030517578,
				1.9687778949737549,
				0.0030713193118572235
			]
		},
		{
			"mesh":5,
			"name":"Cube"
		},
		{
			"mesh":6,
			"name":"Cube.081",
			"translation":[
				0,
				0.9018254280090332,
				0
			]
		},
		{
			"mesh":7,
			"name":"Cube.087",
			"scale":[
				1,
				1,
				0.8787221312522888
			],
			"translation":[
				0,
				1.0015370845794678,
				0
			]
		},
		{
			"mesh":8,
			"name":"Cube.088",
			"rotation":[
				0,
				0,
				-0.004551122430711985,
				0.9999896287918091
			],
			"scale":[
				0.37193989753723145,
				0.1776685267686844,
				0.2621614336967468
			],
			"translation":[
				0.38368335366249084,
				2.064072370529175,
				0.15169601142406464
			]
		},
		{
			"mesh":9,
			"name":"Cube.089",
			"scale":[
				1,
				1,
				0.8787221312522888
			],
			"translation":[
				0,
				0.4656486511230469,
				0
			]
		},
		{
			"mesh":10,
			"name":"Cube.002",
			"rotation":[
				0,
				0,
				0.09336654096841812,
				0.9956318140029907
			],
			"scale":[
				0.26216140389442444,
				0.1964663416147232,
				0.2621614336967468
			],
			"translation":[
				-0.7222399115562439,
				2.623013734817505,
				0.16239771246910095
			]
		}
	],
	"materials":[
		{
			"doubleSided":true,
			"name":"furniture",
			"pbrMetallicRoughness":{
				"metallicFactor":0,
				"roughnessFactor":0.5
			}
		}
	],
	"meshes":[
		{
			"name":"Cube.018",
			"primitives":[
				{
					"attributes":{
						"POSITION":0,
						"NORMAL":1,
						"TEXCOORD_0":2,
						"COLOR_0":3
					},
					"indices":4,
					"material":0
				}
			]
		},
		{
			"name":"Cube.018",
			"primitives":[
				{
					"attributes":{
						"POSITION":5,
						"NORMAL":6,
						"TEXCOORD_0":7,
						"COLOR_0":8
					},
					"indices":4,
					"material":0
				}
			]
		},
		{
			"name":"Cube.018",
			"primitives":[
				{
					"attributes":{
						"POSITION":9,
						"NORMAL":10,
						"TEXCOORD_0":11,
						"COLOR_0":12
					},
					"indices":4,
					"material":0
				}
			]
		},
		{
			"name":"Cube.020",
			"primitives":[
				{
					"attributes":{
						"POSITION":13,
						"NORMAL":14,
						"TEXCOORD_0":15,
						"COLOR_0":16
					},
					"indices":17,
					"material":0
				}
			]
		},
		{
			"name":"Cube.020",
			"primitives":[
				{
					"attributes":{
						"POSITION":18,
						"NORMAL":19,
						"TEXCOORD_0":20,
						"COLOR_0":21
					},
					"indices":17,
					"material":0
				}
			]
		},
		{
			"name":"Cube.001",
			"primitives":[
				{
					"attributes":{
						"POSITION":22,
						"NORMAL":23,
						"TEXCOORD_0":24,
						"COLOR_0":25
					},
					"indices":26,
					"material":0
				}
			]
		},
		{
			"name":"Cube.002",
			"primitives":[
				{
					"attributes":{
						"POSITION":27,
						"NORMAL":28,
						"TEXCOORD_0":29,
						"COLOR_0":30
					},
					"indices":31,
					"material":0
				}
			]
		},
		{
			"name":"Cube.022",
			"primitives":[
				{
					"attributes":{
						"POSITION":32,
						"NORMAL":33,
						"TEXCOORD_0":34,
						"COLOR_0":35
					},
					"indices":36,
					"material":0
				}
			]
		},
		{
			"name":"Cube.023",
			"primitives":[
				{
					"attributes":{
						"POSITION":37,
						"NORMAL":38,
						"TEXCOORD_0":39,
						"COLOR_0":40
					},
					"indices":4,
					"material":0
				}
			]
		},
		{
			"name":"Cube.024",
			"primitives":[
				{
					"attributes":{
						"POSITION":41,
						"NORMAL":42,
						"TEXCOORD_0":43,
						"COLOR_0":44
					},
					"indices":36,
					"material":0
				}
			]
		},
		{
			"name":"Cube.015",
			"primitives":[
				{
					"attributes":{
						"POSITION":45,
						"NORMAL":46,
						"TEXCOORD_0":47,
						"COLOR_0":48
					},
					"indices":4,
					"material":0
				}
			]
		}
	],
	"accessors":[
		{
			"bufferView":0,
			"componentType":5126,
			"count":38,
			"max":[
				0.196266770362854,
				1,
				0.7249497175216675
			],
			"min":[
				-0.196266770362854,
				-1,
				-0.7333025932312012
			],
			"type":"VEC3"
		},
		{
			"bufferView":1,
			"componentType":5126,
			"count":38,
			"type":"VEC3"
		},
		{
			"bufferView":2,
			"componentType":5126,
			"count":38,
			"type":"VEC2"
		},
		{
			"bufferView":3,
			"componentType":5126,
			"count":38,
			"type":"VEC3"
		},
		{
			"bufferView":4,
			"componentType":5123,
			"count":84,
			"type":"SCALAR"
		},
		{
			"bufferView":5,
			"componentType":5126,
			"count":38,
			"max":[
				0.196266770362854,
				1,
				0.7249497175216675
			],
			"min":[
				-0.196266770362854,
				-1,
				-0.7333025932312012
			],
			"type":"VEC3"
		},
		{
			"bufferView":6,
			"componentType":5126,
			"count":38,
			"type":"VEC3"
		},
		{
			"bufferView":7,
			"componentType":5126,
			"count":38,
			"type":"VEC2"
		},
		{
			"bufferView":8,
			"componentType":5126,
			"count":38,
			"type":"VEC3"
		},
		{
			"bufferView":9,
			"componentType":5126,
			"count":38,
			"max":[
				0.196266770362854,
				1,
				0.7249497175216675
			],
			"min":[
				-0.196266770362854,
				-1,
				-0.7333025932312012
			],
			"type":"VEC3"
		},
		{
			"bufferView":10,
			"componentType":5126,
			"count":38,
			"type":"VEC3"
		},
		{
			"bufferView":11,
			"componentType":5126,
			"count":38,
			"type":"VEC2"
		},
		{
			"bufferView":12,
			"componentType":5126,
			"count":38,
			"type":"VEC3"
		},
		{
			"bufferView":13,
			"componentType":5126,
			"count":48,
			"max":[
				1,
				1,
				1
			],
			"min":[
				-1,
				-1,
				-1
			],
			"type":"VEC3"
		},
		{
			"bufferView":14,
			"componentType":5126,
			"count":48,
			"type":"VEC3"
		},
		{
			"bufferView":15,
			"componentType":5126,
			"count":48,
			"type":"VEC2"
		},
		{
			"bufferView":16,
			"componentType":5126,
			"count":48,
			"type":"VEC3"
		},
		{
			"bufferView":17,
			"componentType":5123,
			"count":72,
			"type":"SCALAR"
		},
		{
			"bufferView":18,
			"componentType":5126,
			"count":48,
			"max":[
				1,
				1,
				1
			],
			"min":[
				-1,
				-1,
				-1
			],
			"type":"VEC3"
		},
		{
			"bufferView":19,
			"componentType":5126,
			"count":48,
			"type":"VEC3"
		},
		{
			"bufferView":20,
			"componentType":5126,
			"count":48,
			"type":"VEC2"
		},
		{
			"bufferView":21,
			"componentType":5126,
			"count":48,
			"type":"VEC3"
		},
		{
			"bufferView":22,
			"componentType":5126,
			"count":196,
			"max":[
				1.0242137908935547,
				1.0163264274597168,
				0.617301344871521
			],
			"min":[
				-1.0242137908935547,
				0.0007651615887880325,
				-0.033736199140548706
			],
			"type":"VEC3"
		},
		{
			"bufferView":23,
			"componentType":5126,
			"count":196,
			"type":"VEC3"
		},
		{
			"bufferView":24,
			"componentType":5126,
			"count":196,
			"type":"VEC2"
		},
		{
			"bufferView":25,
			"componentType":5126,
			"count":196,
			"type":"VEC3"
		},
		{
			"bufferView":26,
			"componentType":5123,
			"count":312,
			"type":"SCALAR"
		},
		{
			"bufferView":27,
			"componentType":5126,
			"count":142,
			"max":[
				1,
				0.9497247934341431,
				0.41389989852905273
			],
			"min":[
				-1,
				0.6322721838951111,
				-0.001612551510334015
			],
			"type":"VEC3"
		},
		{
			"bufferView":28,
			"componentType":5126,
			"count":142,
			"type":"VEC3"
		},
		{
			"bufferView":29,
			"componentType":5126,
			"count":142,
			"type":"VEC2"
		},
		{
			"bufferView":30,
			"componentType":5126,
			"count":142,
			"type":"VEC3"
		},
		{
			"bufferView":31,
			"componentType":5123,
			"count":276,
			"type":"SCALAR"
		},
		{
			"bufferView":32,
			"componentType":5126,
			"count":26,
			"max":[
				1.0242137908935547,
				1.420128345489502,
				0.39461207389831543
			],
			"min":[
				-1.0242137908935547,
				1.360231637954712,
				-0.033736199140548706
			],
			"type":"VEC3"
		},
		{
			"bufferView":33,
			"componentType":5126,
			"count":26,
			"type":"VEC3"
		},
		{
			"bufferView":34,
			"componentType":5126,
			"count":26,
			"type":"VEC2"
		},
		{
			"bufferView":35,
			"componentType":5126,
			"count":26,
			"type":"VEC3"
		},
		{
			"bufferView":36,
			"componentType":5123,
			"count":48,
			"type":"SCALAR"
		},
		{
			"bufferView":37,
			"componentType":5126,
			"count":38,
			"max":[
				0.196266770362854,
				1,
				0.7249497175216675
			],
			"min":[
				-0.196266770362854,
				-1,
				-0.7333025932312012
			],
			"type":"VEC3"
		},
		{
			"bufferView":38,
			"componentType":5126,
			"count":38,
			"type":"VEC3"
		},
		{
			"bufferView":39,
			"componentType":5126,
			"count":38,
			"type":"VEC2"
		},
		{
			"bufferView":40,
			"componentType":5126,
			"count":38,
			"type":"VEC3"
		},
		{
			"bufferView":41,
			"componentType":5126,
			"count":26,
			"max":[
				1.0242137908935547,
				1.420128345489502,
				0.39461207389831543
			],
			"min":[
				-1.0242137908935547,
				1.360231637954712,
				-0.033736199140548706
			],
			"type":"VEC3"
		},
		{
			"bufferView":42,
			"componentType":5126,
			"count":26,
			"type":"VEC3"
		},
		{
			"bufferView":43,
			"componentType":5126,
			"count":26,
			"type":"VEC2"
		},
		{
			"bufferView":44,
			"componentType":5126,
			"count":26,
			"type":"VEC3"
		},
		{
			"bufferView":45,
			"componentType":5126,
			"count":38,
			"max":[
				0.196266770362854,
				1,
				0.7249497175216675
			],
			"min":[
				-0.196266770362854,
				-1,
				-0.7333025932312012
			],
			"type":"VEC3"
		},
		{
			"bufferView":46,
			"componentType":5126,
			"count":38,
			"type":"VEC3"
		},
		{
			"bufferView":47,
			"componentType":5126,
			"count":38,
			"type":"VEC2"
		},
		{
			"bufferView":48,
			"componentType":5126,
			"count":38,
			"type":"VEC3"
		}
	],
	"bufferViews":[
		{
			"buffer":0,
			"byteLength":456,
			"byteOffset":0,
			"target":34962
		},
		{
			"buffer":0,
			"byteLength":456,
			"byteOffset":456,
			"target":34962
		},
		{
			"buffer":0,
			"byteLength":304,
			"byteOffset":912,
			"target":34962
		},
		{
			"buffer":0,
			"byteLength":456,
			"byteOffset":1216,
			"target":34962
		},
		{
			"buffer":0,
			"byteLength":168,
			"byteOffset":1672,
			"target":34963
		},
		{
			"buffer":0,
			"byteLength":456,
			"byteOffset":1840,
			"target":34962
		},
		{
			"buffer":0,
			"byteLength":456,
			"byteOffset":2296,
			"target":34962
		},
		{
			"buffer":0,
			"byteLength":304,
			"byteOffset":2752,
			"target":34962
		},
		{
			"buffer":0,
			"byteLength":456,
			"byteOffset":3056,
			"target":34962
		},
		{
			"buffer":0,
			"byteLength":456,
			"byteOffset":3512,
			"target":34962
		},
		{
			"buffer":0,
			"byteLength":456,
			"byteOffset":3968,
			"target":34962
		},
		{
			"buffer":0,
			"byteLength":304,
			"byteOffset":4424,
			"target":34962
		},
		{
			"buffer":0,
			"byteLength":456,
			"byteOffset":4728,
			"target":34962
		},
		{
			"buffer":0,
			"byteLength":576,
			"byteOffset":5184,
			"target":34962
		},
		{
			"buffer":0,
			"byteLength":576,
			"byteOffset":5760,
			"target":34962
		},
		{
			"buffer":0,
			"byteLength":384,
			"byteOffset":6336,
			"target":34962
		},
		{
			"buffer":0,
			"byteLength":576,
			"byteOffset":6720,
			"target":34962
		},
		{
			"buffer":0,
			"byteLength":144,
			"byteOffset":7296,
			"target":34963
		},
		{
			"buffer":0,
			"byteLength":576,
			"byteOffset":7440,
			"target":34962
		},
		{
			"buffer":0,
			"byteLength":576,
			"byteOffset":8016,
			"target":34962
		},
		{
			"buffer":0,
			"byteLength":384,
			"byteOffset":8592,
			"target":34962
		},
		{
			"buffer":0,
			"byteLength":576,
			"byteOffset":8976,
			"target":34962
		},
		{
			"buffer":0,
			"byteLength":2352,
			"byteOffset":9552,
			"target":34962
		},
		{
			"buffer":0,
			"byteLength":2352,
			"byteOffset":11904,
			"target":34962
		},
		{
			"buffer":0,
			"byteLength":1568,
			"byteOffset":14256,
			"target":34962
		},
		{
			"buffer":0,
			"byteLength":2352,
			"byteOffset":15824,
			"target":34962
		},
		{
			"buffer":0,
			"byteLength":624,
			"byteOffset":18176,
			"target":34963
		},
		{
			"buffer":0,
			"byteLength":1704,
			"byteOffset":18800,
			"target":34962
		},
		{
			"buffer":0,
			"byteLength":1704,
			"byteOffset":20504,
			"target":34962
		},
		{
			"buffer":0,
			"byteLength":1136,
			"byteOffset":22208,
			"target":34962
		},
		{
			"buffer":0,
			"byteLength":1704,
			"byteOffset":23344,
			"target":34962
		},
		{
			"buffer":0,
			"byteLength":552,
			"byteOffset":25048,
			"target":34963
		},
		{
			"buffer":0,
			"byteLength":312,
			"byteOffset":25600,
			"target":34962
		},
		{
			"buffer":0,
			"byteLength":312,
			"byteOffset":25912,
			"target":34962
		},
		{
			"buffer":0,
			"byteLength":208,
			"byteOffset":26224,
			"target":34962
		},
		{
			"buffer":0,
			"byteLength":312,
			"byteOffset":26432,
			"target":34962
		},
		{
			"buffer":0,
			"byteLength":96,
			"byteOffset":26744,
			"target":34963
		},
		{
			"buffer":0,
			"byteLength":456,
			"byteOffset":26840,
			"target":34962
		},
		{
			"buffer":0,
			"byteLength":456,
			"byteOffset":27296,
			"target":34962
		},
		{
			"buffer":0,
			"byteLength":304,
			"byteOffset":27752,
			"target":34962
		},
		{
			"buffer":0,
			"byteLength":456,
			"byteOffset":28056,
			"target":34962
		},
		{
			"buffer":0,
			"byteLength":312,
			"byteOffset":28512,
			"target":34962
		},
		{
			"buffer":0,
			"byteLength":312,
			"byteOffset":28824,
			"target":34962
		},
		{
			"buffer":0,
			"byteLength":208,
			"byteOffset":29136,
			"target":34962
		},
		{
			"buffer":0,
			"byteLength":312,
			"byteOffset":29344,
			"target":34962
		},
		{
			"buffer":0,
			"byteLength":456,
			"byteOffset":29656,
			"target":34962
		},
		{
			"buffer":0,
			"byteLength":456,
			"byteOffset":30112,
			"target":34962
		},
		{
			"buffer":0,
			"byteLength":304,
			"byteOffset":30568,
			"target":34962
		},
		{
			"buffer":0,
			"byteLength":456,
			"byteOffset":30872,
			"target":34962
		}
	],
	"buffers":[
		{
			"byteLength":31328,
			"uri":"shelf2.bin"
		}
	]
}
