{
	"asset":{
		"generator":"Khronos glTF Blender I/O v5.0.21",
		"version":"2.0"
	},
	"scene":0,
	"scenes":[
		{
			"name":"LI-shelf1",
			"nodes":[
				0,
				1,
				2,
				3,
				4,
				5,
				6,
				7,
				8,
				9,
				10,
				11,
				12,
				13,
				14,
				15
			]
		}
	],
	"nodes":[
		{
			"mesh":0,
			"name":"Cube.003",
			"scale":[
				1,
				1,
				0.228335440158844
			],
			"translation":[
				0,
				0.9946885108947754,
				-0.21202579140663147
			]
		},
		{
			"mesh":1,
			"name":"Cube.004",
			"scale":[
				1,
				1,
				0.228335440158844
			],
			"translation":[
				-1.282227635383606,
				0.9178432822227478,
				-0.24162030220031738
			]
		},
		{
			"mesh":2,
			"name":"Cube.005",
			"scale":[
				1,
				1,
				0.228335440158844
			],
			"translation":[
				-1.282227635383606,
				0.4825142025947571,
				-0.21202579140663147
			]
		},
		{
			"mesh":3,
			"name":"Cube.006",
			"scale":[
				0.025841422379016876,
				0.1139528751373291,
				0.019211366772651672
			],
			"translation":[
				0.8621371388435364,
				0.4265798032283783,
				0.02176930010318756
			]
		},
		{
			"mesh":4,
			"name":"Cube.007",
			"translation":[
				0,
				0.9945293068885803,
				-0.20275519788265228
			]
		},
		{
			"mesh":5,
			"name":"Cube.008",
			"translation":[
				0,
				3.018270492553711,
				-0.20275519788265228
			]
		},
		{
			"mesh":6,
			"name":"Cube.009",
			"scale":[
				0.9685401916503906,
				0.016815142706036568,
				0.1752893626689911
			],
			"translation":[
				0,
				1.5141246318817139,
				-0.20935319364070892
			]
		},
		{
			"mesh":7,
			"name":"Cube.010",
			"scale":[
				0.9685401916503906,
				0.016815142706036568,
				0.1752893626689911
			],
			"translation":[
				0,
				1.8615933656692505,
				-0.20935319364070892
			]
		},
		{
			"mesh":8,
			"name":"Cube.011",
			"scale":[
				0.9685401916503906,
				0.016815142706036568,
				0.1752893626689911
			],
			"translation":[
				0,
				2.231588840484619,
				-0.20935319364070892
			]
		},
		{
			"mesh":9,
			"name":"Cube.012",
			"scale":[
				0.9685401916503906,
				0.016815142706036568,
				0.1752893626689911
			],
			"translation":[
				0,
				2.556046485900879,
				-0.20935319364070892
			]
		},
		{
			"mesh":10,
			"name":"Cube.013",
			"rotation":[
				0,
				0,
				0.7071066498756409,
				0.70710688829422
			],
			"scale":[
				1.0432809591293335,
				0.018641768023371696,
				0.20678158104419708
			],
			"translation":[
				-0.9705268740653992,
				1.935592532157898,
				-0.21286766231060028
			]
		},
		{
			"mesh":11,
			"name":"Cube.014",
			"scale":[
				0.2621614336967468,
				0.2621614336967468,
				0.2621614336967468
			],
			"translation":[
				-0.8732625246047974,
				1.2282752990722656,
				-0.18289221823215485
			]
		},
		{
			"mesh":12,
			"name":"Cube.015",
			"scale":[
				0.2621614336967468,
				0.1702461540699005,
				0.2621614336967468
			],
			"translation":[
				-0.880659282207489,
				2.755232810974121,
				-0.18289221823215485
			]
		},
		{
			"mesh":13,
			"name":"Cube.016",
			"scale":[
				0.2621614336967468,
				0.13204126060009003,
				0.2621614336967468
			],
			"translation":[
				-0.8855904340744019,
				2.387860059738159,
				-0.18289226293563843
			]
		},
		{
			"mesh":14,
			"name":"Cube.017",
			"scale":[
				0.2621614336967468,
				0.15769702196121216,
				0.2621614336967468
			],
			"translation":[
				-0.8900284767150879,
				2.0485949516296387,
				-0.182892307639122
			]
		},
		{
			"mesh":15,
			"name":"Cube.018",
			"scale":[
				0.2621614336967468,
				0.1435329020023346,
				0.2621614336967468
			],
			"translation":[
				-0.8841110467910767,
				1.6876325607299805,
				-0.182892307639122
			]
		}
	],
	"meshes":[
		{
			"name":"Cube",
			"primitives":[
				{
					"attributes":{
						"POSITION":0,
						"NORMAL":1,
						"TEXCOORD_0":2
					},
					"indices":3
				}
			]
		},
		{
			"name":"Cube.004",
			"primitives":[
				{
					"attributes":{
						"POSITION":4,
						"NORMAL":5,
						"TEXCOORD_0":6
					},
					"indices":7
				}
			]
		},
		{
			"name":"Cube.006",
			"primitives":[
				{
					"attributes":{
						"POSITION":8,
						"NORMAL":9,
						"TEXCOORD_0":10
					},
					"indices":11
				}
			]
		},
		{
			"name":"Cube.007",
			"primitives":[
				{
					"attributes":{
						"POSITION":12,
						"NORMAL":13,
						"TEXCOORD_0":14
					},
					"indices":15
				}
			]
		},
		{
			"name":"Cube.008",
			"primitives":[
				{
					"attributes":{
						"POSITION":16,
						"NORMAL":17,
						"TEXCOORD_0":18
					},
					"indices":19
				}
			]
		},
		{
			"name":"Cube.009",
			"primitives":[
				{
					"attributes":{
						"POSITION":20,
						"NORMAL":21,
						"TEXCOORD_0":22
					},
					"indices":19
				}
			]
		},
		{
			"name":"Cube.010",
			"primitives":[
				{
					"attributes":{
						"POSITION":23,
						"NORMAL":24,
						"TEXCOORD_0":25
					},
					"indices":26
				}
			]
		},
		{
			"name":"Cube.011",
			"primitives":[
				{
					"attributes":{
						"POSITION":27,
						"NORMAL":28,
						"TEXCOORD_0":29
					},
					"indices":26
				}
			]
		},
		{
			"name":"Cube.012",
			"primitives":[
				{
					"attributes":{
						"POSITION":30,
						"NORMAL":31,
						"TEXCOORD_0":32
					},
					"indices":26
				}
			]
		},
		{
			"name":"Cube.013",
			"primitives":[
				{
					"attributes":{
						"POSITION":33,
						"NORMAL":34,
						"TEXCOORD_0":35
					},
					"indices":26
				}
			]
		},
		{
			"name":"Cube.014",
			"primitives":[
				{
					"attributes":{
						"POSITION":36,
						"NORMAL":37,
						"TEXCOORD_0":38
					},
					"indices":39
				}
			]
		},
		{
			"name":"Cube.016",
			"primitives":[
				{
					"attributes":{
						"POSITION":40,
						"NORMAL":41,
						"TEXCOORD_0":42
					},
					"indices":43
				}
			]
		},
		{
			"name":"Cube.017",
			"primitives":[
				{
					"attributes":{
						"POSITION":44,
						"NORMAL":45,
						"TEXCOORD_0":46
					},
					"indices":43
				}
			]
		},
		{
			"name":"Cube.018",
			"primitives":[
				{
					"attributes":{
						"POSITION":47,
						"NORMAL":48,
						"TEXCOORD_0":49
					},
					"indices":43
				}
			]
		},
		{
			"name":"Cube.019",
			"primitives":[
				{
					"attributes":{
						"POSITION":50,
						"NORMAL":51,
						"TEXCOORD_0":52
					},
					"indices":43
				}
			]
		},
		{
			"name":"Cube.020",
			"primitives":[
				{
					"attributes":{
						"POSITION":53,
						"NORMAL":54,
						"TEXCOORD_0":55
					},
					"indices":43
				}
			]
		}
	],
	"accessors":[
		{
			"bufferView":0,
			"componentType":5126,
			"count":60,
			"max":[
				1,
				-0.06885021924972534,
				1
			],
			"min":[
				-1,
				-1,
				-1
			],
			"type":"VEC3"
		},
		{
			"bufferView":1,
			"componentType":5126,
			"count":60,
			"type":"VEC3"
		},
		{
			"bufferView":2,
			"componentType":5126,
			"count":60,
			"type":"VEC2"
		},
		{
			"bufferView":3,
			"componentType":5123,
			"count":132,
			"type":"SCALAR"
		},
		{
			"bufferView":4,
			"componentType":5126,
			"count":126,
			"max":[
				2.2267537117004395,
				-0.03683432936668396,
				1.4568626880645752
			],
			"min":[
				0.3453817069530487,
				-0.17582137882709503,
				0.46160370111465454
			],
			"type":"VEC3"
		},
		{
			"bufferView":5,
			"componentType":5126,
			"count":126,
			"type":"VEC3"
		},
		{
			"bufferView":6,
			"componentType":5126,
			"count":126,
			"type":"VEC2"
		},
		{
			"bufferView":7,
			"componentType":5123,
			"count":270,
			"type":"SCALAR"
		},
		{
			"bufferView":8,
			"componentType":5126,
			"count":200,
			"max":[
				2.24853515625,
				0.31110265851020813,
				0.9971386194229126
			],
			"min":[
				0.34456688165664673,
				-0.4656868577003479,
				0.8956478238105774
			],
			"type":"VEC3"
		},
		{
			"bufferView":9,
			"componentType":5126,
			"count":200,
			"type":"VEC3"
		},
		{
			"bufferView":10,
			"componentType":5126,
			"count":200,
			"type":"VEC2"
		},
		{
			"bufferView":11,
			"componentType":5123,
			"count":300,
			"type":"SCALAR"
		},
		{
			"bufferView":12,
			"componentType":5126,
			"count":20,
			"max":[
				1,
				1,
				1
			],
			"min":[
				-1,
				-1,
				-1
			],
			"type":"VEC3"
		},
		{
			"bufferView":13,
			"componentType":5126,
			"count":20,
			"type":"VEC3"
		},
		{
			"bufferView":14,
			"componentType":5126,
			"count":20,
			"type":"VEC2"
		},
		{
			"bufferView":15,
			"componentType":5123,
			"count":30,
			"type":"SCALAR"
		},
		{
			"bufferView":16,
			"componentType":5126,
			"count":161,
			"max":[
				1.0262384414672852,
				-0.029337909072637558,
				0.2640955150127411
			],
			"min":[
				-1.0262384414672852,
				-0.0720343142747879,
				-0.2640955150127411
			],
			"type":"VEC3"
		},
		{
			"bufferView":17,
			"componentType":5126,
			"count":161,
			"type":"VEC3"
		},
		{
			"bufferView":18,
			"componentType":5126,
			"count":161,
			"type":"VEC2"
		},
		{
			"bufferView":19,
			"componentType":5123,
			"count":360,
			"type":"SCALAR"
		},
		{
			"bufferView":20,
			"componentType":5126,
			"count":161,
			"max":[
				1.0262384414672852,
				-0.029337909072637558,
				0.2640955150127411
			],
			"min":[
				-1.0262384414672852,
				-0.0720343142747879,
				-0.2640955150127411
			],
			"type":"VEC3"
		},
		{
			"bufferView":21,
			"componentType":5126,
			"count":161,
			"type":"VEC3"
		},
		{
			"bufferView":22,
			"componentType":5126,
			"count":161,
			"type":"VEC2"
		},
		{
			"bufferView":23,
			"componentType":5126,
			"count":24,
			"max":[
				1,
				1,
				1
			],
			"min":[
				-1,
				-1,
				-1
			],
			"type":"VEC3"
		},
		{
			"bufferView":24,
			"componentType":5126,
			"count":24,
			"type":"VEC3"
		},
		{
			"bufferView":25,
			"componentType":5126,
			"count":24,
			"type":"VEC2"
		},
		{
			"bufferView":26,
			"componentType":5123,
			"count":36,
			"type":"SCALAR"
		},
		{
			"bufferView":27,
			"componentType":5126,
			"count":24,
			"max":[
				1,
				1,
				1
			],
			"min":[
				-1,
				-1,
				-1
			],
			"type":"VEC3"
		},
		{
			"bufferView":28,
			"componentType":5126,
			"count":24,
			"type":"VEC3"
		},
		{
			"bufferView":29,
			"componentType":5126,
			"count":24,
			"type":"VEC2"
		},
		{
			"bufferView":30,
			"componentType":5126,
			"count":24,
			"max":[
				1,
				1,
				1
			],
			"min":[
				-1,
				-1,
				-1
			],
			"type":"VEC3"
		},
		{
			"bufferView":31,
			"componentType":5126,
			"count":24,
			"type":"VEC3"
		},
		{
			"bufferView":32,
			"componentType":5126,
			"count":24,
			"type":"VEC2"
		},
		{
			"bufferView":33,
			"componentType":5126,
			"count":24,
			"max":[
				1,
				1,
				1
			],
			"min":[
				-1,
				-1,
				-1
			],
			"type":"VEC3"
		},
		{
			"bufferView":34,
			"componentType":5126,
			"count":24,
			"type":"VEC3"
		},
		{
			"bufferView":35,
			"componentType":5126,
			"count":24,
			"type":"VEC2"
		},
		{
			"bufferView":36,
			"componentType":5126,
			"count":48,
			"max":[
				1,
				1,
				1
			],
			"min":[
				-1,
				-1,
				-1
			],
			"type":"VEC3"
		},
		{
			"bufferView":37,
			"componentType":5126,
			"count":48,
			"type":"VEC3"
		},
		{
			"bufferView":38,
			"componentType":5126,
			"count":48,
			"type":"VEC2"
		},
		{
			"bufferView":39,
			"componentType":5123,
			"count":72,
			"type":"SCALAR"
		},
		{
			"bufferView":40,
			"componentType":5126,
			"count":608,
			"max":[
				6.869983196258545,
				1,
				0.7249497175216675
			],
			"min":[
				-0.196266770362854,
				-1,
				-0.7333025932312012
			],
			"type":"VEC3"
		},
		{
			"bufferView":41,
			"componentType":5126,
			"count":608,
			"type":"VEC3"
		},
		{
			"bufferView":42,
			"componentType":5126,
			"count":608,
			"type":"VEC2"
		},
		{
			"bufferView":43,
			"componentType":5123,
			"count":1344,
			"type":"SCALAR"
		},
		{
			"bufferView":44,
			"componentType":5126,
			"count":608,
			"max":[
				6.869983196258545,
				1,
				0.7249497175216675
			],
			"min":[
				-0.196266770362854,
				-1,
				-0.7333025932312012
			],
			"type":"VEC3"
		},
		{
			"bufferView":45,
			"componentType":5126,
			"count":608,
			"type":"VEC3"
		},
		{
			"bufferView":46,
			"componentType":5126,
			"count":608,
			"type":"VEC2"
		},
		{
			"bufferView":47,
			"componentType":5126,
			"count":608,
			"max":[
				6.869983196258545,
				1,
				0.7249497175216675
			],
			"min":[
				-0.196266770362854,
				-1,
				-0.7333025932312012
			],
			"type":"VEC3"
		},
		{
			"bufferView":48,
			"componentType":5126,
			"count":608,
			"type":"VEC3"
		},
		{
			"bufferView":49,
			"componentType":5126,
			"count":608,
			"type":"VEC2"
		},
		{
			"bufferView":50,
			"componentType":5126,
			"count":608,
			"max":[
				6.869983196258545,
				1,
				0.7249497175216675
			],
			"min":[
				-0.196266770362854,
				-1,
				-0.7333025932312012
			],
			"type":"VEC3"
		},
		{
			"bufferView":51,
			"componentType":5126,
			"count":608,
			"type":"VEC3"
		},
		{
			"bufferView":52,
			"componentType":5126,
			"count":608,
			"type":"VEC2"
		},
		{
			"bufferView":53,
			"componentType":5126,
			"count":608,
			"max":[
				6.869983196258545,
				1,
				0.7249497175216675
			],
			"min":[
				-0.196266770362854,
				-1,
				-0.7333025932312012
			],
			"type":"VEC3"
		},
		{
			"bufferView":54,
			"componentType":5126,
			"count":608,
			"type":"VEC3"
		},
		{
			"bufferView":55,
			"componentType":5126,
			"count":608,
			"type":"VEC2"
		}
	],
	"bufferViews":[
		{
			"buffer":0,
			"byteLength":720,
			"byteOffset":0,
			"target":34962
		},
		{
			"buffer":0,
			"byteLength":720,
			"byteOffset":720,
			"target":34962
		},
		{
			"buffer":0,
			"byteLength":480,
			"byteOffset":1440,
			"target":34962
		},
		{
			"buffer":0,
			"byteLength":264,
			"byteOffset":1920,
			"target":34963
		},
		{
			"buffer":0,
			"byteLength":1512,
			"byteOffset":2184,
			"target":34962
		},
		{
			"buffer":0,
			"byteLength":1512,
			"byteOffset":3696,
			"target":34962
		},
		{
			"buffer":0,
			"byteLength":1008,
			"byteOffset":5208,
			"target":34962
		},
		{
			"buffer":0,
			"byteLength":540,
			"byteOffset":6216,
			"target":34963
		},
		{
			"buffer":0,
			"byteLength":2400,
			"byteOffset":6756,
			"target":34962
		},
		{
			"buffer":0,
			"byteLength":2400,
			"byteOffset":9156,
			"target":34962
		},
		{
			"buffer":0,
			"byteLength":1600,
			"byteOffset":11556,
			"target":34962
		},
		{
			"buffer":0,
			"byteLength":600,
			"byteOffset":13156,
			"target":34963
		},
		{
			"buffer":0,
			"byteLength":240,
			"byteOffset":13756,
			"target":34962
		},
		{
			"buffer":0,
			"byteLength":240,
			"byteOffset":13996,
			"target":34962
		},
		{
			"buffer":0,
			"byteLength":160,
			"byteOffset":14236,
			"target":34962
		},
		{
			"buffer":0,
			"byteLength":60,
			"byteOffset":14396,
			"target":34963
		},
		{
			"buffer":0,
			"byteLength":1932,
			"byteOffset":14456,
			"target":34962
		},
		{
			"buffer":0,
			"byteLength":1932,
			"byteOffset":16388,
			"target":34962
		},
		{
			"buffer":0,
			"byteLength":1288,
			"byteOffset":18320,
			"target":34962
		},
		{
			"buffer":0,
			"byteLength":720,
			"byteOffset":19608,
			"target":34963
		},
		{
			"buffer":0,
			"byteLength":1932,
			"byteOffset":20328,
			"target":34962
		},
		{
			"buffer":0,
			"byteLength":1932,
			"byteOffset":22260,
			"target":34962
		},
		{
			"buffer":0,
			"byteLength":1288,
			"byteOffset":24192,
			"target":34962
		},
		{
			"buffer":0,
			"byteLength":288,
			"byteOffset":25480,
			"target":34962
		},
		{
			"buffer":0,
			"byteLength":288,
			"byteOffset":25768,
			"target":34962
		},
		{
			"buffer":0,
			"byteLength":192,
			"byteOffset":26056,
			"target":34962
		},
		{
			"buffer":0,
			"byteLength":72,
			"byteOffset":26248,
			"target":34963
		},
		{
			"buffer":0,
			"byteLength":288,
			"byteOffset":26320,
			"target":34962
		},
		{
			"buffer":0,
			"byteLength":288,
			"byteOffset":26608,
			"target":34962
		},
		{
			"buffer":0,
			"byteLength":192,
			"byteOffset":26896,
			"target":34962
		},
		{
			"buffer":0,
			"byteLength":288,
			"byteOffset":27088,
			"target":34962
		},
		{
			"buffer":0,
			"byteLength":288,
			"byteOffset":27376,
			"target":34962
		},
		{
			"buffer":0,
			"byteLength":192,
			"byteOffset":27664,
			"target":34962
		},
		{
			"buffer":0,
			"byteLength":288,
			"byteOffset":27856,
			"target":34962
		},
		{
			"buffer":0,
			"byteLength":288,
			"byteOffset":28144,
			"target":34962
		},
		{
			"buffer":0,
			"byteLength":192,
			"byteOffset":28432,
			"target":34962
		},
		{
			"buffer":0,
			"byteLength":576,
			"byteOffset":28624,
			"target":34962
		},
		{
			"buffer":0,
			"byteLength":576,
			"byteOffset":29200,
			"target":34962
		},
		{
			"buffer":0,
			"byteLength":384,
			"byteOffset":29776,
			"target":34962
		},
		{
			"buffer":0,
			"byteLength":144,
			"byteOffset":30160,
			"target":34963
		},
		{
			"buffer":0,
			"byteLength":7296,
			"byteOffset":30304,
			"target":34962
		},
		{
			"buffer":0,
			"byteLength":7296,
			"byteOffset":37600,
			"target":34962
		},
		{
			"buffer":0,
			"byteLength":4864,
			"byteOffset":44896,
			"target":34962
		},
		{
			"buffer":0,
			"byteLength":2688,
			"byteOffset":49760,
			"target":34963
		},
		{
			"buffer":0,
			"byteLength":7296,
			"byteOffset":52448,
			"target":34962
		},
		{
			"buffer":0,
			"byteLength":7296,
			"byteOffset":59744,
			"target":34962
		},
		{
			"buffer":0,
			"byteLength":4864,
			"byteOffset":67040,
			"target":34962
		},
		{
			"buffer":0,
			"byteLength":7296,
			"byteOffset":71904,
			"target":34962
		},
		{
			"buffer":0,
			"byteLength":7296,
			"byteOffset":79200,
			"target":34962
		},
		{
			"buffer":0,
			"byteLength":4864,
			"byteOffset":86496,
			"target":34962
		},
		{
			"buffer":0,
			"byteLength":7296,
			"byteOffset":91360,
			"target":34962
		},
		{
			"buffer":0,
			"byteLength":7296,
			"byteOffset":98656,
			"target":34962
		},
		{
			"buffer":0,
			"byteLength":4864,
			"byteOffset":105952,
			"target":34962
		},
		{
			"buffer":0,
			"byteLength":7296,
			"byteOffset":110816,
			"target":34962
		},
		{
			"buffer":0,
			"byteLength":7296,
			"byteOffset":118112,
			"target":34962
		},
		{
			"buffer":0,
			"byteLength":4864,
			"byteOffset":125408,
			"target":34962
		}
	],
	"buffers":[
		{
			"byteLength":130272,
			"uri":"shelf.1.bin"
		}
	]
}
