{
	"asset":{
		"generator":"Khronos glTF Blender I/O v5.0.21",
		"version":"2.0"
	},
	"scene":0,
	"scenes":[
		{
			"name":"table_round1",
			"nodes":[
				0,
				1,
				2
			]
		}
	],
	"nodes":[
		{
			"mesh":0,
			"name":"Circle",
			"translation":[
				0,
				0.9785239100456238,
				0
			]
		},
		{
			"mesh":1,
			"name":"Cube.001",
			"scale":[
				0.20211419463157654,
				0.09666331857442856,
				0.20211419463157654
			],
			"translation":[
				0,
				0.09763970971107483,
				0
			]
		},
		{
			"mesh":2,
			"name":"Cylinder.002",
			"scale":[
				0.07355135679244995,
				0.30308642983436584,
				0.07355135679244995
			],
			"translation":[
				0,
				0.5082975029945374,
				0
			]
		}
	],
	"materials":[
		{
			"doubleSided":true,
			"name":"furniture",
			"pbrMetallicRoughness":{
				"metallicFactor":0,
				"roughnessFactor":0.5
			}
		}
	],
	"meshes":[
		{
			"name":"Circle",
			"primitives":[
				{
					"attributes":{
						"POSITION":0,
						"NORMAL":1,
						"TEXCOORD_0":2,
						"COLOR_0":3
					},
					"indices":4,
					"material":0
				}
			]
		},
		{
			"name":"Cube.010",
			"primitives":[
				{
					"attributes":{
						"POSITION":5,
						"NORMAL":6,
						"TEXCOORD_0":7,
						"COLOR_0":8
					},
					"indices":9,
					"material":0
				}
			]
		},
		{
			"name":"Cylinder.005",
			"primitives":[
				{
					"attributes":{
						"POSITION":10,
						"NORMAL":11,
						"TEXCOORD_0":12,
						"COLOR_0":13
					},
					"indices":14,
					"material":0
				}
			]
		}
	],
	"accessors":[
		{
			"bufferView":0,
			"componentType":5126,
			"count":256,
			"max":[
				0.5509514808654785,
				0.016517773270606995,
				0.5509514808654785
			],
			"min":[
				-0.5509514808654785,
				-0.12370920926332474,
				-0.5509514808654785
			],
			"type":"VEC3"
		},
		{
			"bufferView":1,
			"componentType":5126,
			"count":256,
			"type":"VEC3"
		},
		{
			"bufferView":2,
			"componentType":5126,
			"count":256,
			"type":"VEC2"
		},
		{
			"bufferView":3,
			"componentType":5126,
			"count":256,
			"type":"VEC3"
		},
		{
			"bufferView":4,
			"componentType":5123,
			"count":1146,
			"type":"SCALAR"
		},
		{
			"bufferView":5,
			"componentType":5126,
			"count":82,
			"max":[
				1,
				0.24827530980110168,
				1
			],
			"min":[
				-1,
				-1,
				-1
			],
			"type":"VEC3"
		},
		{
			"bufferView":6,
			"componentType":5126,
			"count":82,
			"type":"VEC3"
		},
		{
			"bufferView":7,
			"componentType":5126,
			"count":82,
			"type":"VEC2"
		},
		{
			"bufferView":8,
			"componentType":5126,
			"count":82,
			"type":"VEC3"
		},
		{
			"bufferView":9,
			"componentType":5123,
			"count":144,
			"type":"SCALAR"
		},
		{
			"bufferView":10,
			"componentType":5126,
			"count":64,
			"max":[
				0.9238795042037964,
				1.2882020473480225,
				0.9238795042037964
			],
			"min":[
				-0.9238795042037964,
				-1.340537428855896,
				-0.9238795042037964
			],
			"type":"VEC3"
		},
		{
			"bufferView":11,
			"componentType":5126,
			"count":64,
			"type":"VEC3"
		},
		{
			"bufferView":12,
			"componentType":5126,
			"count":64,
			"type":"VEC2"
		},
		{
			"bufferView":13,
			"componentType":5126,
			"count":64,
			"type":"VEC3"
		},
		{
			"bufferView":14,
			"componentType":5123,
			"count":96,
			"type":"SCALAR"
		}
	],
	"bufferViews":[
		{
			"buffer":0,
			"byteLength":3072,
			"byteOffset":0,
			"target":34962
		},
		{
			"buffer":0,
			"byteLength":3072,
			"byteOffset":3072,
			"target":34962
		},
		{
			"buffer":0,
			"byteLength":2048,
			"byteOffset":6144,
			"target":34962
		},
		{
			"buffer":0,
			"byteLength":3072,
			"byteOffset":8192,
			"target":34962
		},
		{
			"buffer":0,
			"byteLength":2292,
			"byteOffset":11264,
			"target":34963
		},
		{
			"buffer":0,
			"byteLength":984,
			"byteOffset":13556,
			"target":34962
		},
		{
			"buffer":0,
			"byteLength":984,
			"byteOffset":14540,
			"target":34962
		},
		{
			"buffer":0,
			"byteLength":656,
			"byteOffset":15524,
			"target":34962
		},
		{
			"buffer":0,
			"byteLength":984,
			"byteOffset":16180,
			"target":34962
		},
		{
			"buffer":0,
			"byteLength":288,
			"byteOffset":17164,
			"target":34963
		},
		{
			"buffer":0,
			"byteLength":768,
			"byteOffset":17452,
			"target":34962
		},
		{
			"buffer":0,
			"byteLength":768,
			"byteOffset":18220,
			"target":34962
		},
		{
			"buffer":0,
			"byteLength":512,
			"byteOffset":18988,
			"target":34962
		},
		{
			"buffer":0,
			"byteLength":768,
			"byteOffset":19500,
			"target":34962
		},
		{
			"buffer":0,
			"byteLength":192,
			"byteOffset":20268,
			"target":34963
		}
	],
	"buffers":[
		{
			"byteLength":20460,
			"uri":"table_round1.bin"
		}
	]
}
