{
	"asset":{
		"generator":"Khronos glTF Blender I/O v5.0.21",
		"version":"2.0"
	},
	"scene":0,
	"scenes":[
		{
			"name":"table1",
			"nodes":[
				0,
				1
			]
		}
	],
	"nodes":[
		{
			"mesh":0,
			"name":"Cube.006",
			"rotation":[
				0,
				0,
				-0.7071066498756409,
				0.70710688829422
			],
			"scale":[
				0.4286309778690338,
				0.02662627212703228,
				0.02662627212703228
			],
			"translation":[
				-0.9685676097869873,
				0.4212270975112915,
				-0.38759517669677734
			]
		},
		{
			"mesh":1,
			"name":"Cylinder",
			"scale":[
				0.6620253324508667,
				0.035679660737514496,
				0.5596323609352112
			],
			"translation":[
				-0.7950692772865295,
				0.8662633299827576,
				0
			]
		}
	],
	"meshes":[
		{
			"name":"Cube.003",
			"primitives":[
				{
					"attributes":{
						"POSITION":0,
						"NORMAL":1,
						"TEXCOORD_0":2,
						"COLOR_0":3
					},
					"indices":4
				}
			]
		},
		{
			"name":"Cylinder",
			"primitives":[
				{
					"attributes":{
						"POSITION":5,
						"NORMAL":6,
						"TEXCOORD_0":7,
						"COLOR_0":8
					},
					"indices":9
				}
			]
		}
	],
	"accessors":[
		{
			"bufferView":0,
			"componentType":5126,
			"count":192,
			"max":[
				1.000001311302185,
				76.46224975585938,
				31.17751693725586
			],
			"min":[
				-1.000000238418579,
				-2.950054168701172,
				-2.063765525817871
			],
			"type":"VEC3"
		},
		{
			"bufferView":1,
			"componentType":5126,
			"count":192,
			"type":"VEC3"
		},
		{
			"bufferView":2,
			"componentType":5126,
			"count":192,
			"type":"VEC2"
		},
		{
			"bufferView":3,
			"componentType":5123,
			"count":192,
			"normalized":true,
			"type":"VEC4"
		},
		{
			"bufferView":4,
			"componentType":5123,
			"count":288,
			"type":"SCALAR"
		},
		{
			"bufferView":5,
			"componentType":5126,
			"count":93,
			"max":[
				3.394158363342285,
				1,
				1
			],
			"min":[
				-1,
				-1,
				-1
			],
			"type":"VEC3"
		},
		{
			"bufferView":6,
			"componentType":5126,
			"count":93,
			"type":"VEC3"
		},
		{
			"bufferView":7,
			"componentType":5126,
			"count":93,
			"type":"VEC2"
		},
		{
			"bufferView":8,
			"componentType":5123,
			"count":93,
			"normalized":true,
			"type":"VEC4"
		},
		{
			"bufferView":9,
			"componentType":5123,
			"count":372,
			"type":"SCALAR"
		}
	],
	"bufferViews":[
		{
			"buffer":0,
			"byteLength":2304,
			"byteOffset":0,
			"target":34962
		},
		{
			"buffer":0,
			"byteLength":2304,
			"byteOffset":2304,
			"target":34962
		},
		{
			"buffer":0,
			"byteLength":1536,
			"byteOffset":4608,
			"target":34962
		},
		{
			"buffer":0,
			"byteLength":1536,
			"byteOffset":6144,
			"target":34962
		},
		{
			"buffer":0,
			"byteLength":576,
			"byteOffset":7680,
			"target":34963
		},
		{
			"buffer":0,
			"byteLength":1116,
			"byteOffset":8256,
			"target":34962
		},
		{
			"buffer":0,
			"byteLength":1116,
			"byteOffset":9372,
			"target":34962
		},
		{
			"buffer":0,
			"byteLength":744,
			"byteOffset":10488,
			"target":34962
		},
		{
			"buffer":0,
			"byteLength":744,
			"byteOffset":11232,
			"target":34962
		},
		{
			"buffer":0,
			"byteLength":744,
			"byteOffset":11976,
			"target":34963
		}
	],
	"buffers":[
		{
			"byteLength":12720,
			"uri":"table1.bin"
		}
	]
}
