{
	"asset":{
		"generator":"Khronos glTF Blender I/O v5.0.21",
		"version":"2.0"
	},
	"scene":0,
	"scenes":[
		{
			"name":"table2",
			"nodes":[
				0,
				1
			]
		}
	],
	"nodes":[
		{
			"mesh":0,
			"name":"Cube",
			"scale":[
				0.09827834367752075,
				0.09827834367752075,
				0.09827834367752075
			]
		},
		{
			"mesh":1,
			"name":"Cylinder.001",
			"scale":[
				0.30892008543014526,
				0.01664915680885315,
				0.2611405849456787
			]
		}
	],
	"meshes":[
		{
			"name":"Cube.009",
			"primitives":[
				{
					"attributes":{
						"POSITION":0,
						"NORMAL":1,
						"TEXCOORD_0":2,
						"COLOR_0":3
					},
					"indices":4
				}
			]
		},
		{
			"name":"Cylinder.003",
			"primitives":[
				{
					"attributes":{
						"POSITION":5,
						"NORMAL":6,
						"TEXCOORD_0":7,
						"COLOR_0":8
					},
					"indices":9
				}
			]
		}
	],
	"accessors":[
		{
			"bufferView":0,
			"componentType":5126,
			"count":160,
			"max":[
				14.170938491821289,
				9,
				5.0771918296813965
			],
			"min":[
				-14.170938491821289,
				0,
				-5.0771918296813965
			],
			"type":"VEC3"
		},
		{
			"bufferView":1,
			"componentType":5126,
			"count":160,
			"type":"VEC3"
		},
		{
			"bufferView":2,
			"componentType":5126,
			"count":160,
			"type":"VEC2"
		},
		{
			"bufferView":3,
			"componentType":5123,
			"count":160,
			"normalized":true,
			"type":"VEC4"
		},
		{
			"bufferView":4,
			"componentType":5123,
			"count":240,
			"type":"SCALAR"
		},
		{
			"bufferView":5,
			"componentType":5126,
			"count":81,
			"max":[
				6.155901908874512,
				59.56468200683594,
				2.567143440246582
			],
			"min":[
				-6.155901908874512,
				47.35533142089844,
				-2.567143440246582
			],
			"type":"VEC3"
		},
		{
			"bufferView":6,
			"componentType":5126,
			"count":81,
			"type":"VEC3"
		},
		{
			"bufferView":7,
			"componentType":5126,
			"count":81,
			"type":"VEC2"
		},
		{
			"bufferView":8,
			"componentType":5123,
			"count":81,
			"normalized":true,
			"type":"VEC4"
		},
		{
			"bufferView":9,
			"componentType":5123,
			"count":414,
			"type":"SCALAR"
		}
	],
	"bufferViews":[
		{
			"buffer":0,
			"byteLength":1920,
			"byteOffset":0,
			"target":34962
		},
		{
			"buffer":0,
			"byteLength":1920,
			"byteOffset":1920,
			"target":34962
		},
		{
			"buffer":0,
			"byteLength":1280,
			"byteOffset":3840,
			"target":34962
		},
		{
			"buffer":0,
			"byteLength":1280,
			"byteOffset":5120,
			"target":34962
		},
		{
			"buffer":0,
			"byteLength":480,
			"byteOffset":6400,
			"target":34963
		},
		{
			"buffer":0,
			"byteLength":972,
			"byteOffset":6880,
			"target":34962
		},
		{
			"buffer":0,
			"byteLength":972,
			"byteOffset":7852,
			"target":34962
		},
		{
			"buffer":0,
			"byteLength":648,
			"byteOffset":8824,
			"target":34962
		},
		{
			"buffer":0,
			"byteLength":648,
			"byteOffset":9472,
			"target":34962
		},
		{
			"buffer":0,
			"byteLength":828,
			"byteOffset":10120,
			"target":34963
		}
	],
	"buffers":[
		{
			"byteLength":10948,
			"uri":"table2.bin"
		}
	]
}
