{
	"asset":{
		"generator":"Khronos glTF Blender I/O v5.1.8",
		"version":"2.0"
	},
	"scene":0,
	"scenes":[
		{
			"name":"tv",
			"nodes":[
				0
			]
		}
	],
	"nodes":[
		{
			"mesh":0,
			"name":"Cube"
		}
	],
	"materials":[
		{
			"doubleSided":true,
			"name":"tv",
			"pbrMetallicRoughness":{
				"baseColorTexture":{
					"index":0
				},
				"metallicFactor":0,
				"roughnessFactor":0.5
			}
		},
		{
			"doubleSided":true,
			"name":"tv_screen",
			"pbrMetallicRoughness":{
				"baseColorFactor":[
					0.13213403522968292,
					0.30542686581611633,
					0.2606881856918335,
					1
				],
				"metallicFactor":0,
				"roughnessFactor":0.5
			}
		}
	],
	"meshes":[
		{
			"name":"Cube",
			"primitives":[
				{
					"attributes":{
						"POSITION":0,
						"NORMAL":1,
						"TEXCOORD_0":2
					},
					"indices":3,
					"material":0
				},
				{
					"attributes":{
						"POSITION":4,
						"NORMAL":5,
						"TEXCOORD_0":6
					},
					"indices":7,
					"material":1
				}
			]
		}
	],
	"textures":[
		{
			"sampler":0,
			"source":0
		}
	],
	"images":[
		{
			"mimeType":"image/png",
			"name":"tv_diffuse",
			"uri":"tv_diffuse.png"
		}
	],
	"accessors":[
		{
			"bufferView":0,
			"componentType":5126,
			"count":197,
			"max":[
				0.8581399917602539,
				2.013662576675415,
				0.43860313296318054
			],
			"min":[
				-0.8581399917602539,
				0,
				-0.4531630277633667
			],
			"type":"VEC3"
		},
		{
			"bufferView":1,
			"componentType":5126,
			"count":197,
			"type":"VEC3"
		},
		{
			"bufferView":2,
			"componentType":5126,
			"count":197,
			"type":"VEC2"
		},
		{
			"bufferView":3,
			"componentType":5123,
			"count":804,
			"type":"SCALAR"
		},
		{
			"bufferView":4,
			"componentType":5126,
			"count":51,
			"max":[
				0.6931681632995605,
				1.8652114868164062,
				0.44126057624816895
			],
			"min":[
				-0.6931681632995605,
				0.7946105003356934,
				0.40059083700180054
			],
			"type":"VEC3"
		},
		{
			"bufferView":5,
			"componentType":5126,
			"count":51,
			"type":"VEC3"
		},
		{
			"bufferView":6,
			"componentType":5126,
			"count":51,
			"type":"VEC2"
		},
		{
			"bufferView":7,
			"componentType":5123,
			"count":246,
			"type":"SCALAR"
		}
	],
	"bufferViews":[
		{
			"buffer":0,
			"byteLength":2364,
			"byteOffset":0,
			"target":34962
		},
		{
			"buffer":0,
			"byteLength":2364,
			"byteOffset":2364,
			"target":34962
		},
		{
			"buffer":0,
			"byteLength":1576,
			"byteOffset":4728,
			"target":34962
		},
		{
			"buffer":0,
			"byteLength":1608,
			"byteOffset":6304,
			"target":34963
		},
		{
			"buffer":0,
			"byteLength":612,
			"byteOffset":7912,
			"target":34962
		},
		{
			"buffer":0,
			"byteLength":612,
			"byteOffset":8524,
			"target":34962
		},
		{
			"buffer":0,
			"byteLength":408,
			"byteOffset":9136,
			"target":34962
		},
		{
			"buffer":0,
			"byteLength":492,
			"byteOffset":9544,
			"target":34963
		}
	],
	"samplers":[
		{
			"magFilter":9729,
			"minFilter":9987
		}
	],
	"buffers":[
		{
			"byteLength":10036,
			"uri":"tv.bin"
		}
	]
}
