{
	"asset":{
		"generator":"Khronos glTF Blender I/O v5.0.21",
		"version":"2.0"
	},
	"scene":0,
	"scenes":[
		{
			"name":"window_1_curtain",
			"nodes":[
				0,
				1,
				2,
				3,
				4,
				5,
				6,
				7,
				8,
				9,
				10,
				11,
				12,
				13,
				14,
				15,
				16
			]
		}
	],
	"nodes":[
		{
			"mesh":0,
			"name":"Cube",
			"scale":[
				0.8190677165985107,
				0.7921600341796875,
				0.7921600341796875
			],
			"translation":[
				0.002121421042829752,
				-0.820035457611084,
				-0.0068173338659107685
			]
		},
		{
			"mesh":1,
			"name":"Cube.001",
			"scale":[
				0.7921600341796875,
				0.7921600341796875,
				0.7921600341796875
			],
			"translation":[
				-0.0005922953132539988,
				-0.027875442057847977,
				-0.0068173338659107685
			]
		},
		{
			"mesh":1,
			"name":"Cube.003",
			"scale":[
				0.7921600341796875,
				0.7921600341796875,
				0.7921600341796875
			],
			"translation":[
				-0.741245448589325,
				-0.027875442057847977,
				-0.0068173338659107685
			]
		},
		{
			"mesh":1,
			"name":"Cube.004",
			"scale":[
				0.7921600341796875,
				0.7921600341796875,
				0.7921600341796875
			],
			"translation":[
				0.7483106851577759,
				-0.027875442057847977,
				-0.0068173338659107685
			]
		},
		{
			"mesh":2,
			"name":"Cube.005",
			"rotation":[
				0,
				0,
				0.0240689218044281,
				0.9997103810310364
			],
			"scale":[
				0.3870457112789154,
				0.009473451413214207,
				0.010437535122036934
			],
			"translation":[
				-0.3696926534175873,
				0.5293940305709839,
				-0.024077242240309715
			]
		},
		{
			"mesh":3,
			"name":"Cube.006",
			"rotation":[
				0,
				0,
				-0.02684290148317814,
				0.9996396899223328
			],
			"scale":[
				0.3870457410812378,
				0.009473451413214207,
				0.010437535122036934
			],
			"translation":[
				-0.3696926534175873,
				0.006644127424806356,
				-0.024077311158180237
			]
		},
		{
			"mesh":4,
			"name":"Cube.007",
			"rotation":[
				0,
				0,
				0.03149911388754845,
				0.9995037913322449
			],
			"scale":[
				0.3870457112789154,
				0.009473449550569057,
				0.010437535122036934
			],
			"translation":[
				-0.3798103928565979,
				-0.6442639827728271,
				-0.02407739870250225
			]
		},
		{
			"mesh":5,
			"name":"Cube.008",
			"rotation":[
				0,
				0,
				-0.015967126935720444,
				0.999872624874115
			],
			"scale":[
				0.38704580068588257,
				0.009473451413214207,
				0.010437535122036934
			],
			"translation":[
				0.37227505445480347,
				-0.6543817520141602,
				-0.0240774005651474
			]
		},
		{
			"mesh":6,
			"name":"Cube.009",
			"rotation":[
				0,
				0,
				-0.007968378253281116,
				0.9999683499336243
			],
			"scale":[
				0.3870457410812378,
				0.009473450481891632,
				0.010437535122036934
			],
			"translation":[
				0.4026282727718353,
				0.026879506185650826,
				-0.024077309295535088
			]
		},
		{
			"mesh":7,
			"name":"Cube.010",
			"rotation":[
				0,
				0,
				-0.02389337122440338,
				0.9997146129608154
			],
			"scale":[
				0.38704580068588257,
				0.009473452344536781,
				0.010437535122036934
			],
			"translation":[
				0.3891379237174988,
				0.569864809513092,
				-0.02407723478972912
			]
		},
		{
			"mesh":0,
			"name":"Cube.011",
			"scale":[
				0.8190677165985107,
				0.7921600341796875,
				0.7921600341796875
			],
			"translation":[
				0.002121421042829752,
				0.7642846703529358,
				-0.0068173338659107685
			]
		},
		{
			"mesh":8,
			"name":"Cube.012",
			"rotation":[
				0,
				0,
				-0.697063148021698,
				0.7170097231864929
			],
			"scale":[
				0.7892251014709473,
				0.009473452344536781,
				0.010437535122036934
			],
			"translation":[
				0.2614220678806305,
				-0.03195640817284584,
				-0.024077318608760834
			]
		},
		{
			"mesh":9,
			"name":"Cube.013",
			"rotation":[
				0,
				0,
				-0.7094956636428833,
				0.7047098875045776
			],
			"scale":[
				0.7892252206802368,
				0.009473453275859356,
				0.010437535122036934
			],
			"translation":[
				0.49676573276519775,
				-0.020189225673675537,
				-0.024077316746115685
			]
		},
		{
			"mesh":10,
			"name":"Cube.014",
			"rotation":[
				0,
				0,
				-0.7007109522819519,
				0.7134453058242798
			],
			"scale":[
				0.7892251014709473,
				0.009473451413214207,
				0.010437535122036934
			],
			"translation":[
				-0.22809293866157532,
				-0.01312891487032175,
				-0.024077316746115685
			]
		},
		{
			"mesh":11,
			"name":"Cube.015",
			"rotation":[
				0,
				0,
				-0.7084345817565918,
				0.7057765126228333
			],
			"scale":[
				0.7892252206802368,
				0.009473452344536781,
				0.010437535122036934
			],
			"translation":[
				-0.4657900929450989,
				-0.015482352115213871,
				-0.024077316746115685
			]
		},
		{
			"mesh":12,
			"name":"Cube.017",
			"scale":[
				1.3657855987548828,
				1.3657855987548828,
				1.3657855987548828
			]
		},
		{
			"mesh":13,
			"name":"Plane.002",
			"scale":[
				1.3657855987548828,
				1.3657855987548828,
				1.3657855987548828
			]
		}
	],
	"materials":[
		{
			"doubleSided":true,
			"name":"window",
			"pbrMetallicRoughness":{
				"metallicFactor":0,
				"roughnessFactor":0.5
			}
		}
	],
	"meshes":[
		{
			"name":"Cube.005",
			"primitives":[
				{
					"attributes":{
						"POSITION":0,
						"NORMAL":1,
						"TEXCOORD_0":2
					},
					"indices":3,
					"material":0
				}
			]
		},
		{
			"name":"Cube.023",
			"primitives":[
				{
					"attributes":{
						"POSITION":4,
						"NORMAL":5,
						"TEXCOORD_0":6
					},
					"indices":7,
					"material":0
				}
			]
		},
		{
			"name":"Cube.024",
			"primitives":[
				{
					"attributes":{
						"POSITION":8,
						"NORMAL":9,
						"TEXCOORD_0":10
					},
					"indices":11,
					"material":0
				}
			]
		},
		{
			"name":"Cube.025",
			"primitives":[
				{
					"attributes":{
						"POSITION":12,
						"NORMAL":13,
						"TEXCOORD_0":14
					},
					"indices":11,
					"material":0
				}
			]
		},
		{
			"name":"Cube.026",
			"primitives":[
				{
					"attributes":{
						"POSITION":15,
						"NORMAL":16,
						"TEXCOORD_0":17
					},
					"indices":11,
					"material":0
				}
			]
		},
		{
			"name":"Cube.027",
			"primitives":[
				{
					"attributes":{
						"POSITION":18,
						"NORMAL":19,
						"TEXCOORD_0":20
					},
					"indices":11,
					"material":0
				}
			]
		},
		{
			"name":"Cube.028",
			"primitives":[
				{
					"attributes":{
						"POSITION":21,
						"NORMAL":22,
						"TEXCOORD_0":23
					},
					"indices":11,
					"material":0
				}
			]
		},
		{
			"name":"Cube.029",
			"primitives":[
				{
					"attributes":{
						"POSITION":24,
						"NORMAL":25,
						"TEXCOORD_0":26
					},
					"indices":11,
					"material":0
				}
			]
		},
		{
			"name":"Cube.031",
			"primitives":[
				{
					"attributes":{
						"POSITION":27,
						"NORMAL":28,
						"TEXCOORD_0":29
					},
					"indices":30,
					"material":0
				}
			]
		},
		{
			"name":"Cube.032",
			"primitives":[
				{
					"attributes":{
						"POSITION":31,
						"NORMAL":32,
						"TEXCOORD_0":33
					},
					"indices":34,
					"material":0
				}
			]
		},
		{
			"name":"Cube.033",
			"primitives":[
				{
					"attributes":{
						"POSITION":35,
						"NORMAL":36,
						"TEXCOORD_0":37
					},
					"indices":38,
					"material":0
				}
			]
		},
		{
			"name":"Cube.034",
			"primitives":[
				{
					"attributes":{
						"POSITION":39,
						"NORMAL":40,
						"TEXCOORD_0":41
					},
					"indices":42,
					"material":0
				}
			]
		},
		{
			"name":"Cube.036",
			"primitives":[
				{
					"attributes":{
						"POSITION":43,
						"NORMAL":44,
						"TEXCOORD_0":45,
						"COLOR_0":46
					},
					"indices":47,
					"material":0
				}
			]
		},
		{
			"name":"Plane.001",
			"primitives":[
				{
					"attributes":{
						"POSITION":48,
						"NORMAL":49,
						"TEXCOORD_0":50,
						"COLOR_0":51
					},
					"indices":52,
					"material":0
				}
			]
		}
	],
	"accessors":[
		{
			"bufferView":0,
			"componentType":5126,
			"count":36,
			"max":[
				1,
				0.024476308375597,
				0.06693729758262634
			],
			"min":[
				-1,
				-0.024476308375597,
				-0.06693729758262634
			],
			"type":"VEC3"
		},
		{
			"bufferView":1,
			"componentType":5126,
			"count":36,
			"type":"VEC3"
		},
		{
			"bufferView":2,
			"componentType":5126,
			"count":36,
			"type":"VEC2"
		},
		{
			"bufferView":3,
			"componentType":5123,
			"count":60,
			"type":"SCALAR"
		},
		{
			"bufferView":4,
			"componentType":5126,
			"count":80,
			"max":[
				0.05762622877955437,
				0.9972296357154846,
				0.03863115981221199
			],
			"min":[
				-0.057625941932201385,
				-1,
				-0.03863115981221199
			],
			"type":"VEC3"
		},
		{
			"bufferView":5,
			"componentType":5126,
			"count":80,
			"type":"VEC3"
		},
		{
			"bufferView":6,
			"componentType":5126,
			"count":80,
			"type":"VEC2"
		},
		{
			"bufferView":7,
			"componentType":5123,
			"count":120,
			"type":"SCALAR"
		},
		{
			"bufferView":8,
			"componentType":5126,
			"count":24,
			"max":[
				1,
				1,
				1
			],
			"min":[
				-1,
				-1,
				-1
			],
			"type":"VEC3"
		},
		{
			"bufferView":9,
			"componentType":5126,
			"count":24,
			"type":"VEC3"
		},
		{
			"bufferView":10,
			"componentType":5126,
			"count":24,
			"type":"VEC2"
		},
		{
			"bufferView":11,
			"componentType":5123,
			"count":36,
			"type":"SCALAR"
		},
		{
			"bufferView":12,
			"componentType":5126,
			"count":24,
			"max":[
				1,
				1,
				1
			],
			"min":[
				-1,
				-1,
				-1
			],
			"type":"VEC3"
		},
		{
			"bufferView":13,
			"componentType":5126,
			"count":24,
			"type":"VEC3"
		},
		{
			"bufferView":14,
			"componentType":5126,
			"count":24,
			"type":"VEC2"
		},
		{
			"bufferView":15,
			"componentType":5126,
			"count":24,
			"max":[
				1,
				1,
				1
			],
			"min":[
				-1,
				-1,
				-1
			],
			"type":"VEC3"
		},
		{
			"bufferView":16,
			"componentType":5126,
			"count":24,
			"type":"VEC3"
		},
		{
			"bufferView":17,
			"componentType":5126,
			"count":24,
			"type":"VEC2"
		},
		{
			"bufferView":18,
			"componentType":5126,
			"count":24,
			"max":[
				1,
				1,
				1
			],
			"min":[
				-1,
				-1,
				-1
			],
			"type":"VEC3"
		},
		{
			"bufferView":19,
			"componentType":5126,
			"count":24,
			"type":"VEC3"
		},
		{
			"bufferView":20,
			"componentType":5126,
			"count":24,
			"type":"VEC2"
		},
		{
			"bufferView":21,
			"componentType":5126,
			"count":24,
			"max":[
				1,
				1,
				1
			],
			"min":[
				-1,
				-1,
				-1
			],
			"type":"VEC3"
		},
		{
			"bufferView":22,
			"componentType":5126,
			"count":24,
			"type":"VEC3"
		},
		{
			"bufferView":23,
			"componentType":5126,
			"count":24,
			"type":"VEC2"
		},
		{
			"bufferView":24,
			"componentType":5126,
			"count":24,
			"max":[
				1,
				1,
				1
			],
			"min":[
				-1,
				-1,
				-1
			],
			"type":"VEC3"
		},
		{
			"bufferView":25,
			"componentType":5126,
			"count":24,
			"type":"VEC3"
		},
		{
			"bufferView":26,
			"componentType":5126,
			"count":24,
			"type":"VEC2"
		},
		{
			"bufferView":27,
			"componentType":5126,
			"count":60,
			"max":[
				1,
				1,
				1.0000001192092896
			],
			"min":[
				-1,
				-4.085794925689697,
				-1.0000005960464478
			],
			"type":"VEC3"
		},
		{
			"bufferView":28,
			"componentType":5126,
			"count":60,
			"type":"VEC3"
		},
		{
			"bufferView":29,
			"componentType":5126,
			"count":60,
			"type":"VEC2"
		},
		{
			"bufferView":30,
			"componentType":5123,
			"count":108,
			"type":"SCALAR"
		},
		{
			"bufferView":31,
			"componentType":5126,
			"count":792,
			"max":[
				1,
				3.416348934173584,
				1.000000238418579
			],
			"min":[
				-1,
				-1,
				-1
			],
			"type":"VEC3"
		},
		{
			"bufferView":32,
			"componentType":5126,
			"count":792,
			"type":"VEC3"
		},
		{
			"bufferView":33,
			"componentType":5126,
			"count":792,
			"type":"VEC2"
		},
		{
			"bufferView":34,
			"componentType":5123,
			"count":3840,
			"type":"SCALAR"
		},
		{
			"bufferView":35,
			"componentType":5126,
			"count":60,
			"max":[
				1,
				2.115898609161377,
				1.0000001192092896
			],
			"min":[
				-1,
				-2.0925350189208984,
				-1.0000001192092896
			],
			"type":"VEC3"
		},
		{
			"bufferView":36,
			"componentType":5126,
			"count":60,
			"type":"VEC3"
		},
		{
			"bufferView":37,
			"componentType":5126,
			"count":60,
			"type":"VEC2"
		},
		{
			"bufferView":38,
			"componentType":5123,
			"count":108,
			"type":"SCALAR"
		},
		{
			"bufferView":39,
			"componentType":5126,
			"count":60,
			"max":[
				1,
				1,
				1
			],
			"min":[
				-1,
				-3.5896811485290527,
				-1.0000003576278687
			],
			"type":"VEC3"
		},
		{
			"bufferView":40,
			"componentType":5126,
			"count":60,
			"type":"VEC3"
		},
		{
			"bufferView":41,
			"componentType":5126,
			"count":60,
			"type":"VEC2"
		},
		{
			"bufferView":42,
			"componentType":5123,
			"count":108,
			"type":"SCALAR"
		},
		{
			"bufferView":43,
			"componentType":5126,
			"count":252,
			"max":[
				0.5931373238563538,
				0.5603587031364441,
				0.1542661488056183
			],
			"min":[
				-0.5931373238563538,
				-0.6655742526054382,
				0.006828863173723221
			],
			"type":"VEC3"
		},
		{
			"bufferView":44,
			"componentType":5126,
			"count":252,
			"type":"VEC3"
		},
		{
			"bufferView":45,
			"componentType":5126,
			"count":252,
			"type":"VEC2"
		},
		{
			"bufferView":46,
			"componentType":5126,
			"count":252,
			"type":"VEC3"
		},
		{
			"bufferView":47,
			"componentType":5123,
			"count":768,
			"type":"SCALAR"
		},
		{
			"bufferView":48,
			"componentType":5126,
			"count":336,
			"max":[
				0.668373703956604,
				0.6803528666496277,
				0.16319335997104645
			],
			"min":[
				-0.6480644941329956,
				0.4760487675666809,
				0.01348154991865158
			],
			"type":"VEC3"
		},
		{
			"bufferView":49,
			"componentType":5126,
			"count":336,
			"type":"VEC3"
		},
		{
			"bufferView":50,
			"componentType":5126,
			"count":336,
			"type":"VEC2"
		},
		{
			"bufferView":51,
			"componentType":5126,
			"count":336,
			"type":"VEC3"
		},
		{
			"bufferView":52,
			"componentType":5123,
			"count":768,
			"type":"SCALAR"
		}
	],
	"bufferViews":[
		{
			"buffer":0,
			"byteLength":432,
			"byteOffset":0,
			"target":34962
		},
		{
			"buffer":0,
			"byteLength":432,
			"byteOffset":432,
			"target":34962
		},
		{
			"buffer":0,
			"byteLength":288,
			"byteOffset":864,
			"target":34962
		},
		{
			"buffer":0,
			"byteLength":120,
			"byteOffset":1152,
			"target":34963
		},
		{
			"buffer":0,
			"byteLength":960,
			"byteOffset":1272,
			"target":34962
		},
		{
			"buffer":0,
			"byteLength":960,
			"byteOffset":2232,
			"target":34962
		},
		{
			"buffer":0,
			"byteLength":640,
			"byteOffset":3192,
			"target":34962
		},
		{
			"buffer":0,
			"byteLength":240,
			"byteOffset":3832,
			"target":34963
		},
		{
			"buffer":0,
			"byteLength":288,
			"byteOffset":4072,
			"target":34962
		},
		{
			"buffer":0,
			"byteLength":288,
			"byteOffset":4360,
			"target":34962
		},
		{
			"buffer":0,
			"byteLength":192,
			"byteOffset":4648,
			"target":34962
		},
		{
			"buffer":0,
			"byteLength":72,
			"byteOffset":4840,
			"target":34963
		},
		{
			"buffer":0,
			"byteLength":288,
			"byteOffset":4912,
			"target":34962
		},
		{
			"buffer":0,
			"byteLength":288,
			"byteOffset":5200,
			"target":34962
		},
		{
			"buffer":0,
			"byteLength":192,
			"byteOffset":5488,
			"target":34962
		},
		{
			"buffer":0,
			"byteLength":288,
			"byteOffset":5680,
			"target":34962
		},
		{
			"buffer":0,
			"byteLength":288,
			"byteOffset":5968,
			"target":34962
		},
		{
			"buffer":0,
			"byteLength":192,
			"byteOffset":6256,
			"target":34962
		},
		{
			"buffer":0,
			"byteLength":288,
			"byteOffset":6448,
			"target":34962
		},
		{
			"buffer":0,
			"byteLength":288,
			"byteOffset":6736,
			"target":34962
		},
		{
			"buffer":0,
			"byteLength":192,
			"byteOffset":7024,
			"target":34962
		},
		{
			"buffer":0,
			"byteLength":288,
			"byteOffset":7216,
			"target":34962
		},
		{
			"buffer":0,
			"byteLength":288,
			"byteOffset":7504,
			"target":34962
		},
		{
			"buffer":0,
			"byteLength":192,
			"byteOffset":7792,
			"target":34962
		},
		{
			"buffer":0,
			"byteLength":288,
			"byteOffset":7984,
			"target":34962
		},
		{
			"buffer":0,
			"byteLength":288,
			"byteOffset":8272,
			"target":34962
		},
		{
			"buffer":0,
			"byteLength":192,
			"byteOffset":8560,
			"target":34962
		},
		{
			"buffer":0,
			"byteLength":720,
			"byteOffset":8752,
			"target":34962
		},
		{
			"buffer":0,
			"byteLength":720,
			"byteOffset":9472,
			"target":34962
		},
		{
			"buffer":0,
			"byteLength":480,
			"byteOffset":10192,
			"target":34962
		},
		{
			"buffer":0,
			"byteLength":216,
			"byteOffset":10672,
			"target":34963
		},
		{
			"buffer":0,
			"byteLength":9504,
			"byteOffset":10888,
			"target":34962
		},
		{
			"buffer":0,
			"byteLength":9504,
			"byteOffset":20392,
			"target":34962
		},
		{
			"buffer":0,
			"byteLength":6336,
			"byteOffset":29896,
			"target":34962
		},
		{
			"buffer":0,
			"byteLength":7680,
			"byteOffset":36232,
			"target":34963
		},
		{
			"buffer":0,
			"byteLength":720,
			"byteOffset":43912,
			"target":34962
		},
		{
			"buffer":0,
			"byteLength":720,
			"byteOffset":44632,
			"target":34962
		},
		{
			"buffer":0,
			"byteLength":480,
			"byteOffset":45352,
			"target":34962
		},
		{
			"buffer":0,
			"byteLength":216,
			"byteOffset":45832,
			"target":34963
		},
		{
			"buffer":0,
			"byteLength":720,
			"byteOffset":46048,
			"target":34962
		},
		{
			"buffer":0,
			"byteLength":720,
			"byteOffset":46768,
			"target":34962
		},
		{
			"buffer":0,
			"byteLength":480,
			"byteOffset":47488,
			"target":34962
		},
		{
			"buffer":0,
			"byteLength":216,
			"byteOffset":47968,
			"target":34963
		},
		{
			"buffer":0,
			"byteLength":3024,
			"byteOffset":48184,
			"target":34962
		},
		{
			"buffer":0,
			"byteLength":3024,
			"byteOffset":51208,
			"target":34962
		},
		{
			"buffer":0,
			"byteLength":2016,
			"byteOffset":54232,
			"target":34962
		},
		{
			"buffer":0,
			"byteLength":3024,
			"byteOffset":56248,
			"target":34962
		},
		{
			"buffer":0,
			"byteLength":1536,
			"byteOffset":59272,
			"target":34963
		},
		{
			"buffer":0,
			"byteLength":4032,
			"byteOffset":60808,
			"target":34962
		},
		{
			"buffer":0,
			"byteLength":4032,
			"byteOffset":64840,
			"target":34962
		},
		{
			"buffer":0,
			"byteLength":2688,
			"byteOffset":68872,
			"target":34962
		},
		{
			"buffer":0,
			"byteLength":4032,
			"byteOffset":71560,
			"target":34962
		},
		{
			"buffer":0,
			"byteLength":1536,
			"byteOffset":75592,
			"target":34963
		}
	],
	"buffers":[
		{
			"byteLength":77128,
			"uri":"window_1_curtain.bin"
		}
	]
}
