{
	"asset":{
		"generator":"Khronos glTF Blender I/O v5.0.21",
		"version":"2.0"
	},
	"scene":0,
	"scenes":[
		{
			"name":"window1",
			"nodes":[
				0,
				1,
				2,
				3,
				4,
				5,
				6,
				7,
				8,
				9,
				10,
				11,
				12,
				13,
				14,
				15
			]
		}
	],
	"nodes":[
		{
			"mesh":0,
			"name":"Cube",
			"scale":[
				0.8190677165985107,
				0.7921600341796875,
				0.7921600341796875
			],
			"translation":[
				0.002121421042829752,
				-0.820035457611084,
				-0.0068173338659107685
			]
		},
		{
			"mesh":1,
			"name":"Cube.001",
			"scale":[
				0.7921600341796875,
				0.7921600341796875,
				0.7921600341796875
			],
			"translation":[
				-0.0005922953132539988,
				-0.027875442057847977,
				-0.0068173338659107685
			]
		},
		{
			"mesh":2,
			"name":"Cube.003",
			"scale":[
				0.7921600341796875,
				0.7921600341796875,
				0.7921600341796875
			],
			"translation":[
				-0.741245448589325,
				-0.027875442057847977,
				-0.0068173338659107685
			]
		},
		{
			"mesh":3,
			"name":"Cube.004",
			"scale":[
				0.7921600341796875,
				0.7921600341796875,
				0.7921600341796875
			],
			"translation":[
				0.7483106851577759,
				-0.027875442057847977,
				-0.0068173338659107685
			]
		},
		{
			"mesh":4,
			"name":"Cube.005",
			"rotation":[
				0,
				0,
				0.02406891994178295,
				0.9997103214263916
			],
			"translation":[
				-0.3696926534175873,
				0.5293940305709839,
				-0.024077242240309715
			]
		},
		{
			"mesh":5,
			"name":"Cube.006",
			"rotation":[
				0,
				0,
				-0.02684290148317814,
				0.9996396899223328
			],
			"translation":[
				-0.3696926534175873,
				0.006644127424806356,
				-0.024077311158180237
			]
		},
		{
			"mesh":6,
			"name":"Cube.007",
			"rotation":[
				0,
				0,
				0.03149911388754845,
				0.9995037913322449
			],
			"translation":[
				-0.3798103928565979,
				-0.6442639827728271,
				-0.02407739870250225
			]
		},
		{
			"mesh":7,
			"name":"Cube.008",
			"rotation":[
				0,
				0,
				-0.015967125073075294,
				0.9998725652694702
			],
			"translation":[
				0.37227505445480347,
				-0.6543817520141602,
				-0.0240774005651474
			]
		},
		{
			"mesh":8,
			"name":"Cube.009",
			"rotation":[
				0,
				0,
				-0.007968377321958542,
				0.9999682903289795
			],
			"translation":[
				0.4026282727718353,
				0.026879506185650826,
				-0.024077309295535088
			]
		},
		{
			"mesh":9,
			"name":"Cube.010",
			"rotation":[
				0,
				0,
				-0.02389337122440338,
				0.9997146129608154
			],
			"translation":[
				0.3891379237174988,
				0.569864809513092,
				-0.02407723478972912
			]
		},
		{
			"mesh":10,
			"name":"Cube.011",
			"scale":[
				0.8190677165985107,
				0.7921600341796875,
				0.7921600341796875
			],
			"translation":[
				0.002121421042829752,
				0.7642846703529358,
				-0.0068173338659107685
			]
		},
		{
			"mesh":11,
			"name":"Cube.012",
			"rotation":[
				0,
				0,
				-0.697063148021698,
				0.7170097231864929
			],
			"translation":[
				0.2614220678806305,
				-0.03195640817284584,
				-0.024077318608760834
			]
		},
		{
			"mesh":12,
			"name":"Cube.013",
			"rotation":[
				0,
				0,
				-0.7094956636428833,
				0.7047098875045776
			],
			"translation":[
				0.49676573276519775,
				-0.020189225673675537,
				-0.024077316746115685
			]
		},
		{
			"mesh":13,
			"name":"Cube.014",
			"rotation":[
				0,
				0,
				-0.7007109522819519,
				0.7134453058242798
			],
			"translation":[
				-0.22809293866157532,
				-0.01312891487032175,
				-0.024077316746115685
			]
		},
		{
			"mesh":14,
			"name":"Cube.015",
			"rotation":[
				0,
				0,
				-0.708434522151947,
				0.705776572227478
			],
			"translation":[
				-0.4657900929450989,
				-0.015482352115213871,
				-0.024077316746115685
			]
		},
		{
			"mesh":15,
			"name":"Plane.004",
			"rotation":[
				0.7071068286895752,
				0,
				0,
				0.7071068286895752
			],
			"translation":[
				0,
				0,
				-0.02425427734851837
			]
		}
	],
	"materials":[
		{
			"doubleSided":true,
			"name":"window",
			"pbrMetallicRoughness":{
				"metallicFactor":0,
				"roughnessFactor":0.5
			}
		},
		{
			"doubleSided":true,
			"emissiveFactor":[
				0.0007343535544350743,
				0.0007343535544350743,
				0.0007343535544350743
			],
			"name":"black",
			"pbrMetallicRoughness":{
				"baseColorFactor":[
					0,
					0,
					0,
					1
				]
			}
		}
	],
	"meshes":[
		{
			"name":"Cube.005",
			"primitives":[
				{
					"attributes":{
						"POSITION":0,
						"NORMAL":1,
						"TEXCOORD_0":2,
						"COLOR_0":3
					},
					"indices":4,
					"material":0
				}
			]
		},
		{
			"name":"Cube.023",
			"primitives":[
				{
					"attributes":{
						"POSITION":5,
						"NORMAL":6,
						"TEXCOORD_0":7,
						"COLOR_0":8
					},
					"indices":9,
					"material":0
				}
			]
		},
		{
			"name":"Cube.023",
			"primitives":[
				{
					"attributes":{
						"POSITION":10,
						"NORMAL":11,
						"TEXCOORD_0":12,
						"COLOR_0":13
					},
					"indices":9,
					"material":0
				}
			]
		},
		{
			"name":"Cube.023",
			"primitives":[
				{
					"attributes":{
						"POSITION":14,
						"NORMAL":15,
						"TEXCOORD_0":16,
						"COLOR_0":17
					},
					"indices":9,
					"material":0
				}
			]
		},
		{
			"name":"Cube.024",
			"primitives":[
				{
					"attributes":{
						"POSITION":18,
						"NORMAL":19,
						"TEXCOORD_0":20,
						"COLOR_0":21
					},
					"indices":22,
					"material":0
				}
			]
		},
		{
			"name":"Cube.025",
			"primitives":[
				{
					"attributes":{
						"POSITION":23,
						"NORMAL":24,
						"TEXCOORD_0":25,
						"COLOR_0":26
					},
					"indices":22,
					"material":0
				}
			]
		},
		{
			"name":"Cube.026",
			"primitives":[
				{
					"attributes":{
						"POSITION":27,
						"NORMAL":28,
						"TEXCOORD_0":29,
						"COLOR_0":30
					},
					"indices":22,
					"material":0
				}
			]
		},
		{
			"name":"Cube.027",
			"primitives":[
				{
					"attributes":{
						"POSITION":31,
						"NORMAL":32,
						"TEXCOORD_0":33,
						"COLOR_0":34
					},
					"indices":22,
					"material":0
				}
			]
		},
		{
			"name":"Cube.028",
			"primitives":[
				{
					"attributes":{
						"POSITION":35,
						"NORMAL":36,
						"TEXCOORD_0":37,
						"COLOR_0":38
					},
					"indices":22,
					"material":0
				}
			]
		},
		{
			"name":"Cube.029",
			"primitives":[
				{
					"attributes":{
						"POSITION":39,
						"NORMAL":40,
						"TEXCOORD_0":41,
						"COLOR_0":42
					},
					"indices":22,
					"material":0
				}
			]
		},
		{
			"name":"Cube.005",
			"primitives":[
				{
					"attributes":{
						"POSITION":43,
						"NORMAL":44,
						"TEXCOORD_0":45,
						"COLOR_0":46
					},
					"indices":4,
					"material":0
				}
			]
		},
		{
			"name":"Cube.031",
			"primitives":[
				{
					"attributes":{
						"POSITION":47,
						"NORMAL":48,
						"TEXCOORD_0":49,
						"COLOR_0":50
					},
					"indices":51,
					"material":0
				}
			]
		},
		{
			"name":"Cube.032",
			"primitives":[
				{
					"attributes":{
						"POSITION":52,
						"NORMAL":53,
						"TEXCOORD_0":54,
						"COLOR_0":55
					},
					"indices":56,
					"material":0
				}
			]
		},
		{
			"name":"Cube.033",
			"primitives":[
				{
					"attributes":{
						"POSITION":57,
						"NORMAL":58,
						"TEXCOORD_0":59,
						"COLOR_0":60
					},
					"indices":61,
					"material":0
				}
			]
		},
		{
			"name":"Cube.034",
			"primitives":[
				{
					"attributes":{
						"POSITION":62,
						"NORMAL":63,
						"TEXCOORD_0":64,
						"COLOR_0":65
					},
					"indices":66,
					"material":0
				}
			]
		},
		{
			"name":"Plane",
			"primitives":[
				{
					"attributes":{
						"POSITION":67,
						"NORMAL":68,
						"TEXCOORD_0":69
					},
					"indices":70,
					"material":1
				}
			]
		}
	],
	"accessors":[
		{
			"bufferView":0,
			"componentType":5126,
			"count":36,
			"max":[
				1,
				0.024476308375597,
				0.06693729758262634
			],
			"min":[
				-1,
				-0.024476308375597,
				-0.06693729758262634
			],
			"type":"VEC3"
		},
		{
			"bufferView":1,
			"componentType":5126,
			"count":36,
			"type":"VEC3"
		},
		{
			"bufferView":2,
			"componentType":5126,
			"count":36,
			"type":"VEC2"
		},
		{
			"bufferView":3,
			"componentType":5126,
			"count":36,
			"type":"VEC3"
		},
		{
			"bufferView":4,
			"componentType":5123,
			"count":60,
			"type":"SCALAR"
		},
		{
			"bufferView":5,
			"componentType":5126,
			"count":80,
			"max":[
				0.05762622877955437,
				0.9972296357154846,
				0.03863115981221199
			],
			"min":[
				-0.057625941932201385,
				-1,
				-0.03863115981221199
			],
			"type":"VEC3"
		},
		{
			"bufferView":6,
			"componentType":5126,
			"count":80,
			"type":"VEC3"
		},
		{
			"bufferView":7,
			"componentType":5126,
			"count":80,
			"type":"VEC2"
		},
		{
			"bufferView":8,
			"componentType":5126,
			"count":80,
			"type":"VEC3"
		},
		{
			"bufferView":9,
			"componentType":5123,
			"count":120,
			"type":"SCALAR"
		},
		{
			"bufferView":10,
			"componentType":5126,
			"count":80,
			"max":[
				0.05762622877955437,
				0.9972296357154846,
				0.03863115981221199
			],
			"min":[
				-0.057625941932201385,
				-1,
				-0.03863115981221199
			],
			"type":"VEC3"
		},
		{
			"bufferView":11,
			"componentType":5126,
			"count":80,
			"type":"VEC3"
		},
		{
			"bufferView":12,
			"componentType":5126,
			"count":80,
			"type":"VEC2"
		},
		{
			"bufferView":13,
			"componentType":5126,
			"count":80,
			"type":"VEC3"
		},
		{
			"bufferView":14,
			"componentType":5126,
			"count":80,
			"max":[
				0.05762622877955437,
				0.9972296357154846,
				0.03863115981221199
			],
			"min":[
				-0.057625941932201385,
				-1,
				-0.03863115981221199
			],
			"type":"VEC3"
		},
		{
			"bufferView":15,
			"componentType":5126,
			"count":80,
			"type":"VEC3"
		},
		{
			"bufferView":16,
			"componentType":5126,
			"count":80,
			"type":"VEC2"
		},
		{
			"bufferView":17,
			"componentType":5126,
			"count":80,
			"type":"VEC3"
		},
		{
			"bufferView":18,
			"componentType":5126,
			"count":24,
			"max":[
				0.3870457410812378,
				0.009473451413214207,
				0.010437535122036934
			],
			"min":[
				-0.3870457410812378,
				-0.009473451413214207,
				-0.010437535122036934
			],
			"type":"VEC3"
		},
		{
			"bufferView":19,
			"componentType":5126,
			"count":24,
			"type":"VEC3"
		},
		{
			"bufferView":20,
			"componentType":5126,
			"count":24,
			"type":"VEC2"
		},
		{
			"bufferView":21,
			"componentType":5126,
			"count":24,
			"type":"VEC3"
		},
		{
			"bufferView":22,
			"componentType":5123,
			"count":36,
			"type":"SCALAR"
		},
		{
			"bufferView":23,
			"componentType":5126,
			"count":24,
			"max":[
				0.3870457410812378,
				0.009473451413214207,
				0.010437535122036934
			],
			"min":[
				-0.3870457410812378,
				-0.009473451413214207,
				-0.010437535122036934
			],
			"type":"VEC3"
		},
		{
			"bufferView":24,
			"componentType":5126,
			"count":24,
			"type":"VEC3"
		},
		{
			"bufferView":25,
			"componentType":5126,
			"count":24,
			"type":"VEC2"
		},
		{
			"bufferView":26,
			"componentType":5126,
			"count":24,
			"type":"VEC3"
		},
		{
			"bufferView":27,
			"componentType":5126,
			"count":24,
			"max":[
				0.3870457410812378,
				0.009473450481891632,
				0.010437535122036934
			],
			"min":[
				-0.3870457410812378,
				-0.009473450481891632,
				-0.010437535122036934
			],
			"type":"VEC3"
		},
		{
			"bufferView":28,
			"componentType":5126,
			"count":24,
			"type":"VEC3"
		},
		{
			"bufferView":29,
			"componentType":5126,
			"count":24,
			"type":"VEC2"
		},
		{
			"bufferView":30,
			"componentType":5126,
			"count":24,
			"type":"VEC3"
		},
		{
			"bufferView":31,
			"componentType":5126,
			"count":24,
			"max":[
				0.38704580068588257,
				0.009473451413214207,
				0.010437535122036934
			],
			"min":[
				-0.38704580068588257,
				-0.009473451413214207,
				-0.010437535122036934
			],
			"type":"VEC3"
		},
		{
			"bufferView":32,
			"componentType":5126,
			"count":24,
			"type":"VEC3"
		},
		{
			"bufferView":33,
			"componentType":5126,
			"count":24,
			"type":"VEC2"
		},
		{
			"bufferView":34,
			"componentType":5126,
			"count":24,
			"type":"VEC3"
		},
		{
			"bufferView":35,
			"componentType":5126,
			"count":24,
			"max":[
				0.3870457708835602,
				0.009473450481891632,
				0.010437535122036934
			],
			"min":[
				-0.3870457708835602,
				-0.009473450481891632,
				-0.010437535122036934
			],
			"type":"VEC3"
		},
		{
			"bufferView":36,
			"componentType":5126,
			"count":24,
			"type":"VEC3"
		},
		{
			"bufferView":37,
			"componentType":5126,
			"count":24,
			"type":"VEC2"
		},
		{
			"bufferView":38,
			"componentType":5126,
			"count":24,
			"type":"VEC3"
		},
		{
			"bufferView":39,
			"componentType":5126,
			"count":24,
			"max":[
				0.38704580068588257,
				0.009473452344536781,
				0.010437535122036934
			],
			"min":[
				-0.38704580068588257,
				-0.009473452344536781,
				-0.010437535122036934
			],
			"type":"VEC3"
		},
		{
			"bufferView":40,
			"componentType":5126,
			"count":24,
			"type":"VEC3"
		},
		{
			"bufferView":41,
			"componentType":5126,
			"count":24,
			"type":"VEC2"
		},
		{
			"bufferView":42,
			"componentType":5126,
			"count":24,
			"type":"VEC3"
		},
		{
			"bufferView":43,
			"componentType":5126,
			"count":36,
			"max":[
				1,
				0.024476308375597,
				0.06693729758262634
			],
			"min":[
				-1,
				-0.024476308375597,
				-0.06693729758262634
			],
			"type":"VEC3"
		},
		{
			"bufferView":44,
			"componentType":5126,
			"count":36,
			"type":"VEC3"
		},
		{
			"bufferView":45,
			"componentType":5126,
			"count":36,
			"type":"VEC2"
		},
		{
			"bufferView":46,
			"componentType":5126,
			"count":36,
			"type":"VEC3"
		},
		{
			"bufferView":47,
			"componentType":5126,
			"count":60,
			"max":[
				0.7892251014709473,
				0.009473452344536781,
				0.010437536053359509
			],
			"min":[
				-0.7892251014709473,
				-0.03870658203959465,
				-0.010437541641294956
			],
			"type":"VEC3"
		},
		{
			"bufferView":48,
			"componentType":5126,
			"count":60,
			"type":"VEC3"
		},
		{
			"bufferView":49,
			"componentType":5126,
			"count":60,
			"type":"VEC2"
		},
		{
			"bufferView":50,
			"componentType":5126,
			"count":60,
			"type":"VEC3"
		},
		{
			"bufferView":51,
			"componentType":5123,
			"count":108,
			"type":"SCALAR"
		},
		{
			"bufferView":52,
			"componentType":5126,
			"count":792,
			"max":[
				0.7892252206802368,
				0.032364621758461,
				0.010437537916004658
			],
			"min":[
				-0.7892252206802368,
				-0.009473453275859356,
				-0.010437535122036934
			],
			"type":"VEC3"
		},
		{
			"bufferView":53,
			"componentType":5126,
			"count":792,
			"type":"VEC3"
		},
		{
			"bufferView":54,
			"componentType":5126,
			"count":792,
			"type":"VEC2"
		},
		{
			"bufferView":55,
			"componentType":5126,
			"count":792,
			"type":"VEC3"
		},
		{
			"bufferView":56,
			"componentType":5123,
			"count":3840,
			"type":"SCALAR"
		},
		{
			"bufferView":57,
			"componentType":5126,
			"count":60,
			"max":[
				0.7892251014709473,
				0.02004486508667469,
				0.010437536053359509
			],
			"min":[
				-0.7892251014709473,
				-0.019823530688881874,
				-0.010437536053359509
			],
			"type":"VEC3"
		},
		{
			"bufferView":58,
			"componentType":5126,
			"count":60,
			"type":"VEC3"
		},
		{
			"bufferView":59,
			"componentType":5126,
			"count":60,
			"type":"VEC2"
		},
		{
			"bufferView":60,
			"componentType":5126,
			"count":60,
			"type":"VEC3"
		},
		{
			"bufferView":61,
			"componentType":5123,
			"count":108,
			"type":"SCALAR"
		},
		{
			"bufferView":62,
			"componentType":5126,
			"count":60,
			"max":[
				0.7892252206802368,
				0.009473452344536781,
				0.010437535122036934
			],
			"min":[
				-0.7892252206802368,
				-0.03400667384266853,
				-0.010437538847327232
			],
			"type":"VEC3"
		},
		{
			"bufferView":63,
			"componentType":5126,
			"count":60,
			"type":"VEC3"
		},
		{
			"bufferView":64,
			"componentType":5126,
			"count":60,
			"type":"VEC2"
		},
		{
			"bufferView":65,
			"componentType":5126,
			"count":60,
			"type":"VEC3"
		},
		{
			"bufferView":66,
			"componentType":5123,
			"count":108,
			"type":"SCALAR"
		},
		{
			"bufferView":67,
			"componentType":5126,
			"count":4,
			"max":[
				0.7545453310012817,
				2.4426620726103465e-09,
				0.8104269504547119
			],
			"min":[
				-0.7545453310012817,
				0,
				-0.7545453310012817
			],
			"type":"VEC3"
		},
		{
			"bufferView":68,
			"componentType":5126,
			"count":4,
			"type":"VEC3"
		},
		{
			"bufferView":69,
			"componentType":5126,
			"count":4,
			"type":"VEC2"
		},
		{
			"bufferView":70,
			"componentType":5123,
			"count":6,
			"type":"SCALAR"
		}
	],
	"bufferViews":[
		{
			"buffer":0,
			"byteLength":432,
			"byteOffset":0,
			"target":34962
		},
		{
			"buffer":0,
			"byteLength":432,
			"byteOffset":432,
			"target":34962
		},
		{
			"buffer":0,
			"byteLength":288,
			"byteOffset":864,
			"target":34962
		},
		{
			"buffer":0,
			"byteLength":432,
			"byteOffset":1152,
			"target":34962
		},
		{
			"buffer":0,
			"byteLength":120,
			"byteOffset":1584,
			"target":34963
		},
		{
			"buffer":0,
			"byteLength":960,
			"byteOffset":1704,
			"target":34962
		},
		{
			"buffer":0,
			"byteLength":960,
			"byteOffset":2664,
			"target":34962
		},
		{
			"buffer":0,
			"byteLength":640,
			"byteOffset":3624,
			"target":34962
		},
		{
			"buffer":0,
			"byteLength":960,
			"byteOffset":4264,
			"target":34962
		},
		{
			"buffer":0,
			"byteLength":240,
			"byteOffset":5224,
			"target":34963
		},
		{
			"buffer":0,
			"byteLength":960,
			"byteOffset":5464,
			"target":34962
		},
		{
			"buffer":0,
			"byteLength":960,
			"byteOffset":6424,
			"target":34962
		},
		{
			"buffer":0,
			"byteLength":640,
			"byteOffset":7384,
			"target":34962
		},
		{
			"buffer":0,
			"byteLength":960,
			"byteOffset":8024,
			"target":34962
		},
		{
			"buffer":0,
			"byteLength":960,
			"byteOffset":8984,
			"target":34962
		},
		{
			"buffer":0,
			"byteLength":960,
			"byteOffset":9944,
			"target":34962
		},
		{
			"buffer":0,
			"byteLength":640,
			"byteOffset":10904,
			"target":34962
		},
		{
			"buffer":0,
			"byteLength":960,
			"byteOffset":11544,
			"target":34962
		},
		{
			"buffer":0,
			"byteLength":288,
			"byteOffset":12504,
			"target":34962
		},
		{
			"buffer":0,
			"byteLength":288,
			"byteOffset":12792,
			"target":34962
		},
		{
			"buffer":0,
			"byteLength":192,
			"byteOffset":13080,
			"target":34962
		},
		{
			"buffer":0,
			"byteLength":288,
			"byteOffset":13272,
			"target":34962
		},
		{
			"buffer":0,
			"byteLength":72,
			"byteOffset":13560,
			"target":34963
		},
		{
			"buffer":0,
			"byteLength":288,
			"byteOffset":13632,
			"target":34962
		},
		{
			"buffer":0,
			"byteLength":288,
			"byteOffset":13920,
			"target":34962
		},
		{
			"buffer":0,
			"byteLength":192,
			"byteOffset":14208,
			"target":34962
		},
		{
			"buffer":0,
			"byteLength":288,
			"byteOffset":14400,
			"target":34962
		},
		{
			"buffer":0,
			"byteLength":288,
			"byteOffset":14688,
			"target":34962
		},
		{
			"buffer":0,
			"byteLength":288,
			"byteOffset":14976,
			"target":34962
		},
		{
			"buffer":0,
			"byteLength":192,
			"byteOffset":15264,
			"target":34962
		},
		{
			"buffer":0,
			"byteLength":288,
			"byteOffset":15456,
			"target":34962
		},
		{
			"buffer":0,
			"byteLength":288,
			"byteOffset":15744,
			"target":34962
		},
		{
			"buffer":0,
			"byteLength":288,
			"byteOffset":16032,
			"target":34962
		},
		{
			"buffer":0,
			"byteLength":192,
			"byteOffset":16320,
			"target":34962
		},
		{
			"buffer":0,
			"byteLength":288,
			"byteOffset":16512,
			"target":34962
		},
		{
			"buffer":0,
			"byteLength":288,
			"byteOffset":16800,
			"target":34962
		},
		{
			"buffer":0,
			"byteLength":288,
			"byteOffset":17088,
			"target":34962
		},
		{
			"buffer":0,
			"byteLength":192,
			"byteOffset":17376,
			"target":34962
		},
		{
			"buffer":0,
			"byteLength":288,
			"byteOffset":17568,
			"target":34962
		},
		{
			"buffer":0,
			"byteLength":288,
			"byteOffset":17856,
			"target":34962
		},
		{
			"buffer":0,
			"byteLength":288,
			"byteOffset":18144,
			"target":34962
		},
		{
			"buffer":0,
			"byteLength":192,
			"byteOffset":18432,
			"target":34962
		},
		{
			"buffer":0,
			"byteLength":288,
			"byteOffset":18624,
			"target":34962
		},
		{
			"buffer":0,
			"byteLength":432,
			"byteOffset":18912,
			"target":34962
		},
		{
			"buffer":0,
			"byteLength":432,
			"byteOffset":19344,
			"target":34962
		},
		{
			"buffer":0,
			"byteLength":288,
			"byteOffset":19776,
			"target":34962
		},
		{
			"buffer":0,
			"byteLength":432,
			"byteOffset":20064,
			"target":34962
		},
		{
			"buffer":0,
			"byteLength":720,
			"byteOffset":20496,
			"target":34962
		},
		{
			"buffer":0,
			"byteLength":720,
			"byteOffset":21216,
			"target":34962
		},
		{
			"buffer":0,
			"byteLength":480,
			"byteOffset":21936,
			"target":34962
		},
		{
			"buffer":0,
			"byteLength":720,
			"byteOffset":22416,
			"target":34962
		},
		{
			"buffer":0,
			"byteLength":216,
			"byteOffset":23136,
			"target":34963
		},
		{
			"buffer":0,
			"byteLength":9504,
			"byteOffset":23352,
			"target":34962
		},
		{
			"buffer":0,
			"byteLength":9504,
			"byteOffset":32856,
			"target":34962
		},
		{
			"buffer":0,
			"byteLength":6336,
			"byteOffset":42360,
			"target":34962
		},
		{
			"buffer":0,
			"byteLength":9504,
			"byteOffset":48696,
			"target":34962
		},
		{
			"buffer":0,
			"byteLength":7680,
			"byteOffset":58200,
			"target":34963
		},
		{
			"buffer":0,
			"byteLength":720,
			"byteOffset":65880,
			"target":34962
		},
		{
			"buffer":0,
			"byteLength":720,
			"byteOffset":66600,
			"target":34962
		},
		{
			"buffer":0,
			"byteLength":480,
			"byteOffset":67320,
			"target":34962
		},
		{
			"buffer":0,
			"byteLength":720,
			"byteOffset":67800,
			"target":34962
		},
		{
			"buffer":0,
			"byteLength":216,
			"byteOffset":68520,
			"target":34963
		},
		{
			"buffer":0,
			"byteLength":720,
			"byteOffset":68736,
			"target":34962
		},
		{
			"buffer":0,
			"byteLength":720,
			"byteOffset":69456,
			"target":34962
		},
		{
			"buffer":0,
			"byteLength":480,
			"byteOffset":70176,
			"target":34962
		},
		{
			"buffer":0,
			"byteLength":720,
			"byteOffset":70656,
			"target":34962
		},
		{
			"buffer":0,
			"byteLength":216,
			"byteOffset":71376,
			"target":34963
		},
		{
			"buffer":0,
			"byteLength":48,
			"byteOffset":71592,
			"target":34962
		},
		{
			"buffer":0,
			"byteLength":48,
			"byteOffset":71640,
			"target":34962
		},
		{
			"buffer":0,
			"byteLength":32,
			"byteOffset":71688,
			"target":34962
		},
		{
			"buffer":0,
			"byteLength":12,
			"byteOffset":71720,
			"target":34963
		}
	],
	"buffers":[
		{
			"byteLength":71732,
			"uri":"window1.bin"
		}
	]
}
